<svg width="134" height="30" viewBox="0 0 134 30" fill="none" xmlns="http://www.w3.org/2000/svg">
<path d="M20.0576 24.1425C20.0576 27.0702 17.6842 29.4436 14.7565 29.4436C11.8288 29.4436 9.45542 27.0702 9.45542 24.1425L9.45542 5.37276C9.45542 2.44505 11.8288 0.0716641 14.7565 0.0716643C17.6842 0.0716646 20.0576 2.44505 20.0576 5.37277L20.0576 24.1425Z" fill="#2E37A4"/>
<path d="M14.8875 9.5271C17.7763 9.5271 20.1182 11.8689 20.1182 14.7577C20.1182 17.6465 17.7763 19.9883 14.8875 19.9883L5.23103 19.9883C2.34223 19.9883 0.000398281 17.6465 0.000398407 14.7577C0.000398533 11.8689 2.34223 9.5271 5.23102 9.5271L14.8875 9.5271Z" fill="#2E37A4"/>
<path d="M24.1414 9.5271C27.0302 9.5271 29.3721 11.8689 29.3721 14.7577C29.3721 17.6465 27.0302 19.9883 24.1414 19.9883L14.6861 19.9883C11.7973 19.9883 9.45548 17.6465 9.45548 14.7577C9.45548 11.8689 11.7973 9.5271 14.6861 9.5271L24.1414 9.5271Z" fill="#00D3C7"/>
<path d="M20.1182 9.5271L20.1182 19.9883L14.6864 19.9883C11.7976 19.9883 9.45575 17.6465 9.45575 14.7577C9.45575 11.8689 11.7976 9.5271 14.6864 9.5271L20.1182 9.5271Z" fill="white"/>
<path d="M44.4049 5.56426C46.2192 5.56426 47.7461 6.17358 48.9856 7.39222C50.2251 8.61086 50.8449 10.1073 50.8449 11.8815C50.8449 13.6557 50.2251 15.1521 48.9856 16.3707C47.7461 17.5894 46.2192 18.1987 44.4049 18.1987H41.0906V24.3815H37.3721V5.56426H44.4049ZM44.4049 14.7309C45.1953 14.7309 45.851 14.4621 46.3719 13.9245C46.8929 13.3689 47.1533 12.6879 47.1533 11.8815C47.1533 11.0571 46.8929 10.3761 46.3719 9.83846C45.851 9.30082 45.1953 9.03201 44.4049 9.03201H41.0906V14.7309H44.4049Z" fill="white"/>
<path d="M55.4823 13.2524C55.8056 12.3922 56.3356 11.7471 57.0721 11.317C57.8266 10.8868 58.6619 10.6718 59.578 10.6718V14.5428C58.5182 14.4173 57.5661 14.6324 56.7218 15.1879C55.8955 15.7435 55.4823 16.6664 55.4823 17.9567V24.3815H52.0063V10.9406H55.4823V13.2524Z" fill="white"/>
<path d="M63.2397 19.0858C63.7067 20.7704 64.9732 21.6126 67.039 21.6126C68.3683 21.6126 69.3743 21.1646 70.0569 20.2686L72.8593 21.8815C71.53 23.799 69.5719 24.7578 66.9851 24.7578C64.7576 24.7578 62.9702 24.0858 61.6229 22.7417C60.2757 21.3976 59.602 19.704 59.602 17.661C59.602 15.6359 60.2667 13.9514 61.596 12.6073C62.9253 11.2453 64.6319 10.5643 66.7157 10.5643C68.6917 10.5643 70.3174 11.2453 71.5928 12.6073C72.8862 13.9693 73.5329 15.6539 73.5329 17.661C73.5329 18.1091 73.488 18.584 73.3982 19.0858H63.2397ZM63.1858 16.3976H70.0569C69.8593 15.4836 69.4462 14.8026 68.8174 14.3546C68.2067 13.9066 67.5061 13.6825 66.7157 13.6825C65.7816 13.6825 65.0091 13.9245 64.3984 14.4083C63.7876 14.8743 63.3834 15.5374 63.1858 16.3976Z" fill="white"/>
<path d="M81.459 24.7578C79.429 24.7578 77.7315 24.0768 76.3662 22.7148C75.0189 21.3528 74.3453 19.6682 74.3453 17.661C74.3453 15.6539 75.0189 13.9693 76.3662 12.6073C77.7315 11.2453 79.429 10.5643 81.459 10.5643C82.7703 10.5643 83.9649 10.8779 85.0427 11.5051C86.1205 12.1324 86.9379 12.9747 87.4948 14.032L84.5038 15.7793C84.2344 15.2238 83.8212 14.7847 83.2643 14.4621C82.7254 14.1395 82.1146 13.9782 81.432 13.9782C80.3901 13.9782 79.5278 14.3277 78.8452 15.0266C78.1626 15.7076 77.8213 16.5858 77.8213 17.661C77.8213 18.7184 78.1626 19.5965 78.8452 20.2954C79.5278 20.9764 80.3901 21.317 81.432 21.317C82.1326 21.317 82.7523 21.1646 83.2913 20.86C83.8481 20.5374 84.2613 20.0983 84.5308 19.5428L87.5487 21.2632C86.9559 22.3205 86.1205 23.1718 85.0427 23.817C83.9649 24.4442 82.7703 24.7578 81.459 24.7578Z" fill="white"/>
<path d="M88.5787 24.3815V4.75781H92.0547V24.3815H88.5787Z" fill="white"/>
<path d="M96.1523 9.3277C95.5775 9.3277 95.0745 9.12161 94.6434 8.70943C94.2302 8.27932 94.0236 7.77752 94.0236 7.20405C94.0236 6.63057 94.2302 6.12878 94.6434 5.69867C95.0745 5.26856 95.5775 5.05351 96.1523 5.05351C96.7451 5.05351 97.2481 5.26856 97.6613 5.69867C98.0924 6.12878 98.308 6.63057 98.308 7.20405C98.308 7.77752 98.0924 8.27932 97.6613 8.70943C97.2481 9.12161 96.7451 9.3277 96.1523 9.3277ZM94.4278 24.3815V10.9406H97.9038V24.3815H94.4278Z" fill="white"/>
<path d="M107.768 10.5643C109.241 10.5643 110.453 11.0571 111.405 12.0428C112.376 13.0284 112.861 14.3904 112.861 16.1288V24.3815H109.385V16.5589C109.385 15.6628 109.142 14.9818 108.657 14.5159C108.172 14.032 107.525 13.7901 106.717 13.7901C105.819 13.7901 105.1 14.0678 104.561 14.6234C104.022 15.179 103.753 16.0123 103.753 17.1234V24.3815H100.277V10.9406H103.753V12.446C104.597 11.1915 105.936 10.5643 107.768 10.5643Z" fill="white"/>
<path d="M116.745 9.3277C116.17 9.3277 115.667 9.12161 115.236 8.70943C114.823 8.27932 114.616 7.77752 114.616 7.20405C114.616 6.63057 114.823 6.12878 115.236 5.69867C115.667 5.26856 116.17 5.05351 116.745 5.05351C117.338 5.05351 117.84 5.26856 118.254 5.69867C118.685 6.12878 118.9 6.63057 118.9 7.20405C118.9 7.77752 118.685 8.27932 118.254 8.70943C117.84 9.12161 117.338 9.3277 116.745 9.3277ZM115.02 24.3815V10.9406H118.496V24.3815H115.02Z" fill="white"/>
<path d="M127.282 24.7578C125.252 24.7578 123.555 24.0768 122.19 22.7148C120.842 21.3528 120.169 19.6682 120.169 17.661C120.169 15.6539 120.842 13.9693 122.19 12.6073C123.555 11.2453 125.252 10.5643 127.282 10.5643C128.594 10.5643 129.788 10.8779 130.866 11.5051C131.944 12.1324 132.761 12.9747 133.318 14.032L130.327 15.7793C130.058 15.2238 129.645 14.7847 129.088 14.4621C128.549 14.1395 127.938 13.9782 127.255 13.9782C126.214 13.9782 125.351 14.3277 124.669 15.0266C123.986 15.7076 123.645 16.5858 123.645 17.661C123.645 18.7184 123.986 19.5965 124.669 20.2954C125.351 20.9764 126.214 21.317 127.255 21.317C127.956 21.317 128.576 21.1646 129.115 20.86C129.672 20.5374 130.085 20.0983 130.354 19.5428L133.372 21.2632C132.779 22.3205 131.944 23.1718 130.866 23.817C129.788 24.4442 128.594 24.7578 127.282 24.7578Z" fill="white"/>
</svg>
