<svg width="32" height="32" viewBox="0 0 32 32" fill="none" xmlns="http://www.w3.org/2000/svg">
<path d="M21.2695 25.2025C21.2695 28.0731 18.9424 30.4001 16.0718 30.4001V30.4001C13.2012 30.4001 10.8741 28.0731 10.8741 25.2025L10.8741 6.79784C10.8741 3.92723 13.2012 1.60015 16.0718 1.60015V1.60015C18.9424 1.60015 21.2695 3.92723 21.2695 6.79784L21.2695 25.2025Z" fill="#2E37A4"/>
<path d="M16.1994 10.8713C19.0319 10.8713 21.3281 13.1676 21.3281 16.0001V16.0001C21.3281 18.8326 19.0319 21.1289 16.1994 21.1289L6.73155 21.1289C3.89901 21.1289 1.60279 18.8326 1.60279 16.0001V16.0001C1.60279 13.1676 3.89901 10.8713 6.73155 10.8713L16.1994 10.8713Z" fill="#2E37A4"/>
<path d="M25.2736 10.8713C28.1061 10.8713 30.4023 13.1676 30.4023 16.0001V16.0001C30.4023 18.8326 28.1061 21.1289 25.2736 21.1289L16.003 21.1289C13.1705 21.1289 10.8743 18.8326 10.8743 16.0001V16.0001C10.8743 13.1676 13.1705 10.8713 16.003 10.8713L25.2736 10.8713Z" fill="#00D3C7"/>
<path d="M21.3281 10.8713L21.3281 21.1289L16.0025 21.1289C13.1699 21.1289 10.8737 18.8326 10.8737 16.0001V16.0001C10.8737 13.1676 13.1699 10.8713 16.0025 10.8713L21.3281 10.8713Z" fill="white"/>
</svg>
