<svg width="134" height="30" viewBox="0 0 134 30" fill="none" xmlns="http://www.w3.org/2000/svg">
<path d="M20.0576 24.3844C20.0576 27.3122 17.6842 29.6855 14.7565 29.6855C11.8288 29.6855 9.45542 27.3122 9.45542 24.3844L9.45542 5.61471C9.45542 2.68699 11.8288 0.313607 14.7565 0.313608C17.6842 0.313608 20.0576 2.68699 20.0576 5.61471L20.0576 24.3844Z" fill="#2E37A4"/>
<path d="M14.887 9.76953C17.7758 9.76953 20.1177 12.1114 20.1177 15.0002C20.1177 17.8889 17.7758 20.2308 14.8871 20.2308L5.23054 20.2308C2.34174 20.2308 -9.00003e-05 17.8889 -8.9874e-05 15.0002C-8.97478e-05 12.1114 2.34174 9.76953 5.23053 9.76953L14.887 9.76953Z" fill="#2E37A4"/>
<path d="M24.1414 9.76953C27.0302 9.76953 29.3721 12.1114 29.3721 15.0002C29.3721 17.8889 27.0302 20.2308 24.1414 20.2308L14.6861 20.2308C11.7973 20.2308 9.45548 17.8889 9.45548 15.0002C9.45548 12.1114 11.7973 9.76953 14.6861 9.76953L24.1414 9.76953Z" fill="#00D3C7"/>
<path d="M20.1177 9.76953L20.1177 20.2308L14.6859 20.2308C11.7971 20.2308 9.45526 17.8889 9.45526 15.0002C9.45526 12.1114 11.7971 9.76953 14.6859 9.76953L20.1177 9.76953Z" fill="white"/>
<path d="M44.4049 5.80645C46.2192 5.80645 47.7461 6.41577 48.9856 7.63441C50.2251 8.85305 50.8449 10.3495 50.8449 12.1237C50.8449 13.8978 50.2251 15.3943 48.9856 16.6129C47.7461 17.8315 46.2192 18.4409 44.4049 18.4409H41.0906V24.6237H37.3721V5.80645H44.4049ZM44.4049 14.9731C45.1953 14.9731 45.851 14.7043 46.3719 14.1667C46.8929 13.6111 47.1533 12.9301 47.1533 12.1237C47.1533 11.2993 46.8929 10.6183 46.3719 10.0806C45.851 9.54301 45.1953 9.27419 44.4049 9.27419H41.0906V14.9731H44.4049Z" fill="#030303"/>
<path d="M55.4823 13.4946C55.8056 12.6344 56.3356 11.9892 57.0721 11.5591C57.8266 11.129 58.6619 10.914 59.578 10.914V14.7849C58.5182 14.6595 57.5661 14.8746 56.7218 15.4301C55.8955 15.9857 55.4823 16.9086 55.4823 18.1989V24.6237H52.0063V11.1828H55.4823V13.4946Z" fill="#030303"/>
<path d="M63.2397 19.328C63.7067 21.0125 64.9732 21.8548 67.039 21.8548C68.3683 21.8548 69.3743 21.4068 70.0569 20.5108L72.8593 22.1237C71.53 24.0412 69.5719 25 66.9851 25C64.7576 25 62.9702 24.328 61.6229 22.9839C60.2757 21.6398 59.602 19.9462 59.602 17.9032C59.602 15.8781 60.2667 14.1935 61.596 12.8495C62.9253 11.4875 64.6319 10.8065 66.7157 10.8065C68.6917 10.8065 70.3174 11.4875 71.5928 12.8495C72.8862 14.2115 73.5329 15.8961 73.5329 17.9032C73.5329 18.3513 73.488 18.8262 73.3982 19.328H63.2397ZM63.1858 16.6398H70.0569C69.8593 15.7258 69.4462 15.0448 68.8174 14.5968C68.2067 14.1487 67.5061 13.9247 66.7157 13.9247C65.7816 13.9247 65.0091 14.1667 64.3984 14.6505C63.7876 15.1165 63.3834 15.7796 63.1858 16.6398Z" fill="#030303"/>
<path d="M81.459 25C79.429 25 77.7315 24.319 76.3662 22.957C75.0189 21.595 74.3453 19.9104 74.3453 17.9032C74.3453 15.8961 75.0189 14.2115 76.3662 12.8495C77.7315 11.4875 79.429 10.8065 81.459 10.8065C82.7703 10.8065 83.9649 11.1201 85.0427 11.7473C86.1205 12.3746 86.9379 13.2168 87.4948 14.2742L84.5038 16.0215C84.2344 15.4659 83.8212 15.0269 83.2643 14.7043C82.7254 14.3817 82.1146 14.2204 81.432 14.2204C80.3901 14.2204 79.5278 14.5699 78.8452 15.2688C78.1626 15.9498 77.8213 16.828 77.8213 17.9032C77.8213 18.9606 78.1626 19.8387 78.8452 20.5376C79.5278 21.2186 80.3901 21.5591 81.432 21.5591C82.1326 21.5591 82.7523 21.4068 83.2913 21.1021C83.8481 20.7796 84.2613 20.3405 84.5308 19.7849L87.5487 21.5054C86.9559 22.5627 86.1205 23.414 85.0427 24.0591C83.9649 24.6864 82.7703 25 81.459 25Z" fill="#030303"/>
<path d="M88.5787 24.6237V5H92.0547V24.6237H88.5787Z" fill="#030303"/>
<path d="M96.1523 9.56989C95.5775 9.56989 95.0745 9.3638 94.6434 8.95161C94.2302 8.5215 94.0236 8.01971 94.0236 7.44624C94.0236 6.87276 94.2302 6.37097 94.6434 5.94086C95.0745 5.51075 95.5775 5.2957 96.1523 5.2957C96.7451 5.2957 97.2481 5.51075 97.6613 5.94086C98.0924 6.37097 98.308 6.87276 98.308 7.44624C98.308 8.01971 98.0924 8.5215 97.6613 8.95161C97.2481 9.3638 96.7451 9.56989 96.1523 9.56989ZM94.4278 24.6237V11.1828H97.9038V24.6237H94.4278Z" fill="#030303"/>
<path d="M107.768 10.8065C109.241 10.8065 110.453 11.2993 111.405 12.2849C112.376 13.2706 112.861 14.6326 112.861 16.371V24.6237H109.385V16.8011C109.385 15.905 109.142 15.224 108.657 14.7581C108.172 14.2742 107.525 14.0323 106.717 14.0323C105.819 14.0323 105.1 14.31 104.561 14.8656C104.022 15.4211 103.753 16.2545 103.753 17.3656V24.6237H100.277V11.1828H103.753V12.6882C104.597 11.4337 105.936 10.8065 107.768 10.8065Z" fill="#030303"/>
<path d="M116.745 9.56989C116.17 9.56989 115.667 9.3638 115.236 8.95161C114.823 8.5215 114.616 8.01971 114.616 7.44624C114.616 6.87276 114.823 6.37097 115.236 5.94086C115.667 5.51075 116.17 5.2957 116.745 5.2957C117.338 5.2957 117.84 5.51075 118.254 5.94086C118.685 6.37097 118.9 6.87276 118.9 7.44624C118.9 8.01971 118.685 8.5215 118.254 8.95161C117.84 9.3638 117.338 9.56989 116.745 9.56989ZM115.02 24.6237V11.1828H118.496V24.6237H115.02Z" fill="#030303"/>
<path d="M127.282 25C125.252 25 123.555 24.319 122.19 22.957C120.842 21.595 120.169 19.9104 120.169 17.9032C120.169 15.8961 120.842 14.2115 122.19 12.8495C123.555 11.4875 125.252 10.8065 127.282 10.8065C128.594 10.8065 129.788 11.1201 130.866 11.7473C131.944 12.3746 132.761 13.2168 133.318 14.2742L130.327 16.0215C130.058 15.4659 129.645 15.0269 129.088 14.7043C128.549 14.3817 127.938 14.2204 127.255 14.2204C126.214 14.2204 125.351 14.5699 124.669 15.2688C123.986 15.9498 123.645 16.828 123.645 17.9032C123.645 18.9606 123.986 19.8387 124.669 20.5376C125.351 21.2186 126.214 21.5591 127.255 21.5591C127.956 21.5591 128.576 21.4068 129.115 21.1021C129.672 20.7796 130.085 20.3405 130.354 19.7849L133.372 21.5054C132.779 22.5627 131.944 23.414 130.866 24.0591C129.788 24.6864 128.594 25 127.282 25Z" fill="#030303"/>
</svg>
