<svg width="96" height="72" viewBox="0 0 96 72" fill="none" xmlns="http://www.w3.org/2000/svg">
<g clip-path="url(#clip0_992_4227)">
<path d="M0 0H96V5.28H0V0Z" fill="white"/>
<mask id="mask0_992_4227" style="mask-type:luminance" maskUnits="userSpaceOnUse" x="0" y="0" width="96" height="6">
<path d="M0 0H96V5.28H0V0Z" fill="white"/>
</mask>
<g mask="url(#mask0_992_4227)">
<path d="M-1.59442e-06 -5.46873e-06V-0.240005H-0.240002V-5.46873e-06H-1.59442e-06ZM96 -5.46873e-06H96.24V-0.240005H96V-5.46873e-06ZM-1.59442e-06 0.239995H96V-0.240005H-1.59442e-06V0.239995ZM95.76 -5.46873e-06V5.27999H96.24V-5.46873e-06H95.76ZM0.239998 5.27999V-5.46873e-06H-0.240002V5.27999H0.239998Z" fill="white"/>
</g>
<path d="M3.36059 4.08C3.75823 4.08 4.08059 3.75764 4.08059 3.36C4.08059 2.96235 3.75823 2.64 3.36059 2.64C2.96294 2.64 2.64059 2.96235 2.64059 3.36C2.64059 3.75764 2.96294 4.08 3.36059 4.08Z" fill="#FF0000"/>
<path d="M5.76 4.08C6.15765 4.08 6.48 3.75764 6.48 3.36C6.48 2.96235 6.15765 2.64 5.76 2.64C5.36236 2.64 5.04 2.96235 5.04 3.36C5.04 3.75764 5.36236 4.08 5.76 4.08Z" fill="#3EB780"/>
<path d="M8.16039 4.08C8.55804 4.08 8.88039 3.75764 8.88039 3.36C8.88039 2.96235 8.55804 2.64 8.16039 2.64C7.76275 2.64 7.44039 2.96235 7.44039 3.36C7.44039 3.75764 7.76275 4.08 8.16039 4.08Z" fill="#FFCA18"/>
<path d="M0.119999 5.39999H95.88V71.88H0.119999V5.39999Z" fill="#01060B"/>
<path d="M0.119999 5.39999H95.88V71.88H0.119999V5.39999Z" stroke="#F9FAFB" stroke-width="0.5"/>
<path d="M14.4 10.08H3.36C2.82981 10.08 2.4 10.5098 2.4 11.04C2.4 11.5702 2.82981 12 3.36 12H14.4C14.9302 12 15.36 11.5702 15.36 11.04C15.36 10.5098 14.9302 10.08 14.4 10.08Z" fill="#01060B"/>
<path d="M10.32 17.76H3.12C2.72236 17.76 2.4 18.0823 2.4 18.48C2.4 18.8776 2.72236 19.2 3.12 19.2H10.32C10.7176 19.2 11.04 18.8776 11.04 18.48C11.04 18.0823 10.7176 17.76 10.32 17.76Z" fill="white"/>
<path d="M10.32 20.16H3.12C2.72236 20.16 2.4 20.4824 2.4 20.88C2.4 21.2776 2.72236 21.6 3.12 21.6H10.32C10.7176 21.6 11.04 21.2776 11.04 20.88C11.04 20.4824 10.7176 20.16 10.32 20.16Z" fill="white"/>
<path d="M6 22.56H3.12C2.72236 22.56 2.4 22.8824 2.4 23.28C2.4 23.6776 2.72236 24 3.12 24H6C6.39765 24 6.72 23.6776 6.72 23.28C6.72 22.8824 6.39765 22.56 6 22.56Z" fill="white"/>
<path d="M12.24 24.96H3.12C2.72236 24.96 2.4 25.2823 2.4 25.68C2.4 26.0776 2.72236 26.4 3.12 26.4H12.24C12.6376 26.4 12.96 26.0776 12.96 25.68C12.96 25.2823 12.6376 24.96 12.24 24.96Z" fill="white"/>
<path d="M7.92 27.36H3.12C2.72236 27.36 2.4 27.6824 2.4 28.08C2.4 28.4776 2.72236 28.8 3.12 28.8H7.92C8.31765 28.8 8.64 28.4776 8.64 28.08C8.64 27.6824 8.31765 27.36 7.92 27.36Z" fill="white"/>
<path d="M12.24 29.76H3.12C2.72236 29.76 2.4 30.0823 2.4 30.48C2.4 30.8776 2.72236 31.2 3.12 31.2H12.24C12.6376 31.2 12.96 30.8776 12.96 30.48C12.96 30.0823 12.6376 29.76 12.24 29.76Z" fill="white"/>
<path d="M6.96 32.16H3.12C2.72236 32.16 2.4 32.4824 2.4 32.88C2.4 33.2776 2.72236 33.6 3.12 33.6H6.96C7.35765 33.6 7.68 33.2776 7.68 32.88C7.68 32.4824 7.35765 32.16 6.96 32.16Z" fill="white"/>
<path d="M14.64 34.56H3.12C2.72236 34.56 2.4 34.8824 2.4 35.28C2.4 35.6776 2.72236 36 3.12 36H14.64C15.0376 36 15.36 35.6776 15.36 35.28C15.36 34.8824 15.0376 34.56 14.64 34.56Z" fill="white"/>
<path d="M10.32 36.96H3.12C2.72236 36.96 2.4 37.2823 2.4 37.68C2.4 38.0776 2.72236 38.4 3.12 38.4H10.32C10.7176 38.4 11.04 38.0776 11.04 37.68C11.04 37.2823 10.7176 36.96 10.32 36.96Z" fill="white"/>
<path d="M14.64 39.36H3.12C2.72236 39.36 2.4 39.6823 2.4 40.08C2.4 40.4776 2.72236 40.8 3.12 40.8H14.64C15.0376 40.8 15.36 40.4776 15.36 40.08C15.36 39.6823 15.0376 39.36 14.64 39.36Z" fill="white"/>
<mask id="mask1_992_4227" style="mask-type:luminance" maskUnits="userSpaceOnUse" x="17" y="5" width="79" height="5">
<path d="M17.76 5.28H96V9.12H17.76V5.28Z" fill="white"/>
</mask>
<g mask="url(#mask1_992_4227)">
<path d="M17.76 5.51999H96V5.03999H17.76V5.51999Z" fill="white"/>
</g>
<path d="M36.8802 6.35001H19.1202C18.59 6.35001 18.1602 6.77981 18.1602 7.31001C18.1602 7.8402 18.59 8.27001 19.1202 8.27001H36.8802C37.4104 8.27001 37.8402 7.8402 37.8402 7.31001C37.8402 6.77981 37.4104 6.35001 36.8802 6.35001Z" fill="white"/>
<path d="M86.8799 8.27001C87.4101 8.27001 87.8399 7.8402 87.8399 7.31001C87.8399 6.77981 87.4101 6.35001 86.8799 6.35001C86.3497 6.35001 85.9199 6.77981 85.9199 7.31001C85.9199 7.8402 86.3497 8.27001 86.8799 8.27001Z" fill="white"/>
<path d="M89.7598 8.27001C90.29 8.27001 90.7198 7.8402 90.7198 7.31001C90.7198 6.77981 90.29 6.35001 89.7598 6.35001C89.2296 6.35001 88.7998 6.77981 88.7998 7.31001C88.7998 7.8402 89.2296 8.27001 89.7598 8.27001Z" fill="white"/>
<path d="M92.6397 8.27001C93.1699 8.27001 93.5997 7.8402 93.5997 7.31001C93.5997 6.77981 93.1699 6.35001 92.6397 6.35001C92.1095 6.35001 91.6797 6.77981 91.6797 7.31001C91.6797 7.8402 92.1095 8.27001 92.6397 8.27001Z" fill="white"/>
<path d="M89.5998 9.12H21.76C19.5509 9.12 17.76 10.9109 17.76 13.12V65.12C17.76 67.3291 19.5509 69.12 21.76 69.12H89.5998C91.809 69.12 93.5998 67.3291 93.5998 65.12V13.12C93.5998 10.9109 91.809 9.12 89.5998 9.12Z" fill="white"/>
<path d="M65.04 71.04H46.32C46.0549 71.04 45.84 70.8251 45.84 70.56C45.84 70.2949 46.0549 70.08 46.32 70.08H65.04C65.3051 70.08 65.52 70.2949 65.52 70.56C65.52 70.8251 65.3051 71.04 65.04 71.04Z" fill="white"/>
</g>
<rect x="0.5" y="0.5" width="95" height="71" rx="4.5" stroke="#01060B"/>
<defs>
<clipPath id="clip0_992_4227">
<rect width="96" height="72" rx="5" fill="white"/>
</clipPath>
</defs>
</svg>
