<svg width="98" height="74" viewBox="0 0 98 74" fill="none" xmlns="http://www.w3.org/2000/svg">
<g clip-path="url(#clip0_992_4339)">
<path d="M1 1H97V6.28H1V1Z" fill="white"/>
<mask id="mask0_992_4339" style="mask-type:luminance" maskUnits="userSpaceOnUse" x="1" y="1" width="96" height="6">
<path d="M1 1H97V6.28H1V1Z" fill="white"/>
</mask>
<g mask="url(#mask0_992_4339)">
<path d="M0.999998 1.00001V0.76001H0.759998V1.00001H0.999998ZM97 1.00001H97.24V0.76001H97V1.00001ZM0.999998 1.24001H97V0.76001H0.999998V1.24001ZM96.76 1.00001V6.28001H97.24V1.00001H96.76ZM1.24 6.28001V1.00001H0.759998V6.28001H1.24Z" fill="#E6EAED"/>
</g>
<path d="M4.12 4.36001C4.51765 4.36001 4.84 4.03766 4.84 3.64001C4.84 3.24237 4.51765 2.92001 4.12 2.92001C3.72236 2.92001 3.4 3.24237 3.4 3.64001C3.4 4.03766 3.72236 4.36001 4.12 4.36001Z" fill="#FF0000"/>
<path d="M6.52 4.36001C6.91764 4.36001 7.24 4.03766 7.24 3.64001C7.24 3.24237 6.91764 2.92001 6.52 2.92001C6.12235 2.92001 5.8 3.24237 5.8 3.64001C5.8 4.03766 6.12235 4.36001 6.52 4.36001Z" fill="#3EB780"/>
<path d="M8.92 4.36001C9.31765 4.36001 9.64 4.03766 9.64 3.64001C9.64 3.24237 9.31765 2.92001 8.92 2.92001C8.52236 2.92001 8.2 3.24237 8.2 3.64001C8.2 4.03766 8.52236 4.36001 8.92 4.36001Z" fill="#FFCA18"/>
<path d="M1.12 6.39999H96.88V74.1632H1.12V6.39999Z" fill="#01060B"/>
<path d="M1.12 6.39999H96.88V72.88H1.12V6.39999Z" stroke="#01060B" stroke-width="0.5"/>
<path d="M9.64 7.23999H4.36C3.82981 7.23999 3.4 7.6698 3.4 8.19999C3.4 8.73018 3.82981 9.15999 4.36 9.15999H9.64C10.1702 9.15999 10.6 8.73018 10.6 8.19999C10.6 7.6698 10.1702 7.23999 9.64 7.23999Z" fill="#01060B"/>
<path d="M24.28 7.48001H17.08C16.6824 7.48001 16.36 7.80237 16.36 8.20001C16.36 8.59766 16.6824 8.92001 17.08 8.92001H24.28C24.6776 8.92001 25 8.59766 25 8.20001C25 7.80237 24.6776 7.48001 24.28 7.48001Z" fill="white"/>
<path d="M33.88 7.48001H26.68C26.2824 7.48001 25.96 7.80237 25.96 8.20001C25.96 8.59766 26.2824 8.92001 26.68 8.92001H33.88C34.2776 8.92001 34.6 8.59766 34.6 8.20001C34.6 7.80237 34.2776 7.48001 33.88 7.48001Z" fill="white"/>
<path d="M39.16 7.48001H36.28C35.8824 7.48001 35.56 7.80237 35.56 8.20001C35.56 8.59766 35.8824 8.92001 36.28 8.92001H39.16C39.5576 8.92001 39.88 8.59766 39.88 8.20001C39.88 7.80237 39.5576 7.48001 39.16 7.48001Z" fill="white"/>
<path d="M50.68 7.48001H41.56C41.1624 7.48001 40.84 7.80237 40.84 8.20001C40.84 8.59766 41.1624 8.92001 41.56 8.92001H50.68C51.0776 8.92001 51.4 8.59766 51.4 8.20001C51.4 7.80237 51.0776 7.48001 50.68 7.48001Z" fill="white"/>
<path d="M57.88 7.48001H53.08C52.6824 7.48001 52.36 7.80237 52.36 8.20001C52.36 8.59766 52.6824 8.92001 53.08 8.92001H57.88C58.2776 8.92001 58.6 8.59766 58.6 8.20001C58.6 7.80237 58.2776 7.48001 57.88 7.48001Z" fill="white"/>
<path d="M82.12 9.15999C82.6502 9.15999 83.08 8.73018 83.08 8.19999C83.08 7.6698 82.6502 7.23999 82.12 7.23999C81.5898 7.23999 81.16 7.6698 81.16 8.19999C81.16 8.73018 81.5898 9.15999 82.12 9.15999Z" fill="white"/>
<path d="M85 9.15999C85.5302 9.15999 85.96 8.73018 85.96 8.19999C85.96 7.6698 85.5302 7.23999 85 7.23999C84.4698 7.23999 84.04 7.6698 84.04 8.19999C84.04 8.73018 84.4698 9.15999 85 9.15999Z" fill="white"/>
<path d="M87.88 9.15999C88.4102 9.15999 88.84 8.73018 88.84 8.19999C88.84 7.6698 88.4102 7.23999 87.88 7.23999C87.3498 7.23999 86.92 7.6698 86.92 8.19999C86.92 8.73018 87.3498 9.15999 87.88 9.15999Z" fill="white"/>
<path d="M90.76 9.15999C91.2902 9.15999 91.72 8.73018 91.72 8.19999C91.72 7.6698 91.2902 7.23999 90.76 7.23999C90.2298 7.23999 89.8 7.6698 89.8 8.19999C89.8 8.73018 90.2298 9.15999 90.76 9.15999Z" fill="white"/>
<path d="M93.64 9.15999C94.1702 9.15999 94.6 8.73018 94.6 8.19999C94.6 7.6698 94.1702 7.23999 93.64 7.23999C93.1098 7.23999 92.68 7.6698 92.68 8.19999C92.68 8.73018 93.1098 9.15999 93.64 9.15999Z" fill="white"/>
<path d="M92.5996 10.12H5.40039C4.29582 10.12 3.40039 11.0154 3.40039 12.12V68.12C3.40039 69.2246 4.29582 70.12 5.40039 70.12H92.5996C93.7042 70.12 94.5996 69.2246 94.5996 68.12V12.12C94.5996 11.0154 93.7042 10.12 92.5996 10.12Z" fill="white"/>
<path d="M61.16 72.04H42.44C42.1749 72.04 41.96 71.8251 41.96 71.56C41.96 71.2949 42.1749 71.08 42.44 71.08H61.16C61.4251 71.08 61.64 71.2949 61.64 71.56C61.64 71.8251 61.4251 72.04 61.16 72.04Z" fill="white"/>
</g>
<rect x="0.5" y="0.5" width="97" height="73" rx="5.5" stroke="#01060B"/>
<defs>
<clipPath id="clip0_992_4339">
<rect x="1" y="1" width="96" height="72" rx="5" fill="white"/>
</clipPath>
</defs>
</svg>
