<svg width="96" height="72" viewBox="0 0 96 72" fill="none" xmlns="http://www.w3.org/2000/svg">
<g clip-path="url(#clip0_992_4267)">
<rect x="3.05176e-05" width="96" height="72" rx="5" fill="#FE9F43"/>
<path d="M3.05176e-05 0H95.7601V5.28H3.05176e-05V0Z" fill="white"/>
<mask id="mask0_992_4267" style="mask-type:luminance" maskUnits="userSpaceOnUse" x="0" y="0" width="96" height="6">
<path d="M3.05176e-05 0H95.7601V5.28H3.05176e-05V0Z" fill="white"/>
</mask>
<g mask="url(#mask0_992_4267)">
<path d="M2.50787e-05 -5.46873e-06V-0.240005H-0.239975V-5.46873e-06H2.50787e-05ZM95.76 -5.46873e-06H96V-0.240005H95.76V-5.46873e-06ZM2.50787e-05 0.239995H95.76V-0.240005H2.50787e-05V0.239995ZM95.5201 -5.46873e-06V5.27999H96V-5.46873e-06H95.5201ZM0.240025 5.27999V-5.46873e-06H-0.239975V5.27999H0.240025Z" fill="white"/>
</g>
<path d="M4.08043 4.08C4.47807 4.08 4.80043 3.75764 4.80043 3.36C4.80043 2.96235 4.47807 2.64 4.08043 2.64C3.68278 2.64 3.36043 2.96235 3.36043 3.36C3.36043 3.75764 3.68278 4.08 4.08043 4.08Z" fill="#FF0000"/>
<path d="M6.47984 4.08C6.87749 4.08 7.19984 3.75764 7.19984 3.36C7.19984 2.96235 6.87749 2.64 6.47984 2.64C6.0822 2.64 5.75984 2.96235 5.75984 3.36C5.75984 3.75764 6.0822 4.08 6.47984 4.08Z" fill="#3EB780"/>
<path d="M8.88023 4.08C9.27788 4.08 9.60023 3.75764 9.60023 3.36C9.60023 2.96235 9.27788 2.64 8.88023 2.64C8.48259 2.64 8.16023 2.96235 8.16023 3.36C8.16023 3.75764 8.48259 4.08 8.88023 4.08Z" fill="#FFCA18"/>
<path d="M0.120026 5.39999H95.64V71.88H0.120026V5.39999Z" fill="#01060B"/>
<path d="M90.3604 9.12H8.7598C7.10294 9.12 5.7598 10.4631 5.7598 12.12V66.12C5.7598 67.7768 7.10294 69.12 8.75979 69.12H90.3604C92.0172 69.12 93.3604 67.7768 93.3604 66.12V12.12C93.3604 10.4631 92.0172 9.12 90.3604 9.12Z" fill="white"/>
<path d="M0.120026 5.39999H95.64V71.88H0.120026V5.39999Z" stroke="white" stroke-width="0.5"/>
<path d="M0.120148 6.40002H5.64015V72.88H0.120148V6.40002Z" fill="#01060B"/>
<path d="M3.36003 6.24001H2.40003C1.86984 6.24001 1.44003 6.66981 1.44003 7.20001C1.44003 7.7302 1.86984 8.16001 2.40003 8.16001H3.36003C3.89023 8.16001 4.32003 7.7302 4.32003 7.20001C4.32003 6.66981 3.89023 6.24001 3.36003 6.24001Z" fill="#01060B"/>
<path d="M3.36002 11.04C3.36002 10.7749 3.14512 10.56 2.88002 10.56C2.61493 10.56 2.40002 10.7749 2.40002 11.04V12.48C2.40002 12.7451 2.61493 12.96 2.88002 12.96C3.14512 12.96 3.36002 12.7451 3.36002 12.48V11.04Z" fill="white"/>
<path d="M3.36002 14.4C3.36002 14.1349 3.14512 13.92 2.88002 13.92C2.61493 13.92 2.40002 14.1349 2.40002 14.4V15.36C2.40002 15.6251 2.61493 15.84 2.88002 15.84C3.14512 15.84 3.36002 15.6251 3.36002 15.36V14.4Z" fill="white"/>
<path d="M3.36002 17.28C3.36002 17.0149 3.14512 16.8 2.88002 16.8C2.61493 16.8 2.40002 17.0149 2.40002 17.28V18.72C2.40002 18.9851 2.61493 19.2 2.88002 19.2C3.14512 19.2 3.36002 18.9851 3.36002 18.72V17.28Z" fill="white"/>
<path d="M3.36002 20.64C3.36002 20.3749 3.14512 20.16 2.88002 20.16C2.61493 20.16 2.40002 20.3749 2.40002 20.64V21.6C2.40002 21.8651 2.61493 22.08 2.88002 22.08C3.14512 22.08 3.36002 21.8651 3.36002 21.6V20.64Z" fill="white"/>
<path d="M3.36002 23.52C3.36002 23.2549 3.14512 23.04 2.88002 23.04C2.61493 23.04 2.40002 23.2549 2.40002 23.52V24.96C2.40002 25.2251 2.61493 25.44 2.88002 25.44C3.14512 25.44 3.36002 25.2251 3.36002 24.96V23.52Z" fill="white"/>
<path d="M3.36002 26.88C3.36002 26.6149 3.14512 26.4 2.88002 26.4C2.61493 26.4 2.40002 26.6149 2.40002 26.88V28.32C2.40002 28.5851 2.61493 28.8 2.88002 28.8C3.14512 28.8 3.36002 28.5851 3.36002 28.32V26.88Z" fill="white"/>
<path d="M3.36002 30.24C3.36002 29.9749 3.14512 29.76 2.88002 29.76C2.61493 29.76 2.40002 29.9749 2.40002 30.24V31.2C2.40002 31.4651 2.61493 31.68 2.88002 31.68C3.14512 31.68 3.36002 31.4651 3.36002 31.2V30.24Z" fill="white"/>
<path d="M3.36002 33.12C3.36002 32.8549 3.14512 32.64 2.88002 32.64C2.61493 32.64 2.40002 32.8549 2.40002 33.12V34.08C2.40002 34.3451 2.61493 34.56 2.88002 34.56C3.14512 34.56 3.36002 34.3451 3.36002 34.08V33.12Z" fill="white"/>
<path d="M3.36002 36C3.36002 35.7349 3.14512 35.52 2.88002 35.52C2.61493 35.52 2.40002 35.7349 2.40002 36V37.44C2.40002 37.7051 2.61493 37.92 2.88002 37.92C3.14512 37.92 3.36002 37.7051 3.36002 37.44V36Z" fill="white"/>
<path d="M24.8802 6.23999H7.12019C6.58999 6.23999 6.16019 6.6698 6.16019 7.19999C6.16019 7.73018 6.58999 8.15999 7.12019 8.15999H24.8802C25.4104 8.15999 25.8402 7.73018 25.8402 7.19999C25.8402 6.6698 25.4104 6.23999 24.8802 6.23999Z" fill="white"/>
<path d="M86.6401 8.16001C87.1702 8.16001 87.6001 7.7302 87.6001 7.20001C87.6001 6.66981 87.1702 6.24001 86.6401 6.24001C86.1099 6.24001 85.6801 6.66981 85.6801 7.20001C85.6801 7.7302 86.1099 8.16001 86.6401 8.16001Z" fill="white"/>
<path d="M89.5201 8.16001C90.0503 8.16001 90.4801 7.7302 90.4801 7.20001C90.4801 6.66981 90.0503 6.24001 89.5201 6.24001C88.9899 6.24001 88.5601 6.66981 88.5601 7.20001C88.5601 7.7302 88.9899 8.16001 89.5201 8.16001Z" fill="white"/>
<path d="M92.4 8.16001C92.9302 8.16001 93.36 7.7302 93.36 7.20001C93.36 6.66981 92.9302 6.24001 92.4 6.24001C91.8699 6.24001 91.44 6.66981 91.44 7.20001C91.44 7.7302 91.8699 8.16001 92.4 8.16001Z" fill="white"/>
<path d="M58.92 71.04H40.2C39.9349 71.04 39.72 70.8251 39.72 70.56C39.72 70.2949 39.9349 70.08 40.2 70.08H58.92C59.1851 70.08 59.4 70.2949 59.4 70.56C59.4 70.8251 59.1851 71.04 58.92 71.04Z" fill="white"/>
</g>
<rect x="0.500031" y="0.5" width="95" height="71" rx="4.5" stroke="#01060B"/>
<defs>
<clipPath id="clip0_992_4267">
<rect x="3.05176e-05" width="96" height="72" rx="5" fill="white"/>
</clipPath>
</defs>
</svg>
