<svg width="96" height="72" viewBox="0 0 96 72" fill="none" xmlns="http://www.w3.org/2000/svg">
<g clip-path="url(#clip0_992_4483)">
<path d="M0 0H96V5.28H0V0Z" fill="#01060B"/>
<mask id="mask0_992_4483" style="mask-type:luminance" maskUnits="userSpaceOnUse" x="0" y="0" width="96" height="6">
<path d="M0 0H96V5.28H0V0Z" fill="white"/>
</mask>
<g mask="url(#mask0_992_4483)">
<path d="M-1.66893e-06 9.76026e-06V-0.23999H-0.240002V9.76026e-06H-1.66893e-06ZM96 9.76026e-06H96.24V-0.23999H96V9.76026e-06ZM-1.66893e-06 0.24001H96V-0.23999H-1.66893e-06V0.24001ZM95.76 9.76026e-06V5.28001H96.24V9.76026e-06H95.76ZM0.239998 5.28001V9.76026e-06H-0.240002V5.28001H0.239998Z" fill="#E6EAED"/>
</g>
<path d="M3.12 3.36001C3.51765 3.36001 3.84 3.03766 3.84 2.64001C3.84 2.24237 3.51765 1.92001 3.12 1.92001C2.72236 1.92001 2.4 2.24237 2.4 2.64001C2.4 3.03766 2.72236 3.36001 3.12 3.36001Z" fill="#FF0000"/>
<path d="M5.52 3.36001C5.91764 3.36001 6.24 3.03766 6.24 2.64001C6.24 2.24237 5.91764 1.92001 5.52 1.92001C5.12235 1.92001 4.8 2.24237 4.8 2.64001C4.8 3.03766 5.12235 3.36001 5.52 3.36001Z" fill="#3EB780"/>
<path d="M7.92 3.36001C8.31765 3.36001 8.64 3.03766 8.64 2.64001C8.64 2.24237 8.31765 1.92001 7.92 1.92001C7.52236 1.92001 7.2 2.24237 7.2 2.64001C7.2 3.03766 7.52236 3.36001 7.92 3.36001Z" fill="#FFCA18"/>
<path d="M0.119999 5.39999H95.88V71.88H0.119999V5.39999Z" fill="#01060B"/>
<path d="M3.36 8.15999C3.89019 8.15999 4.32 7.73018 4.32 7.19999C4.32 6.6698 3.89019 6.23999 3.36 6.23999C2.82981 6.23999 2.4 6.6698 2.4 7.19999C2.4 7.73018 2.82981 8.15999 3.36 8.15999Z" fill="white"/>
<path d="M6.24 8.15999C6.77019 8.15999 7.2 7.73018 7.2 7.19999C7.2 6.6698 6.77019 6.23999 6.24 6.23999C5.70981 6.23999 5.28 6.6698 5.28 7.19999C5.28 7.73018 5.70981 8.15999 6.24 8.15999Z" fill="white"/>
<path d="M9.12 8.15999C9.65019 8.15999 10.08 7.73018 10.08 7.19999C10.08 6.6698 9.65019 6.23999 9.12 6.23999C8.58981 6.23999 8.16 6.6698 8.16 7.19999C8.16 7.73018 8.58981 8.15999 9.12 8.15999Z" fill="white"/>
<path d="M74.88 6.23999H57.12C56.5898 6.23999 56.16 6.6698 56.16 7.19999C56.16 7.73018 56.5898 8.15999 57.12 8.15999H74.88C75.4102 8.15999 75.84 7.73018 75.84 7.19999C75.84 6.6698 75.4102 6.23999 74.88 6.23999Z" fill="white"/>
<path d="M71.8404 9.71326H6.40039C4.19125 9.71326 2.40039 11.5041 2.40039 13.7133V64.5267C2.40039 66.7359 4.19125 68.5267 6.40039 68.5267H71.8404C74.0495 68.5267 75.8404 66.7359 75.8404 64.5267V13.7133C75.8404 11.5041 74.0495 9.71326 71.8404 9.71326Z" fill="white"/>
<path d="M47.28 71.04H28.56C28.2949 71.04 28.08 70.8251 28.08 70.56C28.08 70.2949 28.2949 70.08 28.56 70.08H47.28C47.5451 70.08 47.76 70.2949 47.76 70.56C47.76 70.8251 47.5451 71.04 47.28 71.04Z" fill="white"/>
<mask id="mask1_992_4483" style="mask-type:luminance" maskUnits="userSpaceOnUse" x="78" y="5" width="18" height="67">
<path d="M78.24 5.28H96V72H78.24V5.28Z" fill="white"/>
</mask>
<g mask="url(#mask1_992_4483)">
<path d="M95.76 5.28V72H96.24V5.28H95.76Z" fill="#E6EAED"/>
</g>
<path d="M92.64 10.08H81.6C81.0698 10.08 80.64 10.5098 80.64 11.04C80.64 11.5702 81.0698 12 81.6 12H92.64C93.1702 12 93.6 11.5702 93.6 11.04C93.6 10.5098 93.1702 10.08 92.64 10.08Z" fill="#01060B"/>
<path d="M88.56 17.76H81.36C80.9624 17.76 80.64 18.0824 80.64 18.48C80.64 18.8777 80.9624 19.2 81.36 19.2H88.56C88.9576 19.2 89.28 18.8777 89.28 18.48C89.28 18.0824 88.9576 17.76 88.56 17.76Z" fill="white"/>
<path d="M88.56 20.16H81.36C80.9624 20.16 80.64 20.4824 80.64 20.88C80.64 21.2776 80.9624 21.6 81.36 21.6H88.56C88.9576 21.6 89.28 21.2776 89.28 20.88C89.28 20.4824 88.9576 20.16 88.56 20.16Z" fill="white"/>
<path d="M84.24 22.56H81.36C80.9624 22.56 80.64 22.8824 80.64 23.28C80.64 23.6776 80.9624 24 81.36 24H84.24C84.6376 24 84.96 23.6776 84.96 23.28C84.96 22.8824 84.6376 22.56 84.24 22.56Z" fill="white"/>
<path d="M90.48 24.96H81.36C80.9624 24.96 80.64 25.2823 80.64 25.68C80.64 26.0776 80.9624 26.4 81.36 26.4H90.48C90.8776 26.4 91.2 26.0776 91.2 25.68C91.2 25.2823 90.8776 24.96 90.48 24.96Z" fill="white"/>
<path d="M86.16 27.36H81.36C80.9624 27.36 80.64 27.6823 80.64 28.08C80.64 28.4776 80.9624 28.8 81.36 28.8H86.16C86.5576 28.8 86.88 28.4776 86.88 28.08C86.88 27.6823 86.5576 27.36 86.16 27.36Z" fill="white"/>
<path d="M90.48 29.76H81.36C80.9624 29.76 80.64 30.0824 80.64 30.48C80.64 30.8777 80.9624 31.2 81.36 31.2H90.48C90.8776 31.2 91.2 30.8777 91.2 30.48C91.2 30.0824 90.8776 29.76 90.48 29.76Z" fill="white"/>
<path d="M85.2 32.16H81.36C80.9624 32.16 80.64 32.4824 80.64 32.88C80.64 33.2776 80.9624 33.6 81.36 33.6H85.2C85.5976 33.6 85.92 33.2776 85.92 32.88C85.92 32.4824 85.5976 32.16 85.2 32.16Z" fill="white"/>
<path d="M92.88 34.56H81.36C80.9624 34.56 80.64 34.8824 80.64 35.28C80.64 35.6776 80.9624 36 81.36 36H92.88C93.2776 36 93.6 35.6776 93.6 35.28C93.6 34.8824 93.2776 34.56 92.88 34.56Z" fill="#E6EAED"/>
<path d="M88.56 36.96H81.36C80.9624 36.96 80.64 37.2823 80.64 37.68C80.64 38.0776 80.9624 38.4 81.36 38.4H88.56C88.9576 38.4 89.28 38.0776 89.28 37.68C89.28 37.2823 88.9576 36.96 88.56 36.96Z" fill="white"/>
<path d="M92.88 39.36H81.36C80.9624 39.36 80.64 39.6823 80.64 40.08C80.64 40.4776 80.9624 40.8 81.36 40.8H92.88C93.2776 40.8 93.6 40.4776 93.6 40.08C93.6 39.6823 93.2776 39.36 92.88 39.36Z" fill="white"/>
</g>
<rect x="0.5" y="0.5" width="95" height="71" rx="4.5" stroke="#01060B"/>
<defs>
<clipPath id="clip0_992_4483">
<rect width="96" height="72" rx="5" fill="white"/>
</clipPath>
</defs>
</svg>
