<svg width="25" height="16" viewBox="0 0 25 16" fill="none" xmlns="http://www.w3.org/2000/svg">
<g clip-path="url(#clip0_300_281233)">
<path d="M7.34136 6.07653C7.34136 6.36595 7.37265 6.60061 7.4274 6.77269C7.48998 6.94478 7.5682 7.13251 7.67771 7.33588C7.71682 7.39845 7.73246 7.46103 7.73246 7.51579C7.73246 7.59401 7.68553 7.67223 7.58384 7.75045L7.09105 8.07897C7.02066 8.1259 6.95026 8.14937 6.88768 8.14937C6.80946 8.14937 6.73124 8.11026 6.65302 8.03986C6.54351 7.92253 6.44965 7.79738 6.37143 7.67223C6.29321 7.53925 6.21499 7.39063 6.12895 7.21073C5.51883 7.93035 4.75227 8.29016 3.82927 8.29016C3.17222 8.29016 2.64814 8.10244 2.26486 7.72698C1.88159 7.35152 1.68604 6.85091 1.68604 6.22515C1.68604 5.56028 1.9207 5.02056 2.39784 4.61381C2.87498 4.20707 3.50857 4.0037 4.31424 4.0037C4.58018 4.0037 4.85396 4.02716 5.14337 4.06627C5.43278 4.10538 5.73002 4.16796 6.0429 4.23836V3.66735C6.0429 3.07287 5.91775 2.65831 5.67527 2.41582C5.42496 2.17334 5.00257 2.05601 4.40028 2.05601C4.12651 2.05601 3.84491 2.0873 3.5555 2.1577C3.26608 2.2281 2.98449 2.31414 2.71072 2.42365C2.58557 2.4784 2.4917 2.50969 2.43695 2.52533C2.3822 2.54098 2.34309 2.5488 2.3118 2.5488C2.20229 2.5488 2.14753 2.47058 2.14753 2.30632V1.92304C2.14753 1.79788 2.16318 1.70402 2.20229 1.64927C2.2414 1.59451 2.3118 1.53976 2.42131 1.485C2.69508 1.34421 3.0236 1.22688 3.40688 1.13301C3.79016 1.03133 4.1969 0.984394 4.62712 0.984394C5.55794 0.984394 6.23845 1.19559 6.67649 1.61798C7.1067 2.04037 7.32572 2.68177 7.32572 3.5422V6.07653H7.34136ZM4.16562 7.26548C4.42374 7.26548 4.68969 7.21855 4.97129 7.12468C5.25288 7.03082 5.50318 6.85874 5.71438 6.62407C5.83953 6.47546 5.93339 6.31119 5.98033 6.12346C6.02726 5.93574 6.05855 5.7089 6.05855 5.44295V5.11442C5.83171 5.05967 5.58923 5.01274 5.33892 4.98145C5.08862 4.95016 4.84613 4.93452 4.60365 4.93452C4.07958 4.93452 3.6963 5.0362 3.43817 5.2474C3.18004 5.45859 3.05489 5.75583 3.05489 6.14693C3.05489 6.51457 3.14875 6.78834 3.3443 6.97607C3.53203 7.17162 3.8058 7.26548 4.16562 7.26548ZM10.4467 8.11026C10.3059 8.11026 10.212 8.08679 10.1495 8.03204C10.0869 7.98511 10.0321 7.8756 9.9852 7.72698L8.14703 1.68055C8.1001 1.52411 8.07663 1.42243 8.07663 1.36767C8.07663 1.24252 8.13921 1.17212 8.26436 1.17212H9.03092C9.17953 1.17212 9.28122 1.19559 9.33598 1.25034C9.39855 1.29728 9.44548 1.40678 9.49242 1.5554L10.8065 6.73358L12.0268 1.5554C12.0659 1.39896 12.1128 1.29728 12.1754 1.25034C12.2379 1.20341 12.3475 1.17212 12.4883 1.17212H13.114C13.2626 1.17212 13.3643 1.19559 13.4269 1.25034C13.4895 1.29728 13.5442 1.40678 13.5755 1.5554L14.8114 6.79616L16.1646 1.5554C16.2115 1.39896 16.2663 1.29728 16.321 1.25034C16.3836 1.20341 16.4853 1.17212 16.6261 1.17212H17.3535C17.4787 1.17212 17.5491 1.2347 17.5491 1.36767C17.5491 1.40678 17.5413 1.44589 17.5335 1.49283C17.5256 1.53976 17.51 1.60233 17.4787 1.68838L15.5936 7.7348C15.5467 7.89124 15.4919 7.99293 15.4293 8.03986C15.3668 8.08679 15.2651 8.11808 15.1321 8.11808H14.4594C14.3108 8.11808 14.2091 8.09461 14.1465 8.03986C14.0839 7.98511 14.0292 7.88342 13.9979 7.72698L12.7855 2.68177L11.5809 7.71916C11.5418 7.8756 11.4949 7.97728 11.4323 8.03204C11.3697 8.08679 11.2602 8.11026 11.1194 8.11026H10.4467ZM20.498 8.32145C20.0913 8.32145 19.6845 8.27452 19.2934 8.18066C18.9023 8.08679 18.5973 7.98511 18.3939 7.86778C18.2687 7.79738 18.1827 7.71916 18.1514 7.64876C18.1201 7.57836 18.1045 7.50014 18.1045 7.42974V7.03082C18.1045 6.86656 18.167 6.78834 18.2844 6.78834C18.3313 6.78834 18.3782 6.79616 18.4252 6.8118C18.4721 6.82745 18.5425 6.85874 18.6207 6.89002C18.8867 7.00735 19.1761 7.10122 19.4811 7.16379C19.794 7.22637 20.0991 7.25766 20.412 7.25766C20.9047 7.25766 21.288 7.17162 21.554 6.99953C21.8199 6.82745 21.9607 6.57714 21.9607 6.25644C21.9607 6.03742 21.8903 5.85752 21.7495 5.7089C21.6087 5.56028 21.3428 5.4273 20.9595 5.30215L19.8253 4.95016C19.2543 4.77025 18.8319 4.50431 18.5738 4.15231C18.3157 3.80815 18.1827 3.42487 18.1827 3.01812C18.1827 2.6896 18.2531 2.40018 18.3939 2.14988C18.5347 1.89957 18.7224 1.68055 18.9571 1.50847C19.1917 1.32856 19.4577 1.19559 19.7706 1.10172C20.0834 1.00786 20.412 0.96875 20.7561 0.96875C20.9282 0.96875 21.1081 0.976572 21.2802 1.00004C21.4601 1.0235 21.6244 1.05479 21.7886 1.08608C21.9451 1.12519 22.0937 1.1643 22.2345 1.21123C22.3753 1.25816 22.4848 1.3051 22.563 1.35203C22.6725 1.41461 22.7507 1.47718 22.7977 1.54758C22.8446 1.61016 22.8681 1.6962 22.8681 1.80571V2.17334C22.8681 2.3376 22.8055 2.42365 22.6882 2.42365C22.6256 2.42365 22.5239 2.39236 22.3909 2.32978C21.9451 2.12641 21.4445 2.02472 20.8891 2.02472C20.4433 2.02472 20.0913 2.09512 19.8488 2.24374C19.6063 2.39236 19.4811 2.6192 19.4811 2.9399C19.4811 3.15892 19.5594 3.34665 19.7158 3.49526C19.8722 3.64388 20.1617 3.7925 20.5762 3.92548L21.687 4.27747C22.2501 4.45737 22.6569 4.70768 22.8994 5.02838C23.1418 5.34908 23.2592 5.71672 23.2592 6.12346C23.2592 6.45981 23.1888 6.76487 23.0558 7.03082C22.915 7.29677 22.7273 7.53143 22.4848 7.71916C22.2423 7.91471 21.9529 8.0555 21.6166 8.15719C21.2646 8.2667 20.8969 8.32145 20.498 8.32145Z" fill="#252F3E"/>
<path fill-rule="evenodd" clip-rule="evenodd" d="M21.9761 12.124C19.4027 14.0247 15.6638 15.0338 12.4489 15.0338C7.94343 15.0338 3.8838 13.3677 0.81757 10.5987C0.575087 10.3797 0.794104 10.0824 1.08352 10.2545C4.40006 12.1787 8.49097 13.3442 12.7227 13.3442C15.5777 13.3442 18.7144 12.7497 21.6007 11.5295C22.0309 11.334 22.3985 11.8111 21.9761 12.124Z" fill="#FF9900"/>
<path fill-rule="evenodd" clip-rule="evenodd" d="M23.0479 10.9005C22.7194 10.4781 20.8734 10.6971 20.0365 10.7988C19.7862 10.8301 19.747 10.611 19.9739 10.4468C21.4444 9.41428 23.8614 9.71152 24.143 10.0557C24.4246 10.4077 24.0648 12.8247 22.6881 13.9823C22.4769 14.1622 22.2736 14.0684 22.3674 13.8337C22.6803 13.0593 23.3765 11.315 23.0479 10.9005Z" fill="#FF9900"/>
</g>
<defs>
<clipPath id="clip0_300_281233">
<rect width="24" height="14.064" fill="white" transform="translate(0.5 0.96875)"/>
</clipPath>
</defs>
</svg>
