<svg width="40" height="41" viewBox="0 0 40 41" fill="none" xmlns="http://www.w3.org/2000/svg">
<circle cx="20" cy="20.5" r="20" fill="#2E37A4"/>
<path d="M21.668 8.53025C19.8542 8.76367 18.1473 9.7314 16.8926 11.2341C15.8957 12.4304 15.2927 13.6461 14.996 15.0564C14.8842 15.5816 14.8696 15.7907 14.8647 16.5201C14.8647 17.5024 14.9426 18.0422 15.21 18.8786C15.9881 21.3247 17.9236 23.2553 20.4912 24.1501C20.997 24.3252 21.1234 24.3349 21.2547 24.2036C21.4054 24.0528 21.3811 23.8194 21.1866 23.5666C19.0372 20.746 18.8183 17.2787 20.6274 14.5749C21.6389 13.0625 23.2388 12.0121 25.1597 11.5988C25.5779 11.5112 25.8162 11.4918 26.6526 11.4918C27.2702 11.4869 27.8197 11.5112 28.0969 11.555C28.5054 11.6134 28.5589 11.6134 28.6659 11.5404C28.8117 11.448 28.875 11.2535 28.802 11.1028C28.6756 10.8158 27.3091 9.86757 26.3365 9.39099C25.0575 8.75881 23.9342 8.49134 22.6017 8.50107C22.1689 8.50593 21.7507 8.52052 21.668 8.53025Z" fill="white"/>
<path d="M22.2273 16.7381C21.2742 16.8597 21.1575 16.9132 21.1575 17.2342C21.1575 17.4481 21.2353 17.5065 21.8188 17.7399C23.0735 18.2408 24.2892 19.1356 25.1208 20.1665C25.7967 21.003 26.2685 22.0047 26.5165 23.1232C26.6672 23.804 26.6672 25.2337 26.5165 25.9146C26.2976 26.9115 25.8794 27.8743 25.3299 28.6524C24.9311 29.2165 24.0315 30.121 23.4431 30.5392C23.1902 30.7192 22.6066 31.0547 22.1447 31.2833C21.6875 31.5118 21.2985 31.7307 21.2839 31.7696C21.2304 31.9057 21.2547 32.0711 21.3423 32.1732C21.4006 32.251 21.5562 32.3045 21.9355 32.3823C22.6455 32.5282 24.4789 32.5428 25.2181 32.4018C26.8569 32.1003 28.2525 31.3611 29.4294 30.1891C30.5381 29.0755 31.1752 27.8938 31.5253 26.2939C31.6226 25.8465 31.6372 25.6471 31.6372 24.6648C31.6372 23.1767 31.5059 22.4521 31.0098 21.2315C30.0762 18.9216 28.0191 17.3071 25.3785 16.8062C24.6734 16.6749 23.0005 16.636 22.2273 16.7381Z" fill="white"/>
<path d="M10.7653 18.0843C10.5075 18.3615 9.92396 19.4703 9.60787 20.2824C9.18966 21.3474 9 22.3589 9 23.5065C9 24.7514 9.2237 25.7338 9.75862 26.8036C10.809 28.9239 13.187 30.621 15.7595 31.0928C16.4112 31.2095 17.802 31.2095 18.4342 31.0879C21.2839 30.5384 23.5695 28.5202 24.5469 25.6851C24.7268 25.1648 24.9505 24.2603 24.9505 24.0512C24.9505 23.8469 24.8047 23.7059 24.5955 23.7059C24.4302 23.7059 24.367 23.7497 24.0023 24.0949C22.2954 25.7386 19.9757 26.6091 17.8992 26.3903C15.7206 26.1617 13.8289 25.0432 12.6715 23.3023C11.8157 22.0087 11.3829 20.5012 11.3829 18.7992C11.3829 18.2351 11.3731 18.1621 11.2856 18.0746C11.1494 17.9384 10.8917 17.9481 10.7653 18.0843Z" fill="white"/>
</svg>
