<svg width="24" height="24" viewBox="0 0 24 24" fill="none" xmlns="http://www.w3.org/2000/svg">
<path fill-rule="evenodd" clip-rule="evenodd" d="M23.04 12.2585C23.04 11.4431 22.9668 10.659 22.8309 9.90625H12V14.3547H18.1891C17.9225 15.7922 17.1123 17.0101 15.8943 17.8256V20.711H19.6109C21.7855 18.709 23.04 15.7608 23.04 12.2585Z" fill="#2F80ED"/>
<path fill-rule="evenodd" clip-rule="evenodd" d="M12 23.5025C15.105 23.5025 17.7081 22.4727 19.6109 20.7164L15.8943 17.8309C14.8645 18.5209 13.5472 18.9286 12 18.9286C9.00474 18.9286 6.46951 16.9057 5.56519 14.1875H1.72314V17.167C3.61542 20.9255 7.50451 23.5025 12 23.5025Z" fill="#27AE60"/>
<path fill-rule="evenodd" clip-rule="evenodd" d="M5.56523 14.1855C5.33523 13.4955 5.20455 12.7584 5.20455 12.0005C5.20455 11.2425 5.33523 10.5055 5.56523 9.81548V6.83594H1.72318C0.944318 8.38844 0.5 10.1448 0.5 12.0005C0.5 13.8562 0.944318 15.6125 1.72318 17.165L5.56523 14.1855Z" fill="#E2B93B"/>
<path fill-rule="evenodd" clip-rule="evenodd" d="M12 5.07386C13.6884 5.07386 15.2043 5.65409 16.3961 6.79364L19.6945 3.49523C17.7029 1.63955 15.0997 0.5 12 0.5C7.50451 0.5 3.61542 3.07705 1.72314 6.83545L5.56519 9.815C6.46951 7.09682 9.00474 5.07386 12 5.07386Z" fill="#EF1E1E"/>
</svg>
