<svg width="114" height="28" viewBox="0 0 114 28" fill="none" xmlns="http://www.w3.org/2000/svg">
<path d="M17.3573 22.1043C17.3573 24.6312 15.3089 26.6797 12.782 26.6797C10.2551 26.6797 8.20662 24.6312 8.20662 22.1043L8.20662 5.90432C8.20662 3.37743 10.2551 1.32898 12.782 1.32898C15.3089 1.32899 17.3573 3.37744 17.3573 5.90433L17.3573 22.1043Z" fill="#2E37A4"/>
<path d="M12.8947 9.49219C15.388 9.49219 17.4092 11.5134 17.4092 14.0067C17.4092 16.5 15.388 18.5212 12.8947 18.5212L4.56026 18.5212C2.06696 18.5212 0.0457455 16.5 0.0457457 14.0067C0.0457458 11.5134 2.06696 9.49219 4.56026 9.49219L12.8947 9.49219Z" fill="#2E37A4"/>
<path d="M20.882 9.49219C23.3753 9.49219 25.3965 11.5134 25.3965 14.0067C25.3965 16.5 23.3753 18.5212 20.882 18.5212L12.7211 18.5212C10.2278 18.5212 8.20662 16.5 8.20662 14.0067C8.20662 11.5134 10.2278 9.49219 12.7211 9.49219L20.882 9.49219Z" fill="#0E9384"/>
<path d="M17.4092 9.49219L17.4092 18.5212L12.7211 18.5212C10.2278 18.5212 8.20659 16.5 8.20659 14.0067C8.20659 11.5134 10.2278 9.49219 12.7211 9.49219L17.4092 9.49219Z" fill="white"/>
<path d="M37.4377 6.08501C38.9962 6.08501 40.3078 6.60966 41.3725 7.65896C42.4373 8.70826 42.9696 9.99674 42.9696 11.5244C42.9696 13.052 42.4373 14.3405 41.3725 15.3898C40.3078 16.4391 38.9962 16.9638 37.4377 16.9638H34.5907V22.2874H31.3965V6.08501H37.4377ZM37.4377 13.9779C38.1166 13.9779 38.6799 13.7464 39.1273 13.2835C39.5748 12.8052 39.7986 12.2188 39.7986 11.5244C39.7986 10.8146 39.5748 10.2282 39.1273 9.76528C38.6799 9.30235 38.1166 9.07089 37.4377 9.07089H34.5907V13.9779H37.4377Z" fill="#030303"/>
<path d="M46.9531 12.7049C47.2309 11.9642 47.6861 11.4087 48.3188 11.0383C48.9669 10.668 49.6844 10.4828 50.4714 10.4828V13.8159C49.561 13.7079 48.7431 13.893 48.0179 14.3714C47.3081 14.8497 46.9531 15.6444 46.9531 16.7555V22.2874H43.9673V10.7143H46.9531V12.7049Z" fill="#030303"/>
<path d="M53.6167 17.7276C54.018 19.1781 55.1058 19.9034 56.8804 19.9034C58.0223 19.9034 58.8864 19.5176 59.4728 18.746L61.88 20.1348C60.7381 21.7859 59.0561 22.6115 56.8341 22.6115C54.9207 22.6115 53.3853 22.0328 52.228 20.8755C51.0707 19.7182 50.492 18.26 50.492 16.5008C50.492 14.7572 51.0629 13.3067 52.2048 12.1493C53.3467 10.9766 54.8126 10.3902 56.6026 10.3902C58.3 10.3902 59.6965 10.9766 60.7921 12.1493C61.9031 13.3221 62.4586 14.7726 62.4586 16.5008C62.4586 16.8866 62.4201 17.2955 62.3429 17.7276H53.6167ZM53.5705 15.413H59.4728C59.303 14.626 58.9481 14.0396 58.408 13.6539C57.8834 13.2681 57.2816 13.0752 56.6026 13.0752C55.8002 13.0752 55.1367 13.2835 54.612 13.7001C54.0874 14.1013 53.7402 14.6723 53.5705 15.413Z" fill="#030303"/>
<path d="M69.2671 22.6115C67.5234 22.6115 66.0652 22.0251 64.8924 20.8524C63.7351 19.6796 63.1565 18.2291 63.1565 16.5008C63.1565 14.7726 63.7351 13.3221 64.8924 12.1493C66.0652 10.9766 67.5234 10.3902 69.2671 10.3902C70.3935 10.3902 71.4197 10.6603 72.3455 11.2003C73.2714 11.7404 73.9735 12.4657 74.4518 13.3761L71.8826 14.8806C71.6511 14.4023 71.2962 14.0242 70.8179 13.7464C70.355 13.4687 69.8303 13.3298 69.2439 13.3298C68.3489 13.3298 67.6083 13.6307 67.0219 14.2325C66.4355 14.8189 66.1423 15.575 66.1423 16.5008C66.1423 17.4113 66.4355 18.1674 67.0219 18.7692C67.6083 19.3556 68.3489 19.6487 69.2439 19.6487C69.8457 19.6487 70.3781 19.5176 70.841 19.2553C71.3194 18.9775 71.6743 18.5994 71.9058 18.1211L74.4981 19.6025C73.9889 20.5129 73.2714 21.2458 72.3455 21.8013C71.4197 22.3414 70.3935 22.6115 69.2671 22.6115Z" fill="#030303"/>
<path d="M75.3829 22.2874V5.39062H78.3688V22.2874H75.3829Z" fill="#030303"/>
<path d="M81.8887 9.3255C81.3949 9.3255 80.9628 9.14804 80.5925 8.79313C80.2376 8.42279 80.0601 7.99072 80.0601 7.49694C80.0601 7.00315 80.2376 6.57109 80.5925 6.20074C80.9628 5.8304 81.3949 5.64523 81.8887 5.64523C82.3979 5.64523 82.83 5.8304 83.1849 6.20074C83.5552 6.57109 83.7404 7.00315 83.7404 7.49694C83.7404 7.99072 83.5552 8.42279 83.1849 8.79313C82.83 9.14804 82.3979 9.3255 81.8887 9.3255ZM80.4073 22.2874V10.7143H83.3932V22.2874H80.4073Z" fill="#030303"/>
<path d="M91.8664 10.3902C93.1317 10.3902 94.1733 10.8146 94.9911 11.6633C95.8244 12.512 96.241 13.6847 96.241 15.1815V22.2874H93.2551V15.5518C93.2551 14.7803 93.0468 14.1939 92.6302 13.7927C92.2136 13.3761 91.6581 13.1678 90.9637 13.1678C90.1921 13.1678 89.5749 13.407 89.1119 13.8853C88.649 14.3637 88.4176 15.0812 88.4176 16.0379V22.2874H85.4317V10.7143H88.4176V12.0105C89.1428 10.9303 90.2924 10.3902 91.8664 10.3902Z" fill="#030303"/>
<path d="M99.5775 9.3255C99.0837 9.3255 98.6517 9.14804 98.2813 8.79313C97.9264 8.42279 97.749 7.99072 97.749 7.49694C97.749 7.00315 97.9264 6.57109 98.2813 6.20074C98.6517 5.8304 99.0837 5.64523 99.5775 5.64523C100.087 5.64523 100.519 5.8304 100.874 6.20074C101.244 6.57109 101.429 7.00315 101.429 7.49694C101.429 7.99072 101.244 8.42279 100.874 8.79313C100.519 9.14804 100.087 9.3255 99.5775 9.3255ZM98.0961 22.2874V10.7143H101.082V22.2874H98.0961Z" fill="#030303"/>
<path d="M108.629 22.6115C106.886 22.6115 105.427 22.0251 104.255 20.8524C103.097 19.6796 102.519 18.2291 102.519 16.5008C102.519 14.7726 103.097 13.3221 104.255 12.1493C105.427 10.9766 106.886 10.3902 108.629 10.3902C109.756 10.3902 110.782 10.6603 111.708 11.2003C112.634 11.7404 113.336 12.4657 113.814 13.3761L111.245 14.8806C111.013 14.4023 110.659 14.0242 110.18 13.7464C109.717 13.4687 109.193 13.3298 108.606 13.3298C107.711 13.3298 106.971 13.6307 106.384 14.2325C105.798 14.8189 105.505 15.575 105.505 16.5008C105.505 17.4113 105.798 18.1674 106.384 18.7692C106.971 19.3556 107.711 19.6487 108.606 19.6487C109.208 19.6487 109.74 19.5176 110.203 19.2553C110.682 18.9775 111.037 18.5994 111.268 18.1211L113.86 19.6025C113.351 20.5129 112.634 21.2458 111.708 21.8013C110.782 22.3414 109.756 22.6115 108.629 22.6115Z" fill="#030303"/>
</svg>
