<svg width="24" height="24" viewBox="0 0 24 24" fill="none" xmlns="http://www.w3.org/2000/svg">
<g clip-path="url(#clip0_301_302741)">
<path d="M2.15605 3.00305C1.50449 3.07337 0.89043 3.42493 0.487305 3.95462C0.0373047 4.54524 0.0279297 4.58743 0.00917969 6.2093L-0.00488281 7.61555L2.6998 9.64055C4.19043 10.7562 5.41387 11.6656 5.42324 11.6562C5.42793 11.6468 5.4373 10.0531 5.4373 8.10774V4.57805L4.63105 3.97337C3.75449 3.3218 3.53418 3.18587 3.14043 3.07805C2.80293 2.9843 2.52637 2.96555 2.15605 3.00305Z" fill="#EC1515"/>
<path d="M21.2578 3.00781C20.6672 3.06406 20.4797 3.1625 19.3969 3.97344L18.5391 4.62031L18.5625 8.15L18.5859 11.6797L21.2953 9.65L24 7.62031V6.32656C24 5.28125 23.9859 4.98594 23.925 4.77969C23.5781 3.60313 22.5 2.88594 21.2578 3.00781Z" fill="#ECC115"/>
<path d="M5.48438 8.20469L5.48906 11.7859L8.71406 14.2C10.4906 15.5266 11.9766 16.6094 12.0188 16.6094C12.0609 16.6047 13.5375 15.5172 15.3047 14.1953L18.5156 11.7859V8.20469C18.5156 5.35 18.5016 4.6375 18.4594 4.67031C18.4266 4.69844 16.9594 5.79531 15.2016 7.11719L12 9.5125L8.80313 7.11719C7.04063 5.79531 5.57344 4.69844 5.54531 4.67031C5.49844 4.6375 5.48438 5.35 5.48438 8.20469Z" fill="#EC4040"/>
<path d="M21.2484 9.73125L18.5156 11.775V16.4109V21.0469H20.4047C22.4016 21.0469 22.7531 21.0187 23.0906 20.8594C23.3578 20.7281 23.7234 20.3578 23.8641 20.0766L23.9766 19.8516L23.9906 15.4922C23.9953 13.0922 23.9953 10.3547 23.9906 9.40781L23.9766 7.68281L21.2484 9.73125Z" fill="#159640"/>
<path d="M0 13.6922C0 18.3 0.0140625 19.7437 0.05625 19.8703C0.159375 20.1656 0.4125 20.5219 0.642188 20.6906C1.09219 21.0187 1.14375 21.0234 3.42188 21.0234H5.46094L5.475 16.4016L5.48438 11.7797L2.80313 9.76406C1.32656 8.65781 0.0890625 7.73906 0.0609375 7.71562C0.0140625 7.6875 0 8.89687 0 13.6922Z" fill="#1596EC"/>
</g>
<defs>
<clipPath id="clip0_301_302741">
<rect width="24" height="24" fill="white"/>
</clipPath>
</defs>
</svg>
