<svg width="28" height="34" viewBox="0 0 28 34" fill="none" xmlns="http://www.w3.org/2000/svg">
<path d="M17.3327 0.335938H3.99935C3.11529 0.335938 2.26745 0.687127 1.64233 1.31225C1.0172 1.93737 0.666016 2.78522 0.666016 3.66927V30.3359C0.666016 31.22 1.0172 32.0678 1.64233 32.693C2.26745 33.3181 3.11529 33.6693 3.99935 33.6693H23.9993C24.8834 33.6693 25.7312 33.3181 26.3564 32.693C26.9815 32.0678 27.3327 31.22 27.3327 30.3359V10.3359L17.3327 0.335938ZM9.82935 23.9859C9.31435 24.4693 8.55435 24.6859 7.66935 24.6859C7.49775 24.6878 7.32623 24.6778 7.15602 24.6559V27.0326H5.66602V20.4726C6.33844 20.3723 7.01788 20.3266 7.69768 20.3359C8.62602 20.3359 9.28602 20.5126 9.73102 20.8676C10.1543 21.2043 10.441 21.7559 10.441 22.4059C10.4393 23.0593 10.2227 23.6109 9.82935 23.9859ZM16.1743 26.2443C15.4743 26.8259 14.4093 27.1026 13.1077 27.1026C12.3277 27.1026 11.776 27.0526 11.401 27.0026V20.4743C12.0737 20.3761 12.7529 20.3298 13.4327 20.3359C14.6943 20.3359 15.5143 20.5626 16.1543 21.0459C16.846 21.5593 17.2793 22.3776 17.2793 23.5526C17.2793 24.8243 16.8143 25.7026 16.1743 26.2443ZM22.3327 21.6193H19.7793V23.1376H22.166V24.3609H19.7793V27.0343H18.2693V20.3859H22.3327V21.6193ZM17.3327 12.0026H15.666V3.66927L23.9993 12.0026H17.3327Z" fill="#EF1E1E"/>
</svg>
