<svg width="24" height="24" viewBox="0 0 24 24" fill="none" xmlns="http://www.w3.org/2000/svg">
<path d="M11.9692 23.9749C8.08322 23.9749 4.19435 23.972 0.308408 23.9808C0.0558071 23.9808 0 23.9192 0 23.6726C0.00587443 15.8835 0.00587443 8.0973 0 0.308161C0 0.0586973 0.0616816 0 0.308408 0C8.09203 0.0088046 15.8757 0.0088046 23.6622 0C23.9354 0 24 0.0675019 24 0.33751C23.9912 8.1061 23.9912 15.8747 24 23.6404C24 23.9133 23.9324 23.9779 23.6622 23.9779C19.7645 23.972 15.8668 23.9749 11.9692 23.9749ZM11.511 5.00982C11.4933 5.1096 11.4845 5.13602 11.4845 5.16537C11.4845 8.55807 11.4875 11.9508 11.4786 15.3435C11.4786 15.5988 11.5961 15.6047 11.7871 15.6047C15.0944 15.6018 18.3987 15.5988 21.706 15.6076C21.9674 15.6076 22.0144 15.5225 22.0144 15.2848C22.0086 11.9508 22.0086 8.6197 22.0086 5.2857C22.0086 5.21232 22.0409 5.13015 21.9528 5.0421C21.5533 5.4119 21.1538 5.78169 20.7573 6.15148C19.4943 7.32836 18.2284 8.50231 16.9712 9.68506C16.7891 9.85528 16.6893 9.83768 16.516 9.67626C15.2823 8.51112 14.037 7.35771 12.7975 6.20137C12.3804 5.81397 11.9633 5.4295 11.511 5.00982ZM2.03549 8.88384C2.03549 11.0292 2.03843 13.1776 2.03255 15.3229C2.03255 15.5372 2.07368 15.6223 2.30865 15.6135C2.79623 15.5929 3.28675 15.5959 3.77726 15.6135C4.01224 15.6223 4.07979 15.5548 4.07686 15.3171C4.06511 13.7909 4.07979 12.2619 4.06511 10.7357C4.06217 10.4599 4.10917 10.3542 4.41464 10.3689C4.97271 10.3924 5.53372 10.3865 6.09179 10.3601C7.35185 10.2955 8.421 9.83474 9.1788 8.78406C10.1598 7.42228 10.3038 5.95485 9.59883 4.45513C8.91152 2.9965 7.67789 2.298 6.0771 2.22169C4.8376 2.163 3.60103 2.20995 2.36152 2.18354C2.10305 2.17767 2.02668 2.23637 2.02668 2.50638C2.04137 4.62829 2.03549 6.75606 2.03549 8.88384ZM21.9234 2.20996H11.5668C11.5903 2.31268 11.6519 2.34496 11.7019 2.39192C13.2938 3.87402 14.8917 5.3532 16.4748 6.84411C16.6834 7.04075 16.7979 7.06716 17.0212 6.85878C18.5955 5.37374 20.1846 3.90044 21.7677 2.42127C21.8265 2.3655 21.9175 2.32148 21.9234 2.20996ZM12.1571 20.7642C12.1336 20.7642 12.1072 20.7613 12.0837 20.7613C11.8311 20.007 11.555 19.2586 11.3347 18.4926C11.2378 18.1522 11.0733 18.0582 10.7473 18.0935C10.5857 18.1111 10.5211 18.1404 10.524 18.3165C10.5329 19.2645 10.527 20.2124 10.527 21.1604C10.527 21.2866 10.5182 21.3922 10.7032 21.3952C10.903 21.4011 10.903 21.2925 10.9 21.1487C10.8971 20.3592 10.8971 19.5726 10.9 18.7831C10.9 18.7039 10.8736 18.6129 10.9588 18.5043C10.9999 18.6159 11.0293 18.6951 11.0586 18.7743C11.3142 19.5198 11.5697 20.2653 11.8282 21.0078C11.8752 21.1457 11.8957 21.2807 12.116 21.2778C12.3216 21.2749 12.3627 21.1692 12.4127 21.0195C12.6741 20.2535 12.9355 19.4905 13.1999 18.7274C13.2234 18.6599 13.2175 18.566 13.3438 18.5337V19.015C13.3438 19.734 13.3438 20.4531 13.3408 21.1721C13.3408 21.3101 13.3585 21.3922 13.5318 21.3922C13.7109 21.3922 13.7197 21.3013 13.7168 21.1663C13.7139 20.2183 13.7168 19.2703 13.7139 18.3224C13.7139 18.249 13.7491 18.161 13.6581 18.1081C13.4495 17.9878 13.0354 18.1404 12.959 18.3664C12.6917 19.1647 12.4244 19.963 12.1571 20.7642ZM4.72892 19.7575C4.73186 19.7575 4.73186 19.7575 4.72892 19.7575C4.72892 20.2271 4.73186 20.6938 4.72892 21.1633C4.72892 21.2866 4.7113 21.3952 4.90222 21.3952C5.07551 21.3922 5.09607 21.3159 5.09313 21.1751C5.08726 20.817 5.09901 20.456 5.08726 20.098C5.08139 19.9366 5.13719 19.8925 5.29287 19.8955C5.71289 19.9043 6.13291 19.9101 6.54999 19.8925C6.75266 19.8837 6.77616 19.9688 6.77322 20.1391C6.76147 20.4883 6.77322 20.8376 6.77029 21.1868C6.77029 21.3071 6.77322 21.3952 6.94064 21.3952C7.10807 21.3952 7.1345 21.3277 7.1345 21.1809C7.12863 20.2242 7.12863 19.2674 7.1345 18.3106C7.1345 18.161 7.09925 18.0964 6.93771 18.0964C6.77029 18.0964 6.77029 18.1874 6.77029 18.3048C6.77322 18.654 6.76441 19.0033 6.77616 19.3525C6.78203 19.5257 6.72329 19.5756 6.55293 19.5726C6.13291 19.5638 5.71583 19.5638 5.2958 19.5726C5.14013 19.5756 5.08726 19.5227 5.0902 19.3672C5.09901 19.0179 5.0902 18.6687 5.09607 18.3194C5.09901 18.1815 5.08139 18.0993 4.90515 18.0964C4.71717 18.0935 4.72892 18.1991 4.72892 18.3253C4.73186 18.8008 4.72892 19.2791 4.72892 19.7575ZM7.83356 19.7194C7.83356 20.2183 7.8365 20.7143 7.83062 21.2132C7.83062 21.3365 7.86587 21.3952 8.00098 21.3922C8.13022 21.3893 8.20952 21.3688 8.20071 21.2132C8.1919 21.0254 8.2154 20.8317 8.19484 20.6468C8.16253 20.3592 8.24183 20.2095 8.56199 20.2682C8.66773 20.2887 8.77934 20.2711 8.89096 20.2711C9.79268 20.2682 10.1628 19.8602 10.0747 18.968C10.0218 18.431 9.72806 18.1345 9.18762 18.1081C8.80871 18.0905 8.42981 18.1081 8.05091 18.0935C7.87762 18.0876 7.82768 18.1492 7.83356 18.3136C7.83943 18.7831 7.83356 19.2527 7.83356 19.7194ZM2.03549 19.7429C2.03549 20.23 2.03843 20.7202 2.03255 21.2074C2.02962 21.3541 2.0913 21.3952 2.22641 21.3922C2.35565 21.3922 2.41146 21.3512 2.39971 21.2191C2.39383 21.1487 2.39971 21.0812 2.39971 21.0107C2.39971 20.2741 2.39971 20.2741 3.13989 20.2711C3.96818 20.2682 4.29715 19.9277 4.27659 19.0972C4.25897 18.431 3.94762 18.1169 3.275 18.1023C2.95484 18.0935 2.63762 18.114 2.31746 18.0935C2.10305 18.0817 2.02081 18.1345 2.02962 18.3664C2.05018 18.8272 2.03549 19.285 2.03549 19.7429ZM16.0225 20.2066H16.0196C16.0196 20.0158 16.0255 19.828 16.0196 19.6401C16.002 19.2322 15.8052 19.0179 15.4028 18.968C15.112 18.9328 14.8271 18.9886 14.5392 19.0297C14.4394 19.0444 14.3101 19.0444 14.3366 19.2175C14.363 19.3877 14.4805 19.3144 14.5657 19.3114C14.8153 19.3056 15.065 19.2821 15.3117 19.2879C15.5996 19.2938 15.6583 19.4993 15.6701 19.7429C15.6847 20.0158 15.4821 19.9424 15.3411 19.963C15.1443 19.9923 14.9416 19.9953 14.7478 20.0334C14.4071 20.098 14.2338 20.2917 14.2044 20.6145C14.1515 21.1868 14.4482 21.4803 15.0239 21.4245C15.3851 21.3893 15.7435 21.1868 16.1106 21.4128C16.1606 21.4421 16.2575 21.4597 16.2869 21.3658C16.3104 21.2837 16.3339 21.178 16.2164 21.1369C16.0166 21.0694 16.0196 20.9109 16.0225 20.7466C16.0255 20.5646 16.0225 20.3856 16.0225 20.2066ZM19.556 20.3416H19.8262C20.3931 20.3416 20.4225 20.3063 20.3285 19.737C20.2462 19.2439 19.9672 18.9945 19.4532 18.9592C18.9715 18.927 18.6073 19.1647 18.481 19.6225C18.3664 20.0334 18.3782 20.4531 18.4927 20.864C18.5808 21.1809 18.7923 21.3688 19.1301 21.4128C19.462 21.4568 19.788 21.4011 20.1141 21.3805C20.2169 21.3746 20.2785 21.3306 20.2727 21.2103C20.2639 21.0694 20.1669 21.0929 20.0788 21.0929C19.8409 21.0958 19.6 21.1134 19.3621 21.1076C19.0067 21.0988 18.8305 20.9315 18.7835 20.591C18.76 20.4237 18.7864 20.324 18.992 20.3416C19.1742 20.3562 19.3651 20.3416 19.556 20.3416ZM17.5646 19.6519V21.178C17.5646 21.2925 17.5499 21.3893 17.7261 21.3922C17.8965 21.3922 17.9229 21.3189 17.9229 21.1751C17.92 20.1772 17.917 19.1794 17.9229 18.1815C17.9229 18.0318 17.8877 17.9731 17.7232 17.9702C17.5469 17.9702 17.5646 18.0729 17.5646 18.1844C17.5616 18.6746 17.5616 19.1647 17.5646 19.6519ZM21.988 18.971C21.7501 19.0091 21.5386 19.1031 21.3301 19.2204C21.2273 19.2791 21.1392 19.3056 21.1421 19.1324C21.145 18.9651 21.0217 19.015 20.9306 19.0062C20.7926 18.9915 20.7955 19.0854 20.7955 19.1794C20.7955 19.8573 20.7984 20.5353 20.7955 21.2132C20.7955 21.3306 20.8131 21.3981 20.957 21.3952C21.0922 21.3922 21.1568 21.36 21.1538 21.2103C21.145 20.8728 21.1538 20.5323 21.1509 20.1948C21.1509 19.5726 21.145 19.558 21.7618 19.3907C22.0174 19.3202 22.0556 19.1999 21.988 18.971ZM16.9683 20.2154C16.9683 19.8779 16.9654 19.5403 16.9712 19.2028C16.9742 19.0737 16.9477 19.0003 16.795 19.0003C16.6481 19.0003 16.61 19.0532 16.6129 19.1911C16.6188 19.8573 16.6188 20.5206 16.6129 21.1868C16.6129 21.313 16.6246 21.3922 16.7862 21.3922C16.9331 21.3922 16.9742 21.3365 16.9712 21.1985C16.9624 20.8728 16.9654 20.5441 16.9683 20.2154ZM16.9654 18.2754C16.9859 18.1316 16.9507 18.0524 16.7774 18.0524C16.61 18.0524 16.607 18.1404 16.607 18.2607C16.61 18.3723 16.5835 18.4809 16.7627 18.4779C16.9154 18.475 16.9947 18.4368 16.9654 18.2754Z" fill="#343333"/>
<path d="M11.5109 5.00781C11.9632 5.4275 12.3803 5.80903 12.7945 6.19643C14.0369 7.35277 15.2793 8.50617 16.513 9.67132C16.6863 9.83567 16.7891 9.85034 16.9682 9.68012C18.2254 8.49444 19.4913 7.32049 20.7543 6.14654C21.1508 5.77675 21.5503 5.40989 21.9498 5.03716C22.0379 5.12521 22.0056 5.20738 22.0056 5.28075C22.0085 8.61476 22.0056 11.9458 22.0114 15.2798C22.0114 15.5176 21.9644 15.6027 21.703 15.6027C18.3957 15.5939 15.0914 15.5968 11.784 15.5998C11.5902 15.5998 11.4727 15.5939 11.4756 15.3385C11.4845 11.9458 11.4815 8.55313 11.4815 5.16043C11.4845 5.13401 11.4933 5.1076 11.5109 5.00781Z" fill="#F8CC6E"/>
<path d="M2.03549 8.88333C2.03549 6.75555 2.04137 4.63071 2.02962 2.50293C2.02668 2.22998 2.10599 2.17422 2.36446 2.18009C3.60397 2.20651 4.84054 2.15661 6.08004 2.21824C7.68082 2.29455 8.91445 2.99305 9.60176 4.45168C10.3067 5.94846 10.1628 7.41883 9.18174 8.78061C8.42394 9.83422 7.35479 10.2921 6.09473 10.3566C5.53666 10.386 4.97565 10.3918 4.41758 10.3654C4.11211 10.3508 4.06511 10.4564 4.06805 10.7323C4.08273 12.2584 4.06805 13.7875 4.0798 15.3136C4.08273 15.5513 4.01518 15.6188 3.7802 15.61C3.29262 15.5924 2.80211 15.5924 2.31159 15.61C2.07368 15.6188 2.03549 15.5337 2.03549 15.3195C2.03843 13.1741 2.03549 11.0287 2.03549 8.88333ZM4.07098 6.27717C4.07098 6.92577 4.07686 7.57438 4.06805 8.22298C4.06511 8.41081 4.12385 8.46364 4.30596 8.45484C4.61437 8.44016 4.92572 8.44897 5.23412 8.4519C5.66296 8.45777 6.09473 8.4519 6.51181 8.33451C7.61033 8.02341 8.22421 6.76435 7.8923 5.51997C7.68376 4.74516 6.95239 4.18754 6.02717 4.13471C5.46029 4.10243 4.88753 4.12591 4.32065 4.1083C4.12385 4.10243 4.06217 4.16113 4.06805 4.35776C4.07686 5.0005 4.07098 5.63737 4.07098 6.27717Z" fill="#FEFEFE"/>
<path d="M21.923 2.21094C21.9172 2.32246 21.8261 2.36649 21.7644 2.42225C20.1842 3.90142 18.5952 5.37472 17.0208 6.85977C17.0208 6.85977 16.683 7.04173 16.4745 6.84509C14.8913 5.35418 13.2964 3.87501 11.7015 2.3929C11.6516 2.34594 11.5899 2.31366 11.5664 2.21094H21.923Z" fill="#F8CC6E"/>
<path d="M12.157 20.7627C12.4243 19.9645 12.6945 19.1632 12.9618 18.365C13.0381 18.1419 13.4523 17.9864 13.6608 18.1067C13.7519 18.1595 13.7166 18.2476 13.7166 18.3209C13.7196 19.2689 13.7166 20.2169 13.7196 21.1648C13.7196 21.2998 13.7108 21.3908 13.5345 21.3908C13.3583 21.3908 13.3407 21.3086 13.3436 21.1707C13.3465 20.4516 13.3465 19.7326 13.3465 19.0136V18.5322C13.2173 18.5616 13.2261 18.6555 13.2026 18.7259C12.9383 19.489 12.6739 20.2521 12.4154 21.0181C12.3655 21.1648 12.3244 21.2734 12.1188 21.2763C11.8985 21.2793 11.8779 21.1472 11.8309 21.0063C11.5754 20.2609 11.3169 19.5154 11.0614 18.7729C11.035 18.6937 11.0026 18.6115 10.9615 18.5029C10.8763 18.6115 10.9028 18.7025 10.9028 18.7817C10.8998 19.5712 10.8998 20.3577 10.9028 21.1472C10.9028 21.2881 10.9028 21.3967 10.706 21.3937C10.5209 21.3908 10.5297 21.2822 10.5297 21.159C10.5297 20.211 10.5327 19.263 10.5268 18.3151C10.5268 18.1419 10.5885 18.1096 10.75 18.092C11.0761 18.0568 11.2406 18.1507 11.3375 18.4912C11.5578 19.2542 11.8339 20.0026 12.0865 20.7598C12.107 20.7598 12.1305 20.7598 12.157 20.7627ZM4.72875 19.7561V18.3209C4.72875 18.1947 4.717 18.0891 4.90498 18.092C5.08121 18.0949 5.0959 18.1771 5.0959 18.3151C5.09002 18.6643 5.10177 19.0136 5.09002 19.3628C5.08709 19.5184 5.13996 19.5712 5.29563 19.5683C5.71565 19.5594 6.13274 19.5594 6.55276 19.5683C6.72018 19.5712 6.78186 19.5213 6.77599 19.3481C6.76424 18.9989 6.77305 18.6496 6.77011 18.3004C6.77011 18.183 6.76717 18.0891 6.93753 18.092C7.10202 18.092 7.13726 18.1566 7.13433 18.3063C7.12845 19.263 7.12845 20.2198 7.13433 21.1766C7.13433 21.3233 7.10789 21.3937 6.94047 21.3908C6.77305 21.3908 6.77011 21.3028 6.77011 21.1824C6.77305 20.8332 6.76424 20.4839 6.77305 20.1347C6.77892 19.9674 6.75249 19.8823 6.54982 19.8882C6.13274 19.9058 5.71271 19.8999 5.29269 19.8911C5.13996 19.8882 5.08415 19.9322 5.08709 20.0936C5.09884 20.4516 5.08709 20.8126 5.09296 21.1707C5.0959 21.3116 5.0724 21.3908 4.90204 21.3908C4.71112 21.3937 4.72875 21.2852 4.72875 21.159C4.73168 20.6923 4.73168 20.2257 4.72875 19.7561C4.73168 19.7561 4.73168 19.7561 4.72875 19.7561ZM7.83338 19.7179C7.83338 19.2513 7.83926 18.7817 7.83045 18.3151C7.82751 18.1478 7.87744 18.0891 8.0478 18.095C8.4267 18.1096 8.8056 18.0891 9.1845 18.1096C9.72495 18.136 10.0187 18.4325 10.0715 18.9695C10.1597 19.8617 9.78957 20.2697 8.88785 20.2726C8.77917 20.2726 8.66462 20.2902 8.55888 20.2697C8.23872 20.211 8.15942 20.3577 8.19172 20.6483C8.21229 20.8361 8.18879 21.0269 8.1976 21.2147C8.20641 21.3703 8.12711 21.3908 7.99787 21.3937C7.86276 21.3967 7.82751 21.338 7.82751 21.2147C7.83632 20.7158 7.83338 20.2169 7.83338 19.7179ZM8.1976 19.1926C8.1976 19.9733 8.1976 19.9733 8.98184 19.9527C9.47823 19.941 9.70733 19.6945 9.71027 19.1691C9.7132 18.6526 9.50466 18.4325 8.99946 18.4149C8.20054 18.3884 8.20054 18.3884 8.1976 19.1926ZM2.03532 19.7414C2.03532 19.2836 2.05 18.8257 2.02944 18.3679C2.02063 18.1331 2.10287 18.0803 2.31729 18.095C2.63451 18.1126 2.95467 18.095 3.27482 18.1038C3.94745 18.1214 4.25879 18.4325 4.27641 19.0987C4.29991 19.9263 3.96801 20.2697 3.13971 20.2726C2.39953 20.2756 2.39953 20.2756 2.39953 21.0122C2.39953 21.0826 2.39366 21.1531 2.39953 21.2206C2.41128 21.3527 2.35547 21.3937 2.22624 21.3937C2.08819 21.3967 2.02944 21.3556 2.03238 21.2088C2.03826 20.7187 2.03532 20.2286 2.03532 19.7414ZM2.39953 19.175V19.2043C2.39953 19.9645 2.39953 19.9645 3.15733 19.9527C3.67722 19.9439 3.90339 19.7091 3.90633 19.1691C3.90926 18.632 3.70953 18.4266 3.17496 18.4149C2.39953 18.3972 2.39953 18.3972 2.39953 19.175ZM16.0223 20.2051C16.0223 20.3841 16.0253 20.5632 16.0223 20.7422C16.0194 20.9066 16.0165 21.065 16.2162 21.1325C16.3337 21.1707 16.3102 21.2763 16.2867 21.3615C16.2603 21.4554 16.1604 21.4378 16.1105 21.4084C15.7433 21.1824 15.385 21.3849 15.0237 21.4202C14.448 21.4759 14.1513 21.1824 14.2042 20.6101C14.2336 20.2873 14.4069 20.0936 14.7476 20.029C14.9444 19.9909 15.1441 19.9879 15.3409 19.9586C15.4819 19.938 15.6846 20.0114 15.6699 19.7385C15.6581 19.4949 15.5994 19.2924 15.3115 19.2836C15.0619 19.2777 14.8122 19.3012 14.5655 19.3071C14.4803 19.31 14.3628 19.3834 14.3364 19.2131C14.3099 19.04 14.4392 19.0429 14.5391 19.0253C14.824 18.9842 15.1118 18.9285 15.4026 18.9637C15.8079 19.0136 16.0018 19.2249 16.0194 19.6358C16.0282 19.8236 16.0194 20.0144 16.0194 20.2022L16.0223 20.2051ZM15.6699 20.616C15.6699 20.1934 15.6699 20.1934 15.2704 20.2403C15.1324 20.255 14.9914 20.2579 14.8563 20.2873C14.683 20.3254 14.5831 20.4458 14.5714 20.6219C14.5596 20.7921 14.5537 20.9917 14.727 21.0709C15.0061 21.1971 15.2969 21.1149 15.5671 21.0151C15.7697 20.9359 15.6229 20.7305 15.6699 20.616ZM19.5558 20.3401C19.3649 20.3401 19.1769 20.3519 18.9889 20.3372C18.7833 20.3196 18.7569 20.4194 18.7804 20.5867C18.8274 20.9271 19.0036 21.0944 19.359 21.1032C19.5969 21.1091 19.8378 21.0944 20.0757 21.0885C20.1638 21.0856 20.2607 21.065 20.2696 21.2059C20.2754 21.3262 20.2138 21.3673 20.111 21.3761C19.782 21.3967 19.4589 21.4524 19.127 21.4084C18.7892 21.3644 18.5777 21.1766 18.4896 20.8596C18.3751 20.4487 18.3633 20.032 18.4779 19.6181C18.6042 19.1603 18.9684 18.9226 19.4501 18.9549C19.9641 18.9901 20.2431 19.2395 20.3254 19.7326C20.4194 20.302 20.39 20.3372 19.8231 20.3372C19.735 20.3401 19.6439 20.3401 19.5558 20.3401ZM19.3943 19.2601C19.0271 19.263 18.7863 19.5037 18.7686 19.8764C18.7628 19.9967 18.7833 20.0642 18.9214 20.0613C19.2298 20.0554 19.5353 20.0584 19.8437 20.0613C19.9406 20.0613 19.9788 20.0232 19.9876 19.9204C20.017 19.533 19.7732 19.2572 19.3943 19.2601ZM17.5614 19.6504V18.183C17.5614 18.0715 17.5438 17.9688 17.7201 17.9688C17.8816 17.9688 17.9198 18.0274 17.9198 18.1801C17.9139 19.1779 17.9139 20.1758 17.9198 21.1736C17.9198 21.3174 17.8934 21.3908 17.723 21.3908C17.5497 21.3908 17.5614 21.291 17.5614 21.1766C17.5644 20.6688 17.5644 20.1611 17.5614 19.6504ZM21.9878 18.9695C22.0554 19.1985 22.0172 19.3159 21.7646 19.3863C21.1478 19.5506 21.1537 19.5683 21.1537 20.1904C21.1537 20.528 21.1478 20.8684 21.1566 21.2059C21.1595 21.3556 21.092 21.3879 20.9598 21.3908C20.8188 21.3937 20.7983 21.3262 20.7983 21.2088C20.8012 20.5309 20.8012 19.8529 20.7983 19.175C20.7983 19.0811 20.7924 18.9871 20.9334 19.0018C21.0244 19.0106 21.1507 18.9637 21.1449 19.128C21.139 19.3012 21.23 19.2748 21.3328 19.2161C21.5355 19.1016 21.7499 19.0077 21.9878 18.9695ZM16.9652 20.2139C16.9652 20.5426 16.9593 20.8684 16.9681 21.1971C16.9711 21.335 16.9299 21.3908 16.7831 21.3908C16.6215 21.3937 16.6098 21.3116 16.6098 21.1854C16.6127 20.5192 16.6127 19.8559 16.6098 19.1897C16.6098 19.0517 16.645 18.9989 16.7919 18.9989C16.9476 18.9989 16.9711 19.0723 16.9681 19.2014C16.9623 19.5389 16.9681 19.8764 16.9652 20.2139ZM16.9652 18.274C16.9975 18.4383 16.9153 18.4735 16.7655 18.4765C16.5863 18.4794 16.6127 18.3708 16.6098 18.2593C16.6069 18.139 16.6127 18.0509 16.7801 18.0509C16.9505 18.048 16.9858 18.1272 16.9652 18.274Z" fill="#FEFEFE"/>
<path d="M4.07069 6.27612C4.07069 5.63632 4.07656 4.99945 4.06775 4.35965C4.06482 4.16301 4.12356 4.10138 4.32035 4.11019C4.89017 4.12779 5.45999 4.10725 6.02688 4.1366C6.9521 4.18649 7.6864 4.74705 7.89201 5.52186C8.22392 6.76624 7.61004 8.0253 6.51152 8.33639C6.09443 8.45379 5.6656 8.45966 5.23383 8.45379C4.92542 8.45085 4.61408 8.44205 4.30567 8.45672C4.12356 8.46553 4.06482 8.40977 4.06775 8.22487C4.07656 7.57333 4.07069 6.92472 4.07069 6.27612ZM8.19748 19.1925C8.19748 18.3883 8.19748 18.3883 8.9964 18.4147C9.50454 18.4323 9.71015 18.6525 9.70721 19.169C9.70427 19.6943 9.47517 19.9409 8.97878 19.9526C8.19748 19.9731 8.19748 19.9731 8.19748 19.1925ZM2.39941 19.1749C2.39941 18.3971 2.39941 18.3971 3.17484 18.4147C3.70648 18.4265 3.90914 18.6348 3.90621 19.169C3.90327 19.709 3.6771 19.9438 3.15722 19.9526C2.39941 19.9643 2.39941 19.9643 2.39941 19.2042V19.1749ZM15.6698 20.6159C15.6698 20.7391 15.6874 20.9739 15.564 21.015C15.2909 21.106 15.003 21.1999 14.724 21.0708C14.5507 20.9915 14.5566 20.792 14.5683 20.6217C14.5801 20.4427 14.6799 20.3224 14.8532 20.2872C14.9883 20.2578 15.1293 20.2549 15.2674 20.2402C15.6698 20.1933 15.6698 20.1933 15.6698 20.6159ZM19.3941 19.26C19.7731 19.257 20.0168 19.5329 19.9904 19.9203C19.9816 20.023 19.9434 20.0612 19.8465 20.0612C19.5381 20.0612 19.2326 20.0583 18.9242 20.0612C18.7832 20.0641 18.7656 19.9937 18.7715 19.8763C18.7861 19.5036 19.0241 19.2629 19.3941 19.26Z" fill="#343333"/>
</svg>
