<svg width="25" height="25" viewBox="0 0 25 25" fill="none" xmlns="http://www.w3.org/2000/svg">
<path opacity="0.4" d="M8.14331 2.5H16.5133C20.1633 2.5 22.3333 4.67 22.3333 8.31V16.68C22.3333 20.32 20.1633 22.49 16.5233 22.49H8.14331C4.50331 22.5 2.33331 20.33 2.33331 16.69V8.31C2.33331 4.67 4.50331 2.5 8.14331 2.5Z" fill="white"/>
<path d="M12.3333 19.0799C9.16331 19.0799 6.58331 16.4999 6.58331 13.3299C6.58331 12.1899 6.91331 11.0799 7.55331 10.1399C7.78331 9.7999 8.25331 9.6999 8.59331 9.9299C8.93331 10.1599 9.03331 10.6299 8.80331 10.9699C8.33331 11.6699 8.09331 12.4899 8.09331 13.3299C8.09331 15.6699 10.0033 17.5799 12.3433 17.5799C14.6833 17.5799 16.5933 15.6699 16.5933 13.3299C16.5933 11.0899 14.8533 9.2499 12.6533 9.0899L13.0633 9.3899C13.3933 9.6299 13.4733 10.0999 13.2233 10.4399C12.9833 10.7699 12.5133 10.8499 12.1733 10.5999L10.2333 9.1899C10.1633 9.1399 10.1033 9.0799 10.0533 9.0099C10.0433 8.9999 10.0333 8.9899 10.0233 8.9699C9.98331 8.8999 9.95331 8.8199 9.93331 8.7399C9.91331 8.6399 9.91331 8.5499 9.92331 8.4499C9.93331 8.4099 9.94331 8.3699 9.95331 8.3299C9.97331 8.2599 10.0133 8.1999 10.0533 8.1299C10.0733 8.1199 10.0933 8.0999 10.1133 8.0799L11.7733 6.1799C12.0433 5.8699 12.5233 5.8399 12.8333 6.1099C13.1433 6.3799 13.1733 6.8599 12.9033 7.1699L12.5333 7.5999C15.6133 7.6999 18.0933 10.2399 18.0933 13.3499C18.0833 16.4999 15.5033 19.0799 12.3333 19.0799Z" fill="white"/>
</svg>
