<svg width="26" height="26" viewBox="0 0 26 26" fill="none" xmlns="http://www.w3.org/2000/svg">
<path d="M17.6357 21.0995C17.6357 23.6264 15.5873 25.6748 13.0604 25.6748C10.5335 25.6748 8.48506 23.6264 8.48506 21.0995L8.48506 4.89944C8.48506 2.37255 10.5335 0.324102 13.0604 0.324102C15.5873 0.324102 17.6357 2.37255 17.6357 4.89944L17.6357 21.0995Z" fill="#2E37A4"/>
<path d="M13.173 8.48535C15.6663 8.48535 17.6875 10.5066 17.6875 12.9999C17.6875 15.4932 15.6663 17.5144 13.173 17.5144L4.83852 17.5144C2.34522 17.5144 0.324005 15.4932 0.324005 12.9999C0.324005 10.5066 2.34522 8.48535 4.83852 8.48535L13.173 8.48535Z" fill="#2E37A4"/>
<path d="M21.1603 8.48535C23.6536 8.48535 25.6748 10.5066 25.6748 12.9999C25.6748 15.4932 23.6536 17.5144 21.1603 17.5144L12.9995 17.5144C10.5062 17.5144 8.48494 15.4932 8.48494 12.9999C8.48494 10.5066 10.5062 8.48535 12.9995 8.48535L21.1603 8.48535Z" fill="#00D3C7"/>
<path d="M17.6875 8.48535L17.6875 17.5144L12.9994 17.5144C10.5061 17.5144 8.48485 15.4932 8.48485 12.9999C8.48485 10.5066 10.5061 8.48535 12.9994 8.48535L17.6875 8.48535Z" fill="white"/>
</svg>
