<svg width="51" height="21" viewBox="0 0 51 21" fill="none" xmlns="http://www.w3.org/2000/svg">
<path d="M10.891 8.96242C10.8461 9.04696 10.6004 9.17377 10.6347 9.21075C10.1961 9.40097 9.79984 9.62817 9.29522 9.74706C9.16048 9.77876 8.97818 9.87387 8.85137 9.9452C8.677 10.0456 8.52905 10.0588 8.42073 10.0456C8.28334 10.0694 8.17238 10.0905 8.02443 10.1565C7.74438 10.2807 7.36658 10.3679 6.97821 10.463C7.04162 10.389 7.35073 10.3468 7.41149 10.286C7.21599 10.2966 7.05483 10.3573 6.8831 10.397C6.85404 10.3864 6.85404 10.3653 6.73779 10.3864C6.72458 10.389 6.69816 10.3996 6.7008 10.4022C6.70609 10.426 6.80384 10.4075 6.8831 10.3996C6.64004 10.5449 6.20147 10.5555 5.85009 10.6136C5.84216 10.6189 5.82895 10.6242 5.82367 10.6268C5.78932 10.6294 5.79725 10.6242 5.8448 10.6136C5.89764 10.5766 5.99539 10.5396 5.98483 10.4974C5.76818 10.5581 5.57532 10.611 5.38246 10.6664C5.17638 10.6611 5.40359 10.603 5.32433 10.5766C4.89633 10.6427 4.57401 10.8197 4.02977 10.788C4.0694 10.7615 4.11431 10.7325 4.16186 10.7008C4.22791 10.6849 4.3468 10.6876 4.37322 10.6559C4.28604 10.6638 4.21735 10.6796 4.15394 10.6981C4.07204 10.714 3.98749 10.7272 3.90824 10.743C3.65989 10.7959 3.71537 10.891 3.51987 10.9068C3.25831 10.9306 3.11829 10.9729 2.96241 11.0416C2.84616 10.9967 3.01789 10.9174 2.99675 10.8725L3.02846 10.8593L2.99411 10.8725C2.77483 10.9227 2.77483 10.9623 2.74577 11.0046C2.71142 11.0601 2.56611 11.1103 2.3891 11.1288C2.19095 11.1525 2.36004 11.0812 2.43666 11.0363C2.46836 11.0178 2.52648 10.9967 2.46836 10.994C2.05885 11.105 1.9109 11.2265 1.77352 11.3428L1.80787 11.3375L1.76824 11.348C1.58066 11.4062 1.40629 11.4537 1.27947 11.4696C1.34024 11.4352 1.48026 11.4009 1.46177 11.3718C1.45913 11.3665 1.32703 11.4352 1.27419 11.4696C1.08661 11.5567 0.938657 11.6756 0.724658 11.7628C0.629547 11.8606 0.529152 11.9002 0.455176 11.9742C0.452534 11.9953 0.449892 12.0138 0.452534 12.0323C0.434041 12.0402 0.418189 12.0508 0.402337 12.0613C0.386485 12.1406 0.399695 12.2119 0.431399 12.2859C0.463102 12.3599 0.497448 12.4339 0.515942 12.521C0.677102 12.8249 0.587275 12.7482 0.48688 12.6901C0.489522 12.7033 0.50009 12.7245 0.497448 12.7245C0.484238 12.7218 0.465744 12.6954 0.46046 12.6584C0.346855 12.5025 0.249102 12.3255 0.257028 12.1353C0.206831 12.3255 0.323078 12.4999 0.418189 12.6901C0.523868 12.8909 0.579349 12.8618 0.629547 12.8698C0.729942 12.8883 0.838262 13.0019 1.00999 13.1762L1.03113 13.2026L1.01263 13.1789C1.11567 13.1974 1.21078 13.2608 1.32703 13.3612C1.43799 13.4457 1.40364 13.4721 1.35873 13.5144C1.5833 13.5408 1.47498 13.4298 1.50932 13.3929C1.70483 13.4615 1.82372 13.5038 1.90034 13.5593H1.87392L1.9109 13.5646C2.52384 13.6729 3.10508 13.5487 3.77349 13.414C4.07468 13.3532 4.40228 13.1974 4.7114 13.0573C5.05485 12.8988 5.11033 12.8856 5.1711 12.9596C5.253 12.7879 5.62023 12.6214 5.95841 12.4391C6.40226 12.1987 6.79327 11.8923 7.13673 11.5488C7.44055 11.2424 7.70739 10.9068 7.86855 10.5211C7.86063 10.5977 7.82364 10.6929 7.87648 10.6638C7.93724 10.5211 7.87384 10.5634 7.8712 10.5158C7.88705 10.4472 7.90026 10.3785 7.92403 10.3071C7.97952 10.0694 8.00858 9.91878 8.06142 10.0297C8.07727 10.0641 8.0984 10.0905 8.12747 10.0033C8.14068 9.83424 8.10105 9.87387 8.07991 9.84216C8.05877 9.80782 8.04292 9.75762 8.035 9.68629C8.02707 9.61496 8.02971 9.5225 8.01122 9.40361C8.00065 9.29265 8.00329 9.22132 7.99801 9.16056C7.99537 9.09979 8.00065 9.04431 7.97423 8.97563C7.91875 8.85146 7.86327 8.79598 7.78137 8.6269C7.69683 8.42611 7.55152 8.27024 7.44055 8.0721C7.36129 7.95322 7.26618 7.85811 7.16315 7.77621C7.12087 7.74715 7.08917 7.7128 7.06804 7.67318C6.75364 7.3403 6.40226 7.04441 5.96369 6.82513C5.4987 6.60321 5.40888 6.55302 5.24243 6.37601C5.07335 6.31525 5.09184 6.38658 4.92275 6.32053C4.70611 6.23599 4.48683 6.13296 4.27811 6.04313C4.1011 5.96652 3.94522 5.88462 3.78142 5.85028C3.5093 5.79744 3.22396 5.60986 2.92542 5.5174C2.76426 5.46984 2.80125 5.39851 2.62688 5.28755C2.53177 5.31133 2.37325 5.26114 2.06414 5.06828C1.70747 4.84636 1.3693 4.58217 1.06811 4.27571C0.766929 3.9719 0.478954 3.60732 0.360065 3.12385C0.296658 2.87287 0.317794 2.6034 0.402337 2.36563C0.48688 2.12522 0.632189 1.92179 0.793349 1.75535L0.772213 1.79234L0.798633 1.75535C0.91488 1.60741 1.06019 1.4806 1.18964 1.36964C1.43006 1.17414 1.44327 1.22698 1.47234 1.24811L1.44592 1.27453L1.47498 1.24811C1.68369 1.07639 1.93468 0.939012 2.20152 0.830695C2.471 0.730303 2.74312 0.648404 3.02317 0.574432C3.26359 0.518952 3.49345 0.468756 3.72858 0.434412C3.76557 0.392142 3.79463 0.349871 4.00863 0.336662C4.52382 0.201926 5.03107 0.149088 5.54362 0.0988924C5.60174 0.0830411 5.65194 0.0777573 5.69421 0.0883249C5.84744 0.0724736 6.00068 0.0539804 6.15391 0.0381291C6.51058 0.00906834 6.75364 0.0143521 6.88838 0.125311C6.97028 0.0486966 6.99934 -0.00414109 7.27147 0.00114268C7.53302 0.00114268 7.89233 -0.0120667 8.02971 0.0513385C8.12747 0.0962505 8.1671 0.0988924 8.24371 0.0698317C8.47621 -0.00942486 8.58453 0.0698317 8.72191 0.114744C8.69285 0.120028 8.59774 0.101534 8.61623 0.122669L8.72191 0.114744C8.93063 0.0988924 9.14991 0.122669 9.37184 0.15173C9.59376 0.188717 9.81305 0.23627 10.0323 0.262689C10.0746 0.260047 10.1116 0.257406 10.1829 0.278541C10.1856 0.278541 10.1724 0.283824 10.1644 0.283824L10.0429 0.262689L9.89495 0.294392C10.0244 0.326095 10.1222 0.336662 10.2305 0.339304C10.3969 0.344588 10.5924 0.357797 10.8091 0.423844C10.8408 0.437054 10.7774 0.444979 10.8804 0.463473L10.817 0.423844C10.8778 0.418561 10.9597 0.434412 11.0284 0.466114C11.1367 0.51631 11.1789 0.57179 11.3665 0.553297C11.4801 0.545371 11.7417 0.621986 11.9451 0.703884C12.0244 0.738229 12.0666 0.772573 11.9927 0.767289C11.9583 0.762006 11.8791 0.74087 11.8209 0.725019C11.7813 0.701242 11.7364 0.690675 11.6888 0.685391H11.6598L11.6968 0.690675C11.7364 0.6986 11.7734 0.71181 11.8077 0.725019C12.1459 0.8941 12.418 0.896742 12.7245 0.999775C12.9253 1.07375 13.1261 1.16093 13.3216 1.26132C13.4141 1.31152 13.5382 1.37756 13.5197 1.40927C13.4827 1.47796 13.6333 1.55985 13.8024 1.6444C13.9055 1.69987 13.9979 1.74214 14.1221 1.88481C14.3203 2.11993 14.492 2.39469 14.5686 2.71172C14.6479 3.0261 14.6029 3.36955 14.4603 3.65223C14.2701 4.01945 13.9979 4.29156 13.6862 4.52669C13.3348 4.7856 12.957 4.9811 12.5739 5.1581C12.1882 5.33247 11.784 5.47777 11.3586 5.57552C10.7985 5.70497 10.2226 5.79744 9.64396 5.8265C9.48016 5.83442 9.33485 5.83971 9.20539 5.81593C9.05216 5.78687 8.97026 5.76045 9.13142 5.72347C9.36655 5.67063 9.62018 5.62836 9.99534 5.58609C10.8011 5.49362 11.5964 5.30076 12.3467 4.99431C12.7219 4.83579 13.0917 4.65879 13.422 4.43687C13.7496 4.21231 14.0534 3.93755 14.2278 3.59675C14.4471 3.1899 14.3969 2.68001 14.1327 2.30487C13.8711 1.92179 13.4722 1.63911 13.0495 1.41983C12.7509 1.25868 12.4286 1.14772 12.1036 1.03676C11.9425 0.97864 11.7787 0.925802 11.6122 0.878248C11.4484 0.830694 11.2846 0.775215 11.1155 0.738229C10.4524 0.55858 9.77077 0.439696 9.08914 0.357797C7.72325 0.194 6.33357 0.233629 4.97295 0.444979C4.28868 0.55858 3.61233 0.717093 2.9492 0.917877C2.51063 1.0579 2.06414 1.19792 1.67048 1.43569C1.27947 1.66553 0.912238 1.97727 0.751077 2.38412C0.666534 2.59547 0.650682 2.82796 0.695596 3.04724C0.740509 3.26915 0.846188 3.47522 0.980929 3.6628C1.25305 4.0353 1.62029 4.3444 2.0113 4.59802C3.17905 5.35624 4.56873 5.70761 5.84216 6.31525C6.6691 6.72738 7.40621 7.32709 7.94253 8.10116C8.1988 8.47631 8.37845 8.92543 8.42073 9.39833C8.46564 9.87123 8.37581 10.3573 8.16974 10.7827C8.14332 10.8382 8.12482 10.8963 8.10369 10.9544C7.97952 11.1948 7.83685 11.4379 7.6387 11.6017C7.51717 11.7126 7.43263 11.8209 7.32959 11.9266C6.89631 12.3282 6.40226 12.6795 5.89236 12.8935L5.91613 12.8724L5.88443 12.8962C5.62023 13.0943 5.18695 13.2608 4.96502 13.4378C5.00201 13.4246 5.04428 13.4034 5.07335 13.3955C5.11298 13.3849 5.09712 13.4008 5.04957 13.4193C5.01786 13.4325 4.99144 13.4325 4.96238 13.4404L4.71932 13.5434C4.71404 13.5355 4.7114 13.5276 4.7114 13.517L4.7431 13.4959L4.70875 13.5197C4.69818 13.5276 4.67705 13.5408 4.67969 13.5408C4.68762 13.5461 4.70611 13.5434 4.71932 13.5461C4.66384 13.5936 4.57137 13.6386 4.46041 13.6808C4.25962 13.7548 4.39436 13.6703 4.35473 13.6703C4.2649 13.6755 3.61233 13.8737 3.33493 13.9344C3.23189 13.9635 3.13678 13.9899 3.02053 14.0005C3.09451 14.0322 3.04959 14.0745 2.81974 14.0586C2.56611 14.0348 2.44987 14.0137 2.32569 14.0031C2.20416 13.9926 2.07471 13.9952 1.7973 13.9582C1.63085 13.9424 1.26626 13.842 1.11567 13.7257C0.743151 13.4563 0.341572 13.134 0.117004 12.6663C0.0668063 12.558 0.0218927 12.4391 0.00604091 12.3018C-0.0124529 12.167 0.0113249 12.0085 0.0800162 11.8791C0.220041 11.6175 0.444608 11.4933 0.637473 11.3877C1.02584 11.1922 1.43006 11.0363 1.84221 10.9121C2.00866 10.8593 2.18831 10.8144 2.32041 10.8117C2.42345 10.7932 2.52913 10.78 2.62424 10.743C2.7854 10.6796 2.99147 10.6347 3.17377 10.6136C3.82105 10.5396 4.48683 10.4366 5.12354 10.3996C5.25564 10.3917 5.37189 10.3811 5.4987 10.3573C5.85801 10.2913 6.21468 10.2226 6.57663 10.2094C6.72458 10.2041 6.86989 10.1618 7.00199 10.1248C7.25033 10.0535 7.49339 10.0086 7.7391 9.96633H7.74438C8.07727 9.91085 8.42601 9.8131 8.75626 9.72064C9.03631 9.64402 9.38769 9.53042 9.61754 9.38776C9.71529 9.38776 9.6466 9.43267 9.62018 9.46173C10.0376 9.32435 10.4445 9.13942 10.891 8.96242ZM12.4762 5.13433C12.4392 5.14753 12.4022 5.1581 12.3678 5.17131C12.3388 5.18188 12.3097 5.19773 12.2806 5.21094L12.3916 5.1766L12.4762 5.13433ZM13.2661 4.73276C13.2503 4.74333 13.2344 4.75389 13.2159 4.76446L13.2529 4.75389C13.2714 4.74333 13.2978 4.73012 13.3084 4.72219C13.3401 4.69577 13.3216 4.70106 13.2661 4.73276ZM9.76549 0.286466C9.7787 0.289108 9.79984 0.294392 9.80776 0.294392H9.88966L9.76549 0.286466ZM9.41675 0.220419L9.45374 0.225703L9.44053 0.215135L9.41675 0.220419ZM5.52776 0.167581L5.56475 0.157014C5.98218 0.135879 5.69685 0.112102 5.69421 0.0883249C5.65986 0.0936087 5.62816 0.0988924 5.59646 0.104176L5.55683 0.157014L5.52776 0.167581ZM4.84878 0.281182C4.84614 0.283824 4.86727 0.286466 4.88048 0.286466C4.89897 0.283824 4.91747 0.278541 4.93596 0.273257C4.93596 0.267973 4.94653 0.262689 4.9386 0.262689C4.89105 0.260047 4.8567 0.267973 4.84878 0.281182ZM4.36265 0.384216L4.397 0.373648L4.45248 0.33402L4.38643 0.373648L4.36265 0.384216ZM3.74707 0.43177L3.79463 0.468756C3.91088 0.43177 3.84747 0.423844 3.87125 0.400067L3.74707 0.43177ZM2.78011 0.717093C2.77219 0.732945 2.79332 0.732945 2.83559 0.714452C2.8673 0.701242 2.899 0.682749 2.90957 0.66954C2.92542 0.653688 2.89636 0.653688 2.85409 0.672181C2.82503 0.688033 2.80653 0.703884 2.78011 0.717093ZM2.17246 0.939012C2.17246 0.949579 2.20152 0.944296 2.24908 0.925802C2.26229 0.920519 2.27021 0.909951 2.28078 0.904667C2.2755 0.891458 2.24908 0.896742 2.20152 0.917877C2.18567 0.92316 2.17246 0.933728 2.17246 0.939012ZM0.478954 2.47923L0.47367 2.41583V2.38412L0.468386 2.42639C0.468386 2.44489 0.444608 2.55585 0.478954 2.47923ZM0.502732 3.2533L0.508016 3.24009L0.492164 3.2216L0.502732 3.2533ZM1.81843 4.73804L1.78673 4.72219L1.75767 4.70898L1.79466 4.73012L1.81843 4.73804ZM2.26229 5.01808C2.24908 5.00751 2.23587 4.99431 2.22266 4.98902C2.17774 4.96524 2.16189 4.96524 2.18303 4.98638C2.18567 4.98902 2.21209 5.00223 2.22794 5.0128L2.26229 5.01808ZM3.44061 5.64157L3.42211 5.62572C3.27416 5.52532 3.09979 5.46984 2.92806 5.4038L2.90164 5.38266L2.92014 5.40116C3.0628 5.50947 3.25303 5.53589 3.4089 5.62307L3.44061 5.64157ZM6.49737 7.01799L6.46302 6.99421L6.48944 7.01799H6.49737ZM6.81705 7.32973L6.81441 7.31388L6.79327 7.30595L6.81705 7.32973ZM7.14201 7.74187C7.12352 7.70752 7.09974 7.68639 7.07332 7.67318L7.14201 7.74187ZM7.78137 8.3495C7.78665 8.34686 7.77344 8.31516 7.76816 8.29402C7.74966 8.27553 7.72324 8.23854 7.71796 8.24118C7.71268 8.24382 7.72853 8.28345 7.73645 8.30987C7.75231 8.32308 7.77608 8.35214 7.78137 8.3495ZM7.74702 10.9623L7.76023 10.9597L7.76287 10.9385L7.74702 10.9623ZM7.45905 11.356C7.46433 11.3454 7.47754 11.3322 7.47754 11.3295C7.48018 11.3163 7.48018 11.3058 7.48018 11.2952C7.48547 11.2846 7.49075 11.2767 7.49604 11.2661C7.49075 11.2793 7.48018 11.2899 7.47226 11.3005L7.45905 11.356ZM6.82233 11.9108C6.94122 11.8394 6.98085 11.8104 7.02312 11.7787C7.06275 11.747 7.13408 11.6809 7.13408 11.6703C7.13937 11.6466 7.09181 11.6783 7.04426 11.7153C7.00463 11.747 6.96764 11.7919 6.82233 11.9108ZM6.29922 12.3123C6.29658 12.3203 6.33357 12.307 6.35206 12.3018C6.38905 12.2806 6.41018 12.2595 6.40226 12.2542C6.39697 12.2489 6.37584 12.2568 6.35999 12.2568C6.33885 12.2753 6.30186 12.3044 6.29922 12.3123ZM5.8131 12.5924L5.83952 12.5765H5.82367L5.8131 12.5924ZM5.5991 12.7667L5.61231 12.7694L5.62552 12.7535L5.5991 12.7667ZM3.82633 13.517C3.82898 13.517 3.8554 13.5117 3.87125 13.5065C3.88182 13.4985 3.90559 13.488 3.90559 13.4853C3.90559 13.4721 3.87653 13.48 3.8369 13.5012C3.82633 13.5091 3.82369 13.517 3.82633 13.517ZM2.67708 13.7442L2.68764 13.7522L2.70878 13.7442H2.67708ZM1.83693 13.6465L1.86599 13.6623L1.89505 13.6782L1.87656 13.6623L1.83693 13.6465ZM1.73389 13.7944L1.74182 13.805L1.76295 13.8023L1.73389 13.7944ZM0.735225 13.0177C0.732584 13.0177 0.751077 13.0441 0.756361 13.0494C0.774855 13.0653 0.795991 13.0758 0.817127 13.089C0.803917 13.0705 0.788065 13.0521 0.774855 13.0336C0.761645 13.0256 0.745793 13.0204 0.735225 13.0177ZM0.441966 12.4946C0.455176 12.5025 0.468386 12.5105 0.478954 12.5131C0.489522 12.5158 0.50009 12.5131 0.508016 12.5131C0.489522 12.4946 0.47367 12.4682 0.46046 12.4576C0.444608 12.4471 0.420831 12.4233 0.441966 12.4946ZM0.44725 11.9689C0.420831 11.9847 0.402337 12.0112 0.399695 12.0429C0.412905 12.0191 0.428757 11.9927 0.44725 11.9689ZM0.444608 11.8421C0.375917 11.8183 0.307226 11.9662 0.283448 12.0534C0.341572 12.0217 0.373275 11.9372 0.444608 11.8421ZM0.579349 11.8024C0.566139 11.7919 0.550287 11.7813 0.492164 11.8183C0.497448 11.8368 0.523868 11.8341 0.579349 11.8024ZM0.909596 11.496L0.87525 11.5171C0.825053 11.5462 0.764287 11.5779 0.729942 11.6069C0.70088 11.6307 0.737867 11.6228 0.774855 11.599C0.817127 11.57 0.846188 11.5435 0.880534 11.5171L0.909596 11.496ZM1.15266 11.4141L1.1236 11.4326C1.11303 11.4458 1.02584 11.4907 1.09718 11.4722L1.13152 11.4299L1.15266 11.4141ZM3.63611 10.6611L3.59384 10.6717L3.63347 10.6691L3.63611 10.6611ZM8.53961 9.99803C8.52376 10.0007 8.50527 10.0033 8.49734 10.0086L8.42601 10.0429L8.53961 9.99803ZM9.63075 9.48551L9.62282 9.46173C9.60961 9.46966 9.59112 9.48023 9.59112 9.48023C9.59905 9.48287 9.6149 9.48287 9.63075 9.48551ZM10.3705 9.28208L10.4101 9.26095L10.3705 9.27152V9.28208Z" fill="#030303"/>
<path d="M24.6835 10.3217C24.591 10.3666 24.2845 10.3217 24.2925 10.3719C23.7746 10.253 23.2357 10.0866 22.8579 9.60309C22.7575 9.47892 22.5989 9.30191 22.5012 9.15661C22.3612 8.95582 22.3559 8.76297 22.3849 8.64144C22.3797 8.47764 22.3902 8.34819 22.3797 8.16326C22.3638 7.80925 22.4563 7.3839 22.5461 6.94271C22.5857 7.04046 22.4801 7.37598 22.5118 7.4658C22.5857 7.26238 22.6069 7.06688 22.6491 6.87402C22.6729 6.85024 22.6914 6.86081 22.7284 6.734C22.7337 6.71815 22.7363 6.68909 22.731 6.68909C22.7073 6.6838 22.6782 6.79212 22.6491 6.87402C22.6307 6.55963 22.8341 6.10787 22.9715 5.73008C22.9715 5.71951 22.9715 5.70366 22.9741 5.69838C22.99 5.66139 22.99 5.67196 22.9741 5.72744C22.9768 5.79877 22.9583 5.91501 23.0032 5.92558C23.0587 5.68253 23.1194 5.46325 23.1828 5.24397C23.307 5.04583 23.2225 5.29945 23.2938 5.23341C23.4814 4.78693 23.5289 4.36951 23.9384 3.9019C23.9305 3.95473 23.9199 4.01286 23.9147 4.07362C23.8829 4.14495 23.801 4.25063 23.809 4.29025C23.8618 4.20836 23.8935 4.13438 23.9199 4.06569C23.9648 3.9838 24.0124 3.9019 24.0573 3.82C24.1947 3.57166 24.089 3.55581 24.2264 3.37616C24.414 3.14103 24.4985 2.99837 24.5884 2.82665C24.7152 2.77117 24.6201 2.96403 24.6676 2.98516L24.6518 3.01951L24.6703 2.98252C24.8103 2.78438 24.8182 2.73154 24.8314 2.66285C24.8446 2.61794 24.8922 2.54133 24.9662 2.4515C24.9846 2.42772 25.0058 2.40659 25.0269 2.38281C25.0507 2.40131 25.0745 2.42244 25.0983 2.44622C25.1485 2.49377 25.196 2.54133 25.2409 2.60209C25.4153 2.8927 25.2251 2.65228 25.1405 2.60737C25.1062 2.58095 25.0428 2.54133 25.0956 2.60737C25.1907 2.6972 25.2568 2.7923 25.3096 2.88477C25.3598 2.97724 25.3862 3.04593 25.4153 3.11726C25.4681 3.25199 25.5051 3.35767 25.5421 3.4607L25.5474 3.41579L25.5421 3.46863C25.5342 3.71432 25.4813 3.92567 25.4206 4.06041C25.4285 3.98115 25.4761 3.81471 25.4391 3.82C25.4391 3.82 25.4206 3.99172 25.4206 4.06569C25.3809 4.30346 25.3915 4.51481 25.299 4.78164C25.2964 4.95073 25.2383 5.08546 25.1854 5.22548L25.1934 5.30738L25.1432 5.37871C25.1273 5.50552 25.1141 5.63497 25.093 5.76178C25.0718 5.88595 25.0428 6.0022 24.9846 6.09995C24.8314 6.51472 24.8341 6.34828 24.8314 6.22411C24.8235 6.23732 24.8103 6.26374 24.8076 6.25846C24.8024 6.24525 24.8156 6.21091 24.8393 6.17392C24.8895 5.94936 24.9477 5.72744 24.9873 5.50024C24.9054 5.71159 24.8737 5.92822 24.7865 6.16335C24.6861 6.40376 24.731 6.43018 24.7469 6.48566C24.7812 6.59662 24.7205 6.79212 24.5725 7.04838L24.5514 7.08273L24.5725 7.05367C24.5778 7.17519 24.517 7.31257 24.4087 7.4658C24.3136 7.60582 24.2898 7.56619 24.2502 7.516C24.2079 7.77226 24.3268 7.64809 24.3638 7.68508C24.266 7.92285 24.1762 8.0523 24.0996 8.13156L24.1075 8.09985L24.0917 8.14212C23.7773 8.81052 23.4285 9.46307 22.8552 10.0416C22.7284 10.1711 22.591 10.3085 22.4563 10.4591C22.3163 10.6017 22.1709 10.7444 22.0283 10.8818C21.6901 11.1644 21.6293 11.1935 21.5527 11.138C21.521 11.2358 21.4048 11.3494 21.2489 11.4709C21.0957 11.5898 20.8843 11.714 20.6465 11.7959C20.4907 11.8487 20.3163 11.8804 20.1366 11.8645C19.9596 11.846 19.772 11.7721 19.6373 11.6479C19.3652 11.3969 19.2648 11.0403 19.2859 10.7074C19.2965 10.5568 19.3308 10.4089 19.3942 10.2662C19.455 10.1341 19.5343 10.0099 19.6241 9.90162C19.7139 9.79066 19.8117 9.69291 19.9147 9.60573C19.9675 9.56082 20.0177 9.51855 20.0706 9.47892L20.1498 9.4208L20.2582 9.34418C20.1868 9.40494 20.1604 9.43401 20.1366 9.46571C20.1129 9.49477 20.1076 9.51326 20.1419 9.50798C20.2132 9.44721 20.2317 9.42344 20.245 9.39702C20.2529 9.37588 20.237 9.3706 20.2687 9.33626C20.3876 9.24379 20.5091 9.15132 20.6465 9.05886C20.7152 9.0113 20.7813 8.96903 20.8394 8.92941C20.8817 9.10641 20.9107 9.26493 20.9134 9.34418C20.916 9.42872 20.8975 9.44193 20.8605 9.38909C20.8341 9.35211 20.813 9.34947 20.8156 9.50005C20.8605 9.74311 20.8764 9.6797 20.9054 9.72461C20.9134 9.73782 20.9187 9.75632 20.9239 9.77745C20.9292 9.79066 20.9345 9.80651 20.9398 9.82236C20.9504 9.85671 20.9504 9.89634 20.953 9.94653C20.9556 10.0443 20.9424 10.1711 20.9054 10.327C20.8288 10.6229 20.7364 10.6651 20.6624 10.8395C20.5858 10.9954 20.5831 11.1063 20.4167 11.3018C20.2291 11.5185 20.0283 11.7324 19.743 11.854C19.566 11.9253 19.4101 12.0098 19.2252 12.0548C19.1538 12.0785 19.0825 12.0838 19.0191 12.068C18.8447 12.0653 18.6571 12.0046 18.5092 11.9042C18.3639 11.8011 18.2529 11.6638 18.1763 11.5185C18.0204 11.2305 17.9834 10.8791 18.0283 10.5647C18.0706 10.2768 18.1393 10.105 18.1948 9.98088C18.2529 9.85671 18.3057 9.78009 18.3744 9.70084L18.7628 9.84614C18.7443 9.87256 18.7232 9.90162 18.6994 9.93332C18.6466 10.1341 18.7205 10.1024 18.6518 10.3085C18.562 10.57 18.4273 10.8263 18.282 11.0561C18.1552 11.2543 18.0072 11.4101 17.883 11.5739C17.7773 11.714 17.6083 11.8328 17.4154 11.9147L17.2648 11.9676C17.2384 11.9755 17.212 11.9808 17.1855 11.9861L17.0587 12.0125C16.9768 12.0204 16.8976 12.0283 16.813 12.0336C16.7338 12.0363 16.6228 12.0865 16.6228 11.9755C16.5647 11.817 16.5568 11.7166 16.5541 11.6215C16.5541 11.5977 16.5515 11.5686 16.5541 11.5502L16.562 11.4973C16.5673 11.4577 16.5673 11.4128 16.57 11.352C16.5013 11.2701 16.4458 11.0693 16.5171 10.6387C16.5832 10.2794 16.7232 9.93332 16.9319 9.62951L17.3969 9.86199C17.2939 10.1447 17.1697 10.4221 17.027 10.6863C16.9557 10.8184 16.8791 10.9504 16.7972 11.0773L16.7364 11.1724L16.6598 11.286C16.5779 11.4049 16.4934 11.5105 16.4062 11.6241C16.171 11.9095 15.9517 12.1287 15.706 12.3876C15.7008 12.1393 15.6955 11.8883 15.6902 11.6373C15.6849 11.3969 15.7008 11.1327 15.7298 10.8844V10.9557V10.8791C15.7351 10.7814 15.743 10.6836 15.7536 10.5859L15.7695 10.4406L15.7774 10.3692C15.78 10.3534 15.78 10.3507 15.7774 10.3534L15.7747 10.3507C15.751 10.3534 15.7985 10.3217 15.8461 10.2741H15.854L15.8461 10.2715C15.8381 10.2662 15.8302 10.2662 15.8223 10.2688C15.8196 10.2662 15.7985 10.2873 15.7879 10.2979C15.7774 10.3085 15.7694 10.319 15.7642 10.3243C15.7483 10.3428 15.7668 10.3322 15.7404 10.3534C15.5528 10.5093 15.3758 10.6942 15.2331 10.9003C15.0931 11.101 14.9742 11.3071 14.895 11.5369C14.9029 11.5581 14.9108 11.5792 14.9135 11.6083L14.4855 11.4233C14.496 11.3811 14.5304 11.3256 14.6123 11.2252C14.7312 10.998 14.8289 10.7655 14.9055 10.5277C14.924 10.4776 14.9293 10.4723 14.9399 10.43C14.9504 10.3957 14.961 10.3507 14.9663 10.3085L14.9478 10.3164C14.9214 10.3481 14.9161 10.3534 14.9135 10.3349C14.8712 10.3692 14.8368 10.3983 14.7946 10.4485C14.5462 10.7285 14.393 10.9267 14.2213 10.9901C14.2397 11.109 14.2609 11.1565 14.1314 11.4101C14.068 11.5396 14.0125 11.7007 13.9676 11.8434L13.6347 11.6902C13.7087 11.5739 13.7695 11.4709 13.825 11.4207C13.9095 11.3441 13.9201 11.2992 13.9174 11.2146C13.9042 10.961 13.9888 10.8712 14.0469 10.7259C14.0522 10.7576 14.0205 10.8553 14.0442 10.8368C14.0469 10.7999 14.0469 10.7629 14.0469 10.7232C14.0442 10.6017 14.0416 10.496 14.039 10.3877C14.0337 10.3296 14.031 10.2741 14.0257 10.216L14.0152 10.1288C14.0099 10.1024 14.0099 10.0496 13.9861 10.0892C13.9491 10.1262 13.9095 10.1711 13.8752 10.216C13.8646 10.2424 13.8619 10.2636 13.8329 10.2821C13.8329 10.2821 13.8302 10.2741 13.8329 10.2688L13.8725 10.216C13.8831 10.179 13.8989 10.1315 13.9201 10.0786C13.8884 10.105 13.8567 10.1394 13.8302 10.1737C13.8012 10.2107 13.7906 10.2345 13.7536 10.29C13.6559 10.4485 13.5264 10.6202 13.3547 10.8025C13.3256 10.8289 13.352 10.7629 13.2834 10.8527L13.352 10.8078C13.3256 10.8685 13.2675 10.9399 13.2015 10.9954C13.0984 11.0773 13.0244 11.0958 12.9452 11.2833C12.8976 11.3996 12.6995 11.6268 12.5251 11.7932C12.4564 11.8593 12.4062 11.891 12.4459 11.8196C12.4643 11.7853 12.5251 11.7166 12.5674 11.6638C12.6097 11.6321 12.6414 11.5924 12.6678 11.5502L12.6836 11.5211L12.6598 11.5554C12.6334 11.5898 12.6044 11.6215 12.5727 11.6532C12.4802 11.7324 12.4062 11.8117 12.3375 11.891C12.2768 11.9649 12.1737 12.0865 12.0416 12.1129C11.9465 12.1367 11.8435 12.1129 11.7616 12.0521C11.6797 11.994 11.6163 11.883 11.5899 11.8064C11.5423 11.677 11.5264 11.529 11.537 11.3996C11.5423 11.2754 11.5529 11.1539 11.5714 11.0323C11.5872 10.9161 11.6163 10.7602 11.6506 10.7655C11.7272 10.7761 11.7589 10.5885 11.7933 10.3824C11.8171 10.253 11.8276 10.1447 11.9254 9.96238C12.0839 9.67442 12.2636 9.39438 12.4749 9.13811L12.718 9.29663C12.5727 9.60573 12.4062 9.90426 12.2054 10.1711C11.9492 10.5145 11.6876 10.8316 11.3811 11.1301C11.1936 11.3097 11.0192 11.4709 10.792 11.6347C10.6704 11.7113 10.5436 11.7721 10.3825 11.7985C10.3032 11.8091 10.2134 11.8117 10.1156 11.78C10.0179 11.7483 9.92805 11.6717 9.87521 11.5871C9.7801 11.4207 9.80124 11.2595 9.81445 11.1433C9.83558 11.0271 9.85143 10.9135 9.88578 10.7999C9.9439 10.5727 10.0311 10.3534 10.1421 10.1447C10.4564 9.55817 10.9267 9.04565 11.5053 8.7022C11.6718 8.6071 11.8223 8.53312 11.9729 8.49878C12.1499 8.46179 12.2477 8.45387 12.0865 8.5569C11.8567 8.7022 11.611 8.85543 11.2807 9.11698C10.9267 9.39966 10.6335 9.75367 10.4142 10.1473C10.3085 10.3455 10.2187 10.5542 10.1526 10.7682C10.1209 10.8765 10.0945 10.9848 10.076 11.0958C10.0522 11.2067 10.0364 11.3177 10.0654 11.4101C10.0707 11.4286 10.0786 11.4471 10.0892 11.463C10.1896 11.6294 10.4432 11.5713 10.6176 11.4709C10.7946 11.3679 10.9637 11.2067 11.1249 11.064C11.4472 10.7655 11.7352 10.4326 11.9888 10.0786C12.1869 9.79859 12.3613 9.5027 12.5066 9.19095L12.6598 9.2887C12.1949 9.84086 11.8937 10.533 11.8065 11.2516C11.788 11.4075 11.7695 11.5554 11.8065 11.6875C11.825 11.7589 11.8488 11.8143 11.8831 11.8513C11.9175 11.8936 11.9729 11.9147 12.0258 11.9042C12.0998 11.891 12.1499 11.8355 12.2266 11.7483L12.4432 11.5026L12.8765 11.0112L13.7695 9.99673C13.8619 9.88841 13.9544 9.78802 14.0416 9.69819L14.1076 9.62686L14.142 9.59252L14.1578 9.57403C14.1631 9.57138 14.1631 9.58723 14.1658 9.59252C14.1816 9.65857 14.1975 9.72461 14.2107 9.78802C14.2371 9.91747 14.2582 10.0469 14.2688 10.1843C14.2741 10.253 14.2741 10.319 14.2767 10.3851C14.2741 10.4406 14.2741 10.4987 14.2688 10.5542C14.2397 11.0033 14.0971 11.4445 13.854 11.8223L13.7298 11.7641C13.8567 11.3573 14.0522 10.9742 14.3058 10.6334C14.3692 10.5489 14.4353 10.467 14.5066 10.3851L14.6149 10.2662L14.7496 10.1341C14.9372 9.95974 15.1222 9.81972 15.3256 9.67706C15.3203 9.89634 15.2939 10.1209 15.2516 10.3455C15.1935 10.6176 15.1327 10.7972 15.0482 11.0033C14.9636 11.2041 14.8606 11.3969 14.7417 11.5766L14.6413 11.5317C14.7259 11.1829 14.8844 10.8527 15.0984 10.5674C15.249 10.3719 15.4101 10.2028 15.6189 10.0416C15.7298 9.9571 15.8487 9.88313 15.965 9.81708C16.0257 9.78538 16.0838 9.75367 16.1473 9.72461L16.2424 9.6797C16.2635 9.66649 16.2609 9.6797 16.2609 9.68763L16.2635 9.71669C16.1684 10.0364 16.0838 10.4089 16.0601 10.6572L16.0389 10.8633L16.0284 11.0323C16.0231 11.138 16.0231 11.2411 16.0257 11.3414L16.0336 11.5052C16.134 11.3969 16.2265 11.2886 16.3111 11.175C16.356 11.1142 16.3877 11.072 16.4405 10.9954C16.4934 10.9161 16.5462 10.8368 16.5937 10.7549C16.7919 10.43 16.9557 10.0866 17.0772 9.7299L17.2225 9.80123C17.1063 9.98088 17.0165 10.179 16.9557 10.3824C16.8606 10.7074 16.8315 11.0535 16.8764 11.389C16.8896 11.4841 16.9002 11.529 16.9134 11.5845L16.9214 11.64C16.924 11.6453 16.924 11.6558 16.9293 11.6585L16.9504 11.6558L17.035 11.6479L17.1221 11.6294C17.1618 11.6241 17.1988 11.603 17.2357 11.5898C17.3124 11.5634 17.3811 11.5185 17.4497 11.4762C17.7219 11.2913 17.9227 11.0059 18.0785 10.7048C18.2371 10.4009 18.3507 10.0733 18.4431 9.74311L18.6783 9.83029C18.6149 9.98088 18.5514 10.1262 18.5039 10.2741C18.4273 10.504 18.3771 10.7391 18.3956 10.9584C18.4167 11.175 18.5065 11.3943 18.6624 11.529C18.9636 11.8196 19.5026 11.6056 19.8407 11.3177C20.1129 11.0773 20.3295 10.7655 20.4484 10.4168C20.5091 10.2424 20.5488 10.0628 20.5567 9.88048C20.5593 9.85671 20.5593 9.83557 20.5593 9.8118V9.76953C20.5593 9.75632 20.5593 9.74046 20.5567 9.72461C20.5541 9.69819 20.5514 9.65857 20.5382 9.64271L20.4722 9.68498C20.4457 9.70348 20.4484 9.69819 20.3586 9.76424C20.311 9.80123 20.2687 9.84614 20.2291 9.89105C20.031 10.0681 19.883 10.2741 19.7668 10.4643C19.6954 10.5859 19.6981 10.718 19.706 10.8448C19.7166 11.1063 19.8539 11.3547 20.0521 11.4286C20.2502 11.5158 20.5197 11.4418 20.7786 11.3282L20.7549 11.3494L20.7892 11.3256C21.056 11.1169 21.4814 10.8395 21.6584 10.5938C21.6241 10.6176 21.5871 10.6493 21.5607 10.6651C21.5237 10.6863 21.5342 10.6678 21.5791 10.6361C21.6082 10.6149 21.6346 10.6044 21.661 10.5912C21.735 10.5357 21.8011 10.467 21.8698 10.4062C21.8777 10.4115 21.883 10.4194 21.8856 10.4274L21.8618 10.4617L21.8883 10.4274C21.8962 10.4168 21.9147 10.3957 21.9094 10.3957C21.9015 10.3957 21.883 10.4009 21.8698 10.4062C21.9094 10.3402 21.9834 10.2609 22.0758 10.179C22.2317 10.0179 22.1419 10.1605 22.1789 10.142C22.2211 10.1209 22.3717 9.98088 22.5303 9.81444C22.6782 9.64007 22.8499 9.44722 22.9213 9.31776C22.9794 9.22265 23.0322 9.13547 23.1036 9.03772C23.0243 9.06943 23.0375 9.01659 23.1908 8.83958C23.5342 8.44594 23.5078 8.46708 23.7376 7.94927C23.8037 7.79339 23.9384 7.44467 24.0362 7.28615C24.2925 6.89515 24.451 6.41169 24.6042 5.93615C24.7495 5.4976 24.8658 5.04583 24.9714 4.59407C25.0639 4.13967 25.1934 3.67998 25.1458 3.26784C25.1352 3.18595 25.1167 3.10669 25.0956 3.03272C25.085 2.99309 25.0798 2.97459 25.0718 2.92968C25.0586 2.90591 25.0454 2.88213 25.0243 2.86364C25.0058 2.85571 24.9899 2.89798 24.9767 2.91912L24.9477 2.97988C24.9397 2.99309 24.945 2.9878 24.9292 3.01422L24.8843 3.07763C24.8235 3.16481 24.7548 3.24671 24.6914 3.32332C24.2396 3.87019 23.8856 4.52538 23.5553 5.14623C23.4893 5.27568 23.4312 5.39192 23.3836 5.5293C23.2436 5.90973 23.1247 6.29545 22.9662 6.66531C22.9028 6.8159 22.8711 6.98234 22.8447 7.13292C22.7971 7.41561 22.7284 7.68508 22.6676 7.95191L22.665 7.95719C22.5831 8.31649 22.5725 8.71277 22.7152 9.04301C22.8235 9.33097 23.1009 9.63479 23.3651 9.74839C23.4259 9.83029 23.3466 9.79859 23.3044 9.7933C23.6769 10.0786 24.163 10.216 24.6835 10.3217ZM9.93598 11.5634L9.93333 11.5581C9.90427 11.5052 9.89106 11.4471 9.88578 11.3943C9.88049 11.3494 9.87521 11.3045 9.87521 11.2648C9.86993 11.315 9.86728 11.3679 9.87785 11.426C9.88842 11.4709 9.90956 11.5185 9.93598 11.5607V11.5634ZM10.9637 11.4366C10.9452 11.4498 10.932 11.4656 10.9135 11.4815L10.9505 11.463C10.969 11.4471 10.998 11.4286 11.006 11.4181C11.0403 11.3837 11.0218 11.3916 10.9637 11.4366ZM13.9967 9.99408C13.9888 10.002 13.9808 10.0073 13.9756 10.0152L13.9333 10.0839L13.9967 9.99408ZM14.0892 10.105L14.0839 10.076L14.0786 10.0998L14.0892 10.105ZM15.0456 10.1579L15.0218 10.1843C14.8448 10.2926 14.9531 10.2847 14.9267 10.3375C14.9372 10.3296 14.9478 10.319 14.9584 10.3058C14.9769 10.2688 15.0006 10.2292 15.0244 10.1869L15.0456 10.1579ZM15.0429 10.4908C15.0455 10.4934 15.0561 10.4776 15.0561 10.4696C15.0588 10.4564 15.0588 10.4458 15.0588 10.4353C15.0535 10.4353 15.0482 10.4326 15.0456 10.4379C15.0323 10.467 15.0323 10.4855 15.0429 10.4908ZM14.8923 10.9663L14.9029 10.9293L14.9002 10.8553L14.895 10.9399L14.8923 10.9663ZM14.9002 11.5554L14.8448 11.5792C14.8448 11.5845 14.8421 11.5898 14.8421 11.5924L14.57 11.4735C14.6228 11.3731 14.5726 11.4128 14.5726 11.3784L14.5304 11.4471L14.8897 11.603L14.9002 11.5554ZM15.3573 10.6413C15.3573 10.6229 15.3362 10.6361 15.3124 10.673C15.2913 10.7021 15.278 10.7365 15.2754 10.7523C15.2728 10.7761 15.2965 10.7549 15.3203 10.718C15.3362 10.6915 15.3441 10.6678 15.3573 10.6413ZM15.7562 10.2424C15.7562 10.2292 15.7457 10.2292 15.7272 10.2451C15.7219 10.2503 15.7219 10.2583 15.7193 10.2636C15.7245 10.2741 15.7325 10.2715 15.7483 10.2609C15.751 10.2556 15.7562 10.2451 15.7562 10.2424ZM15.8091 12.0548C15.8012 12.0468 15.7906 12.0363 15.7827 12.0257L15.7721 11.9966L15.78 12.0468C15.7906 12.0521 15.7985 12.2133 15.8091 12.0548ZM16.533 11.2913L16.5171 11.2992L16.5013 11.3335L16.533 11.2913ZM16.7708 10.2398L16.7787 10.2002L16.784 10.1658L16.7708 10.2107V10.2398ZM16.636 10.8316C16.6413 10.8131 16.6466 10.7919 16.6492 10.7761C16.6545 10.718 16.6492 10.7021 16.636 10.7338C16.6334 10.7391 16.6334 10.7734 16.6307 10.7946L16.636 10.8316ZM17.4445 11.8091L17.4154 11.817C17.3599 11.8328 17.3044 11.846 17.2516 11.8619C17.2252 11.8725 17.1961 11.8751 17.1697 11.8804L17.0587 11.9042C16.9848 11.9147 16.9055 11.92 16.8262 11.9306L16.7655 11.9385C16.747 11.9385 16.7179 11.9544 16.7179 11.9253L16.6809 11.817L16.673 11.7562L16.6783 11.8038C16.6492 12.0415 16.887 11.9412 17.035 11.9385C17.0746 11.9332 17.1169 11.9174 17.1591 11.9095C17.1908 11.9015 17.2173 11.8962 17.2437 11.8857C17.2965 11.8645 17.3493 11.8434 17.4048 11.8276L17.4445 11.8091ZM18.1895 11.2754L18.171 11.2252L18.1789 11.2701L18.1895 11.2754ZM18.4722 11.7853L18.4643 11.7668L18.4378 11.7536L18.4722 11.7853ZM19.1776 12.0521C19.1221 12.0495 19.0772 12.0548 19.0323 12.0627C19.0825 12.0627 19.13 12.0574 19.1776 12.0521ZM20.1102 11.4286C20.1076 11.4233 20.0706 11.4471 20.0494 11.4577C20.031 11.4815 19.994 11.5211 19.994 11.5264C19.9966 11.5317 20.0415 11.5026 20.0679 11.4868C20.0838 11.4683 20.1129 11.4339 20.1102 11.4286ZM19.8671 9.79859L19.8804 9.79594L19.8909 9.77481L19.8671 9.79859ZM19.5131 10.2741C19.5184 10.2609 19.5263 10.2398 19.529 10.2371C19.529 10.2213 19.5263 10.2081 19.5263 10.1949L19.5422 10.1552L19.521 10.2028L19.5131 10.2741ZM19.4682 11.3177C19.4101 11.1459 19.4127 11.0825 19.4022 11.0165C19.3916 10.9531 19.381 10.8316 19.3757 10.821C19.3625 10.7946 19.352 10.8685 19.3572 10.9478C19.3705 11.0112 19.3625 11.0905 19.4682 11.3177ZM20.1683 11.7906C20.1763 11.7853 20.1287 11.7747 20.1049 11.7641C20.0521 11.7562 20.0125 11.7457 20.0151 11.7589C20.0151 11.7668 20.0415 11.78 20.0574 11.7906C20.0996 11.7932 20.1604 11.7959 20.1683 11.7906ZM20.8473 11.6294L20.813 11.6453H20.8341L20.8473 11.6294ZM21.093 11.4233H21.0772L21.0613 11.4445L21.093 11.4233ZM22.739 9.98088C22.7363 9.98088 22.7152 10.0073 22.702 10.0179C22.6941 10.0311 22.6782 10.0522 22.6782 10.0548C22.6835 10.0654 22.7099 10.0443 22.7363 9.99937C22.7443 9.9888 22.7443 9.97823 22.739 9.98088ZM23.5263 8.88714L23.5131 8.89242L23.5078 8.9162L23.5263 8.88714ZM24.023 8.04437L23.9992 8.07343L23.9754 8.1025L23.9966 8.08136L24.023 8.04437ZM23.9041 7.90435L23.8909 7.91228L23.8882 7.93606L23.9041 7.90435ZM24.6518 6.68644C24.6518 6.6838 24.6333 6.71815 24.6306 6.72607L24.6121 6.80797L24.6544 6.73664C24.6544 6.71815 24.6544 6.69701 24.6518 6.68644ZM24.9503 6.02333C24.9529 6.03918 24.9556 6.06032 24.9609 6.07353C24.9662 6.08674 24.9741 6.08938 24.9794 6.0973C24.982 6.0656 24.9899 6.02333 24.9873 6.00484C24.9873 5.97578 24.9873 5.93351 24.9503 6.02333ZM25.1802 5.22548C25.159 5.26511 25.1458 5.30738 25.1432 5.35758L25.1802 5.22548ZM25.1273 5.08546C25.0586 5.10924 25.056 5.29153 25.0269 5.40513C25.0824 5.35493 25.1115 5.22812 25.1273 5.08546ZM25.2171 4.94544C25.2013 4.94544 25.1828 4.95337 25.1537 5.02998C25.1696 5.04319 25.1907 5.01941 25.2171 4.94544ZM25.2224 4.41971L25.2198 4.46726C25.2145 4.53331 25.1986 4.60992 25.196 4.65748C25.1934 4.70239 25.2145 4.66276 25.2198 4.61256C25.2277 4.55444 25.2224 4.50953 25.2224 4.45933V4.41971ZM25.307 4.14759L25.3043 4.18722C25.3096 4.20571 25.2911 4.31667 25.3228 4.23742L25.3096 4.17929L25.307 4.14759ZM24.3057 3.64828L24.3294 3.60865L24.3004 3.64299L24.3057 3.64828ZM22.4193 8.79203C22.4167 8.77353 22.414 8.74976 22.4114 8.74183C22.4034 8.71277 22.3929 8.68107 22.3849 8.65201C22.3955 8.69692 22.4061 8.74447 22.4193 8.79203ZM23.2832 9.80387L23.2991 9.78538C23.2859 9.77745 23.2647 9.76424 23.2647 9.76688C23.2647 9.77745 23.2753 9.79066 23.2832 9.80387ZM24.0071 10.253L24.0547 10.2636L24.0124 10.2451L24.0071 10.253Z" fill="#030303"/>
<path d="M17.8365 21.402C17.818 21.3412 17.8814 21.2461 17.8391 21.2171C17.9712 21.0717 18.0478 20.8921 18.2275 20.7732C18.2751 20.7415 18.3068 20.657 18.3252 20.5936C18.349 20.5064 18.4071 20.4826 18.4679 20.48C18.5155 20.4456 18.5525 20.4192 18.5762 20.3532C18.6211 20.229 18.7268 20.1127 18.8219 19.978C18.8484 20.0441 18.7453 20.1207 18.7612 20.1735C18.8351 20.1365 18.8642 20.0678 18.9038 20.0071C18.9223 20.0097 18.9382 20.0256 18.9699 19.9912C18.9725 19.9859 18.9778 19.9754 18.9752 19.9727C18.9567 19.9569 18.9303 19.9859 18.9038 20.0071C18.9065 19.8644 19.065 19.7693 19.1548 19.6531C19.1548 19.6478 19.1548 19.6398 19.1548 19.6398C19.1654 19.6293 19.1654 19.6346 19.1548 19.6531C19.1601 19.69 19.1522 19.7376 19.1865 19.764C19.2235 19.6742 19.2552 19.5949 19.2896 19.5157C19.3688 19.4734 19.3266 19.5632 19.3768 19.5659C19.4851 19.4259 19.4666 19.2224 19.6911 19.1247C19.6964 19.1511 19.6991 19.1828 19.7044 19.2145C19.6911 19.2409 19.6462 19.2647 19.6594 19.2938C19.6859 19.2673 19.6991 19.2409 19.707 19.2145C19.7255 19.1854 19.7466 19.1564 19.7651 19.1273C19.8206 19.0375 19.7334 18.9847 19.7968 18.9318C19.8814 18.8605 19.9078 18.805 19.9236 18.7284C20.0029 18.739 19.987 18.8261 20.0267 18.8552L20.024 18.8711L20.0293 18.8552C20.0848 18.7812 20.0557 18.7522 20.0399 18.7178C20.0161 18.6729 20.0452 18.6122 20.1112 18.5725C20.1852 18.5276 20.1561 18.6016 20.1509 18.6439C20.1482 18.6623 20.1376 18.6861 20.1667 18.6782C20.275 18.5408 20.2697 18.4404 20.2645 18.3427L20.2512 18.3506L20.2671 18.34C20.3279 18.2819 20.386 18.2344 20.4468 18.2185C20.4335 18.2449 20.3781 18.2766 20.4071 18.2978C20.4098 18.3004 20.4415 18.2476 20.4494 18.2185C20.4969 18.1445 20.5128 18.06 20.5973 17.9992C20.6079 17.9305 20.6634 17.9094 20.7083 17.8751L20.703 17.8354L20.7453 17.8328L20.7929 17.6928C20.8087 17.6479 20.8325 17.6109 20.8774 17.5977C20.991 17.4867 20.991 17.558 20.9989 17.6214C21.0042 17.6188 21.0148 17.6135 21.0174 17.6162C21.0227 17.6267 21.0148 17.6347 20.9963 17.6399L20.8748 17.8671C20.9487 17.8196 20.9672 17.7324 21.0386 17.6743C21.1125 17.6135 21.0729 17.5765 21.0597 17.5395C21.0306 17.4709 21.0703 17.4075 21.168 17.352L21.1839 17.3467L21.1707 17.352C21.1601 17.2886 21.1971 17.2516 21.2631 17.2225C21.3239 17.1961 21.3477 17.2278 21.3847 17.2701C21.3899 17.1565 21.3107 17.167 21.2763 17.1301C21.3239 17.0508 21.3714 17.0165 21.4216 17.0085L21.419 17.0217L21.4243 17.0059C21.5669 16.776 21.6832 16.5383 21.913 16.3533C22.0161 16.2688 22.0927 16.1393 22.1772 16.0257C22.2724 15.8989 22.2961 15.891 22.3754 15.9412C22.3199 15.8197 22.4335 15.6929 22.5445 15.574C22.6898 15.4181 22.7981 15.2411 22.9249 15.0747C23.0412 14.9294 23.1548 14.7867 23.2684 14.6388C23.2631 14.6757 23.2499 14.7207 23.2869 14.7233C23.3186 14.6625 23.2763 14.6652 23.271 14.6388C23.2842 14.6097 23.2922 14.578 23.3106 14.5489C23.3688 14.4565 23.4216 14.4089 23.448 14.4855C23.456 14.5093 23.4692 14.5304 23.5088 14.5119C23.5458 14.4485 23.5062 14.4433 23.4956 14.4195C23.4692 14.364 23.5009 14.3112 23.5616 14.2266C23.6198 14.1447 23.6832 14.1606 23.7149 14.1025C23.7439 14.0496 23.7254 13.9968 23.7783 13.9334C23.839 13.8594 23.8707 13.7669 23.9474 13.7009C23.9949 13.6586 24.0134 13.6005 24.0346 13.5477C24.0398 13.5239 24.0504 13.508 24.0715 13.5001C24.1984 13.3469 24.3357 13.2095 24.4282 13.0219C24.526 12.8238 24.5682 12.7974 24.695 12.7736C24.7294 12.7075 24.6686 12.6864 24.7083 12.623C24.7585 12.5411 24.8271 12.4671 24.8879 12.3958C24.9381 12.335 24.9962 12.2875 25.0094 12.2162C25.0306 12.0973 25.1627 12.0233 25.1997 11.8965C25.2182 11.8304 25.2816 11.8753 25.3476 11.8199C25.3133 11.7591 25.3318 11.6931 25.4163 11.5795C25.6171 11.3179 25.8179 11.0537 25.9817 10.7631C26.0662 10.6152 26.1825 10.4857 26.2961 10.3589L26.2934 10.3748L26.2961 10.3563C26.3278 10.2955 26.3648 10.2347 26.3885 10.174C26.4335 10.0657 26.4625 10.0921 26.4969 10.1079V10.1238L26.4995 10.1079C26.5444 9.89129 26.6818 9.70372 26.8298 9.52407C26.8932 9.44746 26.9645 9.38141 27.0332 9.31008C27.0173 9.27573 26.9936 9.24403 27.0728 9.19384C27.1811 9.0089 27.3106 8.84775 27.4374 8.68395C27.4427 8.65753 27.4533 8.64168 27.4744 8.63376C27.5061 8.58092 27.5431 8.52808 27.5722 8.47524C27.6408 8.34843 27.7148 8.27974 27.839 8.29295C27.7941 8.22426 27.7571 8.18728 27.8231 8.09745C27.8865 8.01291 27.9367 7.87289 28.0186 7.85704C28.0768 7.84648 28.0821 7.82798 28.0715 7.78571C28.0398 7.65626 28.1217 7.65626 28.1824 7.62456C28.1824 7.63777 28.1507 7.66419 28.1745 7.66947L28.1851 7.62456C28.2115 7.44491 28.3621 7.31281 28.4414 7.1543C28.4414 7.13581 28.4387 7.11731 28.4625 7.09618C28.4625 7.09618 28.4678 7.10411 28.4651 7.10675C28.4572 7.1226 28.4519 7.13845 28.444 7.1543L28.4599 7.23092C28.4995 7.19129 28.5127 7.15166 28.518 7.10411C28.5285 7.03013 28.555 6.95616 28.6104 6.88219C28.6237 6.87426 28.6289 6.90596 28.6448 6.86634L28.6104 6.87955C28.6078 6.85048 28.6184 6.81878 28.6474 6.80029C28.6923 6.77123 28.7425 6.77387 28.7241 6.6814C28.7135 6.62328 28.769 6.52817 28.8324 6.46477C28.8562 6.43835 28.8826 6.43043 28.8826 6.46477C28.8826 6.48062 28.8641 6.50968 28.8562 6.53346C28.8377 6.54403 28.8297 6.55988 28.8271 6.58101V6.59422L28.8297 6.57837C28.835 6.56252 28.8456 6.54931 28.8535 6.53874C28.9803 6.43835 28.9618 6.30361 29.0147 6.18473C29.0517 6.10547 29.0886 6.02886 29.1283 5.95224C29.1468 5.91526 29.1679 5.86242 29.1996 5.88091C29.2683 5.9179 29.2921 5.85185 29.2947 5.76995C29.2974 5.71976 29.2921 5.6722 29.337 5.61673C29.4849 5.42915 29.5695 5.19931 29.7016 5.00381C29.7888 4.877 29.8522 4.7449 29.9209 4.60752C30.0767 4.30371 30.193 3.98668 30.3674 3.68551C30.4836 3.48737 30.5866 3.27866 30.6897 3.07259C30.7187 3.01447 30.7425 2.96163 30.7874 2.92729C30.8376 2.88502 30.8773 2.86652 30.8825 2.94314C30.8905 3.0541 30.8746 3.16241 30.8112 3.30772C30.6765 3.61418 30.5206 3.91007 30.3726 4.21124C30.2194 4.50978 30.0767 4.81623 29.9156 5.10684C29.7227 5.45557 29.5272 5.80694 29.3185 6.14774C28.7346 7.1226 28.1323 8.08425 27.514 9.03797C27.3608 9.27838 27.1996 9.51615 27.0411 9.75127C26.8271 10.0657 26.6263 10.3959 26.4229 10.7129C26.2036 11.0458 25.9949 11.3655 25.7756 11.6957C25.4612 12.1792 25.1151 12.6494 24.8113 13.1329C24.6158 13.4499 24.3674 13.7273 24.1772 14.0496C23.9896 14.3534 23.7651 14.6414 23.5431 14.9267C23.5299 14.9452 23.5246 14.9716 23.5141 14.9928L23.5273 14.9822L23.5088 14.9796C23.4533 15.0667 23.4058 15.1645 23.3159 15.2226C23.2578 15.2596 23.2446 15.3177 23.2103 15.3626C23.0676 15.5476 22.9355 15.7484 22.7532 15.8857L22.7558 15.8725L22.7506 15.8884C22.703 16.0178 22.5603 16.1446 22.5471 16.2767C22.5577 16.2662 22.5709 16.2503 22.5815 16.245C22.5973 16.2371 22.5973 16.2477 22.5815 16.2609C22.5709 16.2714 22.5577 16.2741 22.5471 16.2794L22.4784 16.3613C22.4705 16.356 22.4652 16.3507 22.4573 16.3428L22.4599 16.3269L22.4547 16.3454C22.4547 16.3507 22.4494 16.3613 22.452 16.3613C22.4599 16.3639 22.4679 16.3639 22.4758 16.3639C22.4731 16.3983 22.4547 16.4352 22.4229 16.4696C22.3675 16.533 22.3833 16.4669 22.3622 16.4696C22.3146 16.4749 22.127 16.6757 22.0742 16.776C22.0557 16.813 22.0372 16.85 22.0082 16.8844C22.0584 16.8896 22.0689 16.924 21.987 16.9715C21.8047 17.0746 21.8206 17.0693 21.7255 17.2648C21.6964 17.3229 21.633 17.4524 21.5669 17.4894C21.4005 17.5765 21.2975 17.735 21.1759 17.8751C20.9487 18.1366 20.7268 18.4008 20.4969 18.6571C20.4494 18.7099 20.4018 18.768 20.3437 18.7839C20.3094 18.8103 20.275 18.8367 20.2592 18.879C20.2328 18.9503 20.1826 19.019 20.1271 19.0666C19.9263 19.2409 19.7704 19.4708 19.567 19.6425C19.5247 19.6768 19.4904 19.7112 19.4613 19.7561C19.3768 19.8803 19.2896 20.0071 19.1548 20.0863C19.0993 20.118 19.0676 20.1735 19.0386 20.2237C18.9831 20.3162 18.9065 20.3875 18.8272 20.4535H18.8246C18.7136 20.5407 18.6159 20.6543 18.5102 20.7494C18.423 20.8313 18.3147 20.9397 18.2777 21.0559C18.2275 21.0612 18.2354 21.0242 18.2301 21.0004C18.1033 21.1246 17.9897 21.2725 17.8365 21.402ZM30.193 4.13199C30.2036 4.11878 30.2141 4.10821 30.2194 4.095C30.2247 4.08443 30.2273 4.07122 30.23 4.05801L30.2009 4.095L30.193 4.13199ZM30.045 4.45694C30.0477 4.44901 30.0503 4.44109 30.053 4.43316L30.0371 4.44109C30.0318 4.44901 30.0239 4.45694 30.0239 4.46222C30.0239 4.48336 30.0318 4.48071 30.045 4.45694ZM28.4308 7.27319C28.4334 7.2679 28.4414 7.26262 28.4414 7.25998C28.444 7.24677 28.444 7.2362 28.4466 7.22563L28.4308 7.27319ZM28.3462 7.38943L28.3542 7.37622H28.3436L28.3462 7.38943ZM27.477 8.7183L27.4797 8.70245C27.588 8.57035 27.4823 8.63904 27.4612 8.62583C27.4533 8.63904 27.448 8.64961 27.4453 8.66282L27.477 8.70509V8.7183ZM27.3397 8.96135C27.3423 8.96399 27.3502 8.95871 27.3529 8.95607C27.3582 8.95078 27.3582 8.94022 27.3608 8.93493C27.3582 8.93229 27.3555 8.92436 27.3529 8.92701C27.337 8.93757 27.3317 8.95078 27.3397 8.96135ZM27.2393 9.13836L27.2445 9.12251L27.234 9.08552L27.2393 9.12515V9.13836ZM27.0253 9.29423L27.0728 9.30744C27.0913 9.25988 27.0596 9.26781 27.0517 9.24932L27.0253 9.29423ZM26.8113 9.64032C26.8192 9.65088 26.8298 9.64824 26.835 9.63239C26.8403 9.61918 26.843 9.60333 26.8403 9.5954C26.8377 9.58219 26.8218 9.58748 26.8165 9.60333C26.8086 9.6139 26.8113 9.62711 26.8113 9.64032ZM26.6739 9.86223C26.6818 9.87016 26.6924 9.86223 26.7029 9.84374C26.7056 9.83846 26.7029 9.83317 26.7029 9.82525C26.695 9.81996 26.6845 9.82525 26.6739 9.84374C26.6712 9.85167 26.6712 9.85959 26.6739 9.86223ZM26.1878 10.6284L26.1798 10.5967V10.5835L26.1772 10.5993C26.1798 10.6099 26.1587 10.6442 26.1878 10.6284ZM26.024 10.8609L26.0345 10.8635L26.0319 10.8529L26.024 10.8609ZM25.6065 11.5293L25.6092 11.5134V11.5002L25.6039 11.5161L25.6065 11.5293ZM25.485 11.701C25.4903 11.6957 25.4982 11.6931 25.5008 11.6878C25.5114 11.6693 25.5088 11.6614 25.4929 11.6666C25.4903 11.6666 25.485 11.6798 25.4824 11.6851L25.485 11.701ZM25.1363 12.1105L25.1468 12.1078C25.2182 12.0708 25.2446 11.9995 25.2763 11.9308L25.2895 11.9229L25.2763 11.9255C25.2049 11.9599 25.2023 12.0524 25.1495 12.0999L25.1363 12.1105ZM24.378 13.2782L24.3859 13.2623L24.3727 13.2703L24.378 13.2782ZM24.2274 13.3971H24.238L24.2353 13.3865L24.2274 13.3971ZM24.0346 13.5292C24.053 13.5239 24.0583 13.5107 24.0583 13.4948L24.0346 13.5292ZM23.9289 13.9175C23.9342 13.9202 23.9474 13.9122 23.9553 13.9096C23.9579 13.8964 23.9632 13.8805 23.9606 13.8753C23.9553 13.8726 23.9394 13.8832 23.9289 13.8885C23.9289 13.899 23.9236 13.9149 23.9289 13.9175ZM23.2182 14.8528L23.2287 14.8554L23.2261 14.8448L23.2182 14.8528ZM23.094 15.0165C23.0967 15.0113 23.0993 15.006 23.0993 15.0033C23.0966 14.9954 23.094 14.9875 23.0887 14.9796L23.0914 14.9637L23.0834 14.9796L23.094 15.0165ZM22.8404 15.2702C22.8906 15.2358 22.9091 15.2253 22.9249 15.2094C22.9408 15.1936 22.9619 15.1592 22.9593 15.1539C22.954 15.1381 22.9302 15.1513 22.9117 15.1698C22.9011 15.1856 22.8879 15.2068 22.8404 15.2702ZM22.6871 15.5C22.6898 15.5053 22.7056 15.4974 22.7162 15.4947C22.7294 15.4815 22.7321 15.471 22.7241 15.463C22.7188 15.4604 22.7083 15.463 22.6977 15.463C22.6924 15.4762 22.6845 15.4947 22.6871 15.5ZM22.5339 15.677L22.5418 15.6665H22.5313L22.5339 15.677ZM22.5022 15.7933L22.5128 15.7959V15.7853L22.5022 15.7933ZM22.0029 16.4141C22.0055 16.4141 22.0134 16.4062 22.0187 16.4009C22.0187 16.3956 22.024 16.385 22.0214 16.3824C22.0134 16.3745 22.0029 16.3824 21.9976 16.4009C21.9949 16.4088 22.0002 16.4141 22.0029 16.4141ZM21.707 16.8077L21.7175 16.8104V16.7998L21.707 16.8077ZM21.4771 17.0772L21.4903 17.0719L21.5035 17.0667L21.4903 17.0693L21.4771 17.0772ZM21.5934 17.204L21.6039 17.2067V17.1961L21.5934 17.204ZM21.1125 17.4841C21.1125 17.4867 21.1257 17.4788 21.1284 17.4761C21.1337 17.4656 21.1363 17.455 21.1389 17.4444L21.1099 17.4603C21.1099 17.4682 21.1099 17.4761 21.1125 17.4841ZM20.8932 17.6426C20.8906 17.632 20.888 17.6214 20.8853 17.6135C20.88 17.6056 20.8748 17.6003 20.8695 17.5924C20.8668 17.6056 20.8615 17.6188 20.8642 17.6294C20.8642 17.6426 20.8642 17.6637 20.8932 17.6426ZM20.7004 17.8724C20.7189 17.8671 20.7294 17.8566 20.7347 17.8354L20.7004 17.8724ZM20.7374 17.9622C20.7929 17.9913 20.8008 17.9121 20.8272 17.8777C20.7796 17.8671 20.7559 17.9094 20.7374 17.9622ZM20.6581 17.9702C20.6713 17.9781 20.6872 17.986 20.7136 17.9702C20.7004 17.957 20.6845 17.9543 20.6581 17.9702ZM20.6211 18.1842L20.6264 18.1683C20.637 18.1472 20.6528 18.1234 20.6581 18.1023C20.6634 18.0864 20.6449 18.0891 20.637 18.1076C20.629 18.1287 20.6264 18.1472 20.6238 18.1683L20.6211 18.1842ZM20.5339 18.2449L20.5392 18.2291C20.5366 18.2185 20.5604 18.1842 20.5287 18.2L20.5339 18.2317V18.2449ZM19.9184 19.1247L19.9263 19.1088L19.9131 19.1194L19.9184 19.1247ZM18.4415 20.5249C18.4468 20.5222 18.4547 20.517 18.4547 20.5143C18.46 20.5037 18.4626 20.4932 18.4653 20.4826L18.4415 20.5249ZM18.2169 20.9846L18.2354 21.0031C18.2381 20.9978 18.2407 20.9872 18.2407 20.9872C18.2328 20.9846 18.2249 20.9846 18.2169 20.9846ZM17.9448 21.1616L17.9369 21.1774L17.9527 21.1669L17.9448 21.1616Z" fill="#030303"/>
<path d="M35.3614 11.3306C35.3534 11.2197 35.475 10.8947 35.4195 10.8974C35.4618 10.7943 35.5093 10.6596 35.5331 10.5856C35.5595 10.4984 35.5806 10.4218 35.5965 10.3478L35.6414 10.1391L35.6652 10.0335C35.6678 10.0176 35.6784 9.98854 35.6731 9.9859L35.6335 10.0255C35.5806 10.0784 35.5304 10.1206 35.4697 10.1629C35.4301 10.192 35.3666 10.258 35.3138 10.3188C35.2874 10.3505 35.261 10.3795 35.2425 10.4086L35.216 10.4456C35.2002 10.4641 35.1843 10.4826 35.1711 10.4984C35.01 10.6939 34.8515 10.7838 34.722 10.8313C34.5767 10.9291 34.4578 11.003 34.3072 11.143C34.1619 11.2725 34.006 11.4046 33.7867 11.5393C33.6758 11.6001 33.5331 11.6635 33.3587 11.6529C33.1844 11.645 33.0074 11.5261 32.9255 11.3808C32.9809 11.4178 33.0919 11.5525 33.2583 11.5948C33.4195 11.6397 33.5701 11.5869 33.6071 11.5525C33.4723 11.5816 33.3297 11.5816 33.2029 11.5208C33.0787 11.4601 32.9889 11.3518 32.944 11.2302C32.9519 11.188 32.9572 11.1906 32.944 11.0294C32.944 11.011 32.936 10.974 32.936 10.974C32.9096 10.974 32.907 11.1193 32.944 11.2302C32.8911 11.1457 32.8568 11.0294 32.8647 10.9C32.87 10.7732 32.936 10.62 33.0285 10.5196C33.2293 10.3029 33.4618 10.2105 33.829 10.1471C33.8475 10.1418 33.8713 10.1312 33.8845 10.1312C33.9505 10.1233 33.9294 10.1312 33.8369 10.1471C33.7154 10.1893 33.549 10.2633 33.5701 10.3029C33.6467 10.2686 33.7313 10.2448 33.8158 10.2237L33.9453 10.1946L34.014 10.1814C34.0192 10.1946 34.0192 10.2184 34.0219 10.2369C34.0298 10.3188 34.0377 10.4007 34.0457 10.4799C34.0457 10.5222 34.0509 10.5645 34.0457 10.612L34.0404 10.7336C33.9585 10.9951 33.9928 10.686 33.9347 10.7785C33.8871 11.0506 33.829 11.2989 33.7154 11.5499C33.6018 11.7982 33.4195 12.0439 33.1183 12.2341C33.1447 12.1813 33.1764 12.1205 33.2082 12.0598C33.2663 11.9937 33.3772 11.8933 33.3825 11.8484C33.3059 11.9277 33.2531 12.0017 33.2002 12.0651C33.1236 12.139 33.047 12.2183 32.9651 12.2817C32.8436 12.3874 32.796 12.4429 32.759 12.4957C32.722 12.5512 32.685 12.5961 32.5609 12.6463C32.4816 12.6833 32.405 12.707 32.3363 12.7308C32.2676 12.7546 32.2095 12.7784 32.1487 12.7942C32.0906 12.8127 32.0351 12.8286 31.9823 12.8497C31.9559 12.8576 31.9268 12.8656 31.8977 12.8708C31.8555 12.8814 31.8105 12.8893 31.7656 12.8999C31.6626 12.8735 31.7181 12.8418 31.7762 12.8127C31.837 12.781 31.9004 12.7493 31.8872 12.7255L31.9294 12.7123L31.8845 12.7255C31.7286 12.752 31.6415 12.7625 31.5754 12.7784C31.5094 12.7942 31.4724 12.8127 31.4248 12.8312C31.3931 12.8418 31.3482 12.8523 31.2927 12.8603C31.2716 12.8682 31.2795 12.8523 31.2795 12.8444L31.2848 12.8101L31.298 12.7282C31.3191 12.6093 31.3746 12.4429 31.438 12.2843C31.5041 12.1575 31.5146 12.1628 31.512 12.2051C31.5094 12.2262 31.5041 12.2579 31.4988 12.2923C31.4882 12.3345 31.4829 12.3794 31.4777 12.4112C31.4697 12.4666 31.4512 12.5485 31.4962 12.4666C31.5781 12.2183 31.6388 12.0334 31.6943 11.859C31.7392 11.7111 31.7683 11.5948 31.8026 11.4812L31.7709 11.5182L31.8053 11.4733C31.9559 11.254 32.1197 11.0717 32.2597 10.9766C32.2042 11.0479 32.0642 11.1827 32.1012 11.1959C32.1038 11.1959 32.1329 11.1589 32.1672 11.1087C32.2016 11.0611 32.2438 11.0057 32.265 10.9713C32.4446 10.7626 32.5926 10.5671 32.87 10.3928C32.9757 10.2818 33.0972 10.2184 33.2214 10.1629L33.4116 10.4377C33.3799 10.4562 33.3508 10.4773 33.3191 10.4958L33.2689 10.5724L33.1791 10.6041L32.87 10.9132C32.7643 11.0057 32.656 11.0849 32.5371 11.1351C32.117 11.3993 32.2359 11.2619 32.3231 11.1483C32.3072 11.1536 32.2782 11.1695 32.2782 11.1642C32.2835 11.1483 32.3178 11.1272 32.3627 11.1087C32.5662 10.9475 32.7749 10.797 32.9625 10.62C32.7485 10.76 32.5688 10.9211 32.3257 11.0691C32.0774 11.2197 32.088 11.2593 32.0615 11.3174C32.0061 11.4257 31.8158 11.5578 31.5094 11.6793L31.4671 11.6926L31.5041 11.682C31.4169 11.7824 31.2637 11.8564 31.0682 11.9198C30.8885 11.9779 30.8964 11.925 30.9017 11.8643C30.6771 12.0413 30.8674 12.0149 30.8674 12.0703C30.6111 12.1998 30.4473 12.2606 30.3258 12.2764L30.3575 12.2553L30.3125 12.2791C29.5649 12.6384 28.8278 12.9607 27.9586 13.172C27.5702 13.2698 27.1343 13.423 26.7195 13.5498C26.2571 13.6898 26.1858 13.6951 26.1303 13.6132C25.985 13.7796 25.483 13.9144 25.0075 14.0386C24.3813 14.2076 23.7869 14.4163 23.1872 14.6303C23.0577 14.6779 22.9124 14.7228 22.7935 14.7704C22.6772 14.8179 22.561 14.8787 22.458 14.9474C22.2493 15.0821 22.0775 15.2855 22.096 15.4308C22.067 15.3833 22.0881 15.2855 22.0432 15.3199C22.03 15.3938 22.0458 15.4123 22.059 15.4203C22.0722 15.4255 22.0854 15.4229 22.096 15.4361C22.1119 15.4837 22.1462 15.5339 22.1832 15.5708C22.2994 15.6844 22.5187 15.666 22.3946 15.7373C22.3602 15.7531 22.3285 15.7769 22.4315 15.8033C22.6323 15.7928 22.5795 15.7505 22.6086 15.7267C22.6772 15.6607 22.8305 15.6369 23.1132 15.5074C23.3906 15.3806 23.483 15.4044 23.6601 15.3146C23.8212 15.2353 23.8846 15.1455 24.1171 15.0372C24.3813 14.9157 24.6165 14.7571 24.8939 14.6356C25.0682 14.5616 25.2135 14.4586 25.3536 14.3609C25.4064 14.3186 25.4592 14.2869 25.5147 14.2737C26.0458 13.9884 26.5557 13.7004 27.0682 13.3279C27.5992 12.9263 27.7261 12.8629 28.0087 12.7731C28.1858 12.6331 28.1065 12.6172 28.2914 12.4798C28.5266 12.3028 28.7828 12.1338 29.0153 11.9726C29.2135 11.8326 29.3984 11.7163 29.5411 11.571C29.7762 11.3227 30.1461 11.1246 30.4156 10.8524C30.5609 10.7098 30.6058 10.7705 30.8172 10.6332C30.8489 10.5248 30.9889 10.3848 31.3324 10.1127C32.1223 9.48394 32.9202 8.84989 33.6837 8.17621C34.0721 7.83012 34.4789 7.50517 34.8488 7.15908L34.8224 7.19607L34.8515 7.15644C34.9915 7.00585 35.1315 6.84734 35.2478 6.69411C35.4538 6.41671 35.4697 6.4537 35.5093 6.46427L35.4908 6.50125L35.512 6.46163C35.829 5.93061 36.2147 5.35996 36.4181 4.73383C36.5027 4.467 36.5635 4.20546 36.5661 3.93334C36.5238 3.88315 36.5 3.84616 36.4921 3.60839C36.368 3.02717 36.0403 2.51465 35.6097 2.08931C35.5516 2.04968 35.5067 2.01005 35.4776 1.96778C35.3376 1.85154 35.1896 1.73794 35.0338 1.64019C34.6718 1.41298 34.4208 1.26768 34.3231 1.09596C34.1963 1.11973 34.1434 1.14879 33.8422 1.01934C33.6969 0.955937 33.512 0.908383 33.3508 0.852904C33.1897 0.800066 33.047 0.744586 32.9704 0.697032C32.8621 0.62306 32.8119 0.615134 32.7167 0.62306C32.4261 0.641553 32.3072 0.554371 32.1434 0.48304C32.1804 0.48304 32.294 0.517384 32.2729 0.493607L32.1434 0.48304C31.6335 0.448695 31.0708 0.327168 30.5318 0.30075C30.479 0.308675 30.4367 0.319243 30.3469 0.306033C30.3443 0.306033 30.3575 0.298108 30.3707 0.298108C30.4209 0.298108 30.4737 0.298108 30.5239 0.298108C30.582 0.282256 30.6402 0.269047 30.7009 0.258479C30.5398 0.226777 30.4129 0.239986 30.2808 0.250554C30.0748 0.269047 29.837 0.279615 29.5569 0.271689C29.5147 0.266405 29.5887 0.24527 29.4618 0.250554L29.549 0.271689C29.4777 0.290182 29.3773 0.295466 29.2822 0.282256C29.1395 0.263763 29.0655 0.224135 28.8515 0.295466C28.7194 0.335094 28.3892 0.364155 28.1197 0.361513C28.014 0.361513 27.948 0.348304 28.0352 0.324527C28.0748 0.313959 28.1778 0.306033 28.2518 0.298108C28.3099 0.303391 28.3654 0.298108 28.4209 0.284898L28.4552 0.274331L28.4077 0.282256C28.3601 0.28754 28.3099 0.290182 28.2624 0.292824C28.0299 0.279615 27.8344 0.308675 27.6494 0.34302C27.4645 0.380006 27.2796 0.419634 27.0973 0.456621C26.841 0.498891 26.5794 0.543803 26.3232 0.596641C26.199 0.620418 26.0352 0.654762 26.0273 0.62306C26.0061 0.549087 25.8001 0.599283 25.5887 0.681181C25.4566 0.731377 25.3509 0.778931 25.1343 0.815917C24.4236 0.93216 23.7182 1.14879 23.0154 1.31788C22.5584 1.42883 22.1304 1.55829 21.6839 1.69831C20.6852 2.01005 19.7288 2.37199 18.7196 2.71807C18.0538 2.94528 17.3907 3.20418 16.7381 3.47365C16.5505 3.55027 16.3894 3.61896 16.2361 3.65859C16.0538 3.70614 15.9455 3.72199 16.1146 3.60839C16.3603 3.44459 16.6403 3.28872 17.0816 3.10379C18.0221 2.71015 18.9891 2.35878 19.9587 2.02854C20.9335 1.69567 21.9137 1.376 22.8992 1.10917C24.0801 0.789498 25.2743 0.496249 26.4896 0.306033C28.2095 0.0365611 29.9744 -0.0638306 31.7049 0.205642C32.5688 0.340378 33.4195 0.564938 34.228 0.903099C35.0258 1.25711 35.7867 1.75907 36.3045 2.48295C36.5608 2.84489 36.7537 3.26494 36.8065 3.71142C36.8726 4.15526 36.7986 4.60966 36.6506 5.02708C36.2385 6.1446 35.4221 7.05341 34.5873 7.84069C34.1461 8.25282 33.6811 8.6359 33.2214 9.02161C32.7617 9.40733 32.302 9.7904 31.8449 10.1735C30.4922 11.3095 29.0735 12.3953 27.6415 13.4071C26.7089 14.0676 25.7155 14.6277 24.7195 15.1825C24.4817 15.3172 24.2334 15.4388 23.9877 15.5656C23.7393 15.6871 23.4831 15.798 23.2294 15.9143C22.9547 16.0279 22.6614 16.1204 22.3179 16.0781C22.1489 16.0596 21.9534 15.9671 21.8371 15.8086C21.7235 15.658 21.6707 15.444 21.7209 15.2512C21.7473 15.1587 21.7763 15.0636 21.8239 14.987C21.8107 15.0055 21.7948 15.0187 21.7843 15.0398C21.7975 15.0187 21.8107 15.0028 21.8239 14.987C22.0458 14.6541 22.3602 14.4613 22.6825 14.3688C22.878 14.3212 23.026 14.2473 23.1951 14.1865C23.8741 13.954 24.5689 13.7189 25.24 13.5841L25.2056 13.6026L25.2532 13.5841C25.6257 13.4283 26.1884 13.3041 26.4949 13.1377C26.4473 13.1482 26.3945 13.1641 26.3575 13.172C26.31 13.1799 26.3285 13.1667 26.3919 13.1509C26.4315 13.1403 26.4632 13.1403 26.5002 13.135L26.8119 13.0452C26.8172 13.0531 26.8172 13.0611 26.8172 13.0716L26.7749 13.0928L26.8225 13.0716C26.8357 13.0637 26.8648 13.0531 26.8621 13.0505C26.8542 13.0452 26.8331 13.0452 26.8172 13.0426C26.8938 12.9977 27.0127 12.9554 27.1475 12.9158C27.3958 12.8444 27.2241 12.929 27.269 12.929C27.3773 12.9316 28.1805 12.7044 28.4896 12.5723C28.6085 12.5221 28.7142 12.4772 28.8436 12.4323C28.7511 12.4164 28.7987 12.3742 29.0576 12.3134C29.6362 12.1813 29.5966 12.1839 30.1699 11.896C30.339 11.8035 30.7088 11.6027 30.907 11.5314C31.3984 11.3597 31.8924 11.0717 32.3522 10.752C32.6428 10.5698 32.9043 10.3505 33.1764 10.1444L33.4063 10.4773C32.8251 10.8075 32.3363 11.3016 32.0087 11.8881C31.9109 12.0598 31.8211 12.2764 31.7471 12.3821C31.7234 12.427 31.6917 12.4957 31.7022 12.53C31.763 12.5142 31.8079 12.5089 31.8423 12.4983C31.8555 12.4957 31.8449 12.4957 31.8766 12.4931C31.903 12.4904 31.9294 12.4851 31.9559 12.4798C32.0087 12.4693 32.0615 12.4587 32.1144 12.4481C32.4763 12.3636 32.8171 12.1575 33.0945 11.8907C33.3667 11.6159 33.5754 11.2857 33.7022 10.9343C33.7233 10.8604 33.7471 10.7917 33.7603 10.7203C33.7709 10.6332 33.7762 10.612 33.7735 10.5724C33.7656 10.5248 33.7815 10.4535 33.7101 10.4905L33.6388 10.5116C33.6177 10.5196 33.6018 10.5248 33.5463 10.5486C33.3693 10.6252 33.2161 10.7468 33.1606 10.8974C33.1104 11.0294 33.1659 11.2091 33.2583 11.2725C33.3376 11.3333 33.4274 11.3412 33.549 11.2989C33.6652 11.2593 33.7973 11.1748 33.9321 11.0929L33.9373 11.0902C34.3019 10.8736 34.6612 10.6015 34.9941 10.3293C35.0258 10.3029 35.0602 10.2739 35.0945 10.2448C35.1368 10.2078 35.1817 10.1682 35.2266 10.1286C35.3164 10.0493 35.4063 9.96477 35.4987 9.87494C35.6837 9.69265 35.8792 9.48658 36.0853 9.2541C36.0958 9.2541 36.1064 9.2541 36.117 9.25674C36.1196 9.25674 36.1222 9.25674 36.1249 9.25938L36.1222 9.28052L36.1196 9.32015C36.0271 9.5632 36.0324 9.46809 36.0086 9.47073C35.9188 9.81946 35.8448 10.1233 35.7286 10.4694C35.6995 10.5513 35.6678 10.6358 35.6388 10.7203C35.6123 10.789 35.5859 10.8577 35.5569 10.9238C35.4961 11.0585 35.43 11.1959 35.3614 11.3306ZM20.096 2.17649C20.0511 2.1897 20.0036 2.20026 19.9587 2.21612C19.9217 2.22933 19.8847 2.24518 19.8477 2.26103L19.9851 2.22404L20.096 2.17649ZM21.1317 1.81719C21.1079 1.82512 21.0868 1.83304 21.063 1.84361L21.1079 1.83833C21.1343 1.8304 21.1687 1.82248 21.1819 1.81455C21.2294 1.79606 21.2083 1.79606 21.1317 1.81719ZM30.8621 0.263763C30.8436 0.261121 30.8198 0.255838 30.8092 0.255838C30.7749 0.258479 30.7432 0.258479 30.7088 0.261121L30.8621 0.263763ZM31.298 0.316601L31.2531 0.308675L31.2689 0.319243L31.298 0.316601ZM35.681 2.06025L35.6441 2.03647C35.4644 1.85946 35.4221 1.84625 35.4327 1.86739C35.4433 1.89116 35.4935 1.95985 35.4855 1.97042C35.5172 1.99684 35.5463 2.02062 35.578 2.04439H35.652L35.681 2.06025ZM36.2306 2.67845C36.2332 2.67845 36.2253 2.65467 36.2174 2.6441C36.2041 2.62561 36.1883 2.60976 36.1724 2.59126C36.1672 2.59126 36.1566 2.58598 36.1619 2.59391C36.1857 2.6441 36.2121 2.6758 36.2306 2.67845ZM36.5106 3.20418L36.4921 3.16455L36.434 3.10907C36.4525 3.13285 36.4763 3.15663 36.4948 3.1804L36.5106 3.20418ZM36.574 3.91749L36.6163 3.87258C36.5925 3.73256 36.5767 3.80389 36.5582 3.77483L36.574 3.91749ZM36.3838 5.05878C36.3891 5.07728 36.4049 5.05614 36.4208 5.00595C36.434 4.96632 36.4366 4.92405 36.4366 4.90556C36.434 4.87914 36.4155 4.91084 36.4023 4.95839C36.3891 4.99802 36.3891 5.02708 36.3838 5.05878ZM36.0509 5.75096C36.0562 5.76153 36.08 5.73511 36.109 5.67963C36.117 5.66378 36.117 5.65057 36.1222 5.63736C36.1143 5.63207 36.0932 5.65585 36.0641 5.71133C36.0536 5.72454 36.0483 5.74568 36.0509 5.75096ZM34.2782 7.81163L34.3072 7.75087L34.3257 7.72181L34.2966 7.75615C34.2887 7.77728 34.1989 7.86182 34.2782 7.81163ZM33.6177 8.37699L33.6335 8.37435L33.6467 8.35322L33.6177 8.37699ZM31.7815 9.93571L31.8105 9.904L31.8343 9.87494L31.7973 9.90929L31.7815 9.93571ZM31.2795 10.3426C31.2954 10.332 31.3165 10.3214 31.3297 10.3082C31.3773 10.2659 31.3852 10.2527 31.3508 10.2686C31.3456 10.2712 31.3191 10.295 31.3033 10.3109L31.2795 10.3426ZM29.9585 11.3253L29.9849 11.3148C30.1805 11.2091 30.3469 11.0559 30.5133 10.9026L30.5503 10.8841L30.5213 10.8974C30.3284 11.0004 30.1805 11.1853 29.9955 11.3042L29.9585 11.3253ZM26.5292 13.8246L26.5742 13.7929L26.5345 13.814L26.5292 13.8246ZM26.0167 14.0782H26.0352L26.0537 14.057L26.0167 14.0782ZM25.3932 14.3477C25.4408 14.3344 25.4751 14.3107 25.5042 14.2816L25.3932 14.3477ZM24.4579 15.0161C24.4579 15.0213 24.5029 15.0081 24.5266 15.0002C24.5531 14.9791 24.6006 14.9474 24.6006 14.9421C24.6006 14.9368 24.5451 14.9579 24.5161 14.9685C24.4976 14.9843 24.4579 15.0108 24.4579 15.0161ZM22.2149 15.0002L22.2017 15.0028L22.1911 15.024L22.2149 15.0002ZM22.7169 14.6805C22.7037 14.6885 22.6852 14.6964 22.6825 14.7017C22.672 14.7149 22.6667 14.7254 22.6614 14.736L22.6271 14.7598C22.6403 14.7519 22.6561 14.7413 22.6693 14.7334L22.7169 14.6805ZM23.7499 14.3661C23.5755 14.4058 23.5148 14.4137 23.4487 14.4348C23.3853 14.456 23.2717 14.4982 23.2611 14.5062C23.24 14.5273 23.314 14.5141 23.3879 14.4903C23.454 14.4665 23.5227 14.4428 23.7499 14.3661ZM24.5504 14.094C24.5557 14.0861 24.5081 14.094 24.4844 14.094C24.4315 14.1072 24.3972 14.1231 24.4051 14.131C24.4104 14.1363 24.4368 14.1363 24.4553 14.1363C24.4896 14.1231 24.5425 14.102 24.5504 14.094ZM25.2373 13.9012L25.2003 13.9117L25.2215 13.9144L25.2373 13.9012ZM25.5517 13.7559L25.5359 13.7506L25.5121 13.7664L25.5517 13.7559ZM27.8951 13.0637C27.8925 13.0637 27.8582 13.0743 27.837 13.0769C27.8212 13.0848 27.7921 13.098 27.7921 13.1007C27.7921 13.1139 27.8265 13.1033 27.8793 13.0795C27.8951 13.0743 27.9004 13.0663 27.8951 13.0637ZM29.3139 12.5591L29.298 12.5565L29.2769 12.5723L29.3139 12.5591ZM30.331 12.1628L30.2888 12.1734L30.2491 12.1813L30.2808 12.1787L30.331 12.1628ZM30.3337 11.9726L30.3178 11.97L30.2993 11.9885L30.3337 11.9726ZM31.8396 11.4231C31.8396 11.4204 31.8 11.4389 31.7947 11.4442C31.7683 11.4627 31.7445 11.4839 31.7207 11.5023L31.8079 11.4654C31.8185 11.4521 31.8343 11.4363 31.8396 11.4231ZM32.5662 11.0479C32.5582 11.0638 32.545 11.0823 32.5397 11.0955C32.5344 11.1087 32.5371 11.1166 32.5371 11.1272C32.5635 11.1008 32.5979 11.0717 32.6111 11.0532C32.6296 11.0294 32.6586 10.9951 32.5662 11.0479ZM33.3165 10.4931C33.2716 10.5143 33.2293 10.5433 33.1923 10.5856L33.3165 10.4931ZM33.2451 10.2554C33.2557 10.2607 33.2663 10.2607 33.2795 10.258L33.3376 10.3426C33.2636 10.3637 33.1553 10.4905 33.0655 10.5592C33.1421 10.5513 33.2451 10.4641 33.3535 10.361L33.2689 10.2395L33.2451 10.2554ZM33.0602 10.3029C33.0734 10.3135 33.0919 10.3214 33.1764 10.2818C33.1791 10.258 33.1447 10.2633 33.0602 10.3029ZM32.6639 10.7415L32.7009 10.7019C32.7537 10.6517 32.8119 10.5962 32.8568 10.5513C32.8911 10.5169 32.8462 10.5354 32.8039 10.575C32.7537 10.6226 32.7273 10.6622 32.6903 10.7071L32.6639 10.7415ZM32.4103 10.9449L32.4367 10.9079C32.4446 10.8868 32.5318 10.7943 32.4525 10.8524L32.4261 10.9158L32.4103 10.9449ZM32.6428 12.353L32.6005 12.3821L32.6454 12.361L32.6428 12.353ZM34.8435 10.7203C34.8277 10.7309 34.8065 10.7441 34.7986 10.752C34.7748 10.7758 34.7537 10.7996 34.7299 10.8234L34.8435 10.7203ZM35.9637 9.5315L36.006 9.46545C36.006 9.46017 36.0086 9.44431 36.006 9.44431C36.0007 9.4496 35.9954 9.45224 35.9928 9.45488C35.9875 9.46281 35.9875 9.47073 35.9849 9.47866L35.9637 9.5315ZM35.5754 10.5988L35.5622 10.6464L35.5833 10.6015L35.5754 10.5988Z" fill="#030303"/>
<path d="M48.1213 11.1711C48.0526 11.2609 47.717 11.3587 47.7435 11.3956C47.4423 11.4511 47.1305 11.4617 46.8293 11.3798C46.5308 11.3005 46.227 11.1315 46.0394 10.8382C45.9866 10.7616 45.9284 10.6638 45.8756 10.5608C45.8228 10.4525 45.7884 10.3336 45.7699 10.2332C45.725 9.94789 45.8386 9.74975 45.9416 9.64935C46.0473 9.49084 46.1477 9.3746 46.33 9.23722C46.4146 9.16853 46.5308 9.12362 46.655 9.10248C46.7792 9.08663 46.9245 9.07606 47.0803 9.1791C47.1543 9.22929 47.2151 9.30855 47.2415 9.39309C47.2706 9.47763 47.2758 9.55953 47.2732 9.63614C47.2653 9.78673 47.2204 9.92675 47.1754 10.0483C47.1622 9.99544 47.2071 9.86599 47.2256 9.72861C47.2494 9.59387 47.2177 9.43272 47.1649 9.38781C47.2098 9.54104 47.186 9.66785 47.1622 9.78409C47.1358 9.90298 47.0988 10.0113 47.0592 10.1143C47.0301 10.1381 47.0143 10.1249 46.9535 10.2596C46.9456 10.2755 46.935 10.3098 46.9403 10.3098C46.9641 10.3178 47.0169 10.2042 47.0618 10.1143C47.0196 10.4631 46.7105 10.9492 46.3749 11.29C46.367 11.3005 46.3617 11.3164 46.3538 11.3217C46.3194 11.3534 46.3247 11.3428 46.3696 11.2926C46.4066 11.2186 46.4753 11.1024 46.4357 11.0786C46.2745 11.3137 46.0922 11.5119 45.8624 11.6625C45.6008 11.7523 45.873 11.5938 45.762 11.6044C45.5136 11.7285 45.2706 11.8263 44.9852 11.8448C44.7105 11.8633 44.3591 11.7761 44.124 11.4775C44.1821 11.504 44.2455 11.5277 44.3142 11.5436C44.3855 11.5938 44.5203 11.673 44.5652 11.6598C44.4648 11.6149 44.3802 11.5779 44.3089 11.5357C44.2164 11.4802 44.1319 11.4009 44.0606 11.3243C43.9496 11.2028 43.8941 11.1552 43.8413 11.1103C43.7884 11.068 43.7462 11.0258 43.7012 10.8963C43.6035 10.5502 43.5718 10.3627 43.5163 10.146C43.5744 10.0034 43.6326 10.2411 43.6828 10.22L43.6933 10.2623L43.6828 10.2174C43.6537 9.93468 43.622 9.92147 43.585 9.87656C43.5374 9.81843 43.5216 9.61237 43.5612 9.38517C43.6114 9.13154 43.6167 9.36667 43.6326 9.47763C43.6378 9.52254 43.6431 9.6018 43.6643 9.53047C43.696 8.99152 43.6563 8.76432 43.6088 8.53976L43.5982 8.58467L43.6088 8.53184C43.6431 8.27821 43.688 8.04837 43.7488 7.89514C43.7435 7.98497 43.6986 8.16726 43.7356 8.15933C43.7382 8.15933 43.7435 8.11178 43.7462 8.05365C43.7488 7.99553 43.7514 7.92949 43.7514 7.88986C43.7779 7.62039 43.7699 7.3879 43.8466 7.08144C43.8413 6.89387 43.8994 6.74064 43.9417 6.57948L43.9285 6.48966L43.976 6.40776L44.0077 5.97713C44.0183 5.83711 44.0447 5.70766 44.0975 5.59142C44.2244 5.11588 44.2323 5.29552 44.2455 5.43554C44.2534 5.41969 44.264 5.38799 44.2666 5.39327C44.2746 5.40913 44.264 5.44611 44.2429 5.49102C44.2006 5.74465 44.1636 6.00091 44.1292 6.25717C44.2059 6.01412 44.2164 5.76842 44.2957 5.49631C44.3802 5.21627 44.33 5.19249 44.3115 5.13437C44.2719 5.01813 44.3195 4.79357 44.441 4.48711L44.4595 4.44748L44.441 4.48182C44.4278 4.34709 44.4753 4.18857 44.5652 4.00364C44.6444 3.83456 44.6761 3.87419 44.7184 3.9191C44.7395 3.62849 44.6339 3.78437 44.5916 3.75002C44.6788 3.45677 44.795 3.28769 44.906 3.20051C44.8981 3.21372 44.8928 3.22429 44.8875 3.2375C44.8954 3.22164 44.906 3.20579 44.9166 3.18994C44.9694 3.10804 45.1147 2.9601 45.2547 2.89669C45.3261 2.85971 45.4027 2.84385 45.4767 2.83064L45.5929 2.81215C45.6088 2.81479 45.6405 2.79366 45.6457 2.81479L45.6642 2.86763L45.7409 3.08427C45.7699 3.15295 45.7937 3.2375 45.8043 3.32732C45.8254 3.43828 45.8439 3.54131 45.8545 3.64963C45.9047 4.07762 45.8967 4.51881 45.8122 4.96793C45.7409 5.3695 45.6801 5.83711 45.5823 6.2651C45.4714 6.74064 45.437 6.80404 45.3393 6.80933C45.408 7.02068 45.26 7.52264 45.1068 7.99553C44.9033 8.61638 44.7237 9.23458 44.4674 9.83957C44.2349 10.3732 43.9602 10.891 43.6141 11.3639C43.659 11.2715 43.7224 11.1447 43.659 11.1816C43.5507 11.3613 43.6246 11.3085 43.6088 11.3692C43.5559 11.4538 43.5084 11.5383 43.4476 11.6255C43.2363 11.9055 43.0725 12.0535 43.1174 11.9029C43.1306 11.858 43.1332 11.821 43.0355 11.8976C42.8902 12.0693 42.9536 12.0508 42.943 12.0957C42.9166 12.1935 42.7898 12.352 42.4807 12.5501C42.3327 12.64 42.2191 12.669 42.124 12.6849C42.0262 12.7007 41.947 12.7087 41.8281 12.7192C41.7198 12.7272 41.6326 12.7351 41.5348 12.7245C41.4397 12.7139 41.3235 12.6928 41.1861 12.603C40.8691 12.3969 40.6841 12.0772 40.6181 11.7497C40.5784 11.5436 40.5309 11.356 40.5018 11.1737C40.486 11.1024 40.4833 11.0363 40.4939 10.9756C40.4939 10.8144 40.5018 10.6559 40.5177 10.4974L40.5626 10.0456C40.5916 9.74446 40.6154 9.438 40.626 9.11569C40.6498 8.44201 40.6841 8.29935 40.8056 8.02724C40.8189 7.79739 40.7528 7.85023 40.7766 7.6151C40.8056 7.31657 40.8638 7.01275 40.914 6.73007C40.9536 6.48702 41.017 6.27302 41.0196 6.06431C41.0302 5.71558 41.1808 5.31402 41.2284 4.93094C41.2574 4.72488 41.3314 4.74601 41.4186 4.5056C41.379 4.39728 41.4133 4.19914 41.548 3.77116C41.7805 3.07634 42.0712 2.39738 42.412 1.74219L42.8981 1.86636C42.8875 2.16753 42.8902 2.47135 42.8743 2.77252C42.8611 3.30354 42.7739 3.83985 42.6814 4.35501L42.6788 4.30746V4.3603C42.6603 4.57165 42.6207 4.78828 42.6022 4.98907C42.5652 5.34836 42.5203 5.32194 42.4833 5.33251V5.29024L42.4807 5.33515C42.4437 5.98242 42.2508 6.68516 42.0183 7.36676C41.9206 7.66001 41.8017 7.92949 41.6854 8.20688C41.696 8.27029 41.7171 8.33105 41.585 8.56354C41.3657 9.19231 41.0751 9.7656 40.7766 10.3336C40.7528 10.4049 40.7211 10.4631 40.6868 10.5C40.6022 10.6744 40.5097 10.8461 40.4199 11.0152C40.2165 11.4141 40.0289 11.6598 39.8519 11.7444C39.8545 11.8685 39.9047 11.9478 39.6432 12.2278C39.5111 12.352 39.3367 12.5132 39.0804 12.5449C38.811 12.5766 38.6128 12.3811 38.5864 12.278C38.5362 12.1248 38.523 12.0799 38.4596 11.9927C38.2826 11.7259 38.338 11.5462 38.3698 11.3639C38.375 11.4009 38.3724 11.5277 38.3909 11.4987C38.383 11.4538 38.375 11.4062 38.3698 11.3613C38.3063 10.9465 38.449 10.4763 38.7026 10.1038L38.9748 10.1962C38.9589 10.3415 38.9404 10.4842 38.9087 10.6216C38.9061 10.677 38.9061 10.7246 38.8691 10.8171C38.8691 10.8197 38.8638 10.8039 38.8691 10.7906C38.8823 10.7378 38.8955 10.685 38.9061 10.6295C38.9034 10.5661 38.8981 10.5027 38.8902 10.4393C38.8506 10.6057 38.8242 10.7299 38.7977 10.8699C38.7581 11.0813 38.663 11.327 38.4886 11.5674C38.4569 11.6017 38.486 11.5251 38.412 11.6387C38.4384 11.6176 38.4596 11.5964 38.4834 11.5753C38.4569 11.6493 38.3962 11.7391 38.3196 11.8078C38.2007 11.9108 38.124 11.9293 37.9946 12.1327C37.9735 12.1618 37.9391 12.1988 37.8968 12.241C37.8757 12.2622 37.8519 12.2807 37.8229 12.3018C37.7806 12.3335 37.7357 12.3652 37.6908 12.3943C37.6432 12.4207 37.5956 12.4471 37.5455 12.4735L37.4715 12.5132C37.4503 12.5052 37.4292 12.4762 37.4107 12.4577C37.3288 12.3731 37.2548 12.2912 37.202 12.1935C37.1544 12.1142 37.1518 12.0772 37.1465 12.0508C37.1439 12.0297 37.1571 12.0323 37.1861 12.0746C37.2073 12.109 37.2918 12.2463 37.3632 12.3124C37.3843 12.3467 37.416 12.3758 37.4424 12.4048C37.4583 12.4154 37.4688 12.4418 37.4873 12.4339C37.5032 12.4233 37.5217 12.4101 37.5402 12.3996L37.5824 12.3679L37.527 12.4048L37.482 12.4313C37.4688 12.4207 37.4583 12.4075 37.4451 12.3969C37.4213 12.3731 37.3975 12.3494 37.3764 12.3229C37.3262 12.2595 37.2839 12.1961 37.2496 12.1301C37.2178 12.0667 37.1967 12.0218 37.1782 11.9663C37.1386 11.8606 37.1148 11.7576 37.099 11.6572C37.0673 11.4538 37.0752 11.2477 37.1439 11.0416C37.2363 10.7616 37.4266 10.5212 37.6326 10.3283C37.733 10.2332 37.8757 10.1249 37.8995 10.1513C37.9497 10.2094 38.1188 10.0773 38.3063 9.93732C38.3935 9.86863 38.4675 9.81051 38.5917 9.7471L38.7608 10.0166C38.7291 10.043 38.6921 10.0721 38.6524 10.1038C38.0791 10.5265 37.6062 11.0918 37.1861 11.6625C37.1307 11.7364 37.0805 11.8104 37.0303 11.887C36.9801 11.9636 36.9404 12.0244 36.8612 12.1618C36.7264 12.4022 36.5891 12.6717 36.4596 12.9385L36.4279 12.9253C36.4226 12.9227 36.4173 12.9227 36.412 12.9174L36.3962 12.8725L36.3301 12.6928C36.2747 12.5317 36.2218 12.3837 36.1875 12.1961C36.1743 12.101 36.1584 12.0059 36.1531 11.9029C36.1479 11.85 36.1478 11.7999 36.1478 11.7708C36.1478 11.7364 36.1478 11.7021 36.1505 11.6651C36.1611 11.3851 36.2218 11.1077 36.3301 10.8435C36.3936 10.7035 36.4358 10.6189 36.4702 10.5C36.5045 10.3891 36.5283 10.2728 36.5257 10.1751C36.5257 10.1275 36.5151 10.0853 36.5072 10.0694C36.4966 10.0536 36.5045 10.0615 36.4913 10.0562C36.4649 10.0536 36.457 10.0509 36.4253 10.0641C36.3962 10.0773 36.3539 10.1038 36.3117 10.1407C35.7991 10.5872 35.3553 11.142 35.0118 11.7364C34.914 11.9055 34.8348 12.0588 34.7476 12.1882C34.6446 12.3414 34.5785 12.426 34.6261 12.2305C34.6974 11.9478 34.8137 11.644 35.0726 11.2424C35.35 10.8118 35.6829 10.4155 36.0554 10.0588C36.1478 9.97166 36.2403 9.87127 36.3803 9.82372C36.4517 9.80258 36.5283 9.80523 36.597 9.83429C36.6683 9.86071 36.7238 9.92675 36.7476 9.99544C36.7925 10.1355 36.7766 10.2728 36.7529 10.4023C36.7264 10.5317 36.6842 10.6586 36.6313 10.7774C36.4755 11.0786 36.3883 11.4036 36.383 11.7338C36.3803 11.8236 36.383 11.8791 36.3909 11.9425C36.3962 12.0059 36.4068 12.0667 36.42 12.1248C36.4332 12.1829 36.449 12.241 36.4675 12.2939C36.4755 12.3203 36.4887 12.3467 36.4992 12.3731C36.5045 12.3996 36.5124 12.3705 36.5177 12.3573L36.5389 12.315C36.5943 12.1988 36.6525 12.0905 36.7106 11.9874L36.8242 11.7972L36.9695 11.5779C37.4239 10.9122 37.9787 10.3178 38.6155 9.81579L38.7132 9.97431C38.3328 10.1592 37.9576 10.3627 37.6776 10.6612C37.4318 10.9175 37.2892 11.2556 37.2998 11.607C37.3024 11.6942 37.3182 11.7787 37.3394 11.8606C37.3658 11.9399 37.4028 12.0244 37.4371 12.072C37.4556 12.0984 37.4741 12.1248 37.4979 12.1459C37.5085 12.1565 37.5217 12.1724 37.5322 12.1776L37.5745 12.1512C37.6326 12.1169 37.6723 12.0878 37.7542 12.0271C38.3248 11.5885 38.7053 10.899 38.7581 10.1777L38.8981 10.2253C38.6366 10.6269 38.5283 11.1262 38.5917 11.6017C38.6313 11.8316 38.6841 12.0984 38.8453 12.2278C39.017 12.3626 39.2601 12.2569 39.4265 12.0931C39.6062 11.9346 39.7198 11.718 39.8493 11.504C39.9787 11.2926 40.1002 11.076 40.2191 10.8593C40.4596 10.4261 40.6762 9.97959 40.8849 9.52783C41.2442 8.73262 41.548 7.91099 41.799 7.07616C42.1319 5.95864 42.3591 4.79621 42.4648 3.65491C42.5256 3.05785 42.552 2.46078 42.5678 1.86371L42.7158 1.9007C42.441 2.43172 42.2085 2.98123 42.0183 3.54395C41.4609 5.21098 41.1808 6.98105 41.054 8.71941C41.0091 9.29006 40.9642 9.85278 40.9166 10.4181C40.8902 10.6982 40.8849 10.9703 40.9166 11.2398C40.9457 11.5066 41.0144 11.7734 41.1438 11.9848C41.268 12.1908 41.4476 12.3203 41.6669 12.3546C41.8783 12.3863 42.1055 12.3097 42.3142 12.1724C42.5229 12.0376 42.7079 11.85 42.8875 11.6493C43.0672 11.4485 43.2336 11.2371 43.3842 11.0152C43.4238 10.9571 43.4529 10.8937 43.4846 10.8303C43.6405 10.5608 43.7752 10.2781 43.9337 10.0245C44.0341 9.86071 44.0817 9.70219 44.1451 9.54104C44.4172 8.89377 44.6074 8.19632 44.8505 7.55962L44.8479 7.59661L44.8558 7.54905C44.9245 7.15277 45.1068 6.60854 45.1147 6.26246C45.1015 6.30737 45.0883 6.36285 45.0751 6.39719C45.0566 6.4421 45.0566 6.41833 45.0751 6.35756C45.0856 6.31793 45.1015 6.29152 45.1147 6.25717L45.1887 5.94543C45.1992 5.94543 45.2072 5.94807 45.2151 5.956L45.2125 6.00091L45.2151 5.95071C45.2151 5.93486 45.2177 5.90316 45.2151 5.9058C45.2072 5.91108 45.1966 5.92958 45.186 5.94279C45.186 5.8556 45.2019 5.73408 45.2309 5.5967C45.2785 5.34836 45.2759 5.53594 45.297 5.49631C45.3551 5.40384 45.4899 4.59014 45.4555 4.26255C45.4476 4.13574 45.4397 4.02478 45.4317 3.89268C45.3895 3.97458 45.3683 3.91646 45.3763 3.66284C45.3763 3.32468 45.3921 3.37752 45.3842 3.31411C45.3842 3.28769 45.3446 3.31411 45.3261 3.32732C45.3155 3.33525 45.3049 3.34845 45.297 3.35902C45.2944 3.36431 45.2891 3.37223 45.2864 3.38016C45.2732 3.39601 45.2547 3.42243 45.2389 3.44885C45.1993 3.51225 45.1438 3.63114 45.0962 3.76587C45.0487 3.89532 45.0117 4.04327 44.9668 4.14366C44.7501 4.62449 44.6259 5.18457 44.4991 5.73936C44.264 6.76177 44.087 7.79739 43.976 8.84094C43.9522 9.05229 43.9337 9.27949 43.8888 9.43272C43.8703 9.55689 43.8571 9.68634 43.8703 9.80787C43.8941 10.0139 43.9152 10.2596 43.9443 10.471C43.9919 10.8435 44.1557 11.2001 44.4569 11.3956C44.7501 11.5938 45.1438 11.607 45.4951 11.5066C45.6405 11.467 45.7673 11.4062 45.8888 11.3164C46.2296 11.0575 46.4648 10.6903 46.7052 10.3178C46.8029 10.1698 46.869 9.98223 46.9139 9.829C46.9535 9.69162 46.9667 9.54632 46.9297 9.48291C46.9112 9.45385 46.8928 9.43008 46.8452 9.41423C46.8003 9.39573 46.7316 9.39573 46.6708 9.39309H46.6655C46.4965 9.40366 46.3247 9.50933 46.2085 9.66521C46.0896 9.82108 46.0235 10.0192 46.0156 10.2121C46.0103 10.3759 46.0632 10.5582 46.1768 10.7088C46.2851 10.8593 46.441 10.9677 46.5863 11.0179C46.6603 11.0997 46.5757 11.0707 46.5282 11.068C46.7448 11.2081 47.0116 11.2847 47.2838 11.3005C47.5532 11.3032 47.8386 11.253 48.1213 11.1711ZM36.4279 10.7616C36.4517 10.7193 36.4728 10.685 36.4887 10.6427C36.5045 10.6084 36.5124 10.5714 36.5204 10.537C36.5019 10.5793 36.486 10.6189 36.4649 10.6586C36.4543 10.6929 36.4411 10.7246 36.4279 10.7616ZM36.2139 11.9055C36.2113 11.8738 36.2086 11.8395 36.206 11.8078C36.2033 11.8263 36.2007 11.85 36.2007 11.8712C36.2033 11.9082 36.2033 11.961 36.206 11.9795C36.2192 12.0429 36.2165 12.0138 36.2139 11.9055ZM38.9008 10.2676C38.8981 10.286 38.8929 10.3125 38.8929 10.323C38.8929 10.36 38.8902 10.3944 38.8902 10.4287C38.8981 10.3732 38.9008 10.3204 38.9008 10.2676ZM38.5732 10.4657L38.5943 10.4234L38.5785 10.4366L38.5732 10.4657ZM40.7343 10.2755L40.7185 10.3204C40.4622 10.7774 40.6683 10.4895 40.692 10.4974C40.7105 10.4578 40.7264 10.4208 40.7449 10.3838L40.729 10.3098L40.7343 10.2755ZM41.0883 9.48556C41.0857 9.48292 41.0725 9.50405 41.0646 9.51726C41.0566 9.53839 41.0487 9.56217 41.0408 9.58331C41.0434 9.58595 41.0434 9.6018 41.0487 9.59123C41.0804 9.54368 41.0936 9.50141 41.0883 9.48556ZM41.3235 8.90698L41.3103 8.9519L41.305 9.03379L41.3182 8.93869L41.3235 8.90698ZM41.6801 8.22009L41.6194 8.24651C41.5771 8.39446 41.6247 8.33105 41.6273 8.36804C41.6484 8.32049 41.6643 8.27029 41.6801 8.22009ZM42.0606 7.01539C42.0527 6.9969 42.0394 7.02068 42.0289 7.07351C42.0183 7.11578 42.013 7.1607 42.0157 7.17919C42.0183 7.20825 42.0368 7.17391 42.05 7.12107C42.0606 7.08144 42.0579 7.05238 42.0606 7.01539ZM42.2587 6.23339C42.2508 6.22547 42.235 6.25981 42.2244 6.32322C42.2217 6.34171 42.2244 6.35492 42.2244 6.36813C42.235 6.37077 42.2482 6.33907 42.2614 6.27831C42.2614 6.25717 42.2614 6.23604 42.2587 6.23339ZM42.7105 3.46206L42.729 3.5281L42.7343 3.56245L42.7316 3.51754C42.7237 3.4964 42.7343 3.36959 42.7105 3.46206ZM42.7818 2.58231L42.7713 2.59552L42.7766 2.62194L42.7818 2.58231ZM41.836 3.36695L41.8439 3.32468L41.8492 3.28769L41.836 3.33789V3.36695ZM41.6299 3.99043C41.6379 3.97194 41.6484 3.9508 41.6511 3.93495C41.6669 3.87419 41.6643 3.8557 41.6458 3.8874C41.6432 3.89268 41.6352 3.92967 41.6299 3.9508V3.99043ZM41.1729 5.59406L41.1861 5.56764C41.2653 5.35629 41.2997 5.13173 41.3367 4.90717L41.3552 4.86754L41.3393 4.8966C41.2521 5.10003 41.2495 5.34044 41.1887 5.55179L41.1729 5.59406ZM40.692 9.85014L40.6947 9.7973L40.6868 9.84221L40.692 9.85014ZM40.5943 10.4155L40.6049 10.3996L40.5996 10.3732L40.5943 10.4155ZM40.5045 11.1262C40.5124 11.0733 40.5071 11.0311 40.4965 10.9888L40.5045 11.1262ZM41.0012 12.2543C41.0064 12.2516 40.9774 12.2093 40.9721 12.1829C40.9483 12.1565 40.9113 12.1063 40.906 12.1063C40.9008 12.1063 40.9272 12.1644 40.9404 12.1961C40.9562 12.2199 40.9959 12.2569 41.0012 12.2543ZM43.8571 10.788L43.8439 10.7959L43.8386 10.8197L43.8571 10.788ZM44.161 10.2253C44.1557 10.2385 44.1451 10.2596 44.1451 10.2649C44.1451 10.2834 44.1477 10.294 44.1477 10.3072L44.1345 10.3495L44.1557 10.2993L44.161 10.2253ZM44.6339 9.22665C44.552 9.38781 44.5229 9.44329 44.4965 9.50669C44.4701 9.56746 44.4225 9.6837 44.4252 9.69691C44.4278 9.72861 44.4648 9.66256 44.4991 9.58859C44.5255 9.52783 44.5493 9.4565 44.6339 9.22665ZM44.8928 8.41295C44.8901 8.40503 44.869 8.4473 44.8558 8.46843C44.8373 8.51863 44.8294 8.55561 44.8426 8.55561C44.8505 8.55561 44.8664 8.53184 44.8769 8.51598C44.8796 8.479 44.8954 8.42088 44.8928 8.41295ZM45.1094 7.72606L45.0989 7.76305L45.1121 7.7472L45.1094 7.72606ZM45.1543 7.37997L45.1411 7.39054V7.41696L45.1543 7.37997ZM45.6854 4.98378C45.6827 4.98642 45.6774 5.02077 45.6748 5.0419C45.6748 5.0604 45.6748 5.08946 45.6774 5.0921C45.688 5.09738 45.6959 5.0604 45.6933 5.00228C45.6933 4.98642 45.688 4.9785 45.6854 4.98378ZM45.6695 3.4647L45.6616 3.48055L45.6722 3.50697L45.6695 3.4647ZM44.9588 3.29562L44.9905 3.26391L45.0222 3.23485L44.9958 3.25599C44.9826 3.26656 44.9694 3.28241 44.9588 3.29562ZM45.0592 3.45413L45.0724 3.4462L45.0777 3.42243L45.0592 3.45413ZM44.3882 4.89132C44.3882 4.89396 44.4067 4.85169 44.4067 4.84376C44.4119 4.81206 44.4146 4.783 44.4199 4.7513L44.3829 4.83848C44.3855 4.85697 44.3855 4.87811 44.3882 4.89132ZM44.1319 5.66275C44.1266 5.64425 44.124 5.62312 44.1187 5.60991C44.1134 5.5967 44.1055 5.59406 44.0975 5.58613C44.0949 5.62312 44.0923 5.66803 44.0949 5.68917C44.0975 5.72087 44.1028 5.76578 44.1319 5.66275ZM43.9443 6.57156C43.9654 6.52664 43.976 6.47645 43.976 6.42097L43.9443 6.57156ZM44.0051 6.72214C44.0738 6.6878 44.0658 6.48702 44.0896 6.35756C44.0341 6.41833 44.013 6.56363 44.0051 6.72214ZM43.9179 6.88858C43.9337 6.88594 43.9522 6.87801 43.9787 6.78819C43.9628 6.77498 43.9443 6.80404 43.9179 6.88858ZM43.9337 7.47508L43.9364 7.42224C43.9417 7.34827 43.9522 7.26109 43.9522 7.20825C43.9522 7.15805 43.9337 7.20297 43.9311 7.26109C43.9258 7.32714 43.9311 7.37733 43.9337 7.43281V7.47508ZM43.8571 7.78682V7.74191C43.8518 7.72078 43.8651 7.59661 43.836 7.68907L43.8518 7.75512L43.8571 7.78682ZM43.9839 10.9941C43.9734 10.9809 43.9681 10.965 43.9602 10.9518C43.9654 10.9677 43.9707 10.9835 43.9787 10.9967L43.9839 10.9941ZM45.8782 9.81315C45.8862 9.79466 45.8994 9.77088 45.902 9.75767C45.9099 9.72068 45.9258 9.68898 45.9364 9.65464C45.9126 9.70748 45.8941 9.76031 45.8782 9.81315ZM46.5044 11.0786L46.5202 11.0575C46.5044 11.0522 46.4806 11.039 46.4806 11.0416C46.4832 11.0496 46.4938 11.0654 46.5044 11.0786ZM47.3974 11.3904L47.4529 11.3851L47.4 11.3824L47.3974 11.3904Z" fill="#030303"/>
<path d="M50.9902 5.57088C50.9743 5.629 50.9004 5.65542 50.9109 5.70561C50.7788 5.72411 50.6599 5.80336 50.5146 5.77166C50.475 5.76374 50.4222 5.80336 50.3878 5.83771C50.3376 5.8879 50.2954 5.86413 50.2637 5.8245C50.224 5.81657 50.1923 5.80865 50.15 5.84035C50.0708 5.90111 49.9651 5.91168 49.8568 5.94338C49.87 5.87734 49.9598 5.89055 49.9757 5.84299C49.9202 5.81922 49.8753 5.84828 49.8277 5.86413C49.8198 5.84828 49.8172 5.82714 49.7855 5.82978C49.7828 5.82978 49.7749 5.83771 49.7749 5.84035C49.7775 5.86413 49.8066 5.86149 49.8277 5.86413C49.7643 5.96716 49.6401 5.92489 49.5424 5.94867C49.5398 5.95131 49.5371 5.95924 49.5345 5.95924C49.5239 5.95924 49.5265 5.95395 49.5398 5.94867C49.553 5.91961 49.5794 5.89055 49.5715 5.84563C49.5133 5.88526 49.4605 5.91961 49.4103 5.95659C49.3495 5.93282 49.4129 5.89583 49.3865 5.86149C49.2676 5.89055 49.1884 6.04378 49.0272 5.95924C49.0378 5.93546 49.0483 5.91168 49.0589 5.88526C49.0774 5.8747 49.1118 5.89055 49.117 5.86149C49.0933 5.86149 49.0748 5.87205 49.0563 5.88526C49.0325 5.89319 49.0087 5.89847 48.9876 5.9064C48.9189 5.93282 48.9427 6.03057 48.8845 6.02528C48.8106 6.01736 48.7709 6.03849 48.7287 6.08076C48.6917 6.01736 48.7392 5.96716 48.7313 5.91961L48.7392 5.91168L48.7287 5.91961C48.6679 5.93546 48.6679 5.97509 48.6626 6.01207C48.6547 6.05963 48.6124 6.0834 48.5622 6.06491C48.5041 6.04378 48.5517 6.01207 48.5728 5.98565C48.5807 5.97509 48.5966 5.96452 48.5807 5.95131C48.4645 5.97509 48.4222 6.04642 48.3799 6.12303L48.3905 6.12832L48.3773 6.12567C48.3192 6.12567 48.269 6.11775 48.2293 6.0834C48.2478 6.07284 48.2901 6.09133 48.2848 6.05699C48.2848 6.0517 48.2425 6.06755 48.2267 6.0834C48.1686 6.09926 48.1237 6.14681 48.0523 6.1336C48.0153 6.17587 47.9783 6.14945 47.9387 6.14153L47.9229 6.17323L47.8991 6.14681L47.8119 6.21286C47.7828 6.23399 47.7538 6.24192 47.7247 6.22078C47.6164 6.21814 47.6481 6.16794 47.6719 6.11775C47.6692 6.11511 47.6613 6.11246 47.6613 6.10718C47.664 6.09661 47.6719 6.09661 47.6824 6.10718L47.8462 6.03321C47.7881 6.01472 47.7379 6.06227 47.6745 6.05434C47.6085 6.04642 47.6111 6.09926 47.6032 6.1336C47.5873 6.20229 47.5398 6.21814 47.4632 6.18908L47.4526 6.1838L47.4605 6.19172C47.4394 6.24192 47.4024 6.24192 47.3522 6.2155C47.3073 6.19172 47.3099 6.15209 47.3126 6.09397C47.2571 6.16794 47.3046 6.21814 47.3046 6.26834C47.2439 6.28683 47.2042 6.27626 47.1752 6.24456L47.1831 6.23663L47.1725 6.24192C46.9955 6.2974 46.8264 6.37665 46.623 6.33703C46.5332 6.31853 46.4328 6.35552 46.3377 6.37137C46.232 6.38722 46.2135 6.37665 46.1977 6.28419C46.1686 6.40836 46.0524 6.40836 45.944 6.40836C45.7987 6.40571 45.6613 6.44798 45.5213 6.46648C45.3945 6.48233 45.2703 6.4929 45.1435 6.50082C45.1646 6.47969 45.1911 6.46119 45.1752 6.43213C45.1303 6.44798 45.1541 6.47704 45.1435 6.50082C45.1224 6.51139 45.1039 6.5246 45.0827 6.53252C45.0088 6.55102 44.9612 6.54309 44.985 6.47176C44.9929 6.45063 44.9956 6.42685 44.9665 6.411C44.9189 6.42685 44.9348 6.45855 44.9295 6.48233C44.9163 6.53781 44.8767 6.55102 44.8053 6.56159C44.7366 6.57215 44.7155 6.51403 44.6706 6.52988C44.631 6.54309 44.6151 6.59065 44.557 6.59593C44.4909 6.59857 44.4328 6.6382 44.3615 6.61971C44.3166 6.60914 44.2796 6.63292 44.2452 6.65141C44.232 6.66462 44.2188 6.66462 44.203 6.65405C44.0682 6.65669 43.9335 6.64348 43.7987 6.69632C43.6561 6.7518 43.6217 6.73595 43.5478 6.65669C43.5002 6.67519 43.5187 6.73331 43.4685 6.74388C43.4051 6.75973 43.3338 6.7518 43.2704 6.7518C43.2149 6.7518 43.1647 6.73859 43.125 6.77294C43.0564 6.8337 42.956 6.77822 42.8767 6.83106C42.8344 6.85748 42.8265 6.78086 42.7684 6.76501C42.7552 6.83106 42.7155 6.85748 42.6178 6.8654C42.3932 6.87861 42.166 6.88125 41.9441 6.93409C41.8305 6.96051 41.7089 6.94994 41.5927 6.94202L41.6006 6.93409L41.5901 6.94202C41.5451 6.95523 41.4976 6.96315 41.4553 6.98165C41.3787 7.01335 41.3787 6.97372 41.3708 6.93673C41.2413 7.03448 41.0802 7.03977 40.9216 7.03184C40.8529 7.0292 40.7869 7.01335 40.7182 7.00278C40.7103 7.03712 40.7024 7.07411 40.6416 7.04241C40.4989 7.07147 40.3563 7.05826 40.2136 7.05562C40.1977 7.06619 40.1845 7.06883 40.1713 7.05562C40.129 7.0609 40.0868 7.06354 40.0445 7.07147C39.9468 7.0926 39.8781 7.07147 39.8279 6.96579C39.812 7.04241 39.812 7.09525 39.7354 7.09525C39.6614 7.09525 39.5689 7.13752 39.5214 7.07939C39.4897 7.03712 39.4791 7.04505 39.4606 7.07675C39.4104 7.17714 39.3708 7.1111 39.3285 7.07939C39.3365 7.07147 39.3629 7.08204 39.3549 7.0609L39.3285 7.07939C39.2228 7.16129 39.0881 7.11638 38.9692 7.1428C38.9587 7.15337 38.9507 7.16658 38.9296 7.15865C38.9296 7.15865 38.9322 7.15073 38.9349 7.15073C38.9481 7.14808 38.9587 7.14544 38.9692 7.14016L39.0009 7.08204C38.9639 7.07411 38.9375 7.08468 38.9085 7.10846C38.8662 7.1428 38.816 7.16658 38.7526 7.16129C38.742 7.15601 38.7552 7.13487 38.7288 7.1428L38.7499 7.16129C38.7367 7.18243 38.7156 7.19035 38.6918 7.17714C38.6575 7.15865 38.6363 7.11638 38.5967 7.18507C38.5729 7.22734 38.4963 7.23527 38.4355 7.22206C38.4118 7.21677 38.3959 7.20092 38.4118 7.17979C38.4197 7.17186 38.4435 7.16922 38.4593 7.16394C38.4725 7.17186 38.4857 7.16922 38.4963 7.15865L38.5042 7.15073L38.4937 7.15865C38.4831 7.16129 38.4725 7.16394 38.462 7.16129C38.3536 7.11638 38.2902 7.20621 38.2057 7.22734C38.1476 7.24055 38.0894 7.25376 38.034 7.26697C38.0075 7.27225 37.9706 7.28546 37.9653 7.24848C37.9547 7.17186 37.9098 7.19035 37.8649 7.23262C37.8358 7.25904 37.8147 7.2881 37.7645 7.28546C37.6007 7.26961 37.4448 7.33037 37.2836 7.33302C37.1806 7.33566 37.0855 7.35943 36.9851 7.3885C36.7632 7.44662 36.5677 7.54965 36.3616 7.61834C36.2242 7.66589 36.0974 7.73987 35.9864 7.82441C35.9521 7.84818 35.9283 7.87196 35.8913 7.8746C35.8464 7.87724 35.8121 7.87196 35.82 7.81384C35.8306 7.7293 35.8649 7.65533 35.9494 7.58928C36.1317 7.44926 36.3484 7.35415 36.5677 7.28282C36.787 7.20885 37.0115 7.13752 37.2387 7.10317C37.5109 7.06354 37.7803 7.02656 38.0498 7.00278C38.8213 6.92881 39.5874 6.85219 40.3589 6.77822C40.5518 6.75973 40.7446 6.74123 40.9401 6.72274C41.199 6.69896 41.458 6.66198 41.7116 6.61971C41.9758 6.57479 42.2426 6.55894 42.5042 6.51139C42.8926 6.4427 43.2888 6.42157 43.6693 6.33174C43.9176 6.27362 44.1713 6.28155 44.417 6.21814C44.6521 6.15474 44.9004 6.13624 45.1462 6.11246C45.162 6.10982 45.1779 6.09661 45.1911 6.08869L45.1779 6.0834L45.1911 6.08605C45.2598 6.06755 45.3311 6.04113 45.3998 6.07019C45.4447 6.08869 45.479 6.05963 45.5187 6.05434C45.6772 6.03585 45.8357 5.99622 45.9916 6.03585L45.9837 6.04378L45.9942 6.03849C46.0788 5.98565 46.2082 6.00679 46.2769 5.92489C46.2663 5.92489 46.2531 5.92489 46.2452 5.92225C46.2346 5.91697 46.2373 5.90904 46.2531 5.91168C46.2637 5.91168 46.269 5.91961 46.2796 5.92489L46.3509 5.91961C46.3535 5.92753 46.3535 5.9381 46.3535 5.94603C46.3562 5.94338 46.3641 5.9381 46.3615 5.93546C46.3588 5.93017 46.3535 5.92225 46.3509 5.91697C46.3667 5.89319 46.3958 5.88526 46.4275 5.88262C46.4856 5.87734 46.446 5.91432 46.4566 5.92753C46.483 5.95659 46.6706 5.95659 46.7419 5.92489C46.7683 5.91432 46.7947 5.90111 46.8238 5.89847C46.8 5.85884 46.8106 5.82714 46.874 5.85356C47.014 5.91432 47.0035 5.9064 47.1408 5.84035C47.1831 5.82186 47.2729 5.77695 47.3231 5.80072C47.4473 5.85884 47.5715 5.82186 47.6983 5.80865L48.3984 5.73996C48.446 5.73468 48.4962 5.72675 48.5358 5.75581C48.5649 5.76109 48.5939 5.76638 48.6203 5.74789C48.6653 5.71618 48.7207 5.70297 48.7736 5.70561C48.9559 5.72147 49.1382 5.66863 49.3205 5.68448C49.3575 5.68712 49.3892 5.68712 49.4261 5.67391C49.5265 5.64221 49.6243 5.61051 49.73 5.64485C49.7722 5.65806 49.8145 5.63957 49.8515 5.62372C49.9202 5.59466 49.9915 5.59466 50.0629 5.60258C50.1606 5.61579 50.261 5.60258 50.3561 5.59994C50.438 5.59994 50.5411 5.59201 50.6097 5.53125C50.6388 5.56031 50.6177 5.58145 50.6097 5.60258C50.7313 5.59466 50.8555 5.56295 50.9902 5.57088ZM36.6311 7.43605C36.6205 7.43605 36.6099 7.43605 36.5994 7.43869C36.5914 7.44133 36.5835 7.44926 36.5782 7.4519L36.6099 7.44926L36.6311 7.43605ZM36.853 7.35151C36.8477 7.35151 36.8424 7.35679 36.8398 7.35943L36.8504 7.36472C36.8556 7.36472 36.8636 7.36472 36.8662 7.36208C36.8768 7.35151 36.8715 7.34623 36.853 7.35151ZM39.0353 7.05298C39.03 7.05298 39.0247 7.05033 39.0221 7.05298C39.0141 7.05826 39.0088 7.06354 39.0009 7.06883L39.0353 7.05298ZM39.1357 7.05298H39.1251L39.1304 7.0609L39.1357 7.05298ZM40.2136 6.96844L40.203 6.97636C40.0868 6.96844 40.1687 7.01335 40.1713 7.03712C40.1819 7.03448 40.1898 7.03184 40.1977 7.0292L40.2057 6.979L40.2136 6.96844ZM40.4012 6.93409C40.4012 6.93145 40.3959 6.92617 40.3932 6.92617C40.388 6.92617 40.3827 6.93145 40.3774 6.93409C40.3774 6.93938 40.3748 6.94466 40.3774 6.94466C40.3906 6.94994 40.4012 6.9473 40.4012 6.93409ZM40.5386 6.91031L40.528 6.9156L40.5148 6.94466L40.5333 6.9156L40.5386 6.91031ZM40.7156 6.98165L40.6997 6.93673C40.668 6.94994 40.6865 6.97108 40.6812 6.98693L40.7156 6.98165ZM40.9903 6.94202C40.993 6.93145 40.985 6.92352 40.9745 6.92881C40.9666 6.93145 40.956 6.94202 40.9533 6.94994C40.9481 6.96051 40.9586 6.96844 40.9692 6.96315C40.9798 6.95787 40.985 6.94994 40.9903 6.94202ZM41.1673 6.91296C41.1673 6.90239 41.1594 6.8971 41.1462 6.90239C41.1436 6.90239 41.1409 6.91031 41.1383 6.91296C41.1383 6.92352 41.1462 6.92881 41.1621 6.92352C41.1621 6.92352 41.1673 6.91824 41.1673 6.91296ZM41.7776 6.82577L41.7671 6.85219L41.7618 6.86012L41.7697 6.85219C41.7724 6.84427 41.8014 6.83634 41.7776 6.82577ZM41.9731 6.80728L41.9705 6.79936L41.9652 6.80728H41.9731ZM42.5015 6.71746L42.4936 6.72274L42.4857 6.73067L42.4963 6.72538L42.5015 6.71746ZM42.6442 6.70161C42.6389 6.69896 42.6336 6.69632 42.631 6.69896C42.6178 6.70161 42.6151 6.70953 42.6231 6.71746C42.6231 6.71746 42.631 6.71482 42.6363 6.71482L42.6442 6.70161ZM43.0141 6.70953L43.0062 6.70161C42.9533 6.67254 42.9058 6.69368 42.8582 6.71482L42.8476 6.70953L42.8556 6.71746C42.9084 6.7518 42.9533 6.69368 43.0035 6.70425L43.0141 6.70953ZM43.9467 6.53781L43.9361 6.54045L43.9467 6.54309V6.53781ZM44.0788 6.57215L44.0735 6.56423L44.0682 6.57215H44.0788ZM44.2373 6.63556C44.2267 6.62499 44.2162 6.63027 44.2083 6.64084C44.2188 6.6382 44.2294 6.63556 44.2373 6.63556ZM44.4751 6.46119C44.4751 6.45591 44.4645 6.45063 44.4566 6.44534C44.4487 6.45063 44.4381 6.45855 44.4381 6.46384C44.4381 6.46912 44.4513 6.4744 44.4592 6.47969C44.4672 6.4744 44.4751 6.46648 44.4751 6.46119ZM45.2703 6.37137L45.2677 6.36344L45.2624 6.37137H45.2703ZM45.4103 6.35816C45.4077 6.3608 45.4024 6.3608 45.4024 6.36344C45.3998 6.37137 45.3998 6.3793 45.3971 6.38722L45.3892 6.39515L45.3998 6.38986L45.4103 6.35816ZM45.6561 6.37137C45.6138 6.35816 45.6006 6.35023 45.5847 6.35023C45.5689 6.35023 45.5424 6.35552 45.5398 6.3608C45.5345 6.37401 45.553 6.38458 45.5715 6.38458C45.5847 6.38458 45.6006 6.3793 45.6561 6.37137ZM45.8383 6.3291C45.8383 6.32382 45.8278 6.31853 45.8225 6.31061C45.8093 6.31061 45.8014 6.31589 45.804 6.32646C45.8066 6.33438 45.8119 6.33967 45.8172 6.34495C45.8251 6.34231 45.8383 6.33703 45.8383 6.3291ZM45.9995 6.32382H45.9916L45.9969 6.33174L45.9995 6.32382ZM46.0682 6.26569L46.0629 6.25777L46.0576 6.26569H46.0682ZM46.6098 6.21021C46.6098 6.20757 46.6019 6.20757 46.5966 6.20757C46.594 6.21021 46.586 6.2155 46.586 6.21814C46.586 6.22871 46.594 6.23135 46.6072 6.22078C46.6098 6.21814 46.6098 6.21286 46.6098 6.21021ZM46.9401 6.15209L46.9348 6.14417L46.9295 6.15209H46.9401ZM47.1805 6.1336L47.1699 6.12832L47.1593 6.12303L47.1673 6.13096L47.1805 6.1336ZM47.1805 5.96188L47.1752 5.95395L47.1699 5.96188H47.1805ZM47.5503 6.11246L47.5398 6.10718C47.5319 6.10982 47.5266 6.11775 47.5213 6.12039L47.5424 6.13096C47.5451 6.12567 47.5503 6.12039 47.5503 6.11246ZM47.7379 6.16002C47.7353 6.16794 47.7326 6.17851 47.73 6.18644C47.7274 6.19436 47.73 6.20493 47.7274 6.21286C47.7353 6.20493 47.7432 6.19965 47.7485 6.19172C47.7538 6.17851 47.7617 6.1653 47.7379 6.16002ZM47.9414 6.13624C47.9308 6.12567 47.9176 6.12567 47.907 6.13888L47.9414 6.13624ZM47.9625 6.04642C47.9466 5.98565 47.907 6.03849 47.878 6.04113C47.8964 6.08076 47.9282 6.06755 47.9625 6.04642ZM48.0074 6.09661C48.0048 6.08076 47.9995 6.06491 47.9783 6.05699C47.9783 6.07548 47.9863 6.08869 48.0074 6.09661ZM48.121 5.9698L48.1104 5.97773C48.0946 5.98565 48.0761 5.99094 48.0655 6.00151C48.055 6.00943 48.0682 6.02 48.0787 6.01207C48.0919 6.00415 48.1025 5.99094 48.1131 5.98037L48.121 5.9698ZM48.195 5.99094L48.1871 5.99886C48.1844 6.00943 48.1554 6.01472 48.1791 6.02792L48.1897 6.00151L48.195 5.99094ZM48.9057 5.80072L48.8951 5.80601L48.9057 5.80865V5.80072ZM50.2954 5.80865C50.2901 5.80865 50.2848 5.80601 50.2821 5.80865C50.2742 5.81393 50.2689 5.81922 50.261 5.8245L50.2954 5.80865ZM50.6097 5.62107L50.6071 5.59466C50.6045 5.5973 50.5965 5.60258 50.5992 5.60258C50.6018 5.61051 50.6071 5.61579 50.6097 5.62107ZM50.8317 5.67655L50.8422 5.67127L50.829 5.66863L50.8317 5.67655Z" fill="#030303"/>
</svg>
