<svg width="50" height="22" viewBox="0 0 50 22" fill="none" xmlns="http://www.w3.org/2000/svg">
<path d="M40.2237 7.965C40.0969 8.0192 39.6388 8.02659 39.6656 8.07587C38.8737 8.05123 38.128 8.09312 37.28 8.01181C37.0534 7.98963 36.7147 8.00688 36.4808 8.02659C36.1543 8.05616 35.9203 8.0192 35.7546 7.96746C35.5256 7.94528 35.3428 7.92557 35.0772 7.94036C34.5777 7.965 33.9417 7.9305 33.2862 7.91572C33.4129 7.85905 33.9246 7.91079 34.0465 7.87137C33.7321 7.82455 33.4446 7.83441 33.157 7.82948C33.1156 7.81223 33.1229 7.79006 32.928 7.7802C32.906 7.77774 32.8597 7.78267 32.8597 7.78513C32.8622 7.80977 33.0254 7.81716 33.1522 7.82948C32.7111 7.90093 32.002 7.80484 31.4123 7.7802C31.3977 7.78267 31.3758 7.78759 31.366 7.78513C31.3075 7.7802 31.3221 7.77774 31.405 7.77774C31.5025 7.75556 31.6706 7.74078 31.6657 7.69643C31.2978 7.70628 30.9664 7.71614 30.6374 7.726C30.3011 7.67425 30.6886 7.66932 30.5643 7.62497C29.8479 7.59787 29.2753 7.70382 28.3883 7.5412C28.4614 7.52395 28.5442 7.50671 28.6271 7.48946C28.7416 7.48946 28.9341 7.52149 28.9829 7.49439C28.8391 7.48207 28.7197 7.48207 28.6149 7.48699C28.476 7.48207 28.3347 7.47714 28.1982 7.47221C27.7791 7.46236 27.8424 7.56584 27.511 7.53135C27.0749 7.48453 26.8312 7.48699 26.5534 7.50424C26.3804 7.4254 26.6899 7.40322 26.6752 7.35394L26.7313 7.34902L26.6704 7.35148C26.3 7.33177 26.278 7.37119 26.2171 7.40076C26.1391 7.44018 25.8784 7.44264 25.586 7.39583C25.2546 7.34409 25.5616 7.34162 25.7054 7.32684C25.7639 7.32191 25.8662 7.31945 25.7736 7.29727C25.067 7.25539 24.7697 7.3022 24.4821 7.35148L24.5431 7.36133L24.4724 7.35148C24.1386 7.32191 23.834 7.28495 23.6293 7.23075C23.7462 7.23075 23.9875 7.27263 23.9777 7.23567C23.9777 7.23567 23.9144 7.23075 23.8388 7.22828C23.7633 7.22582 23.6756 7.22582 23.622 7.22828C23.2686 7.21104 22.9665 7.23075 22.5571 7.17408C22.3134 7.19132 22.1063 7.14697 21.8894 7.11741L21.7749 7.13958L21.6604 7.10016C21.4727 7.10262 21.2827 7.10755 21.0975 7.11001C20.9147 7.11494 20.7417 7.10509 20.5809 7.06566C19.94 6.99668 20.1691 6.96957 20.347 6.94C20.325 6.93508 20.2836 6.92768 20.2885 6.92522C20.3055 6.91783 20.3591 6.92276 20.4201 6.93754L21.4362 6.96464C21.1048 6.9129 20.7856 6.93015 20.4152 6.88333C20.035 6.83652 20.0156 6.8858 19.9449 6.91537C19.8036 6.97204 19.5038 6.95479 19.0823 6.88333L19.0262 6.87101L19.075 6.88333C18.9068 6.91783 18.69 6.89565 18.4292 6.84145C18.1904 6.79217 18.2294 6.75767 18.2757 6.70593C17.9029 6.74289 18.1392 6.81681 18.1051 6.86362C17.7323 6.84391 17.5081 6.80942 17.357 6.76014L17.4058 6.75767H17.34C16.2581 6.69608 15.2103 6.66897 14.0479 6.4965C13.5289 6.42012 12.9197 6.38809 12.3495 6.33881C11.7159 6.27967 11.6233 6.2575 11.5941 6.16141C11.3382 6.25503 10.6559 6.17619 10.0078 6.09734C9.15732 5.99632 8.32151 5.92733 7.48083 5.84356C6.73274 5.76964 5.98953 5.67355 5.24632 5.58485C5.3779 5.58238 5.55822 5.58731 5.47781 5.54543C5.20733 5.52571 5.31454 5.57006 5.23657 5.58238C5.10742 5.57499 4.98558 5.57499 4.85156 5.56267C4.40807 5.52325 4.13515 5.47397 4.32034 5.42716C4.37639 5.41237 4.41781 5.39513 4.26186 5.3557C3.97189 5.3286 4.04255 5.37049 3.98894 5.3902C3.87198 5.42962 3.62587 5.40745 3.19456 5.3557C2.79006 5.30889 2.69746 5.23744 2.43672 5.21526C2.19792 5.19555 2.06634 5.22019 1.72763 5.17337C1.53512 5.14627 1.34505 5.12656 1.15499 5.10438C1.05995 5.09206 0.962481 5.07974 0.867447 5.06742C0.730988 5.04525 0.594529 5.02307 0.45076 5.0009C0.341106 4.98119 0.233888 4.96394 0.131544 4.94669L0.0486937 4.9393C0.024326 4.93437 -0.0195358 4.9393 0.00970542 4.90727L0.0828084 4.76683C0.177842 4.5771 0.275313 4.40956 0.372784 4.23216C0.421519 4.14345 0.472691 4.07446 0.528737 4.02026C1.07457 3.35007 1.75443 2.89671 2.48546 2.44335C3.25791 1.98013 3.45773 1.92839 3.84274 1.86433C4.1254 1.74359 4.03281 1.71403 4.3374 1.61054C4.72485 1.48488 5.15615 1.42082 5.56066 1.43068C5.90668 1.4356 6.21371 1.50706 6.49881 1.56619C6.74005 1.61547 6.99104 1.73374 7.22253 1.88897C7.45402 2.04419 7.66846 2.23145 7.87071 2.41132C8.08271 2.60843 8.02666 2.65525 8.2143 2.95338C8.3337 3.02483 8.53351 3.23673 8.76988 3.81329C9.03305 4.47608 9.15001 5.1783 9.2085 5.8682C9.26454 6.56056 9.26942 7.24553 9.26942 7.93789C9.26698 8.64504 9.19144 9.35957 9.09153 10.047V9.98541L9.0891 10.0544C9.06716 10.3353 9.03061 10.626 9.00137 10.8921C8.9502 11.3701 8.91121 11.3381 8.87222 11.3554L8.87466 11.2987L8.87222 11.3603C8.80887 12.2153 8.58225 13.1565 8.2874 14.0681C8.22648 14.2578 8.15825 14.4377 8.09489 14.62L7.68308 14.4353C7.7903 14.2628 7.89752 14.0928 8.00473 13.9228C8.01204 13.8414 8.01692 13.7725 8.2143 13.4842C8.62611 12.7179 9.0233 11.9812 9.42293 11.2371C9.45705 11.1459 9.49603 11.0695 9.53746 11.0153C9.64711 10.7862 9.76408 10.557 9.86642 10.3279C10.1101 9.79323 10.2977 9.44088 10.4878 9.28812C10.4805 9.12797 10.4561 9.0639 10.6438 8.65489C10.8289 8.26313 11.0288 7.70628 11.1725 7.51656C11.2773 7.38105 11.2992 7.31698 11.3163 7.19132C11.3723 6.80695 11.5064 6.66405 11.6258 6.45954C11.616 6.50635 11.5429 6.64926 11.577 6.62462L11.6282 6.45708C11.8134 5.79428 12.1472 5.09206 12.3763 4.40463C12.3909 4.3381 12.3982 4.27897 12.4494 4.16563C12.4494 4.16317 12.4518 4.18041 12.447 4.19766C12.425 4.26172 12.4031 4.32825 12.3836 4.39477L12.3544 4.63131C12.4396 4.42927 12.4884 4.26911 12.5298 4.09664C12.5932 3.82807 12.6809 3.52008 12.81 3.16774C12.832 3.116 12.8222 3.21702 12.8685 3.05194L12.81 3.15789C12.8222 3.06179 12.8588 2.9312 12.9124 2.8154C12.9441 2.75627 12.9684 2.73409 12.9928 2.68235C13.0147 2.63553 13.0318 2.57147 13.0001 2.55669C12.9928 2.55422 12.9879 2.5493 12.9879 2.53944C12.983 2.51973 12.9879 2.49016 13.0025 2.44088C13.0123 2.41132 13.0245 2.37929 13.0367 2.34972C13.0367 2.3374 13.0172 2.35958 13.0099 2.35958C12.9928 2.36697 12.9855 2.34972 13.0537 2.24131C13.0878 2.18956 13.139 2.13289 13.1829 2.07376C13.1829 2.07622 13.1853 2.07376 13.1829 2.07869L13.1731 2.10333L13.1585 2.14029C13.1561 2.16 13.1561 2.16985 13.1585 2.17478C13.1609 2.17478 13.1634 2.17478 13.1658 2.17478V2.15753C13.1707 2.13043 13.1877 2.08608 13.1999 2.04912C13.1561 2.06637 13.0464 2.19203 12.9562 2.30783C12.8831 2.40146 12.8198 2.49263 12.7686 2.56901C12.7394 2.61089 12.7272 2.63307 12.6931 2.67988C12.6443 2.74148 12.598 2.80062 12.5469 2.86222C12.3251 3.13078 12.0985 3.40181 11.8743 3.67285C11.7671 3.80343 11.6258 3.97591 11.5965 3.9562C11.5332 3.91431 11.3577 4.1336 11.192 4.38492C11.0872 4.54261 11.0093 4.6732 10.8095 4.89002C10.1588 5.5947 9.54477 6.36345 8.9039 7.07552C8.48478 7.5412 8.10464 7.99703 7.70014 8.47503C6.80341 9.53944 5.95054 10.6039 5.00995 11.6707C4.39101 12.373 3.77695 13.0973 3.16775 13.8143C2.99474 14.0188 2.84366 14.1987 2.69015 14.3441C2.50983 14.5166 2.39774 14.6053 2.54151 14.3761C2.74863 14.046 2.99718 13.701 3.40168 13.2131C4.26674 12.1709 5.15372 11.1361 6.03583 10.0988C6.92037 9.05898 7.79274 8.00442 8.67728 6.97943C9.73728 5.74993 10.7973 4.51797 11.8597 3.28601L13.1073 1.84954L13.4753 1.54894C13.4607 1.69678 13.4338 1.86679 13.4119 2.02448L13.1414 2.87207L12.9246 3.51762C12.7784 3.94634 12.6273 4.37506 12.4713 4.80132C12.157 5.65137 11.8305 6.49896 11.482 7.3367C10.7875 9.01216 10.0199 10.6556 9.18657 12.2645C8.77963 13.0431 8.3605 13.8143 7.92676 14.5757L7.82929 14.5313C7.91701 14.2578 8.0023 13.9844 8.08027 13.7084C8.50914 12.2153 8.77475 10.6605 8.87466 9.13289C8.92583 8.33458 8.94776 7.53381 8.92339 6.73796C8.89903 5.94212 8.82836 5.14627 8.59443 4.39724C8.42386 3.84532 8.16069 3.3205 7.79517 2.87946C7.42966 2.44088 6.9618 2.08115 6.42571 1.90621C5.88962 1.72881 5.30723 1.74606 4.75653 1.87665C4.20338 2.00723 3.67704 2.24131 3.17019 2.50495C2.51226 2.85236 1.86896 3.2318 1.33043 3.72705C1.19397 3.85025 1.0697 3.9833 0.950297 4.11881C0.894251 4.19027 0.833332 4.25679 0.78216 4.33318L0.701747 4.44405L0.660322 4.50811C0.633518 4.55 0.61646 4.5845 0.596966 4.62145C0.572598 4.64609 0.618897 4.63624 0.633517 4.64363L0.696873 4.65102L1.15499 4.70276C2.58293 4.87277 4.03768 5.04771 5.48756 5.22019C5.58015 5.23004 5.67762 5.23004 5.77266 5.23497C6.19178 5.27193 6.61821 5.30396 7.01053 5.38281C7.26396 5.43209 7.48327 5.42962 7.71476 5.45426C8.65048 5.55282 9.60813 5.63413 10.4951 5.77703L10.4464 5.7795L10.5122 5.78196C11.0434 5.79182 11.7915 5.90023 12.2471 5.87313C12.1838 5.86574 12.1107 5.85834 12.0619 5.84849C11.9986 5.83617 12.0303 5.83124 12.1131 5.84356C12.1667 5.85095 12.2057 5.86327 12.252 5.87313L12.6785 5.91501C12.6809 5.92487 12.6785 5.93226 12.6711 5.94212L12.6102 5.94458H12.676C12.6979 5.94458 12.7369 5.94458 12.7345 5.94212C12.7272 5.93472 12.7004 5.92487 12.6809 5.91748C12.7954 5.90762 12.9611 5.91501 13.1487 5.93472C13.4899 5.96922 13.2365 5.97661 13.295 5.99632C13.429 6.04067 14.5255 6.16387 14.9714 6.18358C15.1396 6.19097 15.2931 6.19344 15.4783 6.21068C15.3735 6.15894 15.4539 6.13677 15.8024 6.20083C16.5773 6.34374 16.5237 6.33142 17.379 6.35852C17.6348 6.36591 18.1977 6.38316 18.478 6.43244C19.1651 6.56056 19.923 6.59998 20.6759 6.66405L24.8379 6.99421C25.1181 7.01639 25.4203 7.03363 25.6274 7.08291C25.7956 7.10262 25.9686 7.1248 26.1343 7.11987C26.4145 7.11248 26.7556 7.13219 27.0578 7.16176C28.1178 7.26771 29.229 7.31452 30.2841 7.41308C30.501 7.43279 30.6935 7.44757 30.9128 7.4525C31.5195 7.46728 32.1263 7.48699 32.7233 7.56584C32.9645 7.59787 33.218 7.59787 33.4494 7.59787C33.8783 7.60034 34.2926 7.6299 34.7093 7.66932H34.7166C35.277 7.72353 35.8789 7.74571 36.4515 7.78267C36.9365 7.81223 37.5505 7.84673 37.994 7.80484C38.1451 7.84426 38.0135 7.85658 37.955 7.87629C38.6812 7.90586 39.422 7.93543 40.2237 7.965ZM6.24052 10.1431L6.11137 10.2811C6.07725 10.3205 6.04557 10.3624 6.0139 10.4043L6.14304 10.2638L6.24052 10.1431ZM7.16892 9.02202C7.14699 9.04666 7.12994 9.07376 7.11044 9.0984L7.15674 9.05898C7.18111 9.03187 7.21279 8.99738 7.22497 8.98013C7.26152 8.92346 7.23959 8.94071 7.16892 9.02202ZM12.291 4.83828C12.3008 4.8161 12.3129 4.78407 12.3178 4.77175C12.33 4.72494 12.3397 4.68552 12.3495 4.64117L12.291 4.83828ZM12.0741 5.38527L12.0961 5.3286L12.079 5.34585L12.0741 5.38527ZM9.46679 11.3011L9.48872 11.242C9.81038 10.6334 9.55939 11.0252 9.53746 11.0153C9.51553 11.0671 9.49116 11.1164 9.46923 11.1656L9.47898 11.2543L9.46679 11.3011ZM8.95995 12.3212C8.95995 12.3261 8.98188 12.299 8.99162 12.2818C9.00625 12.2547 9.01843 12.2251 9.03061 12.198C9.02818 12.1931 9.03061 12.1758 9.0233 12.1882C8.98188 12.2498 8.95751 12.3015 8.95995 12.3212ZM8.58468 13.0555L8.60905 13.0013L8.63342 12.8953L8.59687 13.016L8.58468 13.0555ZM8.02179 13.8981L8.09246 13.871C8.18262 13.6911 8.11439 13.7675 8.1217 13.7183C8.1217 13.7207 8.1217 13.7207 8.11926 13.7232L8.1217 13.7183L8.02179 13.8981ZM8.35563 13.6123C8.35075 13.5901 8.3337 13.6222 8.31664 13.6936C8.30202 13.7503 8.29471 13.807 8.29471 13.8341C8.29471 13.871 8.31664 13.8242 8.3337 13.7527C8.34588 13.6961 8.34832 13.6567 8.35563 13.6123ZM8.60662 12.5676C8.59931 12.5577 8.58225 12.6021 8.56519 12.6883C8.56032 12.713 8.56275 12.7278 8.56032 12.7499C8.57006 12.7524 8.58712 12.7105 8.60174 12.6267C8.60905 12.5996 8.60905 12.5701 8.60662 12.5676ZM9.12077 8.86925L9.14027 8.95549L9.14514 8.99984L9.1427 8.93824C9.13539 8.91361 9.1427 8.74606 9.12077 8.86925ZM9.16951 7.69643L9.15976 7.71368L9.16707 7.74817L9.16951 7.69643ZM8.84298 4.46623L8.86248 4.52043L8.88197 4.56725L8.86004 4.50319L8.84298 4.46623ZM8.54082 3.63589C8.55057 3.66299 8.56032 3.69256 8.57006 3.71227C8.60905 3.78865 8.62124 3.80836 8.61149 3.75908C8.61149 3.75169 8.58712 3.70734 8.5725 3.68024L8.54082 3.63589ZM7.10069 1.90375L7.12994 1.93085C7.37117 2.12304 7.61973 2.30783 7.84634 2.52959L7.88046 2.5764C7.87315 2.56408 7.86584 2.55176 7.85853 2.53944C7.68064 2.29059 7.40042 2.11811 7.14943 1.94317L7.10069 1.90375ZM1.72519 3.07165L1.78367 3.0273L1.7325 3.05933L1.72519 3.07165ZM1.09407 3.52501L1.116 3.51762L1.13793 3.48805L1.09407 3.52501ZM0.414209 4.18288C0.462944 4.1336 0.494622 4.08432 0.51899 4.03504L0.414209 4.18288ZM1.328 4.99351C1.33043 4.98858 1.27195 4.9738 1.24027 4.96394C1.19641 4.96394 1.11843 4.95901 1.116 4.96394C1.11356 4.96887 1.18666 4.98611 1.22809 4.99597C1.26464 4.99597 1.32556 4.99843 1.328 4.99351ZM6.04314 5.57253L6.02852 5.56267L5.99684 5.5676L6.04314 5.57253ZM6.87164 5.66862C6.85214 5.66862 6.82047 5.66369 6.81559 5.66616C6.79366 5.67109 6.78148 5.67601 6.76442 5.6834H6.70594L6.7766 5.68587L6.87164 5.66862ZM8.29715 5.86081C8.06565 5.81892 7.98524 5.80167 7.89752 5.78935C7.80979 5.77703 7.64897 5.76471 7.63191 5.76718C7.59536 5.77703 7.69283 5.79675 7.79274 5.81153C7.8829 5.82385 7.98037 5.83124 8.29715 5.86081ZM9.41075 5.95936C9.4205 5.95444 9.35958 5.94212 9.33033 5.93226C9.25967 5.92241 9.21093 5.92241 9.21337 5.93226C9.21581 5.93965 9.25236 5.94951 9.27185 5.95936C9.32059 5.95936 9.39856 5.96429 9.41075 5.95936ZM10.3513 6.06531L10.3002 6.06038L10.3245 6.07024L10.3513 6.06531ZM10.8046 6.06038L10.7875 6.05053L10.7534 6.05546L10.8046 6.06038ZM14.0114 6.3733C14.0089 6.37084 13.9626 6.36591 13.9334 6.36345C13.9115 6.36345 13.87 6.36345 13.8676 6.36591C13.8603 6.37577 13.909 6.38316 13.9846 6.38316C14.0089 6.38316 14.0187 6.37823 14.0114 6.3733ZM15.99 6.53346L15.973 6.5236L15.9364 6.52853L15.99 6.53346ZM17.4204 6.66651L17.3668 6.65419L17.3156 6.64187L17.3546 6.65419L17.4204 6.66651ZM17.5374 6.50882L17.5203 6.49896L17.4862 6.50389L17.5374 6.50882ZM19.6159 6.87348C19.6184 6.87348 19.5623 6.86116 19.5526 6.86116C19.5087 6.86116 19.4697 6.86362 19.4307 6.86362L19.5501 6.8858C19.5745 6.88333 19.6013 6.87841 19.6159 6.87348ZM20.6735 7.02871C20.6515 7.0361 20.6247 7.04103 20.6077 7.04842C20.5931 7.05581 20.5882 7.0632 20.5809 7.07059C20.6272 7.06813 20.6881 7.06813 20.7149 7.0632C20.7539 7.05581 20.8099 7.04595 20.6735 7.02871ZM21.8846 7.12233C21.8236 7.10755 21.7554 7.10016 21.6847 7.10509L21.8846 7.12233ZM22.0722 7.05088C22.0186 6.98682 21.7554 7.01146 21.5824 6.99667C21.6701 7.04595 21.8602 7.05334 22.0722 7.05088ZM22.3012 7.12233C22.2964 7.10509 22.2817 7.08784 22.1623 7.07059C22.1428 7.08784 22.1843 7.10509 22.3012 7.12233ZM23.0615 7.07059H22.9908C22.8934 7.06813 22.7788 7.0632 22.7082 7.06566C22.6448 7.06813 22.7057 7.08291 22.7788 7.08291C22.8666 7.08291 22.9299 7.07552 23.003 7.07306L23.0615 7.07059ZM23.4806 7.13219L23.4222 7.13465C23.3978 7.14205 23.2296 7.13219 23.3539 7.15683L23.4368 7.13712L23.4806 7.13219ZM27.7913 7.3293H27.723L27.7888 7.3367L27.7913 7.3293ZM35.9666 7.96746C35.9423 7.965 35.9081 7.96253 35.8935 7.96253C35.8472 7.965 35.8058 7.96746 35.7644 7.96992L35.9666 7.96746ZM37.9502 7.9034L37.955 7.87876C37.9331 7.88122 37.8941 7.88122 37.8965 7.88369C37.9063 7.88861 37.9307 7.89601 37.9502 7.9034ZM39.2197 8.02413L39.2904 8.02167L39.2221 8.01427L39.2197 8.02413Z" fill="#030303"/>
<path d="M39.6704 8.07695C40.1163 8.13362 40.5744 8.13608 41.169 8.11391C40.5818 8.08188 40.131 8.03999 39.6704 8.07695Z" fill="#030303"/>
<path d="M41.4861 8.02344C41.4276 8.0259 41.3277 8.0259 41.3155 8.03083C41.279 8.04561 41.3667 8.05793 41.4861 8.06286C41.5446 8.06532 41.6518 8.0604 41.6615 8.05547C41.6883 8.04068 41.5982 8.02837 41.4861 8.02344Z" fill="#030303"/>
<path d="M28.142 7.59079C28.0738 7.60065 28.125 7.61543 28.2395 7.62529C28.3443 7.63514 28.432 7.63514 28.4807 7.62529C28.4588 7.61543 28.4515 7.60558 28.4076 7.59818C28.3029 7.5834 28.2029 7.5834 28.142 7.59079Z" fill="#030303"/>
<path d="M26.0029 11.4578C25.9347 11.5071 25.7617 11.5711 25.6081 11.618C25.4546 11.6648 25.3206 11.6943 25.3401 11.7165C25.0867 11.7387 24.8211 11.7338 24.5798 11.613C24.4653 11.5514 24.3483 11.4627 24.2825 11.3321C24.2143 11.2065 24.1924 11.0636 24.207 10.9231C24.2241 10.7827 24.2825 10.6324 24.4166 10.5363C24.5506 10.4451 24.7236 10.4304 24.8722 10.5018C25.0184 10.5757 25.1086 10.7063 25.1646 10.8369C25.2207 10.9699 25.2524 11.1104 25.2621 11.2533C25.2767 11.4061 25.2597 11.5982 25.2426 11.7781C25.2256 11.9629 25.2036 12.1477 25.1793 12.298C25.1086 12.7218 24.9697 12.9978 24.8259 13.185C24.7455 13.3181 24.6602 13.4314 24.5457 13.5324C24.4336 13.6285 24.2752 13.7246 24.0657 13.7123C23.8659 13.7049 23.6758 13.5595 23.571 13.3871C23.4613 13.2146 23.398 13.0051 23.3858 12.7933C23.3468 12.3744 23.4565 11.921 23.6807 11.5317C23.6612 11.6204 23.5686 11.8151 23.5101 12.022C23.4467 12.229 23.4321 12.4434 23.4467 12.5247C23.515 12.1083 23.6319 11.7436 23.8464 11.4233C23.8927 11.3888 23.8975 11.4011 24.0681 11.2114C24.09 11.1892 24.1266 11.1449 24.1241 11.1424C24.1047 11.1252 23.9487 11.2804 23.8512 11.4184C24.0023 11.1005 24.38 10.7359 24.8747 10.5831L25.0014 10.8665C24.7382 11.0242 24.4799 11.2089 24.2655 11.4061C24.2533 11.4208 24.2387 11.443 24.2289 11.4504C24.1753 11.4997 24.1851 11.4849 24.2582 11.411C24.3288 11.3124 24.475 11.1597 24.4409 11.1326C24.0998 11.4406 23.8366 11.7633 23.6051 12.0984C23.3273 12.4163 23.5954 12.0147 23.4711 12.1181C23.2031 12.4828 23.0374 12.8573 22.8887 13.2565C22.8448 13.3772 22.801 13.5004 22.7571 13.6236C22.7279 13.6975 22.6962 13.7739 22.667 13.8503C22.6645 13.8823 22.6353 13.8552 22.6182 13.8527L22.5597 13.8306C22.5208 13.8158 22.4793 13.801 22.4428 13.7813C22.2893 13.7246 22.1309 13.5669 22.0651 13.456C21.9822 13.3304 21.9384 13.185 21.9116 13.0347C21.9554 13.1234 22.0163 13.2195 22.0846 13.3033C22.1236 13.3673 22.1772 13.4511 22.243 13.5201C22.3161 13.5866 22.3867 13.6334 22.416 13.631C22.2503 13.53 22.1528 13.4018 22.0797 13.286C21.9944 13.1259 21.9481 12.9411 21.9213 12.7686C21.8848 12.5 21.8653 12.3842 21.8458 12.2808C21.8263 12.1797 21.8092 12.0886 21.8482 11.8742C21.97 11.3174 22.0163 11.0192 22.0553 10.662C22.1674 10.4525 22.126 10.8468 22.1796 10.8344L22.1723 10.9059L22.182 10.827C22.2746 10.3614 22.2405 10.3318 22.2235 10.2505C22.2015 10.147 22.2527 9.8193 22.3648 9.4571C22.4915 9.04809 22.4257 9.43246 22.4062 9.61479C22.3989 9.68871 22.377 9.8193 22.4208 9.70596C22.6207 8.82634 22.6523 8.44689 22.6767 8.0773L22.6523 8.15122L22.6791 8.06498C22.7961 7.65105 22.9131 7.27899 23.0227 7.0326C22.9911 7.17797 22.8838 7.47118 22.9204 7.46379C22.9204 7.46379 22.9423 7.38741 22.9667 7.29378C22.9886 7.20015 23.0154 7.08927 23.0252 7.02521C23.1397 6.5891 23.2079 6.20719 23.3882 5.7144C23.4443 5.40888 23.5564 5.16249 23.6539 4.90131L23.6709 4.75594L23.7464 4.62289C23.8074 4.39128 23.8683 4.15721 23.9292 3.9256C23.9901 3.70138 24.0584 3.48948 24.1534 3.30223C24.4531 2.53595 24.3946 2.82422 24.3605 3.04844C24.3727 3.0238 24.3971 2.97452 24.3971 2.97945C24.3995 3.00409 24.3751 3.06569 24.3361 3.13714C24.2021 3.54862 24.0754 3.96009 23.9536 4.37403C24.1144 3.97734 24.2094 3.58311 24.3898 3.14453C24.5725 2.69117 24.5335 2.65668 24.5335 2.56305C24.5335 2.37826 24.6602 2.01606 24.899 1.52327L24.9332 1.45675L24.9015 1.51342C24.9112 1.45921 24.921 1.40501 24.9405 1.34341C24.9721 1.26703 25.0087 1.18325 25.0501 1.09948C25.133 0.927006 25.2353 0.742212 25.3352 0.562345C25.3474 0.542634 25.3572 0.522923 25.3669 0.505675C25.3718 0.488428 25.3791 0.515531 25.3864 0.520459L25.4059 0.547562C25.4278 0.582057 25.4473 0.611624 25.4644 0.638727C25.4912 0.688005 25.5058 0.7225 25.5107 0.747139C25.5204 0.793954 25.496 0.798882 25.4741 0.813665C25.6179 0.976284 25.652 1.01078 25.6642 0.961501C25.6739 0.91715 25.6423 0.806274 25.6666 0.798882C25.7617 0.936861 25.8177 1.11673 25.8543 1.28427C25.8713 1.38776 25.8737 1.41486 25.8762 1.46907C25.8811 1.51835 25.8811 1.5627 25.8811 1.60458C25.8786 1.77459 25.8543 1.90272 25.8299 2.00374L25.8274 1.93968L25.825 2.02591C25.7422 2.73799 25.6106 3.39339 25.4619 4.08082C25.3109 4.76333 25.1135 5.4483 24.8552 6.15298C24.6286 6.78375 24.38 7.52785 24.1095 8.20789C23.8049 8.96432 23.7318 9.06287 23.6319 9.07273C23.6149 9.41029 23.2372 10.2061 22.8302 10.9355C22.5671 11.4159 22.3014 11.8865 22.0285 12.3547C21.8872 12.5887 21.7532 12.813 21.6045 13.0495C21.4388 13.2984 21.2317 13.5053 20.9783 13.6704C20.8638 13.7419 20.7395 13.8059 20.5957 13.8429C20.4519 13.8774 20.2765 13.8848 20.1132 13.8108C19.9524 13.7345 19.8354 13.6113 19.7623 13.461C19.6917 13.3082 19.6795 13.1505 19.6868 13.0125C19.7063 12.7292 19.7794 12.505 19.8403 12.2684C19.9037 12.0344 19.9768 11.8028 20.0572 11.5736C20.0182 11.7412 19.9646 11.9654 20.0255 11.8717C20.1254 11.5366 20.0499 11.6598 20.0621 11.5613C20.1084 11.4011 20.1522 11.2484 20.2156 11.0833C20.4251 10.5437 20.6055 10.2308 20.564 10.4698C20.5543 10.5412 20.5518 10.5954 20.6566 10.4205C20.815 10.0829 20.7468 10.1519 20.7541 10.0829C20.7736 9.93264 20.9174 9.63943 21.2244 9.17129C21.3219 9.02099 21.4047 8.9175 21.4729 8.83373L21.8385 9.0062C21.7727 9.21317 21.7191 9.33637 21.663 9.55566C21.5777 9.85626 21.5826 10.0386 21.3682 10.4525C21.2366 10.6866 21.0904 10.9059 20.8784 11.0981C20.6713 11.2853 20.4203 11.4233 20.1352 11.4898C19.7843 11.5687 19.4114 11.5736 19.0874 11.4061C18.9631 11.3494 18.8461 11.2558 18.7803 11.1474C18.6707 11.0143 18.6097 10.8566 18.5781 10.7014C18.544 10.5462 18.544 10.3885 18.5683 10.2357C18.5927 10.0829 18.6414 9.93264 18.7316 9.79466C18.7535 9.75523 18.773 9.73306 18.8096 9.68871C18.8461 9.63697 18.89 9.60494 18.9338 9.57291C19.0191 9.49652 19.1142 9.45956 19.2092 9.42507C19.3018 9.40782 19.3968 9.39057 19.4992 9.38072L19.5357 9.37579C19.5479 9.37333 19.5625 9.37086 19.5625 9.38565L19.5796 9.45464L19.6161 9.59508L19.6527 9.73552C19.6576 9.79219 19.6673 9.8464 19.6673 9.90553L19.6746 10.0509C19.677 10.0854 19.6771 10.1199 19.6771 10.1544C19.6795 10.4303 19.6478 10.7088 19.5966 10.9897C19.4797 11.5785 19.3067 11.9087 19.1653 12.1452C19.0118 12.3768 18.8851 12.5222 18.6902 12.6848C18.4343 12.9904 18.5464 12.9608 18.2345 13.2392C18.0371 13.4117 17.7764 13.5669 17.5059 13.6458C17.2354 13.7246 16.9138 13.7542 16.6165 13.6088C16.363 13.4881 16.2071 13.2368 16.151 13.0224C16.0877 12.8031 16.0779 12.6085 16.0609 12.4286C16.0341 12.1231 16.0755 11.7757 16.173 11.4381C16.268 11.1005 16.4142 10.7728 16.575 10.4673C16.6603 10.3047 16.7261 10.2382 16.8041 10.1692C16.8918 10.0903 16.9893 10.0041 17.1428 9.86611C17.1696 9.82176 17.2086 9.77002 17.2939 9.71581C17.3743 9.66407 17.5303 9.60494 17.713 9.66653C17.9055 9.72567 18.042 9.91539 18.0932 10.0928C18.1224 10.184 18.137 10.2801 18.1419 10.3835C18.1443 10.4328 18.1419 10.4919 18.137 10.5437C18.1297 10.593 18.1224 10.6422 18.1151 10.694C17.9543 11.6451 17.2793 12.4384 16.4118 12.7933C16.1925 12.877 15.9634 12.9386 15.7271 12.9633C15.4834 12.9879 15.2397 12.9657 15.0009 12.8967C14.7645 12.8253 14.5257 12.707 14.3381 12.4976C14.2455 12.3941 14.1675 12.2684 14.1237 12.1329C14.0725 11.99 14.0627 11.8052 14.109 11.6574C14.2041 11.3519 14.4136 11.1301 14.6939 11.0094C14.8352 10.9527 15.0106 10.9207 15.1934 10.9773C15.3786 11.034 15.5248 11.1868 15.5882 11.3371C15.7246 11.6574 15.6539 11.9383 15.5955 12.1625C15.5321 12.3892 15.4493 12.6085 15.3469 12.8179L15.3737 12.7415L15.342 12.8277C15.191 13.1702 14.9765 13.5004 14.745 13.7714C14.5379 14.0154 14.4112 14.1065 14.3478 14.1459C14.2821 14.1854 14.2699 14.1706 14.2479 14.1657L14.3015 14.1114L14.2431 14.1681C14.131 14.2642 14.0043 14.3628 13.8215 14.417C13.6412 14.4761 13.4024 14.4539 13.2245 14.316C13.0442 14.1804 12.9589 13.9858 12.9175 13.8158C12.8736 13.6408 12.8663 13.4733 12.8736 13.3082C12.8833 13.1357 12.915 12.9928 12.9394 12.8425C12.9613 12.6922 13.0003 12.5444 13.0296 12.3966C13.0978 12.1009 13.1806 11.8052 13.2781 11.5145C13.4438 11.0168 13.6461 10.5634 13.8775 10.1125C13.8946 10.0139 13.8873 9.91785 14.1358 9.54087C14.2674 9.29202 14.4112 9.05302 14.5598 8.82141C14.6354 8.7056 14.7158 8.59473 14.7938 8.48139L15.1739 7.98614L15.6003 7.48596L15.8172 7.23711L15.9244 7.11391L15.978 7.05231C15.9927 7.03753 16.0219 6.99072 16.0097 7.04246C15.9439 7.50075 15.883 7.94672 15.7977 8.38037C15.7855 8.47646 15.7734 8.57255 15.7563 8.65879C15.749 8.70068 15.7392 8.74503 15.7271 8.77952C15.7197 8.80663 15.71 8.82634 15.7027 8.84605C15.6296 9.16636 15.5345 9.4842 15.4371 9.79219C15.2031 10.5141 14.9375 10.965 14.7158 11.1597C14.689 11.3469 14.7231 11.4406 14.4088 11.9284C14.1115 12.399 13.6655 13.0175 13.4219 13.1973C13.2513 13.3279 13.1928 13.3895 13.1075 13.5275C12.8395 13.939 12.6104 14.0474 12.3619 14.2125C12.4033 14.1681 12.5641 14.0449 12.5178 14.0572L12.3594 14.2125C12.2839 14.2913 12.2011 14.3677 12.1133 14.4391L11.9379 14.5821C11.9038 14.6116 11.8697 14.6363 11.8355 14.6609C11.8014 14.6806 11.7649 14.725 11.7332 14.725C11.6771 14.6609 11.6138 14.5968 11.5602 14.5278L11.4822 14.4219C11.4554 14.3849 11.4286 14.3504 11.4189 14.3233C11.3579 14.2075 11.3092 14.0868 11.2824 13.9611C11.1654 13.4536 11.2702 12.9534 11.3847 12.5025C11.4018 12.4138 11.4091 12.3374 11.4676 12.1896C11.4676 12.1871 11.47 12.2093 11.4627 12.229C11.4383 12.3128 11.414 12.399 11.3896 12.4877C11.3799 12.5887 11.3726 12.6898 11.3701 12.7933C11.4408 12.5198 11.4944 12.3226 11.5553 12.096C11.6455 11.7584 11.7673 11.3716 11.9452 10.9305C11.9769 10.864 11.9501 10.9897 12.0232 10.7852L11.9403 10.9182C11.9647 10.7975 12.0232 10.6349 12.0963 10.4919C12.2059 10.2727 12.2912 10.179 12.3692 9.81437C12.4179 9.59015 12.6348 9.06287 12.837 8.65633C12.9175 8.49371 12.9759 8.40254 12.9296 8.54791C12.9102 8.61444 12.8395 8.77459 12.7932 8.89286C12.7469 8.97664 12.7079 9.06534 12.6787 9.1565L12.6616 9.21564L12.6884 9.13925C12.7176 9.06287 12.7518 8.98649 12.7859 8.91504C13.1465 8.22021 13.3025 7.68554 13.5754 7.08188C13.7581 6.68026 13.9507 6.27371 14.148 5.87456C14.2406 5.68237 14.3649 5.42613 14.399 5.43845C14.4746 5.46308 14.6232 5.14277 14.7718 4.79043C14.8644 4.57114 14.9302 4.38881 15.1227 4.06851C15.2787 3.80487 15.4322 3.54369 15.5882 3.27759L15.8221 2.88089C15.8952 2.75031 15.9853 2.60494 16.0877 2.48174C16.19 2.35362 16.3046 2.23288 16.4508 2.13679C16.4873 2.11215 16.519 2.09244 16.5799 2.06287C16.6335 2.0407 16.6871 2.02345 16.7432 2.00867C16.8528 1.98403 16.9601 1.99388 17.0575 2.01852C17.1038 2.03577 17.1501 2.05302 17.1989 2.07519L17.2354 2.09244C17.2476 2.09737 17.2647 2.1023 17.2549 2.11462L17.2452 2.18361L17.2232 2.32158C17.2086 2.37086 17.1842 2.43 17.1647 2.4842L16.982 2.95728C16.675 3.69152 16.3947 4.39128 16.0585 5.11074C15.3177 6.71476 14.4916 8.24485 13.4584 9.72813C12.7761 10.7014 12.0451 11.6623 11.2678 12.569C11.0485 12.8302 10.8511 13.052 10.6537 13.2343C10.4222 13.4511 10.2858 13.562 10.4831 13.286C10.7682 12.8869 11.1021 12.4655 11.5992 11.8422C12.1353 11.1769 12.647 10.4895 13.1319 9.78234C13.6192 9.07519 14.0847 8.35326 14.5111 7.61162C15.3786 6.12095 16.1072 4.55143 16.7334 2.96467L16.9698 2.33883C16.9722 2.32158 16.9966 2.29448 16.982 2.28216C16.9625 2.27477 16.943 2.26245 16.9235 2.25752C16.8821 2.2452 16.8382 2.24274 16.7968 2.24767C16.7091 2.25999 16.6433 2.29202 16.5385 2.3684C16.3509 2.51377 16.1973 2.71335 16.0731 2.92771L15.6856 3.5905C15.1739 4.47998 14.6866 5.38177 14.226 6.29835C13.5681 7.60177 12.9686 8.93229 12.4277 10.285C12.1596 10.9626 11.8989 11.6451 11.6625 12.3325C11.5504 12.675 11.4676 13.0298 11.4505 13.3846C11.4432 13.562 11.4554 13.7394 11.4968 13.9069C11.5334 14.0696 11.6211 14.2519 11.6966 14.3455L11.7624 14.4219C11.7673 14.4318 11.7746 14.4318 11.7795 14.4219L11.799 14.4071L11.838 14.3776L12.0207 14.2371C12.1645 14.1287 12.2961 14.0055 12.435 13.8897C12.5714 13.7714 12.6957 13.6408 12.8273 13.5176L13.2001 13.1234C13.6802 12.5838 14.0993 11.99 14.4526 11.3568C14.806 10.7236 15.0886 10.0534 15.2982 9.35854C15.3542 9.18607 15.3957 9.00867 15.4395 8.83373C15.4639 8.73764 15.4809 8.67357 15.4907 8.60458L15.5345 8.38776C15.5638 8.24732 15.576 8.10441 15.5979 7.96396L15.6052 7.90976C15.6028 7.90483 15.5833 7.93193 15.576 7.94179L15.5077 8.0231C15.4614 8.0773 15.4151 8.12905 15.3713 8.18572C15.2811 8.29413 15.1934 8.40993 15.1008 8.53559L15.0326 8.62922L14.9546 8.74256C14.9034 8.81894 14.8498 8.89286 14.8011 8.96924C14.6013 9.27477 14.4209 9.59262 14.2504 9.91539C13.919 10.5659 13.6485 11.2484 13.456 11.9531C13.3293 12.4212 13.2196 12.9091 13.1782 13.3871C13.1733 13.6211 13.205 13.8798 13.3561 14.0425C13.4292 14.1213 13.5388 14.1632 13.6461 14.1583C13.7557 14.1558 13.8629 14.1065 13.9604 14.0449C14.3503 13.7764 14.6768 13.3994 14.918 12.9879C15.0374 12.7809 15.1349 12.5616 15.2105 12.335C15.2811 12.1083 15.3518 11.8717 15.3274 11.6525C15.3152 11.5391 15.2689 11.4332 15.191 11.3642C15.113 11.2952 15.0058 11.2804 14.8986 11.305C14.6866 11.3568 14.494 11.5391 14.4283 11.751C14.36 11.9604 14.4794 12.1945 14.6476 12.3473C14.8206 12.5025 15.0521 12.5887 15.286 12.6257C15.7587 12.6947 16.251 12.5444 16.6555 12.2881C17.0648 12.0294 17.3914 11.6426 17.5839 11.2016C17.6594 11.0389 17.7033 10.8665 17.7398 10.6915C17.7666 10.5141 17.7861 10.3416 17.7301 10.1889C17.6813 10.0312 17.5595 9.95728 17.4352 10.0189C17.3061 10.078 17.1915 10.2357 17.0795 10.3737C16.6433 10.9453 16.3996 11.6672 16.3972 12.3892C16.3923 12.744 16.4435 13.1308 16.7237 13.286C16.9966 13.4413 17.3743 13.3476 17.6716 13.1875C18.271 12.8327 18.7389 12.2339 19.0094 11.5859C19.1848 11.1597 19.2896 10.7038 19.2994 10.2456C19.3067 10.1347 19.2969 9.99424 19.2969 9.96713L19.2896 9.88582L19.2847 9.84394C19.275 9.84147 19.2579 9.8464 19.2457 9.8464C19.1921 9.85626 19.141 9.8809 19.1044 9.92032C19.0922 9.93017 19.0874 9.94003 19.08 9.94988C19.063 9.96713 19.0508 9.98684 19.0386 10.009C19.0118 10.0484 18.9948 10.0953 18.9753 10.1421C18.9119 10.3318 18.907 10.5535 18.9826 10.7383C19.0508 10.9231 19.2043 11.0513 19.3993 11.1178C19.7843 11.2508 20.2497 11.1079 20.5713 10.8369C20.8223 10.6225 21.0075 10.3096 21.1415 9.98192C21.2756 9.64929 21.3633 9.28709 21.451 8.9175L21.7873 9.07766C21.1635 9.94742 20.6688 10.9231 20.3423 11.9506C20.3057 12.0639 20.2838 12.1797 20.257 12.2955L20.2838 12.2142L20.2546 12.2955C20.1936 12.5469 20.1205 12.8204 20.1084 13.0347C20.1035 13.1431 20.1181 13.2368 20.1522 13.3033C20.1912 13.3698 20.2424 13.4289 20.3057 13.4536C20.391 13.4881 20.5104 13.4634 20.6201 13.4117C20.7297 13.3575 20.8321 13.2811 20.932 13.1973C21.0343 13.1111 21.1269 13.0101 21.2073 12.9041C21.2829 12.8031 21.3609 12.6651 21.4388 12.5419C21.5972 12.2881 21.7483 12.0319 21.8994 11.7757C22.1991 11.2632 22.4842 10.7507 22.7669 10.2579L22.7449 10.317L22.7766 10.2406C23.0447 9.62465 23.4638 8.76474 23.6149 8.21036C23.5832 8.28427 23.5466 8.37051 23.5198 8.42718C23.4808 8.49864 23.493 8.46168 23.5345 8.36312C23.5613 8.29906 23.5905 8.25717 23.6173 8.20296L23.822 7.70279C23.8317 7.70279 23.839 7.70772 23.8439 7.71757L23.8244 7.79149L23.8488 7.71018C23.8561 7.68554 23.8707 7.6338 23.8683 7.63873C23.8585 7.64612 23.8415 7.67569 23.8244 7.6954C23.8561 7.55249 23.9243 7.35538 24.0096 7.13362C24.1558 6.72708 24.0803 7.03753 24.1168 6.971C24.2143 6.82317 24.6749 5.50004 24.7943 4.94812C24.8406 4.73869 24.8893 4.55143 24.9453 4.32475C24.8698 4.44795 24.8674 4.34446 25.0087 3.92067C25.1598 3.4476 25.2256 3.22338 25.2743 2.98684C25.2987 2.86858 25.3206 2.74538 25.345 2.58769C25.3693 2.42753 25.401 2.23288 25.4181 1.97664C25.4205 1.90025 25.4254 1.8017 25.4205 1.69575C25.4181 1.64154 25.4156 1.58734 25.4083 1.53067C25.4034 1.50356 25.4035 1.474 25.3961 1.44689C25.3937 1.43704 25.3937 1.44443 25.3913 1.4395C25.3864 1.43457 25.384 1.43457 25.3815 1.42965C25.3791 1.42965 25.3791 1.40254 25.3693 1.4124C25.3596 1.4124 25.3474 1.42472 25.3328 1.44443L25.3084 1.47892L25.2962 1.5011C25.2938 1.50603 25.2938 1.50356 25.2889 1.51588L25.2719 1.55531C25.1793 1.76474 25.0891 1.9791 25.0014 2.19839C24.8284 2.63697 24.6627 3.08786 24.4994 3.5363C23.8951 5.19698 23.3712 6.88723 22.9277 8.59719C22.8375 8.94214 22.7498 9.31419 22.6548 9.56798C22.5963 9.77495 22.5403 9.98931 22.5086 10.1987C22.455 10.5511 22.3721 10.9773 22.2844 11.3519C22.2088 11.6869 22.126 12.0097 22.1114 12.335C22.0968 12.6577 22.1284 12.9953 22.2722 13.2466C22.3039 13.3033 22.3648 13.3772 22.3819 13.3895C22.4062 13.4117 22.4355 13.4314 22.4671 13.4437C22.5086 13.4758 22.5061 13.4191 22.5208 13.392C22.5256 13.3772 22.5329 13.36 22.5378 13.3452L22.5841 13.2318C22.7206 12.9066 22.8911 12.5961 23.0885 12.3128C23.2518 12.0812 23.4077 11.8816 23.5881 11.6623C23.9365 11.241 24.3581 10.8763 24.8259 10.5954L24.9624 10.8985C24.7577 10.9601 24.5652 11.0611 24.3873 11.1868C24.1534 11.3543 23.9706 11.6106 23.8659 11.8619C23.7635 12.096 23.7002 12.3399 23.688 12.5838C23.6758 12.8277 23.7002 13.0717 23.8147 13.2663L23.8171 13.2737C23.8927 13.4018 24.0072 13.4856 24.1412 13.4831C24.2704 13.4831 24.4044 13.3895 24.5067 13.2565C24.6115 13.1234 24.6846 12.9682 24.7528 12.7982C24.8211 12.6306 24.8795 12.4582 24.9258 12.2881C24.9673 12.1428 25.0038 11.9851 25.0306 11.8225C25.055 11.6574 25.0842 11.4898 25.0696 11.3346C25.0574 11.1769 25.0136 11.0217 24.9429 10.901C24.8722 10.7802 24.7723 10.7112 24.6944 10.7211C24.5725 10.6915 24.6724 10.6595 24.7382 10.657C24.6529 10.6299 24.553 10.6521 24.4848 10.7063C24.4141 10.763 24.3727 10.8591 24.3605 10.9601C24.3361 11.1695 24.4239 11.379 24.6212 11.48C24.8089 11.5884 25.0452 11.6106 25.2792 11.5958C25.5204 11.5711 25.7641 11.5219 26.0029 11.4578ZM14.7353 7.58452L14.6061 7.78656C14.572 7.84323 14.5428 7.90237 14.5111 7.9615L14.6403 7.75699L14.7353 7.58452ZM15.593 5.95094C15.576 5.9879 15.5589 6.02486 15.5419 6.06182L15.5833 5.99776C15.6028 5.95833 15.632 5.90413 15.6418 5.87949C15.6734 5.80064 15.654 5.83021 15.593 5.95094ZM11.3263 13.0667C11.3311 13.0347 11.3409 12.9928 11.3433 12.9756C11.3506 12.914 11.3555 12.8598 11.3628 12.8031C11.3457 12.8893 11.336 12.978 11.3263 13.0667ZM11.3141 13.8355L11.3019 13.7566L11.297 13.7887L11.3141 13.8355ZM15.7271 8.35326L15.7149 8.45921C15.7002 8.53559 15.6881 8.60458 15.6759 8.66865C15.6661 8.73271 15.6491 8.78691 15.6418 8.81402C15.6247 8.88054 15.615 8.92736 15.6052 8.96185C15.5906 9.02838 15.593 9.03823 15.6052 9.02099C15.6271 8.98649 15.6808 8.84605 15.6929 8.84851C15.7027 8.80416 15.7124 8.76227 15.7222 8.71792C15.7295 8.66372 15.7392 8.60951 15.7465 8.55531C15.7392 8.50849 15.7295 8.4666 15.7197 8.42965L15.7271 8.35326ZM15.2811 8.01817C15.2763 8.02803 15.3128 7.99353 15.3323 7.96889C15.364 7.927 15.3981 7.88265 15.4322 7.8383C15.4371 7.82598 15.4566 7.79395 15.442 7.80874C15.364 7.89251 15.2982 7.97875 15.2811 8.01817ZM14.5891 8.99635L14.6256 8.92982L14.6744 8.8017L14.611 8.94953L14.5891 8.99635ZM13.8873 10.0854L13.9628 10.0386C14.0676 9.80205 13.9921 9.908 14.0043 9.8464C14.0043 9.84886 14.0043 9.84886 14.0018 9.85133L14.0043 9.8464L13.8873 10.0854ZM13.1733 12.096C13.1782 12.1255 13.1953 12.0812 13.2147 11.9925C13.2318 11.921 13.244 11.8496 13.2464 11.8151C13.2489 11.7683 13.2245 11.8299 13.2001 11.9186C13.1831 11.9875 13.1806 12.0393 13.1733 12.096ZM12.9516 13.4708C12.9638 13.4831 12.9638 13.4166 12.9711 13.2984C12.9735 13.2663 12.9686 13.2441 12.9686 13.217C12.9589 13.2146 12.9443 13.2737 12.9443 13.392C12.9418 13.424 12.9467 13.4659 12.9516 13.4708ZM15.364 11.2163C15.403 11.2459 15.4444 11.2779 15.4761 11.3149C15.4931 11.3346 15.5053 11.3568 15.5199 11.379C15.5029 11.3494 15.4858 11.3174 15.4639 11.2903C15.4493 11.273 15.3883 11.2089 15.3494 11.1769C15.2982 11.1498 15.2884 11.1375 15.364 11.2163ZM14.2041 12.0836C14.2041 12.0738 14.2041 12.0664 14.2041 12.0541L14.187 12.0023C14.1919 12.027 14.1943 12.059 14.2041 12.0836ZM17.7057 11.4553L17.674 11.5243C17.6667 11.544 17.6594 11.5662 17.6497 11.5835C17.6643 11.5564 17.6765 11.5293 17.6886 11.5022L17.7057 11.4553ZM17.9884 10.3367C17.9908 10.3761 17.9859 10.4205 17.9859 10.4525C17.9835 10.5733 17.9786 10.5954 17.9981 10.5338C18.0006 10.5264 18.003 10.4525 18.003 10.4106L17.9884 10.3367ZM16.2095 11.5835L16.229 11.5366C16.3582 11.172 16.4922 10.7999 16.6969 10.455C16.7115 10.4353 16.7261 10.4156 16.7432 10.3983L16.7066 10.4402C16.4678 10.7408 16.346 11.1424 16.2363 11.512C16.2242 11.5342 16.2168 11.5588 16.2095 11.5835ZM19.5113 9.63697L19.5357 9.74784L19.5211 9.65175L19.5113 9.63697ZM18.6634 10.0928L18.6804 10.0657C18.6829 10.0484 18.6877 10.0312 18.6902 10.0139C18.6804 10.041 18.6707 10.0657 18.6634 10.0928ZM19.0045 11.3617C18.9265 11.3026 18.8534 11.2361 18.7901 11.1769C18.8534 11.2484 18.9314 11.3174 19.0045 11.3617ZM20.932 10.8517C20.9295 10.8468 20.8686 10.901 20.8345 10.9281C20.7955 10.9724 20.7224 11.0439 20.7224 11.0488C20.7249 11.0562 20.8053 10.9946 20.8516 10.9601C20.8808 10.9231 20.9344 10.8591 20.932 10.8517ZM19.8622 12.5912L19.8744 12.5715L19.8769 12.5296L19.8622 12.5912ZM20.0718 13.6729C20.0474 13.6556 20.0109 13.631 20.0011 13.6236C19.9743 13.6063 19.9573 13.5965 19.9353 13.5842C19.9134 13.562 19.8915 13.5423 19.8744 13.5176C19.8939 13.5497 19.9232 13.5743 19.9475 13.599C19.9816 13.631 20.0279 13.6532 20.0718 13.6729ZM21.6679 12.8179C21.5022 13.0618 21.412 13.153 21.3341 13.2368C21.2561 13.323 21.0952 13.4708 21.0806 13.4856C21.0514 13.525 21.1635 13.4536 21.2658 13.3575C21.3097 13.3156 21.3535 13.2713 21.4193 13.1924C21.4803 13.1136 21.568 12.9904 21.6679 12.8179ZM22.3794 11.581C22.3819 11.5662 22.3356 11.6327 22.3112 11.6648C22.2649 11.7436 22.2381 11.8003 22.2503 11.8003C22.2576 11.8003 22.2893 11.7633 22.3063 11.7436C22.3331 11.6869 22.377 11.5982 22.3794 11.581ZM22.9594 10.524L22.9277 10.5831L22.9496 10.5585L22.9594 10.524ZM23.1714 9.98438L23.1519 10.0016L23.1397 10.0435L23.1714 9.98438ZM24.7114 6.17516C24.709 6.18009 24.6895 6.23429 24.6773 6.26879C24.67 6.29589 24.6578 6.34763 24.6602 6.3501C24.67 6.35995 24.6895 6.30328 24.7114 6.20719C24.7187 6.18255 24.7163 6.16777 24.7114 6.17516ZM25.3718 3.73095L25.3572 3.75066L25.3547 3.79501L25.3718 3.73095ZM25.7251 1.92489L25.7129 1.99388L25.6983 2.06041L25.7129 2.00867L25.7251 1.92489ZM25.5667 1.78199L25.557 1.80416L25.5618 1.84358L25.5667 1.78199ZM24.6895 2.18114C24.6895 2.18607 24.7212 2.11954 24.7236 2.10722C24.7406 2.05302 24.7553 2.0062 24.7699 1.95939C24.748 2.0062 24.7236 2.05302 24.7017 2.09983C24.6968 2.12694 24.6895 2.16143 24.6895 2.18114ZM24.151 3.43035C24.1534 3.40078 24.1558 3.36629 24.1558 3.34658C24.1534 3.32686 24.1485 3.31947 24.1436 3.30715C24.129 3.36382 24.1071 3.44021 24.1047 3.4747C24.0973 3.52151 24.0852 3.59297 24.151 3.43035ZM23.6441 4.89638C23.6782 4.82493 23.7075 4.74362 23.727 4.65245L23.6441 4.89638ZM23.6539 5.14277C23.7343 5.09103 23.7927 4.76087 23.8659 4.55143C23.7879 4.64999 23.7196 4.8816 23.6539 5.14277ZM23.5101 5.41134C23.5271 5.40641 23.5491 5.39409 23.6051 5.25119C23.5954 5.22408 23.5661 5.2709 23.5101 5.41134ZM23.3298 6.36242L23.3493 6.27618C23.3785 6.15545 23.4199 6.015 23.4394 5.9263C23.4565 5.84746 23.4224 5.91891 23.4004 6.01007C23.3736 6.11849 23.3614 6.1998 23.3444 6.29096L23.3298 6.36242ZM23.1494 6.87245L23.1641 6.80099C23.1641 6.76896 23.2225 6.56446 23.1616 6.71229L23.1568 6.81824L23.1494 6.87245ZM22.0139 12.2364C22.0139 12.2068 22.0163 12.1797 22.0188 12.1502L22.009 12.2339L22.0139 12.2364ZM24.9307 12.9263C24.9185 12.9559 24.899 12.9953 24.8917 13.0125C24.8698 13.0692 24.8527 13.121 24.8284 13.1727C24.8698 13.0914 24.9015 13.0076 24.9307 12.9263ZM24.7601 10.625L24.7504 10.6496C24.7723 10.6521 24.8089 10.6669 24.8064 10.6644C24.8016 10.6496 24.7796 10.6349 24.7601 10.625ZM24.7675 11.6377C24.7967 11.6475 24.8284 11.65 24.8576 11.6574C24.8284 11.6475 24.8016 11.6426 24.7723 11.6303L24.7675 11.6377Z" fill="#030303"/>
<path d="M25.3472 11.7163C25.9222 11.6941 26.5119 11.5142 27.1406 11.0781C26.4876 11.465 25.9222 11.6005 25.3472 11.7163Z" fill="#030303"/>
<path d="M27.4087 10.7614C27.3527 10.8131 27.2528 10.887 27.243 10.8993C27.2138 10.9388 27.3113 10.8846 27.4307 10.7909C27.4916 10.7466 27.589 10.653 27.5939 10.6406C27.611 10.6086 27.5208 10.6801 27.4087 10.7614Z" fill="#030303"/>
<path d="M21.7847 12.7199C21.7628 12.6287 21.7555 12.7002 21.775 12.8579C21.792 13.0032 21.8359 13.124 21.8724 13.1831C21.87 13.1486 21.8724 13.1338 21.8603 13.0772C21.831 12.9392 21.8042 12.8111 21.7847 12.7199Z" fill="#030303"/>
<path d="M48.4428 13.7328C48.3161 13.8043 47.8361 13.8807 47.8726 13.925C47.0393 14.0285 46.2644 14.1886 45.3652 14.2478C45.124 14.2626 44.7731 14.3389 44.5318 14.4005C44.1955 14.4843 43.9446 14.4868 43.7618 14.4671C43.5181 14.4843 43.3232 14.4966 43.0503 14.5558C42.5337 14.6691 41.8611 14.748 41.174 14.8514C41.2958 14.7726 41.8392 14.7307 41.961 14.6716C41.6248 14.6814 41.3275 14.743 41.0229 14.7898C40.9766 14.78 40.9814 14.7578 40.7768 14.78C40.7524 14.7825 40.7061 14.7948 40.7085 14.7972C40.7134 14.8219 40.8864 14.7997 41.0229 14.7898C40.5745 14.9377 39.8167 14.9722 39.1953 15.051C39.1782 15.0559 39.1587 15.0633 39.1466 15.0658C39.0856 15.0707 39.0978 15.0658 39.1856 15.051C39.283 15.0116 39.4585 14.9672 39.4439 14.9254C39.0613 14.9993 38.7153 15.0633 38.3717 15.1299C38.011 15.1348 38.418 15.0658 38.2791 15.0412C37.5237 15.1299 36.9364 15.3294 35.9812 15.2949C36.0568 15.2678 36.1396 15.2383 36.2249 15.2087C36.3443 15.1915 36.5538 15.1964 36.6001 15.1619C36.4466 15.1718 36.3224 15.1865 36.2103 15.2062C36.0641 15.221 35.913 15.2358 35.7716 15.2481C35.3306 15.2949 35.4086 15.3886 35.0552 15.396C34.5874 15.4034 34.3315 15.4305 34.0391 15.4748C33.8466 15.4157 34.1731 15.3615 34.1512 15.3122L34.2097 15.3023L34.1439 15.3122C33.7491 15.3344 33.7321 15.3713 33.6712 15.4083C33.5907 15.4551 33.3178 15.4822 33.001 15.46C32.6453 15.4354 32.9694 15.4058 33.1204 15.3812C33.1814 15.3713 33.291 15.3615 33.1911 15.3467C32.4406 15.3615 32.1287 15.4206 31.8241 15.4871L31.8874 15.4945L31.8119 15.4896C31.4537 15.4773 31.132 15.4551 30.9103 15.4108C31.0346 15.4058 31.2929 15.4354 31.2783 15.4009C31.2783 15.4009 31.21 15.3984 31.132 15.4009C31.0516 15.4034 30.959 15.4058 30.903 15.4108C30.5277 15.4108 30.2085 15.4428 29.7723 15.4034C29.5165 15.4305 29.2923 15.3935 29.0632 15.3738L28.9438 15.4009L28.8196 15.3664C28.6197 15.3787 28.4224 15.391 28.225 15.4034C28.0325 15.4157 27.8473 15.4157 27.6767 15.3861C26.9969 15.3565 27.2357 15.3147 27.4233 15.2752C27.4014 15.2703 27.3551 15.2654 27.3599 15.2629C27.3794 15.2531 27.433 15.2555 27.5013 15.2678L28.5759 15.2432C28.2201 15.2062 27.8838 15.2383 27.4915 15.2136C27.0846 15.189 27.07 15.2432 26.9969 15.2752C26.8531 15.3393 26.5363 15.3442 26.0831 15.3073L26.0221 15.2999L26.0758 15.3073C25.9027 15.3565 25.6737 15.3516 25.3935 15.327C25.1352 15.3023 25.1742 15.2629 25.218 15.2062C24.8306 15.2876 25.0864 15.3319 25.0572 15.3837C24.6649 15.4108 24.4261 15.4058 24.2604 15.3787L24.3091 15.3689L24.2409 15.3763C23.1005 15.4724 22.0088 15.6374 20.7758 15.7409C20.5004 15.7631 20.2031 15.805 19.901 15.8543C19.5988 15.9035 19.2918 15.9577 18.9945 16.012C18.3317 16.1278 18.2318 16.1351 18.1758 16.0514C17.9394 16.214 17.2279 16.3372 16.548 16.4628C15.6586 16.6304 14.7984 16.8472 13.926 17.0542C13.1511 17.239 12.3811 17.4213 11.6087 17.6061C11.7403 17.5544 11.9206 17.4952 11.8255 17.4854C11.5478 17.5642 11.6696 17.5667 11.5989 17.6061C11.4698 17.6455 11.3455 17.6899 11.209 17.7268C10.7534 17.85 10.4658 17.9092 10.634 17.7958C10.6851 17.7613 10.7193 17.7293 10.5511 17.7515C10.2538 17.8353 10.3391 17.85 10.2928 17.8845C10.1929 17.9683 9.93218 18.0274 9.51062 18.1605C9.12074 18.296 9.00621 18.2886 8.77959 18.4192C8.67725 18.4833 8.61145 18.5449 8.53835 18.6138C8.46768 18.6853 8.38971 18.7641 8.29711 18.8849C8.08024 19.1633 8.03638 19.5058 8.12166 19.8532C8.17527 20.0774 8.31661 20.2598 8.46525 20.4051C8.5286 20.4593 8.58465 20.5111 8.62607 20.5653C8.90387 20.8092 9.27182 20.9595 9.6617 21.0383C10.054 21.1172 10.4731 21.1295 10.9142 21.1098C11.3772 21.0852 11.6574 21.0753 11.8718 21.0827C12.0863 21.0802 12.2349 21.0999 12.4347 21.132C12.7491 21.0999 12.6662 21.0507 12.9879 21.0211C13.3948 20.9669 13.8213 20.9546 14.2111 20.9004C14.545 20.8536 14.852 20.8363 15.1225 20.755C15.5733 20.6146 16.1532 20.5702 16.6528 20.3928C16.9184 20.2992 16.9379 20.3879 17.279 20.3066C17.3838 20.2031 17.6421 20.1144 18.2196 19.9271C19.5452 19.4861 20.8391 18.9046 22.0137 18.1161C22.6107 17.7096 23.215 17.2981 23.7633 16.8398L23.7218 16.8866L23.7706 16.8349C23.9753 16.6329 24.2116 16.4431 24.3871 16.2312C24.7112 15.8617 24.7234 15.906 24.7648 15.9159L24.7307 15.9627L24.7696 15.9134L24.9816 15.6547L25.1863 15.3787C25.3252 15.1939 25.4714 15.0091 25.6225 14.8219C25.9101 14.44 26.1927 14.0359 26.4632 13.6219C26.6947 13.2671 26.9164 12.9296 27.1284 12.5748C27.1382 12.4885 27.1382 12.4146 27.3429 12.1091C27.7596 11.2837 28.1592 10.4928 28.5637 9.69199C28.6002 9.59344 28.6392 9.51213 28.6831 9.45546C28.7976 9.21153 28.9146 8.96514 29.0291 8.72367C29.2899 8.15451 29.497 7.78492 29.6944 7.62476C29.6944 7.45722 29.67 7.38823 29.882 6.9595C30.0867 6.54803 30.3303 5.96654 30.4912 5.77189C30.6081 5.63145 30.6325 5.56739 30.6618 5.43434C30.7495 5.03272 30.8981 4.88488 31.0346 4.67791C31.0175 4.72719 30.9347 4.87256 30.9688 4.84792L31.0346 4.67545C31.1613 4.33296 31.3245 3.98062 31.4976 3.62828C31.6023 3.41639 31.7071 3.20202 31.8119 2.99013C31.9435 2.71663 32.0702 2.44807 32.1993 2.1795C32.2505 2.05137 32.3017 1.91586 32.3845 1.7631C32.387 1.76063 32.3675 1.81484 32.3553 1.84194C32.3066 1.94789 32.2554 2.05877 32.2067 2.16718L32.0434 2.63286C32.175 2.38647 32.27 2.16718 32.4016 1.84687C32.4211 1.80005 32.4406 1.75078 32.4625 1.7015C32.5795 1.4551 32.677 1.33191 32.7866 1.20625C32.8037 1.18654 32.7647 1.25799 32.8256 1.16683C32.8134 1.18161 32.8012 1.19147 32.7915 1.19886C32.8207 1.14711 32.8548 1.11508 32.8865 1.07812V1.11262C32.8865 1.16436 32.8768 1.22103 32.8695 1.28017C32.8646 1.33684 32.8548 1.40583 32.889 1.40829C32.9158 1.40829 32.945 1.4551 32.9572 1.54873C32.8963 1.80745 32.8232 2.09819 32.7525 2.3569C32.6818 2.62054 32.6282 2.77577 32.6453 2.6304C32.6526 2.56387 32.7013 2.36183 32.7281 2.22631C32.772 2.08094 32.7988 1.9676 32.8061 1.89368V1.86412H32.8037L32.8061 1.86658L32.7988 1.92079C32.7817 2.00702 32.7574 2.10558 32.7306 2.2066C32.577 2.74127 32.5137 3.04187 32.443 3.40407C32.404 3.60611 32.3894 3.70466 32.3675 3.84264C32.3456 3.97323 32.3236 4.10382 32.2944 4.2418C32.2164 4.604 32.1384 4.97358 32.058 5.33824C32.019 5.51318 31.9727 5.74726 31.9386 5.74479C31.8631 5.7374 31.8046 6.03061 31.7705 6.35092C31.7485 6.55049 31.7364 6.71311 31.656 7.01617C31.3903 8.00421 31.1905 9.03166 30.9371 10.0197C30.7714 10.6652 30.6374 11.2837 30.4936 11.9342C30.172 13.3805 29.8893 14.8046 29.5311 16.2756C29.2947 17.2439 29.073 18.2319 28.8512 19.2077C28.7879 19.4861 28.7343 19.73 28.6612 19.9444C28.5759 20.1957 28.5174 20.3361 28.5442 20.0503C28.5808 19.6388 28.6465 19.1904 28.7879 18.5301C29.09 17.1207 29.419 15.7064 29.7382 14.2946C30.0599 12.8754 30.3645 11.4512 30.6934 10.0493C31.0857 8.3664 31.4805 6.68108 31.8728 4.99576L32.4235 2.67967L32.6331 1.80005L32.253 2.58851C30.942 5.31853 29.631 8.05102 28.32 10.7835C27.7815 11.8947 27.2259 13.0035 26.5509 14.0408C25.6615 15.4354 24.5114 16.6674 23.232 17.6652C22.5692 18.1974 21.8431 18.6385 21.1072 19.0549C20.7271 19.2397 20.3567 19.4442 19.9717 19.6142C19.5842 19.7793 19.2041 19.9592 18.8069 20.0971C16.4846 20.9965 13.9748 21.3833 11.5234 21.4819C11.1238 21.4917 10.7241 21.5114 10.3196 21.4892C9.91512 21.4695 9.50331 21.4178 9.10855 21.2798C8.7138 21.1468 8.33854 20.9004 8.07293 20.5628C7.80976 20.2277 7.63187 19.7867 7.69036 19.3284C7.7196 19.1116 7.79514 18.9021 7.91698 18.7198C8.03638 18.5375 8.19233 18.3872 8.36047 18.2615C8.69918 18.0127 9.07931 17.8599 9.45945 17.7416C10.2246 17.5248 10.9678 17.3573 11.7256 17.1675C11.8231 17.1429 11.9181 17.1084 12.0156 17.0788L11.945 17.0911L12.0181 17.0788C12.4494 16.963 12.8855 16.8374 13.3071 16.7733C13.5776 16.7314 13.7993 16.655 14.0381 16.5984C15.0104 16.3692 16.007 16.1302 16.9549 15.9996L16.9062 16.0169L16.9744 15.9996C17.5178 15.8444 18.3147 15.7311 18.7776 15.5832C18.7118 15.5931 18.6314 15.6054 18.5803 15.6103C18.512 15.6153 18.5437 15.6029 18.6339 15.5906C18.6924 15.5832 18.7362 15.5832 18.785 15.5808L19.2358 15.5068C19.2406 15.5142 19.2406 15.5241 19.2358 15.5339L19.1724 15.5537L19.2358 15.5364C19.2577 15.529 19.2991 15.5192 19.2967 15.5167C19.2869 15.5118 19.2577 15.5093 19.2358 15.5068C19.3527 15.465 19.5257 15.4329 19.7255 15.4034C20.0862 15.3516 19.8255 15.4231 19.8912 15.4255C20.0399 15.4329 21.2071 15.2876 21.675 15.2186C21.8528 15.189 22.0137 15.1619 22.2086 15.1397C22.0868 15.1102 22.1696 15.0707 22.5473 15.0707C23.388 15.0683 23.3271 15.0707 24.236 14.9623C24.5065 14.9377 25.1084 14.8736 25.4105 14.9007C26.1537 14.9574 26.9603 14.9401 27.762 14.9623C29.2411 15.0017 30.7154 15.0781 32.1847 15.0978C32.482 15.1003 32.8012 15.1003 33.023 15.1299C33.2009 15.1373 33.3861 15.1422 33.5615 15.1225C33.8563 15.0904 34.217 15.0707 34.5386 15.0683C35.6669 15.0584 36.8365 14.9377 37.955 14.8638C38.184 14.849 38.3887 14.8293 38.6178 14.7997C39.2538 14.7135 39.8922 14.6198 40.5307 14.5927C40.7889 14.5829 41.0546 14.5361 41.2958 14.4966C41.7466 14.4227 42.1828 14.3784 42.6238 14.3414H42.6311C43.2281 14.2921 43.8617 14.2158 44.466 14.1517C44.9802 14.0975 45.6259 14.0236 46.0865 13.9152C46.2522 13.9299 46.1157 13.9644 46.0548 13.9915C46.8151 13.9225 47.5997 13.8092 48.4428 13.7328ZM29.9405 14.2256C29.9234 14.2897 29.9064 14.3562 29.8893 14.4203C29.8771 14.4745 29.8674 14.5311 29.8576 14.5853L29.9112 14.3907L29.9405 14.2256ZM30.2646 12.7103C30.2572 12.7423 30.2524 12.7768 30.2451 12.8113L30.267 12.7497C30.2767 12.7128 30.2889 12.6635 30.2914 12.6413C30.3011 12.5748 30.2889 12.6019 30.2646 12.7103ZM31.9167 2.93346C31.9313 2.90389 31.9508 2.86693 31.9605 2.84722C31.9874 2.77823 32.0142 2.71663 32.0385 2.65257L31.9167 2.93346ZM31.595 3.58147L31.6243 3.5248L31.6048 3.54205L31.595 3.58147ZM28.6027 9.76591L28.6246 9.70431C28.9585 9.05137 28.7002 9.4727 28.6782 9.46531C28.6539 9.51952 28.6319 9.57372 28.6076 9.62547L28.6149 9.7191L28.6027 9.76591ZM28.0934 10.8624C28.0934 10.8673 28.1153 10.8377 28.1251 10.8205C28.1397 10.7909 28.1519 10.7589 28.1641 10.7293C28.1616 10.7244 28.1641 10.7071 28.1568 10.7194C28.1129 10.786 28.0885 10.8426 28.0934 10.8624ZM27.7157 11.6533L27.7401 11.5941L27.7644 11.4833L27.7279 11.6114L27.7157 11.6533ZM27.1431 12.5575L27.2137 12.5255C27.3063 12.3333 27.2357 12.4146 27.2454 12.3653C27.2454 12.3678 27.2454 12.3678 27.243 12.3703L27.2454 12.3653L27.1431 12.5575ZM26.2585 14.063C26.2561 14.0876 26.2829 14.0605 26.3219 13.9965C26.3511 13.9447 26.3779 13.8905 26.3852 13.8634C26.3974 13.8265 26.3609 13.8659 26.3219 13.9324C26.2926 13.9817 26.2804 14.0211 26.2585 14.063ZM25.6152 14.9722C25.6176 14.987 25.6542 14.95 25.7078 14.881C25.7224 14.8613 25.7273 14.8441 25.737 14.8243C25.7273 14.8169 25.7005 14.8514 25.6444 14.9204C25.6298 14.9401 25.6152 14.9672 25.6152 14.9722ZM22.8641 17.6677L22.9177 17.5938L22.9494 17.5593L22.9055 17.6036C22.8885 17.6258 22.7544 17.7367 22.8641 17.6677ZM21.8577 18.3502L21.8772 18.3477L21.9016 18.3231C21.8894 18.333 21.8748 18.3404 21.8577 18.3502ZM18.8654 19.8483L18.919 19.8236L18.9628 19.799L18.8995 19.8261L18.8654 19.8483ZM18.0174 20.1489C18.0442 20.1415 18.0759 20.1366 18.0978 20.1292C18.1806 20.0996 18.1977 20.0823 18.149 20.0922C18.1416 20.0947 18.0929 20.1119 18.0637 20.1218L18.0174 20.1489ZM15.7902 20.6909H15.8316C16.1386 20.6737 16.4383 20.5653 16.7405 20.479L16.799 20.4716L16.7551 20.4741C16.4554 20.5037 16.1581 20.6466 15.8535 20.6835L15.7902 20.6909ZM9.91512 21.1985L9.98823 21.2034L9.92731 21.1911L9.91512 21.1985ZM9.17922 20.9792L9.19628 20.9965L9.23283 20.9989L9.17922 20.9792ZM8.49449 20.4544C8.52617 20.5061 8.57003 20.5382 8.61145 20.5628C8.57247 20.5283 8.53104 20.4938 8.49449 20.4544ZM7.99983 19.1732C7.99495 19.1682 7.97302 19.2249 7.95596 19.2545C7.94865 19.2988 7.94378 19.3752 7.94865 19.3777C7.95353 19.3801 7.97058 19.3087 7.98764 19.2693C7.99251 19.2372 8.0047 19.1781 7.99983 19.1732ZM12.4006 17.3055L12.3811 17.3006L12.3495 17.3154L12.4006 17.3055ZM13.2608 17.0985C13.2413 17.1035 13.2096 17.1133 13.2048 17.1158C13.1853 17.1281 13.1731 17.138 13.1585 17.1503L13.1 17.17L13.1706 17.1478L13.2608 17.0985ZM14.7545 16.7905C14.5084 16.8275 14.4231 16.8398 14.3305 16.8595C14.2404 16.8793 14.0722 16.9211 14.0576 16.9285C14.0235 16.9507 14.1283 16.9359 14.2355 16.9137C14.3257 16.894 14.4256 16.8694 14.7545 16.7905ZM15.9047 16.5171C15.9144 16.5097 15.8462 16.5171 15.8145 16.5171C15.7414 16.5318 15.6903 16.5466 15.6976 16.5565C15.7024 16.5614 15.7414 16.5614 15.7658 16.5639C15.817 16.5466 15.8949 16.5244 15.9047 16.5171ZM16.8891 16.3249L16.8355 16.3347L16.8623 16.3372L16.8891 16.3249ZM17.3473 16.182L17.3253 16.177L17.2912 16.1918L17.3473 16.182ZM20.7149 15.6251C20.71 15.6227 20.6613 15.63 20.632 15.6325C20.6077 15.6374 20.5662 15.6473 20.5662 15.6498C20.5614 15.6621 20.6125 15.6571 20.6905 15.6399C20.7124 15.635 20.7222 15.6276 20.7149 15.6251ZM22.7983 15.3713L22.7788 15.3639L22.7423 15.3763L22.7983 15.3713ZM24.3164 15.2703L24.2579 15.2654L24.2019 15.2605L24.2457 15.2678L24.3164 15.2703ZM24.4188 15.0978L24.3993 15.0904L24.3651 15.1003L24.4188 15.0978ZM26.6484 15.2481C26.6508 15.2481 26.5899 15.2407 26.5802 15.2407C26.5339 15.2457 26.4949 15.2481 26.451 15.2531L26.5802 15.2654C26.6045 15.2605 26.6338 15.2531 26.6484 15.2481ZM27.7742 15.3344C27.7523 15.3418 27.723 15.3492 27.706 15.3565C27.6913 15.3639 27.6865 15.3738 27.6791 15.3812C27.7279 15.3763 27.7912 15.3738 27.8205 15.3664C27.8619 15.3565 27.9204 15.3442 27.7742 15.3344ZM29.0608 15.3713C28.995 15.359 28.9243 15.3541 28.8488 15.3639L29.0608 15.3713ZM29.2557 15.2925C29.1948 15.2284 28.917 15.2654 28.7343 15.2605C28.8317 15.3048 29.0316 15.3023 29.2557 15.2925ZM29.5018 15.3541C29.4945 15.3368 29.4799 15.3221 29.3532 15.3073C29.3337 15.3245 29.3776 15.3418 29.5018 15.3541ZM30.306 15.2703L30.2329 15.2728C30.1305 15.2752 30.0087 15.2728 29.9332 15.2802C29.8649 15.2851 29.9307 15.2974 30.0087 15.2949C30.1013 15.2925 30.1695 15.2826 30.2475 15.2752L30.306 15.2703ZM30.7519 15.3147L30.691 15.3196C30.6642 15.327 30.4887 15.3245 30.6203 15.3442L30.708 15.3221L30.7519 15.3147ZM35.3208 15.1594L35.2502 15.1668H35.3208V15.1594ZM43.9835 14.4252C43.9567 14.4276 43.9226 14.4301 43.908 14.4326C43.8617 14.4424 43.8178 14.4523 43.774 14.4621L43.9835 14.4252ZM46.0499 14.0285V14.0014C46.0256 14.0063 45.9866 14.0137 45.989 14.0162C45.9988 14.0211 46.028 14.0236 46.0499 14.0285ZM47.3975 13.9447L47.473 13.9324L47.3999 13.9373L47.3975 13.9447Z" fill="#030303"/>
<path d="M47.8774 13.9245C48.355 13.9147 48.8327 13.8506 49.4565 13.7422C48.8351 13.7964 48.355 13.821 47.8774 13.9245Z" fill="#030303"/>
<path d="M49.7781 13.6015C49.7147 13.6138 49.6124 13.6286 49.5978 13.6335C49.5612 13.6532 49.6562 13.6532 49.7805 13.6384C49.8414 13.631 49.956 13.6113 49.9633 13.6064C49.9925 13.5892 49.895 13.5916 49.7781 13.6015Z" fill="#030303"/>
<path d="M35.7254 15.3733C35.6547 15.3906 35.7107 15.398 35.8326 15.393C35.9447 15.3881 36.0373 15.3758 36.086 15.3585C36.0616 15.3536 36.0519 15.3438 36.0056 15.3438C35.8935 15.3438 35.7863 15.3585 35.7254 15.3733Z" fill="#030303"/>
<path d="M45.4262 7.15287C45.4847 7.13069 45.6139 7.13069 45.7284 7.14548C45.8429 7.1578 45.938 7.1849 45.9355 7.15779C46.2767 7.29824 46.5593 7.59884 46.6471 7.97335C46.7372 8.34541 46.6666 8.74456 46.4862 9.0969C46.3936 9.28909 46.2547 9.56505 46.15 9.76216C45.9964 10.0283 45.8161 10.1712 45.6724 10.2426C45.5067 10.3757 45.3702 10.4742 45.185 10.6319C44.8365 10.9375 44.3053 11.2011 43.7497 11.4228C43.835 11.3267 44.2785 11.1765 44.3565 11.0828C44.0836 11.1765 43.8521 11.2923 43.6084 11.3859C43.567 11.3834 43.567 11.3612 43.3989 11.4155C43.3794 11.4204 43.3428 11.4376 43.3428 11.4401C43.3526 11.4623 43.4939 11.4204 43.606 11.3859C43.2575 11.6052 42.624 11.7333 42.0879 11.8269C42.0733 11.8319 42.0562 11.8392 42.0464 11.8417C41.9928 11.8466 42.005 11.8417 42.0806 11.8269C42.1658 11.7875 42.3121 11.7333 42.295 11.6914C41.9758 11.785 41.6736 11.8466 41.3568 11.8442C41.0401 11.7678 41.4105 11.7949 41.2935 11.7407C41.1302 11.721 40.9743 11.6889 40.8256 11.6347C40.677 11.5855 40.5259 11.4968 40.4065 11.376C40.2847 11.2553 40.1872 11.1025 40.1263 10.9202C40.0678 10.7403 40.0532 10.5186 40.1312 10.3018C40.1312 10.3781 40.1458 10.4619 40.1677 10.5383C40.1677 10.6442 40.1945 10.829 40.2335 10.8611C40.1994 10.7329 40.1823 10.6245 40.1701 10.526C40.1701 10.3954 40.1969 10.2599 40.253 10.1441C40.348 9.96666 40.4089 9.89521 40.4601 9.82869C40.5137 9.76462 40.5722 9.70549 40.7477 9.67346C40.9816 9.64389 41.157 9.68824 41.3008 9.73752C41.447 9.7868 41.5688 9.8484 41.6907 9.93217C41.737 10.0233 41.6907 10.0159 41.6371 9.9987C41.581 9.98391 41.5128 9.95927 41.5055 9.98638L41.4592 9.9642L41.5104 9.9913C41.6493 10.0923 41.7102 10.1638 41.754 10.2007C41.7979 10.2377 41.8223 10.2426 41.8539 10.2599C41.9319 10.2968 42.0781 10.5358 42.0903 10.8315C42.0976 11.1592 42.0489 10.8635 41.9977 10.7379C41.9758 10.6861 41.9465 10.595 41.9514 10.6837C42.0294 11.004 42.027 11.2405 42.0367 11.4253C42.0391 11.6126 42.044 11.753 42.0416 11.8935L42.0611 11.8392C42.0538 11.8614 42.0464 11.8836 42.0391 11.9033C41.9465 12.2138 41.8076 12.4749 41.6761 12.6252C41.7272 12.5267 41.8442 12.3271 41.8052 12.3246C41.8028 12.3246 41.7808 12.3788 41.754 12.4429C41.7272 12.507 41.6931 12.5809 41.6736 12.6302C41.5152 12.9209 41.3739 13.1821 41.0717 13.4309C40.9255 13.6108 40.7477 13.7143 40.5454 13.803C40.5162 13.8301 40.4869 13.8523 40.4528 13.8769C40.4114 13.8843 40.37 13.8868 40.3261 13.8892C40.1482 13.9631 39.8997 13.9829 39.6877 13.8671C39.4781 13.7611 39.3538 13.5369 39.3441 13.357C39.2856 13.0071 39.3465 12.9111 39.3563 12.9086C39.3758 12.9086 39.3904 13.0096 39.4147 13.0934C39.4172 13.0737 39.422 13.0293 39.4245 13.0342C39.4342 13.0515 39.4318 13.1008 39.4269 13.1624C39.4489 13.325 39.5073 13.495 39.6219 13.6207C39.7413 13.7463 39.9094 13.8128 40.0727 13.803C39.9118 13.7882 39.7632 13.7241 39.6511 13.6059C39.5415 13.4876 39.483 13.3201 39.4781 13.1476C39.4854 12.7928 39.4659 12.7755 39.4367 12.7041C39.4172 12.6351 39.4172 12.5267 39.4562 12.3887C39.4927 12.2581 39.5536 12.1029 39.6389 11.9255L39.6633 11.8787L39.6389 11.9181C39.6487 11.7604 39.7266 11.5731 39.8558 11.3637C39.9752 11.174 39.9971 11.2233 40.0288 11.2799C40.1141 10.9498 39.9703 11.1222 39.9386 11.0754C40.08 10.76 40.1969 10.5851 40.2968 10.4792L40.2822 10.521L40.309 10.4668L40.4138 10.2771L40.7257 10.4496C40.3578 11.2923 39.8997 12.0906 39.2003 12.8125C39.0297 12.9899 38.8494 13.1747 38.6667 13.3644C38.5667 13.463 38.4595 13.5566 38.3304 13.6404C38.2012 13.7217 38.0477 13.7907 37.8698 13.7981C37.67 13.8079 37.5189 13.7315 37.4215 13.6601C37.324 13.5837 37.2728 13.5122 37.2436 13.458C37.1875 13.3472 37.2022 13.3028 37.2338 13.2659C37.1266 13.1796 37.0291 12.9455 37.0145 12.6622C37.0048 12.3838 37.0413 12.0709 37.1144 11.7678C37.2095 11.3736 37.3435 10.9941 37.5287 10.6393C37.5725 10.5506 37.6213 10.4619 37.6725 10.3781C37.7285 10.2845 37.7577 10.2352 37.8698 10.08C38.0672 9.8139 38.2719 9.60447 38.4766 9.40243C38.5692 9.31126 38.6788 9.20039 38.769 9.11908L38.7324 9.83361L38.6983 10.1983L38.6423 10.5605C38.5814 10.8906 38.501 11.1641 38.3986 11.4573C38.423 11.3341 38.4571 11.1715 38.4035 11.238C38.3353 11.4795 38.3962 11.3933 38.3937 11.4672C38.3621 11.583 38.3328 11.6939 38.2865 11.8121C38.133 12.2014 37.9868 12.4183 38.0087 12.2384C38.0136 12.1842 38.0087 12.1423 37.9259 12.263C37.8065 12.502 37.865 12.4577 37.8625 12.5119C37.8552 12.6277 37.7456 12.8347 37.5019 13.1574C37.2582 13.4654 37.1388 13.4876 36.9487 13.6527C36.8586 13.7266 36.7879 13.7857 36.7026 13.8473C36.6149 13.9065 36.5101 13.973 36.3274 14.0124C36.1227 14.0568 35.8912 14.0469 35.6841 13.9631C35.4769 13.8843 35.2966 13.7192 35.1943 13.5196C35.0651 13.2732 34.9969 13.0416 34.9555 12.8199C34.9335 12.7336 34.9287 12.6523 34.9408 12.5784C34.9335 12.1793 34.9993 11.8269 35.0359 11.4647C35.0822 11.1025 35.1285 10.7354 35.1723 10.3535C35.2722 9.55273 35.3307 9.38518 35.4867 9.0698C35.5354 8.80123 35.4623 8.85544 35.5208 8.57948C35.5988 8.2296 35.7084 7.8748 35.8108 7.54709C35.9009 7.26867 35.996 7.01982 36.0447 6.77835C36.1275 6.3718 36.3517 5.91844 36.4857 5.47987C36.554 5.24333 36.6246 5.27536 36.7635 5.00433C36.7489 4.8762 36.8196 4.64706 37.0486 4.16659C37.2168 3.82165 37.3922 3.48162 37.575 3.1416L38.0623 3.28451C37.9917 4.12471 37.8747 4.96244 37.7309 5.80264C37.6188 6.42601 37.4531 7.04692 37.2558 7.63826L37.2631 7.58405L37.2533 7.64565C37.1948 7.89204 37.1144 8.1409 37.0535 8.37497C36.939 8.78891 36.9049 8.75442 36.8659 8.76181L36.8756 8.71253L36.8634 8.76674C36.688 9.51577 36.3493 10.3141 35.9521 11.073C35.8644 11.2331 35.7766 11.3883 35.6914 11.546L35.4136 11.9994C35.4087 12.0758 35.4136 12.1423 35.2235 12.3961C35.031 12.746 34.8287 13.0638 34.6021 13.394C34.4803 13.5566 34.3414 13.7118 34.1708 13.8449C34.0027 13.973 33.7882 14.0937 33.5324 14.0913C33.4154 14.1036 33.3155 14.0765 33.2473 14.0371C32.9597 13.9262 32.7892 13.6823 32.682 13.458C32.5552 13.187 32.5211 12.9406 32.5236 12.7484C32.526 12.5562 32.565 12.4109 32.621 12.3148C32.5528 12.1842 32.5016 12.13 32.5455 11.7259C32.5869 11.3366 32.6162 10.8019 32.7039 10.6024C32.7672 10.4594 32.7697 10.4003 32.7526 10.2845C32.7063 9.93463 32.8014 9.77941 32.8696 9.57737C32.8696 9.62172 32.8355 9.7597 32.8598 9.73259L32.8696 9.5749C32.8964 8.95153 33.0865 8.27395 33.2156 7.6358C33.2205 7.5742 33.2205 7.51999 33.2522 7.41404C33.2522 7.41158 33.257 7.42883 33.2546 7.44361C33.2424 7.50274 33.2302 7.56681 33.218 7.62594L33.2254 7.84277C33.2814 7.65304 33.3033 7.50521 33.3228 7.34505C33.3521 7.09866 33.4032 6.81285 33.5007 6.48761C33.5202 6.43833 33.5153 6.53196 33.5494 6.38166L33.5007 6.48022C33.5056 6.39152 33.5299 6.27078 33.5762 6.16483C33.6445 6.00468 33.7078 5.93323 33.7225 5.66466C33.7273 5.49958 33.8467 5.10781 33.9783 4.80721C34.0295 4.68648 34.0758 4.62242 34.0514 4.73083C34.0417 4.78011 33.9978 4.89838 33.9734 4.98462C33.9418 5.04621 33.9198 5.11028 33.9076 5.17927L33.9003 5.22362L33.9125 5.16695C33.9271 5.11028 33.9491 5.05361 33.9686 5.00186C34.2049 4.4943 34.2805 4.09514 34.5193 3.67135C34.5412 3.63192 34.551 3.60729 34.5851 3.55801L34.6777 3.41756C34.7361 3.32147 34.819 3.23277 34.8897 3.13668C34.9628 3.05044 35.0383 2.97159 35.1139 2.89521C35.1894 2.82622 35.2601 2.75723 35.338 2.69071C35.4769 2.56751 35.723 2.35808 35.6694 2.45417C35.572 2.65128 35.5232 2.8755 35.5037 3.1416C35.4964 3.22538 35.494 3.30422 35.4818 3.40524C35.4599 3.52598 35.4233 3.6812 35.36 3.88078C35.0944 4.72344 34.8775 5.57103 34.5802 6.38659C34.3926 6.92126 34.2147 7.4239 34.0271 7.95611C33.6006 9.13632 33.1644 10.287 32.6089 11.4426C32.2409 12.2014 31.8656 12.9726 31.4684 13.7217C31.3564 13.936 31.254 14.1208 31.1444 14.2785C31.0152 14.4633 30.9299 14.5594 31.0128 14.3303C31.1297 14.0001 31.2833 13.6478 31.5342 13.1402C32.0776 12.0536 32.5967 10.9448 33.067 9.81883C33.5397 8.68789 33.9564 7.53231 34.3414 6.38166C34.5753 5.69176 34.7873 4.99447 34.9896 4.29472L35.1285 3.79208L35.2211 3.4422L35.2674 3.26726L35.2893 3.17856L35.3015 3.13421C35.3015 3.13175 35.3039 3.12682 35.3039 3.12436L35.2942 3.13175L35.2771 3.14653C35.1821 3.21799 35.0968 3.30176 35.0164 3.39046C34.9603 3.45452 34.9067 3.52105 34.8555 3.59004L34.7751 3.70831L34.6801 3.866C34.5534 4.08529 34.4437 4.31689 34.3438 4.55343C34.1489 5.0265 34.0002 5.52175 33.8565 6.01946C33.5714 7.01489 33.3374 8.0251 33.1547 9.0427C32.9719 10.0628 32.8379 11.0927 32.7575 12.1226C32.7234 12.6277 32.7429 13.1722 33.0377 13.5738C33.1108 13.6699 33.2034 13.7512 33.3082 13.7981C33.4154 13.8399 33.5348 13.8523 33.6469 13.8252C33.8784 13.7685 34.0734 13.5936 34.2342 13.4038C34.3999 13.2116 34.5266 12.985 34.6679 12.7657C34.8093 12.5464 34.936 12.3197 35.0676 12.0955C35.1967 11.8713 35.3161 11.6397 35.4428 11.4105C35.5573 11.1765 35.6792 10.9473 35.7888 10.7132C36.3858 9.4591 36.8537 8.12612 37.1656 6.79313C37.4483 5.63016 37.6335 4.44748 37.7187 3.2648L37.8723 3.30915C37.7675 3.52105 37.6578 3.72555 37.5579 3.93745C36.649 5.82481 35.9643 7.85262 35.628 9.9026C35.5159 10.5703 35.4258 11.238 35.36 11.9082C35.321 12.2433 35.3064 12.5686 35.36 12.8815C35.4087 13.1919 35.5573 13.4704 35.8035 13.5788C36.0374 13.6921 36.3152 13.6281 36.5637 13.4778C36.8123 13.325 37.0316 13.1082 37.2143 12.8519C37.5945 12.3443 37.8942 11.7678 38.0867 11.1567C38.1086 11.0779 38.1257 10.9941 38.1403 10.9128C38.1598 10.8241 38.1817 10.7329 38.1964 10.6442L38.2207 10.5137L38.2256 10.4718C38.2329 10.42 38.2378 10.4028 38.2646 10.3141C38.2743 10.2796 38.2792 10.2525 38.2792 10.2328C38.2524 10.2476 38.211 10.319 38.189 10.3412C38.172 10.3634 38.1549 10.3831 38.1403 10.4052L38.1184 10.4397L38.038 10.5629C37.9308 10.7354 37.8382 10.9177 37.7553 11.1001C37.592 11.4697 37.4824 11.8565 37.4093 12.2409L37.4068 12.199V12.2556C37.4044 12.4897 37.3874 12.7657 37.458 12.9948C37.4921 13.1082 37.5433 13.2116 37.6042 13.2683C37.6651 13.3299 37.7309 13.3447 37.787 13.3398C37.7577 13.3324 37.7261 13.3176 37.709 13.3028C37.6871 13.2806 37.7041 13.2856 37.7334 13.3053C37.7553 13.3151 37.7699 13.3299 37.7894 13.3398C37.8528 13.3546 37.9283 13.3422 38.016 13.3053C38.0209 13.3127 38.0233 13.3201 38.0233 13.3324L37.9892 13.3546L38.0282 13.3299C38.0404 13.3201 38.0648 13.3053 38.0599 13.3053C38.0526 13.3028 38.0331 13.3053 38.0185 13.3028C38.077 13.2535 38.172 13.1845 38.2865 13.0835C38.4912 12.8938 38.3645 13.0564 38.4084 13.0342C38.462 13.0047 38.6667 12.8199 38.8738 12.5907C39.0833 12.3641 39.2953 12.093 39.4026 11.9279C39.4854 11.8023 39.5561 11.6865 39.6462 11.551C39.5561 11.6052 39.5756 11.5337 39.7705 11.2923C40.1482 10.8044 40.1604 10.7699 40.37 10.2771L40.7501 10.489C40.7208 10.5457 40.6892 10.6122 40.6502 10.6861C40.5454 10.8882 40.348 11.3415 40.2262 11.5584C40.0678 11.822 39.9386 12.1201 39.8314 12.4306C39.7242 12.7213 39.6779 13.054 39.7535 13.3028C39.8217 13.5246 40.0117 13.6108 40.2505 13.532C40.4869 13.4556 40.7282 13.256 40.9353 13.054C41.3471 12.6376 41.6322 12.0906 41.7321 11.5091C41.776 11.275 41.7735 11.0262 41.776 10.8512C41.7638 10.7132 41.7297 10.5703 41.6566 10.4619C41.5932 10.3683 41.5225 10.2771 41.4348 10.2057C41.3447 10.1317 41.2423 10.0726 41.1375 10.0332C40.9548 9.9642 40.7477 9.97159 40.5966 10.0726C40.4455 10.1761 40.3626 10.3584 40.3724 10.5654C40.3773 10.7699 40.4577 10.9818 40.5844 11.1469C40.7062 11.3169 40.8841 11.4228 41.0912 11.4968C41.2569 11.5559 41.4226 11.5756 41.6054 11.5682C42.1171 11.5436 42.6361 11.376 43.16 11.2775C43.372 11.2331 43.5816 11.1518 43.7668 11.068C44.1128 10.9153 44.4467 10.7699 44.7683 10.5999L44.7732 10.5974C45.2118 10.3683 45.6236 10.0283 45.938 9.64143C46.0671 9.47388 46.2036 9.27184 46.2986 9.05994C46.3912 8.84805 46.4399 8.6189 46.4302 8.43657C46.4741 8.31337 46.4838 8.42179 46.496 8.47599C46.5423 8.17047 46.4862 7.83784 46.2815 7.59391C46.089 7.3352 45.7698 7.19722 45.4262 7.15287ZM33.2765 9.78926C33.2522 9.84101 33.2254 9.89028 33.2034 9.94449C33.1839 9.98884 33.1717 10.0332 33.1547 10.0775L33.2278 9.92231L33.2765 9.78926ZM33.7444 8.56469C33.7346 8.5918 33.7273 8.6189 33.7176 8.64847L33.7444 8.60165C33.7566 8.57209 33.7736 8.53266 33.7785 8.51542C33.7956 8.45628 33.7809 8.47599 33.7444 8.56469ZM33.2034 8.02756C33.2083 8.00538 33.218 7.97828 33.218 7.9635C33.2229 7.92161 33.2254 7.88219 33.2302 7.84277L33.2034 8.02756ZM33.0865 8.54498L33.0986 8.49078L33.0865 8.51049V8.54498ZM33.5787 14.0198L33.5129 14.0297C33.3253 14.0174 33.2278 13.9582 33.1742 13.936C33.123 13.9089 33.1157 13.9089 33.1254 13.9237C33.1425 13.9558 33.2546 14.0297 33.2546 14.0371C33.318 14.0568 33.3789 14.074 33.4422 14.074C33.4739 14.0617 33.5031 14.0494 33.53 14.0321L33.5787 14.0198ZM34.4681 13.394C34.4681 13.3891 34.4437 13.4112 34.434 13.4235C34.4169 13.4457 34.3999 13.4704 34.3828 13.495C34.3853 13.4999 34.3779 13.5147 34.3877 13.5073C34.4364 13.458 34.4681 13.4112 34.4681 13.394ZM34.8677 12.7583L34.8434 12.8076L34.8166 12.9012L34.8531 12.7928L34.8677 12.7583ZM35.4038 12.0142L35.338 12.0388C35.2576 12.2039 35.321 12.1349 35.3137 12.1793C35.3453 12.1251 35.3746 12.0709 35.4038 12.0142ZM36.0739 10.6689C36.0715 10.6467 36.052 10.6738 36.0276 10.7329C36.0081 10.7798 35.9935 10.8315 35.9911 10.8561C35.9862 10.8882 36.013 10.8512 36.0374 10.7921C36.0569 10.7453 36.0617 10.7108 36.0739 10.6689ZM36.4516 9.78433C36.4443 9.77202 36.4224 9.81144 36.3956 9.88289C36.3883 9.9026 36.3883 9.91739 36.3834 9.9371C36.3931 9.94203 36.4126 9.90753 36.4419 9.83608C36.4492 9.81637 36.4541 9.78926 36.4516 9.78433ZM37.4531 6.59602L37.458 6.67487L37.4556 6.71675L37.4629 6.66255C37.4629 6.63544 37.4946 6.49007 37.4531 6.59602ZM37.6725 5.5661L37.6603 5.58089L37.6627 5.61292L37.6725 5.5661ZM37.4239 3.72309L37.4434 3.67381L37.458 3.63192L37.4336 3.68859L37.4239 3.72309ZM37.0876 4.42284C37.0998 4.40067 37.1144 4.37849 37.1217 4.35878C37.151 4.28979 37.1534 4.26762 37.1266 4.30457C37.1242 4.3095 37.1071 4.35139 37.0974 4.37603L37.0876 4.42284ZM36.2957 6.24122L36.3152 6.21165C36.437 5.97511 36.515 5.7164 36.6027 5.45769L36.6271 5.41334L36.6051 5.44537C36.4736 5.67205 36.42 5.95047 36.3176 6.19194L36.2957 6.24122ZM35.1796 11.2282L35.1845 11.1641L35.1723 11.2159L35.1796 11.2282ZM35.0554 11.9058L35.0651 11.8885L35.0602 11.8565L35.0554 11.9058ZM34.9603 12.7558C34.9628 12.6918 34.9603 12.6376 34.9457 12.5883C34.9506 12.6449 34.953 12.6992 34.9603 12.7558ZM35.8912 13.8769C35.8936 13.8695 35.8351 13.8547 35.8083 13.835C35.7669 13.8252 35.6938 13.803 35.6889 13.803C35.6816 13.8079 35.7523 13.8449 35.7888 13.8646C35.8254 13.8769 35.8887 13.8818 35.8912 13.8769ZM38.5034 10.7132L38.4912 10.7256L38.4936 10.7551L38.5034 10.7132ZM38.6277 9.7868C38.6277 9.80651 38.6252 9.841 38.6277 9.84593C38.6325 9.85825 38.6399 9.86318 38.6472 9.87057L38.6496 9.93217V9.85332L38.6277 9.7868ZM37.7967 10.3042C37.8357 10.2549 37.8698 10.2106 37.8991 10.1761C37.9332 10.1367 37.9624 10.1046 37.9868 10.0751C38.0355 10.0184 38.0696 9.97898 38.1038 9.93956C38.172 9.86811 38.2987 9.72274 38.3133 9.70056C38.3474 9.64636 38.2695 9.71042 38.1817 9.80405C38.1452 9.84593 38.1038 9.88043 38.0428 9.9642C38.0112 10.0036 37.9746 10.0529 37.9308 10.1096C37.8845 10.1662 37.8308 10.2525 37.7967 10.3042ZM37.3532 11.2405C37.3557 11.2504 37.3825 11.1986 37.3971 11.174C37.419 11.1124 37.4361 11.0705 37.4239 11.0705C37.4166 11.0705 37.3971 11.1001 37.3825 11.1149C37.3703 11.1592 37.3508 11.2282 37.3532 11.2405ZM37.1339 12.0906L37.1412 12.0413L37.1291 12.0635L37.1339 12.0906ZM37.1461 12.5144L37.1559 12.4971L37.1485 12.4651L37.1461 12.5144ZM39.0907 12.7608C39.0882 12.7632 39.059 12.7928 39.0419 12.81C39.0297 12.8273 39.0078 12.8568 39.0102 12.8593C39.0151 12.8716 39.0468 12.8396 39.0858 12.7829C39.0931 12.7681 39.0955 12.7583 39.0907 12.7608ZM40.1385 11.2972L40.1214 11.307L40.1117 11.3391L40.1385 11.2972ZM40.3675 10.5777L40.3992 10.5383L40.4284 10.5013L40.4016 10.5284L40.3675 10.5777ZM40.465 10.7428L40.4796 10.7329L40.4869 10.7034L40.465 10.7428ZM39.5366 12.4035C39.5366 12.4059 39.5585 12.3591 39.5609 12.3493C39.5683 12.3099 39.578 12.2754 39.5853 12.2409L39.539 12.3419C39.5366 12.3641 39.5341 12.3887 39.5366 12.4035ZM39.4245 13.4334C39.4099 13.4137 39.3952 13.394 39.3806 13.3743C39.3684 13.3619 39.3587 13.3595 39.3489 13.3521C39.3636 13.4014 39.3952 13.4654 39.4123 13.4901C39.4415 13.527 39.4732 13.5763 39.4245 13.4334ZM40.543 13.7981C40.482 13.8153 40.4211 13.8424 40.3529 13.8744C40.4187 13.8523 40.482 13.8276 40.543 13.7981ZM40.6526 13.6354C40.5771 13.6157 40.3919 13.7759 40.2213 13.803C40.3188 13.8326 40.4991 13.7586 40.6526 13.6354ZM40.8622 13.5517C40.8476 13.5418 40.8281 13.5394 40.7306 13.5985C40.7282 13.6231 40.7696 13.6108 40.8622 13.5517ZM41.2813 12.9874C41.2691 13.0047 41.2594 13.0219 41.2448 13.0392C41.1887 13.1082 41.1278 13.1845 41.0839 13.2412C41.0474 13.288 41.0961 13.256 41.1375 13.2043C41.1911 13.1427 41.2155 13.0909 41.2545 13.0342L41.2813 12.9874ZM41.5299 12.6918L41.5055 12.7386C41.503 12.7632 41.4153 12.8913 41.4957 12.8051L41.5152 12.7287L41.5299 12.6918ZM40.5917 9.95188C40.6063 9.94203 40.6234 9.93463 40.6404 9.92478L40.5893 9.94449L40.5917 9.95188ZM45.8088 10.0948C45.7918 10.1096 45.7698 10.1317 45.7601 10.1416C45.7333 10.1761 45.7089 10.2032 45.6821 10.2328C45.7284 10.1909 45.7674 10.1416 45.8088 10.0948ZM46.5252 8.47846L46.5009 8.47353C46.5009 8.49324 46.4984 8.52773 46.5009 8.52527C46.5082 8.51542 46.5179 8.4957 46.5252 8.47846ZM46.2645 7.41404C46.2474 7.39926 46.2328 7.38448 46.2133 7.37216C46.2304 7.38448 46.2426 7.40172 46.2572 7.41897L46.2645 7.41404Z" fill="#030303"/>
<path d="M45.933 7.15744C45.5577 6.95047 45.102 6.94554 44.5781 7.05642C45.1093 6.99975 45.5212 7.03671 45.933 7.15744Z" fill="#030303"/>
<path d="M44.315 7.2027C44.3662 7.19038 44.4539 7.17067 44.4637 7.16328C44.4929 7.1411 44.4125 7.14603 44.3102 7.16328C44.259 7.17313 44.1664 7.19777 44.1591 7.20517C44.1347 7.22488 44.2176 7.21748 44.315 7.2027Z" fill="#030303"/>
<path d="M40.1799 10.029C40.2092 9.95506 40.1653 9.99694 40.102 10.1152C40.0508 10.2261 40.0386 10.3271 40.0435 10.3788C40.0557 10.3542 40.0678 10.3468 40.08 10.3025C40.1093 10.1916 40.1556 10.0906 40.1799 10.029Z" fill="#030303"/>
</svg>
