<svg width="25" height="25" viewBox="0 0 25 25" fill="none" xmlns="http://www.w3.org/2000/svg">
<path opacity="0.4" d="M12.6667 19.5C16.5327 19.5 19.6667 16.366 19.6667 12.5C19.6667 8.63401 16.5327 5.5 12.6667 5.5C8.80075 5.5 5.66675 8.63401 5.66675 12.5C5.66675 16.366 8.80075 19.5 12.6667 19.5Z" fill="white"/>
<path d="M12.6667 23.46C12.1167 23.46 11.6667 23.05 11.6667 22.5V22.42C11.6667 21.87 12.1167 21.42 12.6667 21.42C13.2167 21.42 13.6667 21.87 13.6667 22.42C13.6667 22.97 13.2167 23.46 12.6667 23.46ZM19.8067 20.64C19.5467 20.64 19.2967 20.54 19.0967 20.35L18.9667 20.22C18.5767 19.83 18.5767 19.2 18.9667 18.81C19.3567 18.42 19.9867 18.42 20.3767 18.81L20.5067 18.94C20.8967 19.33 20.8967 19.96 20.5067 20.35C20.3167 20.54 20.0667 20.64 19.8067 20.64ZM5.52675 20.64C5.26675 20.64 5.01675 20.54 4.81675 20.35C4.42675 19.96 4.42675 19.33 4.81675 18.94L4.94675 18.81C5.33675 18.42 5.96675 18.42 6.35675 18.81C6.74675 19.2 6.74675 19.83 6.35675 20.22L6.22675 20.35C6.03675 20.54 5.77675 20.64 5.52675 20.64ZM22.6667 13.5H22.5867C22.0367 13.5 21.5867 13.05 21.5867 12.5C21.5867 11.95 22.0367 11.5 22.5867 11.5C23.1367 11.5 23.6267 11.95 23.6267 12.5C23.6267 13.05 23.2167 13.5 22.6667 13.5ZM2.74675 13.5H2.66675C2.11675 13.5 1.66675 13.05 1.66675 12.5C1.66675 11.95 2.11675 11.5 2.66675 11.5C3.21675 11.5 3.70675 11.95 3.70675 12.5C3.70675 13.05 3.29675 13.5 2.74675 13.5ZM19.6767 6.49C19.4167 6.49 19.1667 6.39 18.9667 6.2C18.5767 5.81 18.5767 5.18 18.9667 4.79L19.0967 4.66C19.4867 4.27 20.1167 4.27 20.5067 4.66C20.8967 5.05 20.8967 5.68 20.5067 6.07L20.3767 6.2C20.1867 6.39 19.9367 6.49 19.6767 6.49ZM5.65675 6.49C5.39675 6.49 5.14675 6.39 4.94675 6.2L4.81675 6.06C4.42675 5.67 4.42675 5.04 4.81675 4.65C5.20675 4.26 5.83675 4.26 6.22675 4.65L6.35675 4.78C6.74675 5.17 6.74675 5.8 6.35675 6.19C6.16675 6.39 5.90675 6.49 5.65675 6.49ZM12.6667 3.54C12.1167 3.54 11.6667 3.13 11.6667 2.58V2.5C11.6667 1.95 12.1167 1.5 12.6667 1.5C13.2167 1.5 13.6667 1.95 13.6667 2.5C13.6667 3.05 13.2167 3.54 12.6667 3.54Z" fill="white"/>
</svg>
