<svg width="36" height="37" viewBox="0 0 36 37" fill="none" xmlns="http://www.w3.org/2000/svg">
<circle cx="18" cy="18.5" r="18" fill="#2E37A4"/>
<path d="M19.4985 7.72651C17.866 7.93659 16.3297 8.80755 15.2006 10.1599C14.3033 11.2366 13.7606 12.3308 13.4937 13.6C13.393 14.0727 13.3799 14.2609 13.3755 14.9174C13.3755 15.8015 13.4455 16.2873 13.6862 17.0401C14.3865 19.2415 16.1284 20.9791 18.4393 21.7844C18.8945 21.9419 19.0083 21.9507 19.1264 21.8325C19.2621 21.6969 19.2402 21.4868 19.0652 21.2592C17.1307 18.7207 16.9337 15.6001 18.5618 13.1667C19.4722 11.8056 20.9121 10.8602 22.6409 10.4882C23.0173 10.4094 23.2318 10.3919 23.9845 10.3919C24.5404 10.3875 25.0349 10.4094 25.2844 10.4488C25.6521 10.5013 25.7002 10.5013 25.7965 10.4357C25.9278 10.3525 25.9847 10.1775 25.919 10.0418C25.8052 9.78355 24.5754 8.9301 23.7001 8.50119C22.549 7.93222 21.538 7.6915 20.3388 7.70025C19.9493 7.70463 19.5729 7.71776 19.4985 7.72651Z" fill="white"/>
<path d="M20.0019 15.1145C19.1441 15.2239 19.0391 15.272 19.0391 15.5609C19.0391 15.7535 19.1091 15.806 19.6343 16.0161C20.7635 16.4669 21.8576 17.2722 22.6061 18.2C23.2144 18.9528 23.6389 19.8544 23.8622 20.8611C23.9978 21.4738 23.9978 22.7605 23.8622 23.3733C23.6652 24.2705 23.2888 25.1371 22.7942 25.8373C22.4354 26.345 21.6257 27.1591 21.0961 27.5355C20.8685 27.6974 20.3433 27.9994 19.9275 28.2051C19.5161 28.4108 19.166 28.6078 19.1529 28.6428C19.1047 28.7653 19.1266 28.9141 19.2054 29.006C19.2579 29.0761 19.3979 29.1242 19.7393 29.1942C20.3783 29.3255 22.0283 29.3387 22.6936 29.2118C24.1685 28.9404 25.4246 28.2751 26.4838 27.2204C27.4817 26.2181 28.055 25.1546 28.3701 23.7146C28.4577 23.312 28.4708 23.1326 28.4708 22.2485C28.4708 20.9092 28.3526 20.2571 27.9062 19.1585C27.0659 17.0796 25.2145 15.6266 22.838 15.1758C22.2034 15.0576 20.6978 15.0226 20.0019 15.1145Z" fill="white"/>
<path d="M9.68737 16.327C9.4554 16.5764 8.9302 17.5743 8.64572 18.3052C8.26932 19.2637 8.09863 20.174 8.09863 21.2069C8.09863 22.3274 8.29996 23.2115 8.78139 24.1743C9.72676 26.0826 11.8669 27.61 14.1822 28.0346C14.7687 28.1396 16.0204 28.1396 16.5894 28.0302C19.1541 27.5356 21.2111 25.7193 22.0909 23.1677C22.2528 22.6994 22.4541 21.8853 22.4541 21.6971C22.4541 21.5133 22.3228 21.3864 22.1346 21.3864C21.9858 21.3864 21.9289 21.4258 21.6007 21.7365C20.0645 23.2158 17.9768 23.9993 16.1079 23.8023C14.1472 23.5966 12.4447 22.59 11.403 21.0231C10.6327 19.8589 10.2432 18.5022 10.2432 16.9703C10.2432 16.4626 10.2344 16.397 10.1557 16.3182C10.0331 16.1957 9.80116 16.2044 9.68737 16.327Z" fill="white"/>
</svg>
