<svg width="23" height="25" viewBox="0 0 23 25" fill="none" xmlns="http://www.w3.org/2000/svg">
<path d="M12.6685 0.529515C10.8546 0.762938 9.14774 1.73067 7.89309 3.23333C6.89618 4.42962 6.29318 5.64536 5.99653 7.05562C5.88469 7.58082 5.8701 7.78993 5.86523 8.51938C5.86523 9.5017 5.94304 10.0415 6.21051 10.8779C6.98858 13.324 8.92404 15.2546 11.4917 16.1494C11.9974 16.3244 12.1239 16.3342 12.2552 16.2029C12.4059 16.0521 12.3816 15.8187 12.1871 15.5658C10.0377 12.7453 9.81883 9.278 11.6279 6.57419C12.6394 5.0618 14.2393 4.0114 16.1601 3.59805C16.5784 3.51052 16.8166 3.49106 17.6531 3.49106C18.2707 3.4862 18.8202 3.51052 19.0974 3.55428C19.5059 3.61264 19.5594 3.61264 19.6663 3.53969C19.8122 3.4473 19.8755 3.25278 19.8025 3.10203C19.6761 2.81511 18.3096 1.86683 17.337 1.39026C16.058 0.758075 14.9347 0.490612 13.6022 0.500338C13.1694 0.5052 12.7512 0.51979 12.6685 0.529515Z" fill="white"/>
<path d="M13.2271 8.73813C12.2739 8.8597 12.1572 8.91319 12.1572 9.23415C12.1572 9.44812 12.235 9.50648 12.8186 9.7399C14.0732 10.2408 15.289 11.1356 16.1205 12.1665C16.7965 13.003 17.2682 14.0047 17.5162 15.1232C17.667 15.804 17.667 17.2337 17.5162 17.9146C17.2974 18.9115 16.8792 19.8743 16.3297 20.6524C15.9309 21.2165 15.0312 22.121 14.4428 22.5392C14.1899 22.7192 13.6064 23.0547 13.1444 23.2833C12.6873 23.5118 12.2983 23.7307 12.2837 23.7696C12.2302 23.9057 12.2545 24.0711 12.342 24.1732C12.4004 24.251 12.556 24.3045 12.9353 24.3823C13.6453 24.5282 15.4786 24.5428 16.2178 24.4018C17.8566 24.1003 19.2523 23.3611 20.4291 22.1891C21.5379 21.0755 22.1749 19.8938 22.5251 18.2939C22.6223 17.8465 22.6369 17.6471 22.6369 16.6648C22.6369 15.1767 22.5056 14.4521 22.0096 13.2315C21.0759 10.9216 19.0189 9.3071 16.3783 8.80621C15.6732 8.67491 14.0003 8.63601 13.2271 8.73813Z" fill="white"/>
<path d="M1.76526 10.0853C1.50752 10.3625 0.923964 11.4712 0.607871 12.2833C0.189656 13.3483 0 14.3598 0 15.5075C0 16.7524 0.223697 17.7347 0.758623 18.8046C1.80902 20.9248 4.18702 22.622 6.75953 23.0937C7.41117 23.2104 8.80198 23.2104 9.43416 23.0889C12.2839 22.5394 14.5695 20.5212 15.5469 17.6861C15.7268 17.1658 15.9505 16.2613 15.9505 16.0521C15.9505 15.8479 15.8047 15.7069 15.5955 15.7069C15.4302 15.7069 15.367 15.7506 15.0023 16.0959C13.2954 17.7396 10.9757 18.6101 8.89924 18.3912C6.72062 18.1627 4.82893 17.0442 3.67154 15.3033C2.81566 14.0097 2.38286 12.5022 2.38286 10.8001C2.38286 10.236 2.37313 10.1631 2.2856 10.0756C2.14943 9.93939 1.8917 9.94912 1.76526 10.0853Z" fill="white"/>
</svg>
