<svg width="67" height="20" viewBox="0 0 67 20" fill="none" xmlns="http://www.w3.org/2000/svg">
<path d="M46.9649 3.92H43.4355C43.3553 3.92 43.2751 4 43.2751 4.08001V6.12C43.2751 6.2 43.3553 6.28 43.4355 6.28H46.9649C47.0451 6.28 47.1253 6.2 47.1253 6.12V4.08001C47.1654 4 47.0852 3.92 46.9649 3.92ZM46.9248 6.96H40.1067C40.0265 6.96 39.9061 7.04 39.866 7.12L38.9837 10.44L38.9436 10.6L37.9008 7.04C37.8607 6.96 37.7805 6.88 37.6602 6.88H35.0131C34.9329 6.88 34.8126 6.96 34.7725 7.04L33.7698 10.36L33.7297 10.52L33.6896 10.44L33.2885 8.8L32.8474 7.16C32.8073 7.08 32.727 7 32.6067 7H27.2725V4.12C27.2725 4.04 27.1522 3.92 27.0319 3.96L23.6629 5C23.5426 5.04 23.5025 5.08 23.5025 5.16V6.96H22.6202C22.5399 6.96 22.4597 7.04 22.4597 7.12V9.68001C22.4597 9.76 22.5399 9.84 22.6202 9.84H23.5025V12.96C23.5025 15.16 24.7057 16.2 26.9116 16.2C27.834 16.2 28.7164 16 29.318 15.68V13.04C29.318 12.92 29.1977 12.88 29.1174 12.88C28.7565 13.04 28.4757 13.08 28.1549 13.08C27.5533 13.08 27.2324 12.84 27.2324 12.16V9.88H29.1575C29.2378 9.88 29.318 9.8 29.318 9.72V7.56L31.8447 15.92C31.8848 16 31.965 16.08 32.0853 16.08H34.8928C34.973 16.08 35.0933 16 35.1334 15.92L36.3366 12.2L36.9382 14.12L37.4997 15.88C37.5398 15.96 37.6201 16.04 37.7404 16.04H40.5478C40.6281 16.04 40.7484 15.96 40.7885 15.88L43.3553 7.48V15.88C43.3553 15.96 43.4355 16.04 43.5157 16.04H46.9248C47.005 16.04 47.0852 15.96 47.0852 15.88V7.16C47.0852 7.04 47.005 6.96 46.9248 6.96ZM51.4167 3.92H48.0077C47.9275 3.92 47.8473 4 47.8473 4.08001V15.88C47.8473 15.96 47.9275 16.04 48.0077 16.04H51.4167C51.497 16.04 51.5772 15.96 51.5772 15.88V4.08001C51.5772 4 51.497 3.92 51.4167 3.92ZM55.9488 3.92H52.4194C52.3392 3.92 52.259 4 52.259 4.08001V6.12C52.259 6.2 52.3392 6.28 52.4194 6.28H55.9488C56.029 6.28 56.1092 6.2 56.1092 6.12V4.08001C56.1493 4 56.0691 3.92 55.9488 3.92ZM55.9087 6.96H52.4996C52.4194 6.96 52.3392 7.04 52.3392 7.12V15.88C52.3392 15.96 52.4194 16.04 52.4996 16.04H55.9087C55.9889 16.04 56.0691 15.96 56.0691 15.88V7.16C56.0691 7.04 55.9889 6.96 55.9087 6.96ZM61.5637 6.76C58.5557 6.76 56.4301 8.96 56.4301 11.52V11.56C56.4301 14.12 58.5557 16.28 61.5236 16.28C64.5316 16.28 66.6573 14.08 66.6573 11.52V11.48C66.6573 8.92 64.5316 6.76 61.5637 6.76ZM63.0076 11.52C63.0076 12.4 62.406 13.08 61.5637 13.08C60.7215 13.08 60.0798 12.36 60.0798 11.48V11.44C60.0798 10.56 60.6814 9.88 61.5236 9.88C62.3659 9.88 63.0076 10.6 63.0076 11.52ZM10.0267 0C4.49195 0 0 4.48 0 10C0 15.52 4.49195 20 10.0267 20C15.5614 20 20.0533 15.52 20.0533 10C20.0533 4.48 15.5614 0 10.0267 0ZM10.0267 17.36C5.93579 17.36 2.64704 14.08 2.64704 10C2.64704 5.92 5.93579 2.64 10.0267 2.64C14.1175 2.64 17.4063 5.92 17.4063 10C17.4063 14.08 14.1175 17.36 10.0267 17.36Z" fill="#F12E45"/>
<path d="M12.5133 9.5975C13.6651 9.5975 14.5988 8.66624 14.5988 7.51749C14.5988 6.36874 13.6651 5.4375 12.5133 5.4375C11.3615 5.4375 10.4277 6.36874 10.4277 7.51749C10.4277 8.66624 11.3615 9.5975 12.5133 9.5975Z" fill="#F12E45"/>
<path d="M12.5133 14.5584C13.6651 14.5584 14.5988 13.6272 14.5988 12.4784C14.5988 11.3297 13.6651 10.3984 12.5133 10.3984C11.3615 10.3984 10.4277 11.3297 10.4277 12.4784C10.4277 13.6272 11.3615 14.5584 12.5133 14.5584Z" fill="#F12E45"/>
<path d="M7.54062 14.5584C8.69243 14.5584 9.62617 13.6272 9.62617 12.4784C9.62617 11.3297 8.69243 10.3984 7.54062 10.3984C6.3888 10.3984 5.45508 11.3297 5.45508 12.4784C5.45508 13.6272 6.3888 14.5584 7.54062 14.5584Z" fill="#F12E45"/>
<path d="M7.54062 9.5975C8.69243 9.5975 9.62617 8.66624 9.62617 7.51749C9.62617 6.36874 8.69243 5.4375 7.54062 5.4375C6.3888 5.4375 5.45508 6.36874 5.45508 7.51749C5.45508 8.66624 6.3888 9.5975 7.54062 9.5975Z" fill="#F12E45"/>
</svg>
