<svg width="25" height="25" viewBox="0 0 25 25" fill="none" xmlns="http://www.w3.org/2000/svg">
<path d="M17.3168 20.7007V20.9907C15.8368 21.9407 14.0668 22.5007 12.1668 22.5007C10.2368 22.5007 8.43677 21.9207 6.93677 20.9307V20.7007C6.93677 18.3707 9.26677 16.4707 12.1268 16.4707C14.9968 16.4707 17.3168 18.3707 17.3168 20.7007Z" fill="white"/>
<path opacity="0.4" d="M21.6667 13C21.6667 16.35 19.9367 19.29 17.3167 20.99V20.7C17.3167 18.37 14.9967 16.47 12.1267 16.47C9.26675 16.47 6.93675 18.37 6.93675 20.7V20.93C4.36675 19.23 2.66675 16.32 2.66675 13C2.66675 7.75 6.91675 3.5 12.1667 3.5C13.4767 3.5 14.7267 3.75999 15.8667 4.23999C15.7367 4.63999 15.6667 5.06 15.6667 5.5C15.6667 6.25 15.8767 6.96 16.2467 7.56C16.4467 7.9 16.7067 8.20997 17.0067 8.46997C17.7067 9.10997 18.6367 9.5 19.6667 9.5C20.1067 9.5 20.5267 9.42998 20.9167 9.28998C21.3967 10.43 21.6667 11.69 21.6667 13Z" fill="white"/>
<path d="M22.6367 2.83002C21.9167 2.01002 20.8467 1.5 19.6667 1.5C18.5467 1.5 17.5267 1.96002 16.7967 2.71002C16.3767 3.14002 16.0567 3.65999 15.8667 4.23999C15.7367 4.63999 15.6667 5.06 15.6667 5.5C15.6667 6.25 15.8767 6.96 16.2467 7.56C16.4467 7.9 16.7067 8.20997 17.0067 8.46997C17.7067 9.10997 18.6367 9.5 19.6667 9.5C20.1067 9.5 20.5267 9.42998 20.9167 9.28998C21.8367 8.99998 22.6067 8.37 23.0867 7.56C23.2967 7.22 23.4567 6.82999 23.5467 6.42999C23.6267 6.12999 23.6667 5.82 23.6667 5.5C23.6667 4.48 23.2767 3.54002 22.6367 2.83002ZM21.1567 6.22998H20.4167V7.01001C20.4167 7.42001 20.0767 7.76001 19.6667 7.76001C19.2567 7.76001 18.9167 7.42001 18.9167 7.01001V6.22998H18.1767C17.7667 6.22998 17.4267 5.88998 17.4267 5.47998C17.4267 5.06998 17.7667 4.72998 18.1767 4.72998H18.9167V4.02002C18.9167 3.61002 19.2567 3.27002 19.6667 3.27002C20.0767 3.27002 20.4167 3.61002 20.4167 4.02002V4.72998H21.1567C21.5667 4.72998 21.9067 5.06998 21.9067 5.47998C21.9067 5.88998 21.5767 6.22998 21.1567 6.22998Z" fill="white"/>
<path d="M12.1268 15.2294C13.6787 15.2294 14.9368 13.9713 14.9368 12.4194C14.9368 10.8675 13.6787 9.60938 12.1268 9.60938C10.5748 9.60938 9.31677 10.8675 9.31677 12.4194C9.31677 13.9713 10.5748 15.2294 12.1268 15.2294Z" fill="white"/>
</svg>
