<svg width="24" height="25" viewBox="0 0 24 25" fill="none" xmlns="http://www.w3.org/2000/svg">
<path opacity="0.4" d="M8 22.5H16C19 22.5 21 20.5 21 17.5V7.5C21 4.5 19 2.5 16 2.5H8C5 2.5 3 4.5 3 7.5V17.5C3 20.5 5 22.5 8 22.5Z" fill="white"/>
<path d="M17.5 8.5007C14.37 5.7107 9.63998 5.7107 6.49998 8.5007C6.35998 8.6307 6.32998 8.8307 6.42998 8.9807L8.60998 12.4807C8.66998 12.5707 8.76998 12.6407 8.86998 12.6507C8.97998 12.6707 9.08998 12.6307 9.16998 12.5607C10.78 11.1307 13.2 11.1307 14.81 12.5607C14.88 12.6207 14.97 12.6507 15.06 12.6507C15.08 12.6507 15.1 12.6507 15.11 12.6507C15.22 12.6307 15.32 12.5707 15.37 12.4807L17.55 8.9807C17.67 8.8307 17.64 8.6307 17.5 8.5007Z" fill="white"/>
</svg>
