<svg width="25" height="25" viewBox="0 0 25 25" fill="none" xmlns="http://www.w3.org/2000/svg">
<path d="M18.8334 23.25C16.4934 23.25 14.5834 21.34 14.5834 19V18.5C14.5834 18.09 14.9234 17.75 15.3334 17.75C15.7434 17.75 16.0834 18.09 16.0834 18.5V19C16.0834 20.52 17.3134 21.75 18.8334 21.75C20.3534 21.75 21.5834 20.52 21.5834 19C21.5834 17.48 20.3534 16.25 18.8334 16.25H2.33337C1.92337 16.25 1.58337 15.91 1.58337 15.5C1.58337 15.09 1.92337 14.75 2.33337 14.75H18.8334C21.1734 14.75 23.0834 16.66 23.0834 19C23.0834 21.34 21.1734 23.25 18.8334 23.25Z" fill="white"/>
<path opacity="0.4" d="M18.8334 13.25H2.33337C1.92337 13.25 1.58337 12.91 1.58337 12.5C1.58337 12.09 1.92337 11.75 2.33337 11.75H18.8334C20.3534 11.75 21.5834 10.52 21.5834 9C21.5834 7.48 20.3534 6.25 18.8334 6.25C17.3134 6.25 16.0834 7.48 16.0834 9V9.5C16.0834 9.91 15.7434 10.25 15.3334 10.25C14.9234 10.25 14.5834 9.91 14.5834 9.5V9C14.5834 6.66 16.4934 4.75 18.8334 4.75C21.1734 4.75 23.0834 6.66 23.0834 9C23.0834 11.34 21.1734 13.25 18.8334 13.25Z" fill="white"/>
<path d="M9.64337 10.2491H2.33337C1.92337 10.2491 1.58337 9.90914 1.58337 9.49914C1.58337 9.08914 1.92337 8.74914 2.33337 8.74914H9.64337C10.7134 8.74914 11.5834 7.87914 11.5834 6.80914C11.5834 5.73914 10.7134 4.86914 9.64337 4.86914C8.57337 4.86914 7.70337 5.73914 7.70337 6.80914V7.18914C7.70337 7.59914 7.36337 7.93914 6.95337 7.93914C6.54337 7.93914 6.20337 7.60914 6.20337 7.18914V6.80914C6.20337 4.90914 7.74337 3.36914 9.64337 3.36914C11.5434 3.36914 13.0834 4.90914 13.0834 6.80914C13.0834 8.70914 11.5434 10.2491 9.64337 10.2491Z" fill="white"/>
</svg>
