<svg width="523" height="513" viewBox="0 0 523 513" fill="none" xmlns="http://www.w3.org/2000/svg">
<path d="M362.061 489.305C284.957 489.305 220.562 493.154 205.106 498.286C176.322 499.637 157.136 502.052 157.136 504.81C157.136 509.044 202.357 512.475 258.138 512.475C276.934 512.475 294.52 512.084 309.591 511.406C326.035 511.808 343.685 512.027 362.061 512.027C450.699 512.027 522.555 506.94 522.555 500.666C522.555 494.391 450.699 489.305 362.061 489.305Z" fill="#C7C9E6"/>
<path d="M90.6837 509.196C140.521 509.196 180.923 506.551 180.923 503.289C180.923 500.027 140.521 497.383 90.6837 497.383C40.8461 497.383 0.444824 500.027 0.444824 503.289C0.444824 506.551 40.8461 509.196 90.6837 509.196Z" fill="#C7C9E6"/>
<path d="M502.037 463.867H409.566V500.173H502.037V463.867Z" fill="#59555B"/>
<path d="M496.572 469.414V494.636H415.031V491.503V469.414H481.05H496.572Z" fill="#767078"/>
<path d="M456.97 432.148H364.501V468.532H456.97V432.148Z" fill="#59555B"/>
<path d="M451.507 462.464V463.001H369.967V437.703H450.002H451.507V462.464Z" fill="#767078"/>
<path d="M412.888 463.867H320.415V500.173H412.888V463.867Z" fill="#59555B"/>
<path d="M407.423 491.503V494.636H325.88V491.503V469.414H407.423V491.503Z" fill="#767078"/>
<path d="M412.888 400.281H320.415V436.665H412.888V400.281Z" fill="#59555B"/>
<path d="M407.423 405.82H325.88V431.12H407.423V405.82Z" fill="#767078"/>
<path d="M157.368 469.328H64.8999V505.712H157.368V469.328Z" fill="#59555B"/>
<path d="M151.903 499.643V500.181H70.3628V474.883H150.398H151.903V499.643Z" fill="#767078"/>
<path d="M85.1618 419.87L8.6123 472.484L28.738 502.603L105.288 449.989L85.1618 419.87Z" fill="#59555B"/>
<path d="M83.7512 427.566L16.2502 473.969L30.2469 494.911L97.7479 448.508L83.7512 427.566Z" fill="#767078"/>
<path d="M367.895 432.148H275.424V468.532H367.895V432.148Z" fill="#59555B"/>
<path d="M362.432 437.703H280.892V463.002H362.432V437.703Z" fill="#767078"/>
<path d="M322.907 463.867H230.432V500.173H322.907V463.867Z" fill="#59555B"/>
<path d="M317.441 491.503V494.636H235.898V469.414H237.782H317.441V491.503Z" fill="#767078"/>
<path d="M282.646 226.312V487.593H282.362H276.99V457.498V454.862V417.826V415.191V378.123V375.487V338.451V335.783V298.748V296.111V259.044V256.408V226.312H282.646Z" fill="#3C449C"/>
<path d="M235.197 457.498V487.593H229.589H229.537V226.312H235.197V256.408V259.044V296.111V298.748V335.783V338.451V375.487V378.123V415.191V417.826V454.862V457.498Z" fill="#3C449C"/>
<path d="M279.811 378.88L275.785 375.648L256.044 400.934L236.303 375.648L232.277 378.88L252.769 405.129L232.276 431.379L236.303 434.608L256.044 409.324L275.785 434.608L279.811 431.379L259.319 405.129L279.811 378.88Z" fill="#434BAD"/>
<path d="M279.811 436.373L275.785 433.141L256.044 458.427L236.303 433.141L232.277 436.373L252.769 462.621L232.276 488.871L236.303 492.102L256.044 466.816L275.785 492.102L279.811 488.871L259.319 462.621L279.811 436.373Z" fill="#434BAD"/>
<path d="M279.811 268.319L275.785 265.086L256.044 290.372L236.303 265.086L232.277 268.319L252.769 294.568L232.276 320.817L236.303 324.047L256.044 298.762L275.785 324.047L279.811 320.817L259.319 294.568L279.811 268.319Z" fill="#434BAD"/>
<path d="M279.811 325.802L275.785 322.57L256.044 347.855L236.303 322.57L232.277 325.802L252.769 352.051L232.276 378.301L236.303 381.53L256.044 356.246L275.785 381.53L279.811 378.301L259.319 352.051L279.811 325.802Z" fill="#434BAD"/>
<path d="M286.899 429.586H224.602V437.764H286.899V429.586Z" fill="#696FBD"/>
<path d="M286.899 372.906H224.602V381.084H286.899V372.906Z" fill="#696FBD"/>
<path d="M286.899 319.008H224.602V327.186H286.899V319.008Z" fill="#696FBD"/>
<path d="M299.726 485.75V490.623L290.413 504.279H278.93L291.523 485.75H299.726Z" fill="#434BAD"/>
<path d="M280.244 485.75L267.651 504.279H256.168L268.761 485.75H275.609H280.244Z" fill="#434BAD"/>
<path d="M257.48 485.75L244.887 504.279H244.435H233.404L245.997 485.75H257.48Z" fill="#434BAD"/>
<path d="M234.718 485.75L222.125 504.279H212.692V501.21L223.23 485.75H234.673H234.718Z" fill="#434BAD"/>
<path d="M299.725 490.625V504.282H290.412L299.725 490.625Z" fill="#3C449C"/>
<path d="M291.522 485.75L278.929 504.279H270.686H267.651L280.244 485.75H280.487H291.522Z" fill="#3C449C"/>
<path d="M268.759 485.75L256.166 504.279H244.886L257.479 485.75H268.101H268.759Z" fill="#3C449C"/>
<path d="M245.996 485.75L233.403 504.279H222.125L234.718 485.75H239.556H245.543H245.996Z" fill="#3C449C"/>
<path d="M223.23 485.75L212.692 501.21V485.75H223.23Z" fill="#3C449C"/>
<path d="M397.79 163.207L333.328 228.583L268.868 293.958H256.269H243.669L179.208 228.583L114.748 163.207V150.428V137.649L179.208 72.274L243.669 6.89844H256.269H268.868L333.328 72.274L397.79 137.649V150.428V163.207Z" fill="#434BAD"/>
<path d="M397.79 156.949L333.328 222.325L268.868 287.702H256.269H243.669L179.208 222.325L114.748 156.949V144.171V131.392L179.208 66.0161L243.669 0.640625H256.269H268.868L333.328 66.0161L397.79 131.392V144.171V156.949Z" fill="#2E37A4"/>
<path d="M246.515 280.741L121.618 154.071V134.286L246.515 7.61719H266.021L390.918 134.286V154.071L266.021 280.741H246.515Z" fill="#7B81C6"/>
<path d="M361.527 104.477L266.023 7.61719H246.515L121.618 134.288V154.072L167.285 200.387C186.445 201.737 206.56 200.539 226.976 196.446C288.828 184.043 338.226 148.184 361.527 104.477Z" fill="#434BAD"/>
<path d="M207.002 113.942H210.664V133.963C210.664 136.03 210.177 137.875 209.202 139.499C208.238 141.114 206.874 142.388 205.113 143.323C203.351 144.249 201.284 144.711 198.912 144.711C196.539 144.711 194.472 144.249 192.71 143.323C190.949 142.388 189.58 141.114 188.606 139.499C187.641 137.875 187.159 136.03 187.159 133.963V113.942H190.821V133.667C190.821 135.144 191.145 136.458 191.795 137.61C192.445 138.751 193.37 139.652 194.571 140.311C195.781 140.961 197.228 141.286 198.912 141.286C200.595 141.286 202.042 140.961 203.252 140.311C204.463 139.652 205.388 138.751 206.028 137.61C206.678 136.458 207.002 135.144 207.002 133.667V113.942ZM241.953 113.942V144.18H238.41L221.933 120.439H221.637V144.18H217.976V113.942H221.519L238.055 137.742H238.351V113.942H241.953ZM258.611 144.18H249.28V113.942H259.024C261.958 113.942 264.468 114.548 266.554 115.758C268.641 116.959 270.24 118.687 271.353 120.941C272.465 123.185 273.021 125.872 273.021 129.002C273.021 132.152 272.46 134.863 271.338 137.137C270.216 139.401 268.582 141.143 266.436 142.364C264.29 143.574 261.682 144.18 258.611 144.18ZM252.941 140.932H258.375C260.875 140.932 262.947 140.449 264.591 139.485C266.234 138.52 267.46 137.147 268.267 135.365C269.074 133.584 269.478 131.463 269.478 129.002C269.478 126.561 269.079 124.459 268.282 122.698C267.484 120.926 266.293 119.568 264.709 118.623C263.124 117.668 261.15 117.191 258.788 117.191H252.941V140.932ZM279.163 144.18V113.942H297.412V117.191H282.824V127.407H296.467V130.656H282.824V140.932H297.648V144.18H279.163ZM304.011 144.18V113.942H314.228C316.59 113.942 318.529 114.346 320.045 115.153C321.561 115.95 322.683 117.048 323.412 118.445C324.14 119.843 324.504 121.433 324.504 123.214C324.504 124.996 324.14 126.576 323.412 127.954C322.683 129.332 321.566 130.414 320.06 131.202C318.554 131.979 316.63 132.368 314.287 132.368H306.019V129.061H314.169C315.783 129.061 317.083 128.825 318.067 128.352C319.061 127.88 319.78 127.211 320.222 126.344C320.675 125.468 320.902 124.425 320.902 123.214C320.902 122.004 320.675 120.946 320.222 120.04C319.77 119.134 319.046 118.436 318.052 117.944C317.058 117.442 315.744 117.191 314.11 117.191H307.673V144.18H304.011ZM318.244 130.597L325.685 144.18H321.433L314.11 130.597H318.244Z" fill="#2E37A4"/>
<path d="M207.002 111.153H210.664V131.174C210.664 133.241 210.177 135.086 209.202 136.71C208.238 138.325 206.874 139.599 205.113 140.534C203.351 141.46 201.284 141.922 198.912 141.922C196.539 141.922 194.472 141.46 192.71 140.534C190.949 139.599 189.58 138.325 188.606 136.71C187.641 135.086 187.159 133.241 187.159 131.174V111.153H190.821V130.878C190.821 132.355 191.145 133.669 191.795 134.821C192.445 135.962 193.37 136.863 194.571 137.522C195.781 138.172 197.228 138.497 198.912 138.497C200.595 138.497 202.042 138.172 203.252 137.522C204.463 136.863 205.388 135.962 206.028 134.821C206.678 133.669 207.002 132.355 207.002 130.878V111.153ZM241.953 111.153V141.391H238.41L221.933 117.65H221.637V141.391H217.976V111.153H221.519L238.055 134.953H238.351V111.153H241.953ZM258.611 141.391H249.28V111.153H259.024C261.958 111.153 264.468 111.759 266.554 112.969C268.641 114.17 270.24 115.898 271.353 118.152C272.465 120.396 273.021 123.083 273.021 126.213C273.021 129.363 272.46 132.074 271.338 134.348C270.216 136.612 268.582 138.354 266.436 139.575C264.29 140.785 261.682 141.391 258.611 141.391ZM252.941 138.142H258.375C260.875 138.142 262.947 137.66 264.591 136.696C266.234 135.731 267.46 134.358 268.267 132.576C269.074 130.795 269.478 128.674 269.478 126.213C269.478 123.772 269.079 121.67 268.282 119.909C267.484 118.137 266.293 116.779 264.709 115.834C263.124 114.879 261.15 114.401 258.788 114.401H252.941V138.142ZM279.163 141.391V111.153H297.412V114.401H282.824V124.618H296.467V127.867H282.824V138.142H297.648V141.391H279.163ZM304.011 141.391V111.153H314.228C316.59 111.153 318.529 111.557 320.045 112.364C321.561 113.161 322.683 114.259 323.412 115.656C324.14 117.054 324.504 118.644 324.504 120.425C324.504 122.207 324.14 123.787 323.412 125.165C322.683 126.543 321.566 127.625 320.06 128.413C318.554 129.19 316.63 129.579 314.287 129.579H306.019V126.272H314.169C315.783 126.272 317.083 126.036 318.067 125.563C319.061 125.091 319.78 124.422 320.222 123.555C320.675 122.679 320.902 121.636 320.902 120.425C320.902 119.215 320.675 118.157 320.222 117.251C319.77 116.345 319.046 115.647 318.052 115.154C317.058 114.652 315.744 114.401 314.11 114.401H307.673V141.391H304.011ZM318.244 127.807L325.685 141.391H321.433L314.11 127.807H318.244Z" fill="white"/>
<path d="M190.621 152.614H192.556L197.105 163.725H197.262L201.811 152.614H203.745V166H202.229V155.83H202.098L197.915 166H196.451L192.268 155.83H192.137V166H190.621V152.614ZM207.544 166H205.845L210.76 152.614H212.433L217.348 166H215.649L211.649 154.732H211.544L207.544 166ZM208.172 160.771H215.021V162.209H208.172V160.771ZM221.054 152.614V166H219.433V152.614H221.054ZM234.919 152.614V166H233.35L226.056 155.49H225.925V166H224.304V152.614H225.873L233.193 163.15H233.324V152.614H234.919ZM237.43 154.052V152.614H247.469V154.052H243.26V166H241.639V154.052H237.43ZM249.971 166V152.614H258.05V154.052H251.592V158.575H257.631V160.013H251.592V164.562H258.154V166H249.971ZM271.586 152.614V166H270.017L262.723 155.49H262.592V166H260.971V152.614H262.54L269.86 163.15H269.991V152.614H271.586ZM275.378 166H273.679L278.594 152.614H280.267L285.182 166H283.483L279.483 154.732H279.378L275.378 166ZM276.006 160.771H282.855V162.209H276.006V160.771ZM297.882 152.614V166H296.313L289.019 155.49H288.888V166H287.267V152.614H288.836L296.156 163.15H296.287V152.614H297.882ZM311.897 156.797H310.276C310.18 156.331 310.012 155.921 309.772 155.569C309.537 155.216 309.249 154.919 308.91 154.68C308.574 154.436 308.202 154.253 307.792 154.131C307.382 154.009 306.955 153.948 306.511 153.948C305.7 153.948 304.966 154.152 304.308 154.562C303.655 154.972 303.134 155.575 302.746 156.372C302.363 157.17 302.171 158.148 302.171 159.307C302.171 160.466 302.363 161.444 302.746 162.242C303.134 163.039 303.655 163.643 304.308 164.052C304.966 164.462 305.7 164.667 306.511 164.667C306.955 164.667 307.382 164.606 307.792 164.484C308.202 164.362 308.574 164.181 308.91 163.941C309.249 163.697 309.537 163.399 309.772 163.046C310.012 162.688 310.18 162.279 310.276 161.817H311.897C311.775 162.501 311.552 163.113 311.23 163.654C310.907 164.194 310.507 164.654 310.027 165.033C309.548 165.407 309.01 165.693 308.413 165.889C307.82 166.085 307.186 166.183 306.511 166.183C305.369 166.183 304.354 165.904 303.465 165.346C302.576 164.789 301.877 163.996 301.367 162.967C300.857 161.939 300.602 160.719 300.602 159.307C300.602 157.895 300.857 156.675 301.367 155.647C301.877 154.619 302.576 153.826 303.465 153.268C304.354 152.71 305.369 152.431 306.511 152.431C307.186 152.431 307.82 152.529 308.413 152.725C309.01 152.921 309.548 153.209 310.027 153.588C310.507 153.963 310.907 154.42 311.23 154.961C311.552 155.497 311.775 156.109 311.897 156.797ZM314.516 166V152.614H322.594V154.052H316.137V158.575H322.176V160.013H316.137V164.562H322.699V166H314.516Z" fill="white"/>
<path d="M260.93 14.2656H251.607L246.946 22.4538L251.607 30.642H260.93L265.591 22.4538L260.93 14.2656Z" fill="white"/>
<path d="M253.591 27.1579L250.913 22.4546L253.591 17.75H258.946L261.624 22.4546L258.946 27.1579H253.591Z" fill="#E5E7EB"/>
<path d="M260.93 257.711H251.607L246.946 265.899L251.607 274.087H260.93L265.591 265.899L260.93 257.711Z" fill="white"/>
<path d="M253.591 270.605L250.913 265.9L253.591 261.195H258.946L261.624 265.9L258.946 270.605H253.591Z" fill="#E5E7EB"/>
<path d="M134.974 134.797L126.889 139.505L126.868 148.959L134.93 153.706L143.015 148.999L143.036 139.543L134.974 134.797Z" fill="white"/>
<path d="M130.308 146.958L130.32 141.526L134.965 138.82L139.597 141.548L139.584 146.979L134.94 149.685L130.308 146.958Z" fill="#E5E7EB"/>
<path d="M378.294 134.797L370.209 139.505L370.187 148.959L378.25 153.706L386.334 148.999L386.356 139.543L378.294 134.797Z" fill="white"/>
<path d="M373.627 146.958L373.639 141.526L378.284 138.82L382.917 141.548L382.904 146.979L378.259 149.685L373.627 146.958Z" fill="#E5E7EB"/>
</svg>
