<svg width="46" height="40" viewBox="0 0 46 40" fill="none" xmlns="http://www.w3.org/2000/svg">
<path d="M49.1951 39.4348C59.0285 39.4348 67 30.6433 67 19.7985C67 8.95361 59.0285 0.162109 49.1951 0.162109C39.3618 0.162109 31.3903 8.95361 31.3903 19.7985C31.3903 30.6433 39.3618 39.4348 49.1951 39.4348Z" fill="#D4EFDF"/>
<path d="M19.7623 23.9112C22.9447 23.9112 25.5245 21.0659 25.5245 17.5562C25.5245 14.0464 22.9447 11.2012 19.7623 11.2012C16.5799 11.2012 14 14.0464 14 17.5562C14 21.0659 16.5799 23.9112 19.7623 23.9112Z" fill="#D4EFDF"/>
<path d="M11.8049 52.1991C18.1965 52.1991 23.378 46.4847 23.378 39.4355C23.378 32.3863 18.1965 26.6719 11.8049 26.6719C5.41317 26.6719 0.231689 32.3863 0.231689 39.4355C0.231689 46.4847 5.41317 52.1991 11.8049 52.1991Z" fill="#D4EFDF"/>
</svg>
