<svg width="50" height="42" viewBox="0 0 50 42" fill="none" xmlns="http://www.w3.org/2000/svg">
<g clip-path="url(#clip0_54621_525221)">
<path d="M55.1951 41.9348C65.0284 41.9348 73 33.1433 73 22.2985C73 11.4536 65.0284 2.66211 55.1951 2.66211C45.3617 2.66211 37.3902 11.4536 37.3902 22.2985C37.3902 33.1433 45.3617 41.9348 55.1951 41.9348Z" fill="#C7C9E6"/>
<path d="M25.7623 26.4112C28.9447 26.4112 31.5245 23.5659 31.5245 20.0562C31.5245 16.5464 28.9447 13.7012 25.7623 13.7012C22.5799 13.7012 20 16.5464 20 20.0562C20 23.5659 22.5799 26.4112 25.7623 26.4112Z" fill="#C7C9E6"/>
<path d="M17.8049 54.6991C24.1965 54.6991 29.378 48.9847 29.378 41.9355C29.378 34.8863 24.1965 29.1719 17.8049 29.1719C11.4132 29.1719 6.23169 34.8863 6.23169 41.9355C6.23169 48.9847 11.4132 54.6991 17.8049 54.6991Z" fill="#C7C9E6"/>
</g>
<defs>
<clipPath id="clip0_54621_525221">
<rect width="73" height="54" fill="white" transform="translate(0 0.699219)"/>
</clipPath>
</defs>
</svg>
