<svg width="66" height="114" viewBox="0 0 66 114" fill="none" xmlns="http://www.w3.org/2000/svg">
<path d="M31.6611 -44.1387V-44.1387C22.67 -9.97253 -4.01313 16.7106 -38.1793 25.7017V25.7017V25.7017C-72.3454 34.6928 -99.0286 61.376 -108.02 95.5421V95.5421" stroke="#D9DBEF" stroke-width="2.46923" stroke-linecap="round" stroke-linejoin="round"/>
<path d="M38.6455 -37.1543V-37.1543C29.6544 -2.98816 2.97125 23.695 -31.1949 32.6861V32.6861V32.6861C-65.361 41.6772 -92.0442 68.3604 -101.035 102.527V102.527" stroke="#D9DBEF" stroke-width="2.46923" stroke-linecap="round" stroke-linejoin="round"/>
<path d="M45.6279 -30.166V-30.166C36.6368 4.00013 9.95367 30.6833 -24.2125 39.6744V39.6744V39.6744C-58.3786 48.6655 -85.0618 75.3486 -94.0529 109.515V109.515" stroke="#D9DBEF" stroke-width="2.46923" stroke-linecap="round" stroke-linejoin="round"/>
<path d="M24.6768 -51.123V-51.123C15.6857 -16.9569 -10.9975 9.72626 -45.1636 18.7174V18.7174V18.7174C-79.3298 27.7084 -106.013 54.3916 -115.004 88.5578V88.5578" stroke="#D9DBEF" stroke-width="2.46923" stroke-linecap="round" stroke-linejoin="round"/>
<path d="M17.6924 -58.1074V-58.1074C8.70129 -23.9413 -17.9819 2.74189 -52.148 11.733V11.733V11.733C-86.3142 20.7241 -112.997 47.4072 -121.988 81.5734V81.5734" stroke="#D9DBEF" stroke-width="2.46923" stroke-linecap="round" stroke-linejoin="round"/>
<path d="M10.71 -65.0879V-65.0879C1.71887 -30.9217 -24.9643 -4.23858 -59.1304 4.75251V4.75251V4.75251C-93.2966 13.7436 -119.98 40.4268 -128.971 74.5929V74.5929" stroke="#D9DBEF" stroke-width="2.46923" stroke-linecap="round" stroke-linejoin="round"/>
</svg>
