<svg width="45" height="40" viewBox="0 0 45 40" fill="none" xmlns="http://www.w3.org/2000/svg">
<path d="M49.1949 39.4348C59.0283 39.4348 66.9998 30.6433 66.9998 19.7985C66.9998 8.95361 59.0283 0.162109 49.1949 0.162109C39.3615 0.162109 31.39 8.95361 31.39 19.7985C31.39 30.6433 39.3615 39.4348 49.1949 39.4348Z" fill="#FCD2D2"/>
<path d="M19.762 23.9112C22.9444 23.9112 25.5243 21.0659 25.5243 17.5562C25.5243 14.0464 22.9444 11.2012 19.762 11.2012C16.5796 11.2012 13.9998 14.0464 13.9998 17.5562C13.9998 21.0659 16.5796 23.9112 19.762 23.9112Z" fill="#FCD2D2"/>
<path d="M11.8046 52.1991C18.1963 52.1991 23.3778 46.4847 23.3778 39.4355C23.3778 32.3863 18.1963 26.6719 11.8046 26.6719C5.41293 26.6719 0.231445 32.3863 0.231445 39.4355C0.231445 46.4847 5.41293 52.1991 11.8046 52.1991Z" fill="#FCD2D2"/>
</svg>
