<svg width="116" height="92" viewBox="0 0 116 92" fill="none" xmlns="http://www.w3.org/2000/svg">
<path d="M98.6362 76.7182C82.5387 94.177 42.179 103.801 42.179 103.801L42.7277 110.556C42.7277 110.556 88.9937 100.172 107.222 82.9119C123.675 67.3327 142.674 30.2009 142.674 30.2009L125.794 34.0338C125.794 34.0338 110.387 63.9739 98.6362 76.7182Z" fill="#D9DBEF"/>
<path d="M93.9897 53.9796C73.6442 80.5452 20.0651 98.3892 20.0651 98.3892L14.8064 108.367C14.8064 108.367 71.7625 92.7743 97.447 68.454C120.63 46.5019 137.221 0.19967 137.221 0.19967L117.558 4.57199C117.558 4.57199 108.948 34.4479 93.9897 53.9796Z" fill="#D9DBEF"/>
</svg>
