<svg width="52" height="42" viewBox="0 0 52 42" fill="none" xmlns="http://www.w3.org/2000/svg">
<g clip-path="url(#clip0_54621_525251)">
<path d="M55.1945 41.4348C65.0279 41.4348 72.9994 32.6433 72.9994 21.7985C72.9994 10.9536 65.0279 2.16211 55.1945 2.16211C45.3612 2.16211 37.3896 10.9536 37.3896 21.7985C37.3896 32.6433 45.3612 41.4348 55.1945 41.4348Z" fill="#F9F1D8"/>
<path d="M25.7617 25.9112C28.9441 25.9112 31.5239 23.0659 31.5239 19.5562C31.5239 16.0464 28.9441 13.2012 25.7617 13.2012C22.5792 13.2012 19.9994 16.0464 19.9994 19.5562C19.9994 23.0659 22.5792 25.9112 25.7617 25.9112Z" fill="#F9F1D8"/>
<path d="M17.8043 54.1991C24.1959 54.1991 29.3774 48.4847 29.3774 41.4355C29.3774 34.3863 24.1959 28.6719 17.8043 28.6719C11.4126 28.6719 6.23108 34.3863 6.23108 41.4355C6.23108 48.4847 11.4126 54.1991 17.8043 54.1991Z" fill="#F9F1D8"/>
</g>
<defs>
<clipPath id="clip0_54621_525251">
<rect width="73" height="54" fill="white" transform="translate(-0.000610352 0.199219)"/>
</clipPath>
</defs>
</svg>
