<svg width="100" height="24" viewBox="0 0 100 24" fill="none" xmlns="http://www.w3.org/2000/svg">
<g clip-path="url(#clip0_1899_3230)">
<path d="M9.99997 2C15.5231 2 20 6.4775 20 12C20 17.5232 15.5231 22 9.99997 22C4.47681 22 0 17.5231 0 12C0 6.4775 4.47688 2 9.99997 2Z" fill="#3B5998"/>
<path d="M11.2175 8.88422H12.5063V6.98047H10.9913V6.98733C9.15568 7.05235 8.77946 8.08421 8.7463 9.16797H8.74252V10.1186H7.49255V11.983H8.74252V16.9804H10.6263V11.983H12.1694L12.4675 10.1186H10.6269V9.54426C10.6269 9.17799 10.8706 8.88422 11.2175 8.88422Z" fill="white"/>
</g>
<path d="M29.296 17V6.024H37.136V7.56H31.088V10.808H36.56V12.328H31.088V17H29.296ZM40.5281 17.192C40.2615 17.192 39.9735 17.16 39.6641 17.096C39.3548 17.032 39.0615 16.9147 38.7841 16.744C38.5175 16.5733 38.2988 16.3387 38.1281 16.04C37.9575 15.7307 37.8721 15.3307 37.8721 14.84C37.8721 14.264 38.0055 13.7893 38.2721 13.416C38.5388 13.0427 38.9121 12.7493 39.3921 12.536C39.8721 12.3227 40.4428 12.1733 41.1041 12.088C41.7761 12.0027 42.5068 11.96 43.2961 11.96V11.128C43.2961 10.8507 43.2481 10.6053 43.1521 10.392C43.0668 10.1787 42.9015 10.0133 42.6561 9.896C42.4215 9.77867 42.0801 9.72 41.6321 9.72C41.1841 9.72 40.8321 9.77867 40.5761 9.896C40.3308 10.0027 40.1548 10.1413 40.0481 10.312C39.9521 10.472 39.9041 10.648 39.9041 10.84V11.08H38.3041C38.2935 11.0267 38.2881 10.9733 38.2881 10.92C38.2881 10.8667 38.2881 10.8027 38.2881 10.728C38.2881 10.2267 38.4268 9.80533 38.7041 9.464C38.9921 9.112 39.3921 8.84533 39.9041 8.664C40.4161 8.48267 41.0081 8.392 41.6801 8.392C42.4055 8.392 43.0081 8.49867 43.4881 8.712C43.9788 8.91467 44.3468 9.208 44.5921 9.592C44.8375 9.976 44.9601 10.44 44.9601 10.984V15.256C44.9601 15.4587 45.0081 15.6027 45.1041 15.688C45.2108 15.7733 45.3335 15.816 45.4721 15.816H46.0481V16.936C45.9201 16.9893 45.7601 17.0427 45.5681 17.096C45.3761 17.1493 45.1521 17.176 44.8961 17.176C44.6081 17.176 44.3628 17.1227 44.1601 17.016C43.9681 16.92 43.8081 16.7813 43.6801 16.6C43.5628 16.408 43.4828 16.1947 43.4401 15.96H43.3441C43.1521 16.2053 42.9175 16.424 42.6401 16.616C42.3735 16.7973 42.0641 16.936 41.7121 17.032C41.3601 17.1387 40.9655 17.192 40.5281 17.192ZM40.9921 15.816C41.3228 15.816 41.6268 15.768 41.9041 15.672C42.1921 15.5653 42.4375 15.4213 42.6401 15.24C42.8428 15.048 43.0028 14.824 43.1201 14.568C43.2375 14.3013 43.2961 14.0133 43.2961 13.704V13.144C42.5601 13.144 41.9148 13.1867 41.3601 13.272C40.8055 13.3573 40.3735 13.5173 40.0641 13.752C39.7548 13.976 39.6001 14.2907 39.6001 14.696C39.6001 14.9413 39.6535 15.1493 39.7601 15.32C39.8668 15.48 40.0268 15.6027 40.2401 15.688C40.4535 15.7733 40.7041 15.816 40.9921 15.816ZM50.541 17.192C49.6983 17.192 48.9943 17.0373 48.429 16.728C47.8637 16.408 47.437 15.9227 47.149 15.272C46.8717 14.6213 46.733 13.7947 46.733 12.792C46.733 11.7893 46.877 10.968 47.165 10.328C47.453 9.67733 47.8797 9.192 48.445 8.872C49.021 8.552 49.725 8.392 50.557 8.392C51.133 8.392 51.6343 8.46667 52.061 8.616C52.4877 8.75467 52.8503 8.968 53.149 9.256C53.4477 9.53333 53.6663 9.88 53.805 10.296C53.9543 10.712 54.029 11.1867 54.029 11.72H52.349C52.349 11.272 52.285 10.904 52.157 10.616C52.029 10.328 51.8317 10.1147 51.565 9.976C51.2983 9.82667 50.9517 9.752 50.525 9.752C50.077 9.752 49.6983 9.85867 49.389 10.072C49.0797 10.2747 48.845 10.5893 48.685 11.016C48.525 11.432 48.445 11.9813 48.445 12.664V12.936C48.445 13.5867 48.5197 14.1307 48.669 14.568C48.829 14.9947 49.0637 15.3147 49.373 15.528C49.693 15.7307 50.0983 15.832 50.589 15.832C51.0157 15.832 51.357 15.7573 51.613 15.608C51.8797 15.448 52.077 15.224 52.205 14.936C52.3437 14.6373 52.413 14.28 52.413 13.864H54.029C54.029 14.3653 53.9543 14.8187 53.805 15.224C53.6663 15.6293 53.4477 15.9813 53.149 16.28C52.861 16.568 52.4983 16.792 52.061 16.952C51.6237 17.112 51.117 17.192 50.541 17.192ZM59.2006 17.192C58.3366 17.192 57.6113 17.0373 57.0246 16.728C56.4486 16.408 56.0113 15.9227 55.7126 15.272C55.414 14.6213 55.2646 13.7947 55.2646 12.792C55.2646 11.7787 55.414 10.952 55.7126 10.312C56.0113 9.66133 56.454 9.18133 57.0406 8.872C57.6273 8.552 58.358 8.392 59.2326 8.392C60.0326 8.392 60.6993 8.54667 61.2326 8.856C61.7766 9.15467 62.1873 9.61333 62.4646 10.232C62.742 10.8507 62.8806 11.6293 62.8806 12.568V13.208H56.9766C56.998 13.8053 57.0886 14.3067 57.2486 14.712C57.4086 15.1067 57.6486 15.4 57.9686 15.592C58.2993 15.7733 58.7153 15.864 59.2166 15.864C59.526 15.864 59.8033 15.8267 60.0486 15.752C60.294 15.6667 60.502 15.5493 60.6726 15.4C60.8433 15.24 60.9766 15.0533 61.0726 14.84C61.1686 14.616 61.2166 14.3653 61.2166 14.088H62.8486C62.8486 14.5893 62.7633 15.032 62.5926 15.416C62.422 15.8 62.1713 16.1253 61.8406 16.392C61.5206 16.648 61.1366 16.8453 60.6886 16.984C60.2406 17.1227 59.7446 17.192 59.2006 17.192ZM57.0086 11.992H61.1366C61.1366 11.576 61.0886 11.2293 60.9926 10.952C60.9073 10.664 60.7793 10.4293 60.6086 10.248C60.438 10.0667 60.2353 9.93867 60.0006 9.864C59.766 9.77867 59.4993 9.736 59.2006 9.736C58.7526 9.736 58.3686 9.816 58.0486 9.976C57.7393 10.136 57.4993 10.3867 57.3286 10.728C57.158 11.0587 57.0513 11.48 57.0086 11.992ZM68.796 17.192C68.2413 17.192 67.74 17.08 67.292 16.856C66.844 16.632 66.476 16.296 66.188 15.848H66.076L65.932 17H64.572V5.432H66.236V9.608H66.332C66.5133 9.33067 66.7267 9.10133 66.972 8.92C67.228 8.73867 67.516 8.60533 67.836 8.52C68.156 8.43467 68.5027 8.392 68.876 8.392C69.516 8.392 70.0813 8.54667 70.572 8.856C71.0627 9.16533 71.4413 9.64 71.708 10.28C71.9853 10.92 72.124 11.7467 72.124 12.76C72.124 13.7947 71.9907 14.6373 71.724 15.288C71.4573 15.9387 71.0733 16.4187 70.572 16.728C70.0813 17.0373 69.4893 17.192 68.796 17.192ZM68.332 15.752C68.812 15.752 69.2013 15.656 69.5 15.464C69.8093 15.272 70.0387 14.9733 70.188 14.568C70.3373 14.152 70.412 13.6133 70.412 12.952V12.664C70.412 12.0027 70.3373 11.464 70.188 11.048C70.0493 10.632 69.8253 10.328 69.516 10.136C69.2067 9.93333 68.8013 9.832 68.3 9.832C67.9907 9.832 67.708 9.88533 67.452 9.992C67.196 10.0987 66.9773 10.2693 66.796 10.504C66.6147 10.728 66.476 11.0213 66.38 11.384C66.284 11.7467 66.236 12.184 66.236 12.696V12.92C66.236 13.528 66.3053 14.0453 66.444 14.472C66.5933 14.888 66.8227 15.208 67.132 15.432C67.4413 15.6453 67.8413 15.752 68.332 15.752ZM77.4216 17.192C76.547 17.192 75.8056 17.0373 75.1976 16.728C74.6003 16.408 74.147 15.9227 73.8376 15.272C73.539 14.6213 73.3896 13.7947 73.3896 12.792C73.3896 11.7787 73.539 10.952 73.8376 10.312C74.147 9.66133 74.6003 9.18133 75.1976 8.872C75.8056 8.552 76.547 8.392 77.4216 8.392C78.3176 8.392 79.0643 8.552 79.6616 8.872C80.259 9.18133 80.707 9.66133 81.0056 10.312C81.315 10.952 81.4696 11.7787 81.4696 12.792C81.4696 13.7947 81.315 14.6213 81.0056 15.272C80.707 15.9227 80.259 16.408 79.6616 16.728C79.0643 17.0373 78.3176 17.192 77.4216 17.192ZM77.4216 15.816C77.955 15.816 78.3923 15.7147 78.7336 15.512C79.075 15.2987 79.3256 14.9787 79.4856 14.552C79.6563 14.1253 79.7416 13.5867 79.7416 12.936V12.648C79.7416 11.9973 79.6563 11.4587 79.4856 11.032C79.3256 10.6053 79.075 10.2907 78.7336 10.088C78.3923 9.87467 77.955 9.768 77.4216 9.768C76.899 9.768 76.467 9.87467 76.1256 10.088C75.7843 10.2907 75.5283 10.6053 75.3576 11.032C75.1976 11.4587 75.1176 11.9973 75.1176 12.648V12.936C75.1176 13.5867 75.1976 14.1253 75.3576 14.552C75.5283 14.9787 75.7843 15.2987 76.1256 15.512C76.467 15.7147 76.899 15.816 77.4216 15.816ZM86.7498 17.192C85.8751 17.192 85.1338 17.0373 84.5258 16.728C83.9284 16.408 83.4751 15.9227 83.1658 15.272C82.8671 14.6213 82.7178 13.7947 82.7178 12.792C82.7178 11.7787 82.8671 10.952 83.1658 10.312C83.4751 9.66133 83.9284 9.18133 84.5258 8.872C85.1338 8.552 85.8751 8.392 86.7498 8.392C87.6458 8.392 88.3924 8.552 88.9898 8.872C89.5871 9.18133 90.0351 9.66133 90.3338 10.312C90.6431 10.952 90.7978 11.7787 90.7978 12.792C90.7978 13.7947 90.6431 14.6213 90.3338 15.272C90.0351 15.9227 89.5871 16.408 88.9898 16.728C88.3924 17.0373 87.6458 17.192 86.7498 17.192ZM86.7498 15.816C87.2831 15.816 87.7204 15.7147 88.0618 15.512C88.4031 15.2987 88.6538 14.9787 88.8138 14.552C88.9844 14.1253 89.0698 13.5867 89.0698 12.936V12.648C89.0698 11.9973 88.9844 11.4587 88.8138 11.032C88.6538 10.6053 88.4031 10.2907 88.0618 10.088C87.7204 9.87467 87.2831 9.768 86.7498 9.768C86.2271 9.768 85.7951 9.87467 85.4538 10.088C85.1124 10.2907 84.8564 10.6053 84.6858 11.032C84.5258 11.4587 84.4457 11.9973 84.4457 12.648V12.936C84.4457 13.5867 84.5258 14.1253 84.6858 14.552C84.8564 14.9787 85.1124 15.2987 85.4538 15.512C85.7951 15.7147 86.2271 15.816 86.7498 15.816ZM92.4939 17V5.432H94.1579V12.424L97.4699 8.584H99.4379L96.5899 11.848L99.5979 17H97.6779L95.5179 13.064L94.1579 14.408V17H92.4939Z" fill="#111827"/>
<defs>
<clipPath id="clip0_1899_3230">
<rect width="20" height="20" fill="white" transform="translate(0 2)"/>
</clipPath>
</defs>
</svg>
