<svg width="92" height="24" viewBox="0 0 92 24" fill="none" xmlns="http://www.w3.org/2000/svg">
<g clip-path="url(#clip0_1899_3220)">
<path d="M19.245 10.2611L11.0872 10.2607C10.727 10.2607 10.435 10.5527 10.435 10.9129V13.519C10.435 13.8791 10.727 14.1712 11.0872 14.1712H15.6812C15.1781 15.4767 14.2392 16.57 13.0413 17.2647L15.0002 20.6557C18.1425 18.8384 20.0002 15.6497 20.0002 12.0803C20.0002 11.572 19.9627 11.2087 19.8878 10.7996C19.8309 10.4888 19.561 10.2611 19.245 10.2611Z" fill="#167EE6"/>
<path d="M10.0002 18.0871C7.75198 18.0871 5.78932 16.8587 4.73522 15.041L1.34436 16.9955C3.06995 19.9862 6.30252 22.0001 10.0002 22.0001C11.8141 22.0001 13.5257 21.5117 15.0002 20.6606V20.6559L13.0413 17.2649C12.1453 17.7846 11.1084 18.0871 10.0002 18.0871Z" fill="#12B347"/>
<path d="M15 20.6603V20.6557L13.0411 17.2646C12.1451 17.7843 11.1083 18.0868 10 18.0868V21.9998C11.8139 21.9998 13.5256 21.5114 15 20.6603Z" fill="#0F993E"/>
<path d="M3.91305 12.0002C3.91305 10.8921 4.21547 9.85531 4.73504 8.95934L1.34418 7.00488C0.488359 8.47469 0 10.1816 0 12.0002C0 13.8188 0.488359 15.5258 1.34418 16.9956L4.73504 15.0411C4.21547 14.1452 3.91305 13.1084 3.91305 12.0002Z" fill="#FFD500"/>
<path d="M10.0002 5.91305C11.4662 5.91305 12.8129 6.43398 13.8647 7.30051C14.1242 7.51426 14.5014 7.49883 14.739 7.26113L16.5855 5.41465C16.8552 5.14496 16.836 4.70352 16.5479 4.45359C14.7856 2.92473 12.4926 2 10.0002 2C6.30252 2 3.06995 4.01395 1.34436 7.00465L4.73522 8.9591C5.78932 7.14141 7.75198 5.91305 10.0002 5.91305Z" fill="#FF4B26"/>
<path d="M13.8645 7.30051C14.124 7.51426 14.5012 7.49883 14.7389 7.26113L16.5854 5.41465C16.855 5.14496 16.8358 4.70352 16.5477 4.45359C14.7854 2.92469 12.4925 2 10 2V5.91305C11.466 5.91305 12.8127 6.43398 13.8645 7.30051Z" fill="#D93F21"/>
</g>
<path d="M34.272 17.192C32.5333 17.192 31.1947 16.7333 30.256 15.816C29.328 14.8987 28.864 13.464 28.864 11.512C28.864 10.232 29.0827 9.176 29.52 8.344C29.9573 7.50133 30.592 6.872 31.424 6.456C32.256 6.04 33.2693 5.832 34.464 5.832C35.1787 5.832 35.84 5.912 36.448 6.072C37.0667 6.232 37.6053 6.47733 38.064 6.808C38.5333 7.128 38.8907 7.53333 39.136 8.024C39.392 8.51467 39.52 9.096 39.52 9.768H37.696C37.696 9.352 37.6107 8.99467 37.44 8.696C37.28 8.38667 37.0507 8.13067 36.752 7.928C36.464 7.72533 36.1227 7.58133 35.728 7.496C35.344 7.4 34.9333 7.352 34.496 7.352C33.888 7.352 33.344 7.432 32.864 7.592C32.3947 7.752 32 7.99733 31.68 8.328C31.36 8.65867 31.12 9.07467 30.96 9.576C30.8 10.0773 30.72 10.6693 30.72 11.352V11.688C30.72 12.6267 30.8533 13.3893 31.12 13.976C31.3973 14.5627 31.8027 14.9947 32.336 15.272C32.88 15.5387 33.5413 15.672 34.32 15.672C35.056 15.672 35.6747 15.5653 36.176 15.352C36.6773 15.1387 37.0613 14.824 37.328 14.408C37.5947 13.9813 37.728 13.4533 37.728 12.824V12.664H34.032V11.176H39.52V17H38.224L38.048 15.688C37.7493 16.04 37.408 16.328 37.024 16.552C36.64 16.7653 36.2187 16.9253 35.76 17.032C35.312 17.1387 34.816 17.192 34.272 17.192ZM45.3748 17.192C44.5001 17.192 43.7588 17.0373 43.1508 16.728C42.5534 16.408 42.1001 15.9227 41.7908 15.272C41.4921 14.6213 41.3428 13.7947 41.3428 12.792C41.3428 11.7787 41.4921 10.952 41.7908 10.312C42.1001 9.66133 42.5534 9.18133 43.1508 8.872C43.7588 8.552 44.5001 8.392 45.3748 8.392C46.2708 8.392 47.0174 8.552 47.6148 8.872C48.2121 9.18133 48.6601 9.66133 48.9588 10.312C49.2681 10.952 49.4228 11.7787 49.4228 12.792C49.4228 13.7947 49.2681 14.6213 48.9588 15.272C48.6601 15.9227 48.2121 16.408 47.6148 16.728C47.0174 17.0373 46.2708 17.192 45.3748 17.192ZM45.3748 15.816C45.9081 15.816 46.3454 15.7147 46.6868 15.512C47.0281 15.2987 47.2788 14.9787 47.4388 14.552C47.6094 14.1253 47.6948 13.5867 47.6948 12.936V12.648C47.6948 11.9973 47.6094 11.4587 47.4388 11.032C47.2788 10.6053 47.0281 10.2907 46.6868 10.088C46.3454 9.87467 45.9081 9.768 45.3748 9.768C44.8521 9.768 44.4201 9.87467 44.0788 10.088C43.7374 10.2907 43.4814 10.6053 43.3108 11.032C43.1508 11.4587 43.0707 11.9973 43.0707 12.648V12.936C43.0707 13.5867 43.1508 14.1253 43.3108 14.552C43.4814 14.9787 43.7374 15.2987 44.0788 15.512C44.4201 15.7147 44.8521 15.816 45.3748 15.816ZM54.7029 17.192C53.8282 17.192 53.0869 17.0373 52.4789 16.728C51.8815 16.408 51.4282 15.9227 51.1189 15.272C50.8202 14.6213 50.6709 13.7947 50.6709 12.792C50.6709 11.7787 50.8202 10.952 51.1189 10.312C51.4282 9.66133 51.8815 9.18133 52.4789 8.872C53.0869 8.552 53.8282 8.392 54.7029 8.392C55.5989 8.392 56.3455 8.552 56.9429 8.872C57.5402 9.18133 57.9882 9.66133 58.2869 10.312C58.5962 10.952 58.7509 11.7787 58.7509 12.792C58.7509 13.7947 58.5962 14.6213 58.2869 15.272C57.9882 15.9227 57.5402 16.408 56.9429 16.728C56.3455 17.0373 55.5989 17.192 54.7029 17.192ZM54.7029 15.816C55.2362 15.816 55.6735 15.7147 56.0149 15.512C56.3562 15.2987 56.6069 14.9787 56.7669 14.552C56.9375 14.1253 57.0229 13.5867 57.0229 12.936V12.648C57.0229 11.9973 56.9375 11.4587 56.7669 11.032C56.6069 10.6053 56.3562 10.2907 56.0149 10.088C55.6735 9.87467 55.2362 9.768 54.7029 9.768C54.1802 9.768 53.7482 9.87467 53.4069 10.088C53.0655 10.2907 52.8095 10.6053 52.6389 11.032C52.4789 11.4587 52.3989 11.9973 52.3989 12.648V12.936C52.3989 13.5867 52.4789 14.1253 52.6389 14.552C52.8095 14.9787 53.0655 15.2987 53.4069 15.512C53.7482 15.7147 54.1802 15.816 54.7029 15.816ZM61.855 19.912C61.471 19.912 61.1083 19.832 60.767 19.672C60.4363 19.512 60.1697 19.2827 59.967 18.984C59.7643 18.6853 59.663 18.3227 59.663 17.896C59.663 17.4267 59.791 17.048 60.047 16.76C60.3137 16.4613 60.623 16.2373 60.975 16.088C60.719 15.9707 60.511 15.8 60.351 15.576C60.2017 15.352 60.127 15.096 60.127 14.808C60.127 14.4133 60.271 14.0933 60.559 13.848C60.847 13.6027 61.183 13.4427 61.567 13.368C61.1937 13.1227 60.9003 12.8133 60.687 12.44C60.4843 12.0667 60.383 11.6453 60.383 11.176C60.383 10.6107 60.5163 10.1253 60.783 9.72C61.0497 9.304 61.4443 8.97867 61.967 8.744C62.5003 8.50933 63.1457 8.392 63.903 8.392C64.2337 8.392 64.543 8.41867 64.831 8.472C65.1297 8.51467 65.3963 8.57867 65.631 8.664C66.0043 8.472 66.271 8.24267 66.431 7.976C66.591 7.69867 66.687 7.44267 66.719 7.208H68.351C68.351 7.56 68.2763 7.88 68.127 8.168C67.9883 8.44533 67.791 8.68 67.535 8.872C67.2897 9.05333 66.991 9.18133 66.639 9.256C66.9057 9.50133 67.103 9.78933 67.231 10.12C67.3697 10.44 67.439 10.792 67.439 11.176C67.439 11.7307 67.311 12.216 67.055 12.632C66.799 13.048 66.4097 13.3733 65.887 13.608C65.375 13.8427 64.7403 13.96 63.983 13.96H62.671C62.415 13.96 62.207 14.0133 62.047 14.12C61.8977 14.2267 61.823 14.3867 61.823 14.6C61.823 14.7813 61.8977 14.9307 62.047 15.048C62.1963 15.1653 62.3937 15.224 62.639 15.224H66.191C66.8097 15.224 67.3217 15.432 67.727 15.848C68.1323 16.2533 68.335 16.776 68.335 17.416C68.335 17.8853 68.2123 18.3067 67.967 18.68C67.7323 19.064 67.3963 19.3627 66.959 19.576C66.5323 19.8 66.0363 19.912 65.471 19.912H61.855ZM62.399 18.68H65.455C65.679 18.68 65.8817 18.6373 66.063 18.552C66.2443 18.4667 66.3883 18.344 66.495 18.184C66.6017 18.0347 66.655 17.864 66.655 17.672C66.655 17.352 66.5537 17.1013 66.351 16.92C66.159 16.7387 65.919 16.648 65.631 16.648H62.399C62.1003 16.648 61.8497 16.7493 61.647 16.952C61.4443 17.144 61.343 17.384 61.343 17.672C61.343 17.9707 61.439 18.2107 61.631 18.392C61.8337 18.584 62.0897 18.68 62.399 18.68ZM63.919 12.76C64.5483 12.76 65.0177 12.6213 65.327 12.344C65.6363 12.056 65.791 11.6667 65.791 11.176C65.791 10.6747 65.6363 10.2907 65.327 10.024C65.0177 9.74667 64.5483 9.608 63.919 9.608C63.2897 9.608 62.8203 9.74667 62.511 10.024C62.2017 10.2907 62.047 10.6747 62.047 11.176C62.047 11.496 62.111 11.7787 62.239 12.024C62.3777 12.2587 62.5857 12.44 62.863 12.568C63.151 12.696 63.503 12.76 63.919 12.76ZM69.6189 17V5.432H71.2829V17H69.6189ZM76.9194 17.192C76.0554 17.192 75.33 17.0373 74.7434 16.728C74.1674 16.408 73.73 15.9227 73.4314 15.272C73.1327 14.6213 72.9834 13.7947 72.9834 12.792C72.9834 11.7787 73.1327 10.952 73.4314 10.312C73.73 9.66133 74.1727 9.18133 74.7594 8.872C75.346 8.552 76.0767 8.392 76.9514 8.392C77.7514 8.392 78.418 8.54667 78.9514 8.856C79.4954 9.15467 79.906 9.61333 80.1834 10.232C80.4607 10.8507 80.5994 11.6293 80.5994 12.568V13.208H74.6954C74.7167 13.8053 74.8074 14.3067 74.9674 14.712C75.1274 15.1067 75.3674 15.4 75.6874 15.592C76.018 15.7733 76.434 15.864 76.9354 15.864C77.2447 15.864 77.522 15.8267 77.7674 15.752C78.0127 15.6667 78.2207 15.5493 78.3914 15.4C78.562 15.24 78.6954 15.0533 78.7914 14.84C78.8874 14.616 78.9354 14.3653 78.9354 14.088H80.5674C80.5674 14.5893 80.482 15.032 80.3114 15.416C80.1407 15.8 79.89 16.1253 79.5594 16.392C79.2394 16.648 78.8554 16.8453 78.4074 16.984C77.9594 17.1227 77.4634 17.192 76.9194 17.192ZM74.7274 11.992H78.8554C78.8554 11.576 78.8074 11.2293 78.7114 10.952C78.626 10.664 78.498 10.4293 78.3274 10.248C78.1567 10.0667 77.954 9.93867 77.7194 9.864C77.4847 9.77867 77.218 9.736 76.9194 9.736C76.4714 9.736 76.0874 9.816 75.7674 9.976C75.458 10.136 75.218 10.3867 75.0474 10.728C74.8767 11.0587 74.77 11.48 74.7274 11.992ZM85.5708 17V13.608H82.4828V12.232H85.5708V8.824H86.9308V12.232H90.0347V13.608H86.9308V17H85.5708Z" fill="#111827"/>
<defs>
<clipPath id="clip0_1899_3220">
<rect width="20" height="20" fill="white" transform="translate(0 2)"/>
</clipPath>
</defs>
</svg>
