<svg width="13" height="12" viewBox="0 0 13 12" fill="none" xmlns="http://www.w3.org/2000/svg">
<path d="M5.80675 6.52584V0.460938C4.32921 0.538959 2.93787 1.18079 1.91949 2.25416C0.901114 3.32753 0.333286 4.75064 0.333008 6.23024C0.332768 6.98891 0.482009 7.7402 0.772226 8.44116C1.06244 9.14213 1.48794 9.77905 2.0244 10.3155C2.56086 10.852 3.19778 11.2775 3.89874 11.5677C4.5997 11.8579 5.35095 12.0071 6.10962 12.0069C7.58917 12.007 9.01235 11.4393 10.0855 10.4208C11.1587 9.40225 11.8 8.01069 11.8771 6.53315L5.80675 6.52584Z" fill="#DD514C"/>
<path d="M6.91211 0V5.47374H12.3859C12.3127 4.04569 11.7126 2.69551 10.7015 1.6844C9.69034 0.673285 8.34017 0.0731042 6.91211 0Z" fill="#DD514C"/>
</svg>
