<svg width="37" height="36" viewBox="0 0 37 36" fill="none" xmlns="http://www.w3.org/2000/svg">
<rect x="0.466797" width="36" height="36" rx="18" fill="#5952FF"/>
<path d="M17.1998 7.4375C20.6798 7.4375 25.9187 8.51554 28.3774 10.9553C29.0015 11.5795 29.8148 12.7899 29.8148 14.5866C29.8148 17.764 27.2615 22.6247 24.4624 25.4616C23.0061 26.9179 20.6987 28.8282 17.5781 28.8282C14.5331 28.8282 12.2067 26.7477 11.5448 26.0858C8.97262 23.4947 7.11914 19.5797 7.11914 15.9105C7.11914 13.6031 7.7811 11.5795 9.44545 9.8962C10.9963 8.32641 13.6631 7.4375 17.1998 7.4375ZM21.512 20.0903C22.6846 18.9177 23.0061 17.4614 23.0061 16.6671C23.0061 16.0808 22.8548 15.2297 22.1361 14.511C21.0202 13.3951 19.8098 13.0925 18.467 13.0925C16.7837 13.0925 15.6489 13.6221 14.8924 14.3786C14.3061 14.9649 13.7954 15.8916 13.7954 17.1966C13.7954 18.5016 14.4763 19.7499 15.2328 20.5064C15.9326 21.2062 17.0107 21.7168 18.1265 21.7168C19.2424 21.7168 20.3394 21.2629 21.512 20.0903Z" fill="white"/>
</svg>
