<svg width="37" height="36" viewBox="0 0 37 36" fill="none" xmlns="http://www.w3.org/2000/svg">
<rect x="0.234375" width="36" height="36" rx="18" fill="#FF3621"/>
<path d="M26.8546 16.1366L18.1495 21.0738L8.88935 15.8133L8.45117 16.0484V19.8689L18.1495 25.394L26.8546 20.4567V22.4845L18.1495 27.4218L8.88935 22.1612L8.45117 22.3964V23.0429L18.1495 28.5679L27.8771 23.0429V19.2224L27.4389 18.9872L18.1495 24.2478L9.47356 19.3105V17.3121L18.1495 22.22L27.8771 16.6949V12.9332L27.3804 12.6687L18.1495 17.8998L9.94093 13.2271L18.1495 8.58366L24.9266 12.4042L25.5401 12.0809V11.6107L18.1495 7.4375L8.45117 12.9332V13.521L18.1495 19.046L26.8546 14.1087V16.1366Z" fill="white"/>
</svg>
