<svg width="36" height="36" viewBox="0 0 36 36" fill="none" xmlns="http://www.w3.org/2000/svg">
<rect width="36" height="36" rx="18" fill="#1B84FF"/>
<path d="M15.7019 8.15827C13.2871 8.47624 11.2762 9.36139 9.59179 10.8352C8.80546 11.527 8.191 12.3219 7.73554 13.2501C7.40468 13.9204 7.30155 14.1997 7.14257 14.8614C6.99647 15.493 6.9578 16.6489 7.06522 17.3321C7.24999 18.5137 7.73983 19.6266 8.53905 20.6837C8.79686 21.0231 9.5703 21.818 9.91405 22.0887L10.1805 22.3036V24.4477C10.1805 25.8141 10.1976 26.5919 10.2234 26.5919C10.2449 26.5919 11.1344 26.0505 12.1957 25.3887L14.1293 24.1856L14.5933 24.293C15.2121 24.4305 15.9039 24.5294 16.4539 24.5594C16.8707 24.5809 16.9137 24.5938 17.034 24.7012C17.4851 25.1137 18.4777 25.6723 19.2254 25.9344C19.7152 26.1063 20.3598 26.2653 20.8582 26.3383C21.3051 26.4028 22.6629 26.4157 23.2043 26.3598L23.5695 26.3255L25.0734 27.1204C25.8984 27.5587 26.6074 27.9325 26.6504 27.9497C26.7191 27.9755 26.7234 27.8895 26.7234 26.536V25.0965L27.0844 24.813C27.9566 24.134 28.5582 23.2661 28.8547 22.2735C28.9492 21.9641 28.975 21.7708 28.9922 21.2938C29.0137 20.645 28.9793 20.3743 28.7988 19.8243C28.584 19.1626 28.2144 18.561 27.6601 17.9766L27.4969 17.8005L27.5656 17.3536C27.6687 16.6833 27.6258 15.4715 27.484 14.8614C27.325 14.1997 27.2219 13.9204 26.891 13.2501C26.4355 12.3219 25.8211 11.527 25.0348 10.8352C23.3332 9.3442 21.3266 8.47194 18.8816 8.15397C18.0394 8.04655 16.5226 8.04655 15.7019 8.15827ZM18.9031 9.12077C21.941 9.55475 24.4461 11.0458 25.791 13.2286C26.4484 14.3028 26.7707 15.6219 26.6633 16.8036L26.6289 17.1301L26.3668 16.9669C24.6824 15.9485 22.3879 15.5962 20.2953 16.0387C18.1855 16.4856 16.484 17.6673 15.6762 19.2528C15.5473 19.502 15.3883 19.979 15.3152 20.3313C15.2336 20.7137 15.2336 21.5688 15.3152 21.9684C15.3969 22.3551 15.6117 22.918 15.8223 23.2747C15.9726 23.5325 15.9769 23.5411 15.8824 23.5411C15.7277 23.5411 14.9328 23.3864 14.4258 23.2618L13.9703 23.1458L12.5566 24.0223L11.1473 24.8989L11.1258 23.3477L11.1043 21.7923L10.6746 21.4485C8.80975 19.9661 7.86015 18.0798 7.95897 16.0688C8.03202 14.5606 8.57772 13.336 9.74647 12.034C11.1258 10.5087 13.5148 9.36999 15.8953 9.10358C16.1187 9.08209 16.3723 9.05202 16.4539 9.04342C16.7719 9.00475 18.4734 9.06061 18.9031 9.12077ZM22.7918 16.838C23.823 16.9368 24.6566 17.1645 25.4558 17.5684C27.0242 18.359 27.9609 19.5837 28.0426 20.9458C28.1199 22.2262 27.4066 23.4594 26.0746 24.3446L25.7781 24.5423V25.4575C25.7781 25.9645 25.7652 26.377 25.7523 26.377C25.7394 26.377 25.2754 26.1364 24.7254 25.8399L23.7199 25.3028L23.2988 25.363C21.666 25.5993 20.1191 25.3715 18.7957 24.7012C17.5453 24.0696 16.7117 23.1887 16.3594 22.1231C16.2305 21.745 16.2219 21.6719 16.2219 21.1348C16.2219 20.5977 16.2305 20.5247 16.3594 20.1465C17.0683 18.011 19.8742 16.5673 22.7918 16.838Z" fill="white"/>
</svg>
