<svg width="36" height="36" viewBox="0 0 36 36" fill="none" xmlns="http://www.w3.org/2000/svg">
<rect width="36" height="36" rx="18" fill="#0C4B5E"/>
<g clip-path="url(#clip0_1754_280986)">
<path d="M16.9473 7.06858C15.091 7.39085 13.4109 8.61975 12.5687 10.2655C12.2809 10.8284 12.0617 11.4471 11.9586 12.0057C11.8383 12.633 11.8469 13.7416 11.9758 14.3303C12.182 15.2885 12.4098 15.7869 13.209 17.0545C13.5055 17.5272 13.7461 17.9268 13.7461 17.9483C13.7461 17.9655 12.9898 18.408 12.0703 18.928C11.1465 19.4436 10.3559 19.8991 10.3172 19.9377C10.2742 19.9764 10.1324 20.2944 9.99922 20.6467C9.86602 20.9991 9.13555 22.9198 8.3793 24.9178C7.48984 27.2596 7 28.6002 7 28.7034C7 28.7979 7.03008 28.8838 7.07734 28.9268C7.2707 29.103 7.33086 29.0729 10.0637 27.5346L12.6633 26.0737L15.2629 27.5346C17.1965 28.626 17.8969 28.9998 18 28.9998C18.1031 28.9998 18.8035 28.626 20.7371 27.5389L23.3281 26.078L23.457 26.1424C23.5301 26.1811 24.7031 26.8385 26.0609 27.6034C28.0848 28.7463 28.566 28.9998 28.6992 28.9998C28.8969 28.9998 29 28.8967 29 28.6948C29 28.5014 25.773 19.9936 25.6742 19.9205C25.6355 19.8905 24.8492 19.4436 23.9297 18.928C23.0059 18.408 22.2539 17.9655 22.2539 17.9483C22.2539 17.9268 22.4902 17.5401 22.7781 17.0846C23.5773 15.8213 23.818 15.2842 24.0242 14.3303C24.1488 13.7459 24.1574 12.5815 24.0414 12.0057C23.8609 11.0862 23.4441 10.1409 22.9242 9.44476C22.3828 8.72718 21.5363 8.01819 20.7371 7.61429C20.3246 7.40804 19.5168 7.15022 19.0355 7.06858C18.5328 6.98265 17.4285 6.98265 16.9473 7.06858ZM18.9453 7.75608C21.1281 8.13851 22.877 9.84436 23.3539 12.0701C23.4613 12.5772 23.4613 13.6686 23.3539 14.1756C23.2551 14.6397 23.0617 15.1854 22.8512 15.5936C22.6879 15.9158 18.348 22.8209 18.2063 22.9842C18.1074 23.0959 17.8969 23.0959 17.798 22.9885C17.6777 22.8553 13.2562 15.8213 13.1102 15.5291C12.934 15.1725 12.7406 14.6096 12.6461 14.1756C12.5387 13.6686 12.5387 12.5772 12.6461 12.0701C12.9855 10.4975 13.9223 9.19983 15.3145 8.38343C16.35 7.77327 17.7078 7.54124 18.9453 7.75608ZM13.5227 19.942C13.3852 20.5866 13.2734 21.1752 13.2734 21.2483C13.2734 21.4502 13.4023 21.5834 13.5914 21.5834C13.8707 21.5834 13.8965 21.5233 14.1543 20.2987C14.2832 19.6842 14.4035 19.1471 14.425 19.1084C14.4465 19.0483 14.7301 19.4694 15.5723 20.8057C17.2824 23.5213 17.2824 23.5213 17.4801 23.6373L17.6562 23.7362V25.8932C17.6562 27.0834 17.6434 28.0545 17.6305 28.0545C17.6133 28.0545 13.1145 25.5366 13.0672 25.4979C13.0586 25.4893 13.1918 24.8448 13.3551 24.0627C13.5227 23.2764 13.6602 22.576 13.6602 22.503C13.6602 22.4213 13.6215 22.3268 13.5656 22.2666C13.4195 22.1119 13.1102 22.1463 13.0371 22.3268C13.0199 22.3698 12.8566 23.0873 12.6762 23.9252L12.3496 25.4463L10.184 26.6666C8.99375 27.3369 8.01406 27.8784 8.00977 27.8741C8.00117 27.8612 10.8156 20.4405 10.8328 20.4276C10.8457 20.419 13.7633 18.7733 13.7719 18.7733C13.7719 18.7733 13.6602 19.3018 13.5227 19.942ZM23.7793 19.6455C24.5355 20.0709 25.1586 20.419 25.1672 20.4276C25.1844 20.4448 27.9988 27.8612 27.9902 27.8741C27.9816 27.8869 23.7063 25.4807 23.6633 25.442C23.6504 25.4248 23.3195 23.9209 22.9328 22.0948C22.2969 19.0998 22.2367 18.7862 22.3184 18.8248C22.3656 18.8506 23.023 19.2201 23.7793 19.6455ZM22.2797 22.3354C22.6449 24.067 22.9414 25.4893 22.9328 25.4979C22.8898 25.5323 18.391 28.0545 18.3695 28.0545C18.3566 28.0545 18.3438 27.0834 18.348 25.8932V23.7362L18.5457 23.6073C18.7219 23.4912 18.8895 23.2506 20.1441 21.2569C21.1926 19.594 21.5535 19.0526 21.575 19.1084C21.5965 19.1471 21.9102 20.5994 22.2797 22.3354Z" fill="white"/>
<path d="M17.1369 9.66016C15.8178 9.98672 14.7908 11.0523 14.5158 12.3844C14.2194 13.8238 14.8252 15.302 16.0369 16.0926C16.66 16.5008 17.2229 16.6641 18.0006 16.6641C19.4057 16.6641 20.5701 15.9465 21.1846 14.7047C22.2029 12.6465 21.0643 10.1887 18.8471 9.66016C18.3787 9.54844 17.5967 9.54844 17.1369 9.66016ZM18.5807 10.309C19.1178 10.4035 19.6463 10.7086 20.0975 11.1855C20.8065 11.9289 21.0471 12.9859 20.7334 13.9785C20.4928 14.7305 19.9557 15.3449 19.2381 15.693C18.7783 15.9121 18.4819 15.9852 18.0006 15.9852C17.5194 15.9852 17.2229 15.9121 16.7545 15.6887C16.4108 15.5211 16.2904 15.4352 15.9768 15.1215C15.676 14.8207 15.5729 14.6832 15.4311 14.3867C15.0272 13.5445 15.0272 12.6937 15.4311 11.8516C15.5729 11.5551 15.676 11.4176 15.9768 11.1168C16.7244 10.3777 17.5279 10.1285 18.5807 10.309Z" fill="white"/>
<path d="M17.4247 10.9105C16.8833 11.0395 16.2603 11.5336 15.9896 12.0492C15.6415 12.7195 15.6415 13.5187 15.9896 14.1891C16.1743 14.5414 16.6169 14.9754 16.9692 15.1473C17.3302 15.3234 17.5536 15.3707 18.0005 15.375C18.6579 15.375 19.1392 15.1773 19.5903 14.7305C20.1747 14.1547 20.3981 13.377 20.2134 12.5863C20.0243 11.7914 19.3282 11.0867 18.5591 10.9105C18.3271 10.8547 17.6567 10.859 17.4247 10.9105ZM18.7224 11.7227C19.0446 11.8902 19.3024 12.1652 19.4528 12.4961C19.6032 12.8184 19.6118 13.3512 19.47 13.6992C19.3411 14.0215 19.0532 14.3395 18.7224 14.5199C18.4646 14.6617 18.4345 14.666 18.0005 14.666C17.5665 14.666 17.5364 14.6617 17.2786 14.5199C16.9563 14.3438 16.6985 14.0688 16.5481 13.7422C16.4536 13.5445 16.4364 13.4457 16.4364 13.1191C16.4364 12.6723 16.5396 12.3973 16.8188 12.075C17.1411 11.7055 17.5278 11.5465 18.0649 11.5637C18.4087 11.5766 18.4817 11.5938 18.7224 11.7227Z" fill="white"/>
</g>
<defs>
<clipPath id="clip0_1754_280986">
<rect width="22" height="22" fill="white" transform="translate(7 7)"/>
</clipPath>
</defs>
</svg>
