<svg width="36" height="36" viewBox="0 0 36 36" fill="none" xmlns="http://www.w3.org/2000/svg">
<rect width="36" height="36" rx="18" fill="#006BFF"/>
<path d="M21.631 21.1395C20.9796 21.7177 20.1656 22.4369 18.6894 22.4369H17.8065C17.301 22.4462 16.7988 22.3545 16.3291 22.1672C15.8595 21.9799 15.432 21.7008 15.0716 21.3462C14.3837 20.6367 14.005 19.6835 14.0186 18.6953V17.4872C14.0053 16.4994 14.3839 15.5466 15.0716 14.8374C15.432 14.4828 15.8595 14.2037 16.3291 14.0164C16.7988 13.8291 17.301 13.7374 17.8065 13.7467H18.6894C20.1667 13.7467 20.9796 14.4649 21.631 15.0387C22.3083 15.6353 22.8919 16.1564 24.4488 16.1564C24.6865 16.1562 24.9238 16.1371 25.1584 16.0993L25.1519 16.0853C25.06 15.8538 24.952 15.6289 24.8289 15.4124L23.7877 13.6099C23.3184 12.7974 22.6434 12.1227 21.8307 11.6536C21.018 11.1845 20.0962 10.9375 19.1578 10.9375H17.0722C16.1338 10.9375 15.212 11.1845 14.3993 11.6536C13.5866 12.1227 12.9116 12.7974 12.4423 13.6099L11.4011 15.4124C10.9323 16.2254 10.6855 17.1474 10.6855 18.0859C10.6855 19.0244 10.9323 19.9464 11.4011 20.7594L12.4423 22.5618C12.9116 23.3745 13.5865 24.0494 14.3992 24.5186C15.2119 24.9879 16.1337 25.2351 17.0722 25.2353H19.1546C20.093 25.2351 21.0149 24.9879 21.8276 24.5186C22.6403 24.0494 23.3152 23.3745 23.7845 22.5618L24.8257 20.7615C24.949 20.5454 25.0569 20.3209 25.1487 20.0897L25.1552 20.0767C24.9207 20.0372 24.6834 20.0174 24.4456 20.0175C22.8887 20.0175 22.3051 20.5354 21.6278 21.1341" fill="white"/>
<path d="M18.6919 14.8438H17.809C16.1831 14.8438 15.1172 16.0045 15.1172 17.4903V18.6984C15.1172 20.1854 16.1853 21.3461 17.809 21.3461H18.6919C21.0607 21.3461 20.8744 18.931 24.4513 18.931C24.7901 18.93 25.1283 18.961 25.4613 19.0236C25.57 18.4093 25.57 17.7806 25.4613 17.1662C25.1281 17.2278 24.7901 17.2588 24.4513 17.2588C20.8734 17.2588 21.0607 14.8438 18.6919 14.8438Z" fill="#006BFF"/>
<path d="M27.5153 19.9038C26.9063 19.4574 26.2038 19.1551 25.4609 19.0198V19.0381C25.3963 19.3938 25.2964 19.7422 25.1627 20.0782C25.7762 20.1736 26.3582 20.4135 26.8607 20.7781C26.8616 20.7834 26.8616 20.7889 26.8607 20.7942C26.5062 21.9442 25.9286 23.0131 25.1608 23.9397C24.3931 24.8664 23.4502 25.6326 22.3862 26.1947C21.3221 26.7568 20.1577 27.1036 18.9596 27.2155C17.7614 27.3273 16.5529 27.2019 15.4032 26.8465C14.2536 26.4916 13.1852 25.9136 12.2591 25.1457C11.3329 24.3777 10.5671 23.4348 10.0055 22.3708C9.4438 21.3068 9.0973 20.1426 8.98574 18.9446C8.87418 17.7467 8.99975 16.5385 9.35528 15.389C9.70958 14.2395 10.287 13.1712 11.0545 12.245C11.8221 11.3188 12.7646 10.553 13.8284 9.99143C14.8921 9.42982 16.0561 9.08341 17.2538 8.972C18.4514 8.8606 19.6594 8.98638 20.8084 9.34216C22.2335 9.78081 23.5298 10.561 24.5846 11.6149C25.6394 12.6687 26.4208 13.9644 26.8607 15.389C26.8597 15.3947 26.8597 15.4006 26.8607 15.4063C26.3583 15.7706 25.7761 16.0098 25.1627 16.104C25.2962 16.4407 25.3961 16.7899 25.4609 17.1463C25.4599 17.152 25.4599 17.1578 25.4609 17.1635C26.2036 17.028 26.906 16.7262 27.5153 16.2806C28.1011 15.8499 27.9869 15.3567 27.8986 15.0671C27.0961 12.4659 25.2932 10.29 22.8866 9.01795C20.4799 7.74587 17.6665 7.48177 15.0652 8.28374C12.464 9.0863 10.2881 10.8892 9.016 13.2958C7.74391 15.7025 7.47981 18.5159 8.28178 21.1172C9.0841 23.7186 10.8869 25.8947 13.2937 27.1668C15.7004 28.4389 18.5139 28.7029 21.1153 27.9006C22.7129 27.4079 24.166 26.5323 25.3482 25.3501C26.5304 24.1679 27.4059 22.7148 27.8986 21.1172C27.9869 20.8276 28.1011 20.3377 27.5153 19.9048" fill="white"/>
<path d="M25.1586 16.1076C24.9244 16.1461 24.6875 16.1659 24.4501 16.1668C22.8932 16.1668 22.3085 15.6489 21.6334 15.0491C20.9798 14.4699 20.168 13.7506 18.6907 13.7506H17.8078C17.3022 13.7415 16.7999 13.8334 16.3303 14.0209C15.8607 14.2084 15.4332 14.4877 15.0729 14.8424C14.3852 15.5516 14.0066 16.5044 14.0199 17.4922V18.7003C14.0063 19.6885 14.3849 20.6417 15.0729 21.3512C15.4333 21.7058 15.8608 21.985 16.3304 22.1722C16.8 22.3595 17.3023 22.4512 17.8078 22.4419H18.6907C20.168 22.4419 20.9798 21.7227 21.6334 21.1499C22.3085 20.5534 22.8932 20.0322 24.4501 20.0322C24.6874 20.0324 24.9243 20.0515 25.1586 20.0893C25.2951 19.7517 25.3965 19.401 25.4612 19.0427V19.0244C25.1276 18.9633 24.7892 18.9327 24.4501 18.9329C20.8722 18.9329 21.0595 21.3491 18.6907 21.3491H17.8078C16.182 21.3491 15.116 20.1873 15.116 18.7003V17.4901C15.116 16.0042 16.183 14.8435 17.8078 14.8435H18.6907C21.0595 14.8435 20.8732 17.2586 24.4501 17.2586C24.7893 17.2587 25.1278 17.2273 25.4612 17.1649V17.1488C25.3967 16.7925 25.2964 16.4437 25.1618 16.1076" fill="#0AE8F0"/>
</svg>
