<svg width="28" height="28" viewBox="0 0 28 28" fill="none" xmlns="http://www.w3.org/2000/svg">
<path d="M14.0319 0H13.9681C6.25374 0 0 6.25374 0 13.9681V14.0319C0 21.7463 6.25374 28 13.9681 28H14.0319C21.7463 28 28 21.7463 28 14.0319V13.9681C28 6.25374 21.7463 0 14.0319 0Z" fill="#00E510"/>
<path d="M16.7304 18.0923C13.1469 18.0923 10.2314 15.1759 10.2305 11.5924C10.2314 10.684 10.9711 9.94531 11.8775 9.94531C11.9707 9.94531 12.0629 9.95316 12.1512 9.96886C12.3454 10.0012 12.5299 10.067 12.6996 10.166C12.7241 10.1807 12.7408 10.2043 12.7447 10.2318L13.1234 12.6185C13.1283 12.6469 13.1194 12.6744 13.1008 12.695C12.8919 12.9265 12.625 13.0933 12.3278 13.1766L12.1846 13.2169L12.2385 13.3552C12.727 14.5991 13.7218 15.5928 14.9666 16.0833L15.1049 16.1382L15.1452 15.995C15.2285 15.6978 15.3953 15.4309 15.6268 15.222C15.6435 15.2063 15.6661 15.1984 15.6886 15.1984C15.6935 15.1984 15.6984 15.1984 15.7043 15.1994L18.091 15.5781C18.1195 15.583 18.143 15.5987 18.1577 15.6232C18.2558 15.7929 18.3216 15.9783 18.3549 16.1725C18.3706 16.2589 18.3775 16.3501 18.3775 16.4453C18.3775 17.3527 17.6388 18.0913 16.7304 18.0923Z" fill="#FDFDFD"/>
<path d="M23.0839 13.2139C22.8906 11.0302 21.89 9.00451 20.2665 7.51049C18.6332 6.00763 16.5143 5.17969 14.2982 5.17969C9.43456 5.17969 5.47731 9.13694 5.47731 14.0006C5.47731 15.633 5.92757 17.2231 6.78004 18.6083L4.87891 22.8167L10.9659 22.1682C12.0243 22.6018 13.1446 22.8216 14.2973 22.8216C14.6004 22.8216 14.9114 22.8059 15.2233 22.7735C15.498 22.7441 15.7756 22.7009 16.0483 22.646C20.1213 21.8229 23.0947 18.208 23.1182 14.0477V14.0006C23.1182 13.7358 23.1064 13.4709 23.0829 13.2139H23.0839ZM11.2003 20.3211L7.83264 20.6801L8.83814 18.4523L8.63703 18.1825C8.62232 18.1629 8.6076 18.1433 8.59093 18.1207C7.71786 16.9151 7.25679 15.4907 7.25679 14.0016C7.25679 10.1189 10.4155 6.96016 14.2982 6.96016C17.9357 6.96016 21.0189 9.79812 21.3161 13.4209C21.3318 13.6151 21.3407 13.8103 21.3407 14.0026C21.3407 14.0575 21.3397 14.1115 21.3387 14.1694C21.2642 17.4174 18.9952 20.1759 15.8207 20.8782C15.5784 20.9322 15.3302 20.9734 15.083 20.9999C14.826 21.0293 14.5621 21.044 14.3002 21.044C13.3673 21.044 12.4609 20.8635 11.6045 20.5065C11.5093 20.4682 11.4161 20.427 11.3288 20.3848L11.2013 20.323L11.2003 20.3211Z" fill="#FDFDFD"/>
</svg>
