<svg width="28" height="28" viewBox="0 0 28 28" fill="none" xmlns="http://www.w3.org/2000/svg">
<path d="M14.0319 0H13.9681C6.25375 0 0 6.25374 0 13.9681V14.0319C0 21.7463 6.25375 28 13.9681 28H14.0319C21.7463 28 28 21.7463 28 14.0319V13.9681C28 6.25374 21.7463 0 14.0319 0Z" fill="#007EBB"/>
<path d="M6.67728 9.30875C6.30843 8.96639 6.125 8.54261 6.125 8.03839C6.125 7.53417 6.30941 7.09175 6.67728 6.74841C7.04612 6.40604 7.52092 6.23438 8.10264 6.23438C8.68436 6.23438 9.14052 6.40604 9.50838 6.74841C9.87723 7.09077 10.0607 7.52141 10.0607 8.03839C10.0607 8.55536 9.87625 8.96639 9.50838 9.30875C9.13954 9.65111 8.6716 9.82278 8.10264 9.82278C7.53367 9.82278 7.04612 9.65111 6.67728 9.30875ZM9.75068 11.2727V21.7691H6.434V11.2727H9.75068Z" fill="#FEFFFC"/>
<path d="M20.7914 12.31C21.5143 13.0948 21.8753 14.1719 21.8753 15.5433V21.5841H18.7254V15.969C18.7254 15.2774 18.5459 14.7399 18.1879 14.3573C17.8298 13.9747 17.3472 13.7824 16.7429 13.7824C16.1386 13.7824 15.656 13.9737 15.2979 14.3573C14.9398 14.7399 14.7603 15.2774 14.7603 15.969V21.5841H11.5918V11.2437H14.7603V12.6151C15.0811 12.1579 15.5137 11.7969 16.0572 11.5311C16.6007 11.2652 17.2118 11.1328 17.8916 11.1328C19.1021 11.1328 20.0694 11.5252 20.7914 12.31Z" fill="#FEFFFC"/>
</svg>
