<svg width="28" height="28" viewBox="0 0 28 28" fill="none" xmlns="http://www.w3.org/2000/svg">
<path d="M14.0319 0H13.9681C6.25374 0 0 6.25374 0 13.9681V14.0319C0 21.7463 6.25374 28 13.9681 28H14.0319C21.7463 28 28 21.7463 28 14.0319V13.9681C28 6.25374 21.7463 0 14.0319 0Z" fill="url(#paint0_linear_1799_231738)"/>
<path d="M18.3329 5.70312H9.66894C7.27536 5.70312 5.32812 7.65036 5.32812 10.0439V17.9702C5.32812 20.3638 7.27536 22.311 9.66894 22.311H18.3329C20.7265 22.311 22.6737 20.3638 22.6737 17.9702V10.0439C22.6737 7.65036 20.7265 5.70312 18.3329 5.70312ZM6.85943 10.0439C6.85943 8.49498 8.11998 7.23443 9.66894 7.23443H18.3329C19.8819 7.23443 21.1424 8.49498 21.1424 10.0439V17.9702C21.1424 19.5192 19.8819 20.7797 18.3329 20.7797H9.66894C8.11998 20.7797 6.85943 19.5192 6.85943 17.9702V10.0439Z" fill="white"/>
<path d="M14.0006 18.0441C16.2264 18.0441 18.0383 16.2333 18.0383 14.0064C18.0383 11.7796 16.2274 9.96875 14.0006 9.96875C11.7738 9.96875 9.96289 11.7796 9.96289 14.0064C9.96289 16.2333 11.7738 18.0441 14.0006 18.0441ZM14.0006 11.501C15.3828 11.501 16.507 12.6252 16.507 14.0074C16.507 15.3896 15.3828 16.5138 14.0006 16.5138C12.6184 16.5138 11.4942 15.3896 11.4942 14.0074C11.4942 12.6252 12.6184 11.501 14.0006 11.501Z" fill="white"/>
<path d="M18.4121 10.6211C19.0115 10.6211 19.5 10.1336 19.5 9.53322C19.5 8.93286 19.0125 8.44531 18.4121 8.44531C17.8118 8.44531 17.3242 8.93286 17.3242 9.53322C17.3242 10.1336 17.8118 10.6211 18.4121 10.6211Z" fill="white"/>
<defs>
<linearGradient id="paint0_linear_1799_231738" x1="4.09067" y1="23.9093" x2="23.9093" y2="4.09165" gradientUnits="userSpaceOnUse">
<stop stop-color="#FAAD4F"/>
<stop offset="0.35" stop-color="#DD2A7B"/>
<stop offset="0.62" stop-color="#9537B0"/>
<stop offset="1" stop-color="#515BD4"/>
</linearGradient>
</defs>
</svg>
