<svg width="28" height="28" viewBox="0 0 28 28" fill="none" xmlns="http://www.w3.org/2000/svg">
<path d="M14.0319 0H13.9681C6.25374 0 0 6.25374 0 13.9681V14.0319C0 21.7463 6.25374 28 13.9681 28H14.0319C21.7463 28 28 21.7463 28 14.0319V13.9681C28 6.25374 21.7463 0 14.0319 0Z" fill="#FF0000"/>
<path fill-rule="evenodd" clip-rule="evenodd" d="M12.7221 17.8266C12.7054 17.8844 12.6897 17.9335 12.677 17.9825C11.9363 20.8843 11.8539 21.5288 11.0927 22.8766C10.7297 23.5172 10.3207 24.1244 9.86845 24.7052C9.81744 24.7709 9.76936 24.8552 9.66734 24.8346C9.55551 24.8111 9.54668 24.7101 9.53491 24.6208C9.41327 23.7389 9.34558 22.855 9.37501 21.9643C9.41327 20.8048 9.5565 20.4065 11.0515 14.1204C11.0731 14.0243 11.0486 13.9448 11.0172 13.8585C10.6591 12.8932 10.5885 11.9132 10.9014 10.9205C11.5783 8.77607 14.0091 8.61225 14.4339 10.3809C14.6958 11.4747 14.0033 12.907 13.4716 15.0239C13.0311 16.77 15.0872 18.012 16.8442 16.7367C18.4647 15.5615 19.0935 12.7441 18.9739 10.7469C18.7384 6.76507 14.3721 5.90475 11.6028 7.18689C8.42739 8.65541 7.70539 12.5911 9.13958 14.3902C9.32106 14.6188 9.66342 14.759 9.60358 14.9906C9.51137 15.3506 9.42994 15.7135 9.32989 16.0716C9.25533 16.3384 8.83057 16.4355 8.5608 16.3257C8.03206 16.1118 7.5916 15.7753 7.23452 15.3319C6.01713 13.8242 5.66889 10.842 7.27867 8.31697C9.06208 5.52021 12.3797 4.38816 15.409 4.73151C19.0268 5.14253 21.3135 7.61459 21.7412 10.4192C21.9364 11.6964 21.7961 14.8463 20.0029 17.0732C17.9399 19.6315 14.5958 19.8013 13.0527 18.2307C12.934 18.1101 12.8388 17.9698 12.7221 17.8256V17.8266Z" fill="white"/>
</svg>
