<svg width="28" height="28" viewBox="0 0 28 28" fill="none" xmlns="http://www.w3.org/2000/svg">
<path d="M28 14.0005C28 21.0714 22.7586 26.917 15.9497 27.8656C15.313 27.9539 14.6617 28 14.0005 28C13.2373 28 12.4878 27.9392 11.758 27.8215C5.09127 26.7483 0 20.9684 0 14.0005C0 6.26844 6.26844 0 13.9995 0C21.7306 0 28 6.26844 28 14.0005Z" fill="#1877F2"/>
<path d="M15.9486 11.2417V14.2915H19.7214L19.124 18.3998H15.9486V27.8653C15.3119 27.9536 14.6606 27.9997 13.9994 27.9997C13.2362 27.9997 12.4867 27.9389 11.7569 27.8211V18.3998H8.27734V14.2915H11.7569V10.5599C11.7569 8.24478 13.6335 6.36719 15.9496 6.36719V6.36915C15.9564 6.36915 15.9623 6.36719 15.9692 6.36719H19.7224V9.92028H17.27C16.5411 9.92028 15.9496 10.5118 15.9496 11.2407L15.9486 11.2417Z" fill="white"/>
</svg>
