<svg width="28" height="28" viewBox="0 0 28 28" fill="none" xmlns="http://www.w3.org/2000/svg">
<path d="M27.998 14.0005C27.998 21.0714 22.7569 26.917 15.9481 27.8656C15.3115 27.9539 14.6602 28 13.999 28C13.2358 28 12.4864 27.9392 11.7566 27.8215C5.09109 26.7483 0 20.9684 0 14.0005C0 6.26844 6.26822 0 14 0C21.7318 0 28 6.26844 28 14.0005H27.998Z" fill="#1C1C1B"/>
<path d="M5.67889 6.17188L12.1354 14.8045L5.63867 21.8233H7.10126L12.7897 15.6785L17.3855 21.8233H22.3618L15.5423 12.7052L21.5898 6.17188H20.1272L14.8889 11.8311L10.6562 6.17188H5.67986H5.67889ZM7.82911 7.24899H10.1147L20.2096 20.7462H17.924L7.82911 7.24899Z" fill="white"/>
</svg>
