<svg width="78" height="24" viewBox="0 0 78 24" fill="none" xmlns="http://www.w3.org/2000/svg">
<g clip-path="url(#clip0_1899_3237)">
<path d="M11.715 4.84157C10.2092 5.48074 9.21919 6.88574 9.16836 8.49157L9.16669 8.64324L8.96419 8.62407C6.97086 8.39991 5.21586 7.36407 4.01086 5.68157C3.92926 5.56755 3.82022 5.47595 3.69381 5.41527C3.56741 5.35458 3.42774 5.32678 3.28773 5.33442C3.14772 5.34207 3.01191 5.38491 2.89286 5.459C2.77382 5.53308 2.67539 5.63601 2.60669 5.75824L2.52586 5.91324L2.48503 5.99574C1.88586 7.23324 1.49336 8.73741 1.63753 10.3316L1.66253 10.5591C1.89836 12.4449 2.91253 14.0716 4.81169 15.2916L4.95586 15.3807L4.88836 15.4166C3.79253 15.9691 2.79003 16.2099 1.69919 16.1666C0.819193 16.1332 0.494193 17.3099 1.26753 17.7316C4.26586 19.3657 7.48503 19.8699 10.2609 19.0649C13.6442 18.0816 16.2209 15.5457 17.2067 12.0374L17.3125 11.6249C17.5109 10.7974 17.6225 9.95324 17.6467 9.10491L17.6492 8.82824L17.9767 8.17907L18.3434 7.46074L18.5217 7.09907L18.62 6.89324C18.8409 6.42241 19 6.03241 19.0984 5.70157L19.11 5.65491L19.1167 5.63991C19.3 5.14574 18.9784 4.50824 18.3325 4.50824L18.2309 4.51407C18.165 4.52217 18.1004 4.53811 18.0384 4.56157L17.9667 4.59324C17.7289 4.70873 17.4839 4.80894 17.2334 4.89324L16.9367 4.98907L16.7109 5.05574L16.0675 5.23407C14.9542 4.30241 13.4475 4.18907 11.8909 4.77241L11.715 4.84157Z" fill="#0DCAF0"/>
</g>
<path d="M31.984 17V7.56H28.352V6.024H37.44V7.56H33.776V17H31.984ZM39.9213 17L37.3933 8.584H39.1213L40.3533 13.192C40.4173 13.416 40.4706 13.6507 40.5133 13.896C40.5666 14.1413 40.6146 14.36 40.6573 14.552C40.6999 14.744 40.7319 14.8773 40.7533 14.952H40.8493C40.8919 14.76 40.9399 14.5413 40.9933 14.296C41.0466 14.0507 41.0946 13.8267 41.1373 13.624C41.1799 13.4107 41.2119 13.2507 41.2333 13.144L42.3533 8.584H44.1453L45.2973 13.16C45.3399 13.3307 45.3826 13.528 45.4253 13.752C45.4786 13.9653 45.5266 14.1787 45.5693 14.392C45.6226 14.6053 45.6599 14.792 45.6813 14.952H45.7773C45.8093 14.8027 45.8466 14.6267 45.8893 14.424C45.9426 14.2107 45.9959 13.9973 46.0493 13.784C46.1026 13.5707 46.1506 13.3733 46.1933 13.192L47.4093 8.584H48.9933L46.4813 17H44.7533L43.7293 12.808C43.6866 12.6053 43.6333 12.3707 43.5693 12.104C43.5053 11.8373 43.4466 11.5707 43.3933 11.304C43.3399 11.0373 43.2973 10.8027 43.2653 10.6H43.1693C43.1479 10.7173 43.1159 10.888 43.0733 11.112C43.0413 11.336 42.9933 11.592 42.9293 11.88C42.8653 12.168 42.7906 12.4773 42.7053 12.808L41.6493 17H39.9213ZM50.197 7.128V5.432H51.861V7.128H50.197ZM50.197 17V8.584H51.861V17H50.197ZM56.1055 17.192C55.6255 17.192 55.2468 17.1013 54.9695 16.92C54.7028 16.728 54.5108 16.488 54.3935 16.2C54.2868 15.9013 54.2335 15.5867 54.2335 15.256V9.96H53.1775V8.584H54.2655L54.5695 6.232H55.8975V8.584H57.4175V9.96H55.8975V15.064C55.8975 15.3093 55.9508 15.496 56.0575 15.624C56.1642 15.752 56.3402 15.816 56.5855 15.816H57.4175V16.936C57.3108 16.9787 57.1775 17.016 57.0175 17.048C56.8682 17.0907 56.7135 17.1227 56.5535 17.144C56.3935 17.176 56.2442 17.192 56.1055 17.192ZM60.9805 17.192C60.5005 17.192 60.1218 17.1013 59.8445 16.92C59.5778 16.728 59.3858 16.488 59.2685 16.2C59.1618 15.9013 59.1085 15.5867 59.1085 15.256V9.96H58.0525V8.584H59.1405L59.4445 6.232H60.7725V8.584H62.2925V9.96H60.7725V15.064C60.7725 15.3093 60.8258 15.496 60.9325 15.624C61.0392 15.752 61.2152 15.816 61.4605 15.816H62.2925V16.936C62.1858 16.9787 62.0525 17.016 61.8925 17.048C61.7432 17.0907 61.5885 17.1227 61.4285 17.144C61.2685 17.176 61.1192 17.192 60.9805 17.192ZM67.2475 17.192C66.3835 17.192 65.6582 17.0373 65.0715 16.728C64.4955 16.408 64.0582 15.9227 63.7595 15.272C63.4608 14.6213 63.3115 13.7947 63.3115 12.792C63.3115 11.7787 63.4608 10.952 63.7595 10.312C64.0582 9.66133 64.5008 9.18133 65.0875 8.872C65.6742 8.552 66.4048 8.392 67.2795 8.392C68.0795 8.392 68.7462 8.54667 69.2795 8.856C69.8235 9.15467 70.2342 9.61333 70.5115 10.232C70.7888 10.8507 70.9275 11.6293 70.9275 12.568V13.208H65.0235C65.0448 13.8053 65.1355 14.3067 65.2955 14.712C65.4555 15.1067 65.6955 15.4 66.0155 15.592C66.3462 15.7733 66.7622 15.864 67.2635 15.864C67.5728 15.864 67.8502 15.8267 68.0955 15.752C68.3408 15.6667 68.5488 15.5493 68.7195 15.4C68.8902 15.24 69.0235 15.0533 69.1195 14.84C69.2155 14.616 69.2635 14.3653 69.2635 14.088H70.8955C70.8955 14.5893 70.8102 15.032 70.6395 15.416C70.4688 15.8 70.2182 16.1253 69.8875 16.392C69.5675 16.648 69.1835 16.8453 68.7355 16.984C68.2875 17.1227 67.7915 17.192 67.2475 17.192ZM65.0555 11.992H69.1835C69.1835 11.576 69.1355 11.2293 69.0395 10.952C68.9542 10.664 68.8262 10.4293 68.6555 10.248C68.4848 10.0667 68.2822 9.93867 68.0475 9.864C67.8128 9.77867 67.5462 9.736 67.2475 9.736C66.7995 9.736 66.4155 9.816 66.0955 9.976C65.7862 10.136 65.5462 10.3867 65.3755 10.728C65.2048 11.0587 65.0982 11.48 65.0555 11.992ZM72.6189 17V8.584H73.9949L74.1389 9.944H74.2349C74.3309 9.67733 74.4535 9.42667 74.6029 9.192C74.7629 8.95733 74.9655 8.76533 75.2109 8.616C75.4669 8.46667 75.7762 8.392 76.1389 8.392C76.3095 8.392 76.4589 8.408 76.5869 8.44C76.7255 8.472 76.8322 8.49867 76.9069 8.52V10.088H76.3469C76.0055 10.088 75.7015 10.1413 75.4349 10.248C75.1789 10.3547 74.9602 10.5147 74.7789 10.728C74.6082 10.9307 74.4802 11.1813 74.3949 11.48C74.3202 11.7787 74.2829 12.1147 74.2829 12.488V17H72.6189Z" fill="#111827"/>
<defs>
<clipPath id="clip0_1899_3237">
<rect width="20" height="20" fill="white" transform="translate(0 2)"/>
</clipPath>
</defs>
</svg>
