<svg width="24" height="24" viewBox="0 0 24 24" fill="none" xmlns="http://www.w3.org/2000/svg">
<g clip-path="url(#clip0_55070_217339)">
<path d="M12 24C18.6274 24 24 18.6274 24 12C24 5.37258 18.6274 0 12 0C5.37258 0 0 5.37258 0 12C0 18.6274 5.37258 24 12 24Z" fill="#F0F0F0"/>
<path d="M12 0C7.24248 0 3.13173 2.76867 1.19073 6.78263H22.8092C20.8683 2.76867 16.7575 0 12 0Z" fill="#338AF3"/>
<path d="M12 24.0014C16.7575 24.0014 20.8683 21.2327 22.8093 17.2188H1.19073C3.13173 21.2327 7.24248 24.0014 12 24.0014Z" fill="#338AF3"/>
<path d="M15.5866 11.9978L14.1211 12.6872L14.9015 14.1065L13.3101 13.8021L13.1084 15.4097L12 14.2273L10.8915 15.4097L10.6899 13.8021L9.09845 14.1065L9.87883 12.6872L8.41333 11.9978L9.87888 11.3084L9.09845 9.88916L10.6898 10.1936L10.8915 8.58594L12 9.76831L13.1085 8.58594L13.3101 10.1936L14.9015 9.88916L14.1211 11.3085L15.5866 11.9978Z" fill="#FFDA44"/>
</g>
<defs>
<clipPath id="clip0_55070_217339">
<rect width="24" height="24" fill="white"/>
</clipPath>
</defs>
</svg>
