<svg width="24" height="24" viewBox="0 0 24 24" fill="none" xmlns="http://www.w3.org/2000/svg">
<g clip-path="url(#clip0_55070_282060)">
<path d="M24 12C24 18.6274 18.6274 24 12 24C5.37262 24 0 18.6274 0 12C0 12.0028 12 0.00135937 12 0C18.6274 0 24 5.37262 24 12Z" fill="#0052B4"/>
<path d="M11.9679 12.0009H12C12 11.99 12 11.9796 12 11.9688C11.9893 11.9795 11.9786 11.9902 11.9679 12.0009Z" fill="#F0F0F0"/>
<path d="M12 6.26086C12 4.14937 12 2.76577 12 0H11.998C5.3715 0.00107813 0 5.37319 0 12H6.26086V8.47439L9.78642 12H11.9679C11.9787 11.9893 11.9894 11.9786 12 11.9678C12 11.1594 12 10.438 12 9.78647L8.47444 6.26086H12Z" fill="#F0F0F0"/>
<path d="M6.071 1.5625C4.19417 2.6312 2.63389 4.19148 1.56519 6.06831V11.9973H4.69564V4.693V4.69295H12C12 3.70563 12 2.76503 12 1.5625H6.071Z" fill="#D80027"/>
<path d="M12 10.5212L7.73654 6.25783H6.26086C6.26086 6.25779 6.26086 6.25783 6.26086 6.25783L11.9999 11.9969H12C12 11.9969 12 10.9795 12 10.5212Z" fill="#D80027"/>
<path d="M7.23729 14.0859L7.89588 15.463L9.38309 15.1193L8.71709 16.4928L9.91305 17.4412L8.42398 17.7769L8.42815 19.3033L7.23729 18.3483L6.04648 19.3033L6.05065 17.7769L4.56152 17.4412L5.75754 16.4928L5.09145 15.1193L6.57874 15.463L7.23729 14.0859Z" fill="#F0F0F0"/>
<path d="M17.9665 16.6953L18.2958 17.3839L19.0394 17.212L18.7063 17.8987L19.3044 18.373L18.5598 18.5408L18.5619 19.304L17.9665 18.8265L17.3711 19.304L17.3731 18.5408L16.6286 18.373L17.2266 17.8987L16.8936 17.212L17.6372 17.3839L17.9665 16.6953Z" fill="#F0F0F0"/>
<path d="M14.9032 9.39062L15.2324 10.0792L15.976 9.90728L15.643 10.594L16.241 11.0683L15.4965 11.2361L15.4985 11.9993L14.9032 11.5218L14.3077 11.9993L14.3098 11.2361L13.5652 11.0683L14.1632 10.594L13.8302 9.90728L14.5739 10.0792L14.9032 9.39062Z" fill="#F0F0F0"/>
<path d="M17.9665 5.21875L18.2958 5.90734L19.0394 5.73545L18.7064 6.42222L19.3043 6.89641L18.5598 7.06427L18.5619 7.82748L17.9665 7.34997L17.3711 7.82748L17.3731 7.06427L16.6286 6.89641L17.2265 6.42222L16.8936 5.73545L17.6372 5.90734L17.9665 5.21875Z" fill="#F0F0F0"/>
<path d="M20.6423 8.35156L20.9715 9.04016L21.7152 8.86822L21.3822 9.55498L21.9801 10.0292L21.2356 10.1971L21.2376 10.9602L20.6423 10.4828L20.0469 10.9602L20.0489 10.1971L19.3044 10.0292L19.9024 9.55498L19.5694 8.86822L20.3129 9.04016L20.6423 8.35156Z" fill="#F0F0F0"/>
<path d="M18.7289 12L18.9879 12.7972H19.8261L19.148 13.2899L19.4071 14.087L18.7289 13.5943L18.0508 14.087L18.3098 13.2899L17.6317 12.7972H18.4699L18.7289 12Z" fill="#F0F0F0"/>
</g>
<defs>
<clipPath id="clip0_55070_282060">
<rect width="24" height="24" fill="white"/>
</clipPath>
</defs>
</svg>
