<svg width="24" height="24" viewBox="0 0 24 24" fill="none" xmlns="http://www.w3.org/2000/svg">
<g clip-path="url(#clip0_55070_346000)">
<path d="M12 24C18.6274 24 24 18.6274 24 12C24 5.37258 18.6274 0 12 0C5.37258 0 0 5.37258 0 12C0 18.6274 5.37258 24 12 24Z" fill="#F0F0F0"/>
<path d="M24 11.9968C24 7.23925 21.2313 3.1285 17.2173 1.1875V22.806C21.2313 20.8651 24 16.7543 24 11.9968Z" fill="#D80027"/>
<path d="M0 11.9968C0 16.7543 2.76867 20.8651 6.78263 22.8061V1.1875C2.76867 3.1285 0 7.23925 0 11.9968Z" fill="#D80027"/>
<path d="M14.087 13.5611L16.1739 12.5176L15.1305 11.9959V10.9524L13.0435 11.9959L14.087 9.90895H13.0435L12 8.34375L10.9565 9.90895H9.91303L10.9565 11.9959L8.86955 10.9524V11.9959L7.82611 12.5176L9.91303 13.5611L9.39131 14.6046H11.4783V16.1698H12.5217V14.6046H14.6087L14.087 13.5611Z" fill="#D80027"/>
</g>
<defs>
<clipPath id="clip0_55070_346000">
<rect width="24" height="24" fill="white"/>
</clipPath>
</defs>
</svg>
