<svg width="24" height="24" viewBox="0 0 24 24" fill="none" xmlns="http://www.w3.org/2000/svg">
<g clip-path="url(#clip0_55070_168226)">
<path d="M0.746399 16.1763C2.44191 20.7458 6.84043 24.0024 12 24.0024C17.1596 24.0024 21.5581 20.7458 23.2536 16.1763L12 15.1328L0.746399 16.1763Z" fill="#FFDA44"/>
<path d="M12 0C6.84043 0 2.44191 3.2565 0.746399 7.82611L12 8.86955L23.2536 7.82606C21.5581 3.2565 17.1596 0 12 0Z" fill="black"/>
<path d="M0.746391 7.82812C0.264047 9.12811 0 10.5342 0 12.002C0 13.4699 0.264047 14.8759 0.746391 16.1759H23.2537C23.736 14.8759 24 13.4699 24 12.002C24 10.5342 23.736 9.12811 23.2536 7.82812H0.746391Z" fill="#D80027"/>
</g>
<defs>
<clipPath id="clip0_55070_168226">
<rect width="24" height="24" fill="white"/>
</clipPath>
</defs>
</svg>
