<svg width="24" height="24" viewBox="0 0 24 24" fill="none" xmlns="http://www.w3.org/2000/svg">
<g clip-path="url(#clip0_55070_186113)">
<path d="M12 24C18.6274 24 24 18.6274 24 12C24 5.37258 18.6274 0 12 0C5.37258 0 0 5.37258 0 12C0 18.6274 5.37258 24 12 24Z" fill="#F0F0F0"/>
<path d="M24 12.0036C24 6.84403 20.7435 2.44552 16.1739 0.75V23.2573C20.7435 21.5617 24 17.1632 24 12.0036Z" fill="#D80027"/>
<path d="M0 12.0036C0 17.1632 3.25655 21.5617 7.82611 23.2572V0.75C3.25655 2.44552 0 6.84403 0 12.0036Z" fill="#0052B4"/>
</g>
<defs>
<clipPath id="clip0_55070_186113">
<rect width="24" height="24" fill="white"/>
</clipPath>
</defs>
</svg>
