<svg width="24" height="24" viewBox="0 0 24 24" fill="none" xmlns="http://www.w3.org/2000/svg">
<g clip-path="url(#clip0_55070_62231)">
<path d="M12 24C18.6274 24 24 18.6274 24 12C24 5.37258 18.6274 0 12 0C5.37258 0 0 5.37258 0 12C0 18.6274 5.37258 24 12 24Z" fill="#F0F0F0"/>
<path d="M12 0C7.24248 0 3.13173 2.76867 1.19073 6.78263H22.8092C20.8683 2.76867 16.7575 0 12 0Z" fill="#FF9811"/>
<path d="M12 24.0014C16.7575 24.0014 20.8683 21.2327 22.8093 17.2188H1.19073C3.13173 21.2327 7.24248 24.0014 12 24.0014Z" fill="#6DA544"/>
<path d="M12 16.1759C14.3052 16.1759 16.1739 14.3072 16.1739 12.002C16.1739 9.69684 14.3052 7.82812 12 7.82812C9.69483 7.82812 7.82611 9.69684 7.82611 12.002C7.82611 14.3072 9.69483 16.1759 12 16.1759Z" fill="#0052B4"/>
<path d="M12 14.608C13.4407 14.608 14.6087 13.4401 14.6087 11.9993C14.6087 10.5586 13.4407 9.39062 12 9.39062C10.5592 9.39062 9.3913 10.5586 9.3913 11.9993C9.3913 13.4401 10.5592 14.608 12 14.608Z" fill="#F0F0F0"/>
<path d="M12 8.78125L12.8048 10.6065L14.7878 10.3908L13.6096 12.0003L14.7878 13.6099L12.8048 13.3942L12 15.2194L11.1952 13.3942L9.21222 13.6098L10.3905 12.0003L9.21222 10.3908L11.1952 10.6065L12 8.78125Z" fill="#0052B4"/>
</g>
<defs>
<clipPath id="clip0_55070_62231">
<rect width="24" height="24" fill="white"/>
</clipPath>
</defs>
</svg>
