<svg width="24" height="24" viewBox="0 0 24 24" fill="none" xmlns="http://www.w3.org/2000/svg">
<g clip-path="url(#clip0_55070_22909)">
<path d="M24 12C24 18.6274 18.6274 24 12 24C5.37262 24 0 18.6274 0 12C0 12.0029 12 0.0013125 12 0C18.6274 0 24 5.37262 24 12Z" fill="#0052B4"/>
<path d="M11.9679 12.0009H12C12 11.9901 12 11.9796 12 11.9688C11.9893 11.9795 11.9786 11.9902 11.9679 12.0009Z" fill="#F0F0F0"/>
<path d="M12 6.26086C12 4.14937 12 2.76586 12 0H11.998C5.3715 0.001125 0 5.37323 0 12H6.26086V8.47448L9.78642 12H11.9679C11.9786 11.9893 11.9894 11.9786 12 11.9679C12 11.1594 12 10.4381 12 9.78647L8.47444 6.26086H12Z" fill="#F0F0F0"/>
<path d="M6.071 1.5625C4.19417 2.6312 2.63389 4.19148 1.56519 6.06831V11.9973H4.69564V4.69305V4.69295H12C12 3.70563 12 2.76503 12 1.5625H6.071Z" fill="#D80027"/>
<path d="M12 10.5212L7.73654 6.25781C7.73654 6.25781 6.26086 6.25791 6.26086 6.25781V6.25791L11.9999 11.9969H12C12 11.9969 12 10.9794 12 10.5212Z" fill="#D80027"/>
<path d="M20.7811 8.89844L21.0401 9.69559H21.8782L21.2002 10.1883L21.4592 10.9854L20.7811 10.4927L20.1029 10.9854L20.362 10.1883L19.6838 9.69559H20.522L20.7811 8.89844Z" fill="#D80027"/>
<path d="M17.7849 14.6406L18.1734 15.8364H19.4307L18.4135 16.5753L18.8021 17.7711L17.7849 17.0321L16.7677 17.7711L17.1563 16.5753L16.1391 15.8364H17.3963L17.7849 14.6406Z" fill="#D80027"/>
<path d="M17.898 5.25L18.2218 6.24652H19.2696L18.4219 6.86222L18.7457 7.85869L17.898 7.2428L17.0504 7.85869L17.3742 6.86222L16.5266 6.24652H17.5743L17.898 5.25Z" fill="#D80027"/>
<path d="M15.0151 8.86719L15.4036 10.063H16.6609L15.6437 10.8019L16.0323 11.9976L15.0151 11.2587L13.9979 11.9976L14.3865 10.8019L13.3693 10.063H14.6266L15.0151 8.86719Z" fill="#D80027"/>
</g>
<defs>
<clipPath id="clip0_55070_22909">
<rect width="24" height="24" fill="white"/>
</clipPath>
</defs>
</svg>
