<svg width="24" height="24" viewBox="0 0 24 24" fill="none" xmlns="http://www.w3.org/2000/svg">
<g clip-path="url(#clip0_55070_174897)">
<path d="M12 24C18.6274 24 24 18.6274 24 12C24 5.37258 18.6274 0 12 0C5.37258 0 0 5.37258 0 12C0 18.6274 5.37258 24 12 24Z" fill="#F0F0F0"/>
<path d="M2.48063 4.69531C1.53802 5.9217 0.827251 7.33522 0.413391 8.8708H6.65611L2.48063 4.69531Z" fill="#0052B4"/>
<path d="M23.5866 8.87075C23.1728 7.33522 22.4619 5.9217 21.5194 4.69531L17.344 8.87075H23.5866Z" fill="#0052B4"/>
<path d="M0.413391 15.1328C0.827297 16.6683 1.53806 18.0819 2.48063 19.3082L6.65597 15.1328H0.413391Z" fill="#0052B4"/>
<path d="M19.3059 2.48134C18.0795 1.53873 16.666 0.827969 15.1304 0.414062V6.65673L19.3059 2.48134Z" fill="#0052B4"/>
<path d="M4.69415 21.5191C5.92054 22.4617 7.33406 23.1725 8.86959 23.5864V17.3438L4.69415 21.5191Z" fill="#0052B4"/>
<path d="M8.86954 0.414062C7.33401 0.827969 5.9205 1.53873 4.69415 2.4813L8.86954 6.65669V0.414062Z" fill="#0052B4"/>
<path d="M15.1304 23.5864C16.666 23.1725 18.0795 22.4617 19.3058 21.5191L15.1304 17.3438V23.5864Z" fill="#0052B4"/>
<path d="M17.344 15.1328L21.5194 19.3082C22.4619 18.0819 23.1728 16.6683 23.5866 15.1328H17.344Z" fill="#0052B4"/>
<path d="M23.8984 10.4348H13.5653H13.5653V0.101578C13.0529 0.034875 12.5305 0 12 0C11.4694 0 10.9471 0.034875 10.4348 0.101578V10.4347V10.4347H0.101578C0.034875 10.9471 0 11.4695 0 12C0 12.5306 0.034875 13.0529 0.101578 13.5652H10.4347H10.4347V23.8984C10.9471 23.9651 11.4694 24 12 24C12.5305 24 13.0529 23.9652 13.5652 23.8984V13.5653V13.5653H23.8984C23.9651 13.0529 24 12.5306 24 12C24 11.4695 23.9651 10.9471 23.8984 10.4348Z" fill="#D80027"/>
<path d="M15.1304 15.1329L20.4852 20.4877C20.7315 20.2415 20.9665 19.9841 21.1906 19.7173L16.6062 15.1328H15.1304V15.1329Z" fill="#D80027"/>
<path d="M8.86957 15.1328H8.86948L3.51471 20.4876C3.7609 20.7339 4.01829 20.9688 4.2851 21.193L8.86957 16.6084V15.1328Z" fill="#D80027"/>
<path d="M8.86957 8.87058V8.87048L3.51476 3.51562C3.26848 3.76181 3.03354 4.0192 2.80939 4.28602L7.3939 8.87053H8.86957V8.87058Z" fill="#D80027"/>
<path d="M15.1304 8.87273L20.4853 3.51783C20.2391 3.27155 19.9817 3.03661 19.7149 2.8125L15.1304 7.39702V8.87273Z" fill="#D80027"/>
</g>
<defs>
<clipPath id="clip0_55070_174897">
<rect width="24" height="24" fill="white"/>
</clipPath>
</defs>
</svg>
